<svg id="Ebene_1" data-name="Ebene 1" xmlns="http://www.w3.org/2000/svg" xmlns:xlink="http://www.w3.org/1999/xlink" viewBox="0 0 158.74 246.62"><defs><style>.cls-1,.cls-10,.cls-8,.cls-9{stroke:#000;stroke-miterlimit:10;}.cls-1{fill:url(#Unbenannter_Verlauf_41);}.cls-2{fill:#e8de2d;}.cls-3{fill:#cc051d;}.cls-4{fill:#19bab6;}.cls-5{fill:#0071bc;}.cls-6{fill:#ccc;}.cls-7{fill:#d8c623;}.cls-8{fill:#fcee21;}.cls-10,.cls-8,.cls-9{stroke-width:0.3px;}.cls-9{fill:#c1272d;}.cls-10{fill:#004bda;}</style><linearGradient id="Unbenannter_Verlauf_41" x1="961.79" y1="651.7" x2="961.79" y2="432.7" gradientTransform="translate(-3.79 165.49) scale(1 0.69)" gradientUnits="userSpaceOnUse"><stop offset="0" stop-color="#c1272d"/><stop offset="0" stop-color="#c22a2d"/><stop offset="0" stop-color="#ce532a"/><stop offset="0.01" stop-color="#d97728"/><stop offset="0.01" stop-color="#e29726"/><stop offset="0.01" stop-color="#eab325"/><stop offset="0.02" stop-color="#f1c923"/><stop offset="0.03" stop-color="#f6da22"/><stop offset="0.03" stop-color="#f9e522"/><stop offset="0.04" stop-color="#fbec21"/><stop offset="0.07" stop-color="#fcee21"/><stop offset="0.07" stop-color="#fbeb21"/><stop offset="0.07" stop-color="#efc224"/><stop offset="0.08" stop-color="#e49e26"/><stop offset="0.08" stop-color="#db7e28"/><stop offset="0.08" stop-color="#d36229"/><stop offset="0.09" stop-color="#cc4c2b"/><stop offset="0.09" stop-color="#c73b2c"/><stop offset="0.1" stop-color="#c4302c"/><stop offset="0.11" stop-color="#c2292d"/><stop offset="0.14" stop-color="#c1272d"/><stop offset="0.14" stop-color="#c22a2d"/><stop offset="0.14" stop-color="#ce532a"/><stop offset="0.14" stop-color="#d97728"/><stop offset="0.15" stop-color="#e29726"/><stop offset="0.15" stop-color="#eab325"/><stop offset="0.16" stop-color="#f1c923"/><stop offset="0.16" stop-color="#f6da22"/><stop offset="0.17" stop-color="#f9e522"/><stop offset="0.18" stop-color="#fbec21"/><stop offset="0.21" stop-color="#fcee21"/><stop offset="0.21" stop-color="#fbeb21"/><stop offset="0.21" stop-color="#efc224"/><stop offset="0.21" stop-color="#e49e26"/><stop offset="0.22" stop-color="#db7e28"/><stop offset="0.22" stop-color="#d36229"/><stop offset="0.23" stop-color="#cc4c2b"/><stop offset="0.23" stop-color="#c73b2c"/><stop offset="0.24" stop-color="#c4302c"/><stop offset="0.25" stop-color="#c2292d"/><stop offset="0.29" stop-color="#c1272d"/><stop offset="0.29" stop-color="#c22a2d"/><stop offset="0.29" stop-color="#ce532a"/><stop offset="0.29" stop-color="#d97728"/><stop offset="0.3" stop-color="#e29726"/><stop offset="0.3" stop-color="#eab325"/><stop offset="0.31" stop-color="#f1c923"/><stop offset="0.32" stop-color="#f6da22"/><stop offset="0.33" stop-color="#f9e522"/><stop offset="0.34" stop-color="#fbec21"/><stop offset="0.38" stop-color="#fcee21"/><stop offset="0.38" stop-color="#fbeb21"/><stop offset="0.38" stop-color="#efc224"/><stop offset="0.39" stop-color="#e49e26"/><stop offset="0.4" stop-color="#db7e28"/><stop offset="0.4" stop-color="#d36229"/><stop offset="0.41" stop-color="#cc4c2b"/><stop offset="0.42" stop-color="#c73b2c"/><stop offset="0.43" stop-color="#c4302c"/><stop offset="0.45" stop-color="#c2292d"/><stop offset="0.5" stop-color="#c1272d"/><stop offset="0.5" stop-color="#c22a2d"/><stop offset="0.5" stop-color="#ce532a"/><stop offset="0.51" stop-color="#d97728"/><stop offset="0.51" stop-color="#e29726"/><stop offset="0.52" stop-color="#eab325"/><stop offset="0.53" stop-color="#f1c923"/><stop offset="0.53" stop-color="#f6da22"/><stop offset="0.54" stop-color="#f9e522"/><stop offset="0.56" stop-color="#fbec21"/><stop offset="0.59" stop-color="#fcee21"/><stop offset="0.59" stop-color="#fbeb21"/><stop offset="0.6" stop-color="#efc224"/><stop offset="0.6" stop-color="#e49e26"/><stop offset="0.61" stop-color="#db7e28"/><stop offset="0.61" stop-color="#d36229"/><stop offset="0.62" stop-color="#cc4c2b"/><stop offset="0.62" stop-color="#c73b2c"/><stop offset="0.63" stop-color="#c4302c"/><stop offset="0.64" stop-color="#c2292d"/><stop offset="0.68" stop-color="#c1272d"/><stop offset="0.68" stop-color="#c22a2d"/><stop offset="0.68" stop-color="#ce532a"/><stop offset="0.68" stop-color="#d97728"/><stop offset="0.69" stop-color="#e29726"/><stop offset="0.69" stop-color="#eab325"/><stop offset="0.7" stop-color="#f1c923"/><stop offset="0.71" stop-color="#f6da22"/><stop offset="0.72" stop-color="#f9e522"/><stop offset="0.73" stop-color="#fbec21"/><stop offset="0.76" stop-color="#fcee21"/><stop offset="0.76" stop-color="#fbeb21"/><stop offset="0.76" stop-color="#efc224"/><stop offset="0.77" stop-color="#e49e26"/><stop offset="0.77" stop-color="#db7e28"/><stop offset="0.78" stop-color="#d36229"/><stop offset="0.78" stop-color="#cc4c2b"/><stop offset="0.79" stop-color="#c73b2c"/><stop offset="0.8" stop-color="#c4302c"/><stop offset="0.81" stop-color="#c2292d"/><stop offset="0.84" stop-color="#c1272d"/><stop offset="0.84" stop-color="#c22a2d"/><stop offset="0.84" stop-color="#ce532a"/><stop offset="0.85" stop-color="#d97728"/><stop offset="0.85" stop-color="#e29726"/><stop offset="0.86" stop-color="#eab325"/><stop offset="0.86" stop-color="#f1c923"/><stop offset="0.87" stop-color="#f6da22"/><stop offset="0.87" stop-color="#f9e522"/><stop offset="0.88" stop-color="#fbec21"/><stop offset="0.91" stop-color="#fcee21"/><stop offset="0.91" stop-color="#fbeb21"/><stop offset="0.91" stop-color="#efc224"/><stop offset="0.92" stop-color="#e49e26"/><stop offset="0.92" stop-color="#db7e28"/><stop offset="0.93" stop-color="#d36229"/><stop offset="0.94" stop-color="#cc4c2b"/><stop offset="0.94" stop-color="#c73b2c"/><stop offset="0.95" stop-color="#c4302c"/><stop offset="0.96" stop-color="#c2292d"/><stop offset="1" stop-color="#c1272d"/></linearGradient></defs><title>10</title><path d="M1023,418.19a13.35,13.35,0,0,1,13.34,13.34V649.47A13.35,13.35,0,0,1,1023,662.81H893a13.35,13.35,0,0,1-13.34-13.34V431.53A13.35,13.35,0,0,1,893,418.19H1023m0-1H893a14.34,14.34,0,0,0-14.34,14.34V649.47A14.34,14.34,0,0,0,893,663.81H1023a14.34,14.34,0,0,0,14.34-14.34V431.53A14.34,14.34,0,0,0,1023,417.19Z" transform="translate(-878.63 -417.19)"/><path d="M885.68,440.94v-.67c2.67-.17,2.81-.29,2.81-2.09V429c0-1.23-.17-1.28-1.22-1.37l-1.18-.12v-.6a19.86,19.86,0,0,0,4.39-1.18v12.48c0,1.83.15,1.92,2.84,2.09v.67Z" transform="translate(-878.63 -417.19)"/><path d="M901,425.7c3.6,0,4.94,4,4.94,7.75,0,3.51-1.34,7.78-4.94,7.78s-5-4-5-7.75C896,430,897.35,425.7,901,425.7Zm0,.84c-2.24,0-2.79,3.53-2.79,6.89s.67,7,2.79,7,2.73-3.58,2.73-6.94S903.13,426.54,901,426.54Z" transform="translate(-878.63 -417.19)"/><path d="M1009.18,440.94v-.67c2.67-.17,2.81-.29,2.81-2.09V429c0-1.23-.17-1.28-1.22-1.37l-1.18-.12v-.6a19.86,19.86,0,0,0,4.39-1.18v12.48c0,1.83.15,1.92,2.84,2.09v.67Z" transform="translate(-878.63 -417.19)"/><path d="M1024.5,425.7c3.6,0,4.94,4,4.94,7.75,0,3.51-1.34,7.78-4.94,7.78s-5-4-5-7.75C1019.48,430,1020.85,425.7,1024.5,425.7Zm0,.84c-2.24,0-2.79,3.53-2.79,6.89s.67,7,2.79,7,2.73-3.58,2.73-6.94S1026.63,426.54,1024.5,426.54Z" transform="translate(-878.63 -417.19)"/><path d="M906.82,637.74v.68c-2.67.16-2.81.28-2.81,2.08v9.22c0,1.23.17,1.27,1.22,1.37l1.18.12v.6A19.33,19.33,0,0,0,902,653V640.5c0-1.82-.15-1.92-2.84-2.08v-.68Z" transform="translate(-878.63 -417.19)"/><path d="M891.5,653c-3.6,0-4.94-4-4.94-7.76,0-3.5,1.34-7.77,4.94-7.77s5,4,5,7.75C896.52,648.71,895.15,653,891.5,653Zm0-.84c2.24,0,2.79-3.53,2.79-6.89s-.67-7-2.79-7-2.73,3.57-2.73,6.93S889.37,652.15,891.5,652.15Z" transform="translate(-878.63 -417.19)"/><path d="M1030.82,637.74v.68c-2.67.16-2.81.28-2.81,2.08v9.22c0,1.23.17,1.27,1.22,1.37l1.18.12v.6A19.33,19.33,0,0,0,1026,653V640.5c0-1.82-.15-1.92-2.84-2.08v-.68Z" transform="translate(-878.63 -417.19)"/><path d="M1015.5,653c-3.6,0-4.94-4-4.94-7.76,0-3.5,1.34-7.77,4.94-7.77s5,4,5,7.75C1020.52,648.71,1019.15,653,1015.5,653Zm0-.84c2.24,0,2.79-3.53,2.79-6.89s-.67-7-2.79-7-2.73,3.57-2.73,6.93S1013.37,652.15,1015.5,652.15Z" transform="translate(-878.63 -417.19)"/><rect class="cls-1" x="955.5" y="464.77" width="5" height="151.47" transform="translate(-431.31 -850.91) rotate(32.91)"/><polygon class="cls-2" points="122.85 55.11 132.9 38.56 124.61 45.21 122.85 55.11"/><polygon points="122.89 55.17 132.9 38.56 131.15 48.41 122.89 55.17"/><circle class="cls-3" cx="122.37" cy="56.81" r="3"/><path class="cls-4" d="M1003.08,478.86c-.21.37-.86.44-1.73.25A14,14,0,0,0,998,477a19.41,19.41,0,0,1-2-1c-.66-.7-.69-1.11-.46-1.5.41-.72,2.44-.32,4.52.88S1003.5,478.14,1003.08,478.86Z" transform="translate(-878.63 -417.19)"/><polygon class="cls-2" points="35.76 190.46 24.39 206.14 33.2 200.19 35.76 190.46"/><polygon points="35.72 190.4 24.39 206.14 26.94 196.47 35.72 190.4"/><circle class="cls-3" cx="36.37" cy="188.81" r="3"/><path class="cls-4" d="M913.32,601c.24-.35.9-.37,1.75-.11a14,14,0,0,0,3.16,2.37,20.48,20.48,0,0,1,1.92,1.16c.6.75.59,1.17.33,1.54-.46.68-2.46.12-4.43-1.25S912.85,601.67,913.32,601Z" transform="translate(-878.63 -417.19)"/><path class="cls-5" d="M994,479s-10.5-14.5-25.5-22.5S926,447,917,458c-2.54,3.1-5.48,1.55-7,5-3.86,8.77-10,25,1,36,7.28,7.28,21,17,20,31-.9,12.56-7,18-7,18s13.37,2.63,22-6c4-4,16-20,7-30-.59-.65,7.3-2.56,8-3C983,495,994,479,994,479Z" transform="translate(-878.63 -417.19)"/><path class="cls-3" d="M962,529c-9-6-14-19-4-35,20.67-33.07,18.5,12.5,18.5,12.5Z" transform="translate(-878.63 -417.19)"/><path class="cls-6" d="M955,498c3.39,2.55-2-2,0,0s17,16,17,16l25-39-1,2c-10-9-7.87-5.11-14-12-8-9-19-20-27-25-11.53-7.21-29-6-42,4-9.8,7.54-12,23-8,42,0,0-2-9,6-14,0,0,4.45-2.83,12,0C931,475,943,489,955,498Z" transform="translate(-878.63 -417.19)"/><path class="cls-3" d="M926,515c18,18-1,33-1,33s-5.21-1.09-12,4c-4,3-5,13-5,17-.16-.36-9-8-9-17,0-7,6-12,12-16,5.58-3.72,9-7,12-12C928.25,515.26,926,515,926,515Z" transform="translate(-878.63 -417.19)"/><circle class="cls-3" cx="29.37" cy="152.81" r="1"/><path class="cls-7" d="M913,585H903c.38-4.83,3.18-13.08,5-15C909.82,571.92,912.62,580.17,913,585Z" transform="translate(-878.63 -417.19)"/><path class="cls-5" d="M923,600s10.5,14.5,25.5,22.5S991,632,1000,621c2.54-3.1,5.48-1.55,7-5,3.86-8.77,10-25-1-36-7.28-7.28-21-17-20-31,.9-12.56,7-18,7-18s-13.37-2.63-22,6c-4,4-16,20-7,30,.59.65-7.3,2.56-8,3C934,584,923,600,923,600Z" transform="translate(-878.63 -417.19)"/><path class="cls-3" d="M955,550c9,6,14,19,4,35-20.67,33.07-18.5-12.5-18.5-12.5Z" transform="translate(-878.63 -417.19)"/><path class="cls-6" d="M962,581c-3.39-2.55,2,2,0,0s-17-16-17-16l-25,39,1-2c10,9,7.87,5.11,14,12,8,9,19,20,27,25,11.53,7.21,29,6,42-4,9.8-7.54,12-23,8-42,0,0,2,9-6,14,0,0-4.45,2.83-12,0C986,604,974,590,962,581Z" transform="translate(-878.63 -417.19)"/><path class="cls-3" d="M991,564c-18-18,1-33,1-33s5.21,1.09,12-4c4-3,5-13,5-17,.16.36,9,8,9,17,0,7-6,12-12,16-5.58,3.72-9,7-12,12C988.75,563.74,991,564,991,564Z" transform="translate(-878.63 -417.19)"/><circle class="cls-3" cx="130.37" cy="91.81" r="1"/><path class="cls-7" d="M1004,494h10c-.38,4.83-3.18,13.08-5,15C1007.18,507.08,1004.38,498.83,1004,494Z" transform="translate(-878.63 -417.19)"/><path class="cls-8" d="M976.4,465l-14.22,18.41v0h-.29l-4.11.07h-.2l-3.13.06h-.16l-2.35,0h-.26l-1.28,0-1.23,0-4.07.07h-.42v0l-.09-.38-1-4.06-.25-1-.32-1.42,0-.15-.55-2.37,0-.07-.74-3.16,0-.09-.91-3.91,0-.1-.06-.27v0h0c1.47-1.79,14.33-18.33,14.33-18.33Z" transform="translate(-878.63 -417.19)"/><polygon class="cls-8" points="83.56 66.19 83.55 66.2 83.55 66.18 83.56 66.19"/><polygon class="cls-9" points="63.15 53.81 66.61 53.42 67.11 53.36 71.87 52.83 72.17 52.8 73.73 52.62 73.88 52.6 76.71 52.28 76.94 52.26 77.04 52.25 77.1 52.24 81.55 51.74 78.83 55.32 77.54 55.46 77.4 55.48 74.32 55.82 74.28 55.83 74.18 55.84 73.99 55.86 70.78 56.22 70.32 56.27 69.41 56.38 69.15 56.4 63.93 56.99 63.91 56.92 63.15 53.81"/><polygon class="cls-9" points="76.13 38.05 90.95 49.59 87.47 54.1 72.65 42.56 76.13 38.05"/><polygon class="cls-10" points="73.65 50.88 76.42 47.28 77.09 52.18 77.1 52.24 77.12 52.42 77.54 55.46 77.56 55.64 77.76 57.09 78.45 62.2 78.51 62.66 79 66.22 75.9 66.24 75.73 66.24 74.98 60.69 74.86 59.81 74.8 59.35 74.34 55.98 74.32 55.82 74.31 55.79 73.9 52.76 73.88 52.6 73.65 50.88"/><polygon class="cls-10" points="65.07 61.99 84.17 37.24 86.95 39.41 66.19 66.32 66.09 65.95 65.07 61.99"/><polygon class="cls-9" points="66.19 66.32 86.95 39.41 89.73 41.57 70.6 66.36 66.6 66.35 66.19 66.35 66.19 66.32"/><path class="cls-8" d="M943.66,616.43l12.91-19.35v0l.25,0h0l4.1-.36.2,0,3.12-.27.15,0,2.34-.21.26,0,1.28-.12,1.23-.11,4.05-.35.42,0v0l.12.37,1.23,4,.31,1,.42,1.39,0,.15.71,2.33,0,.06,1,3.1,0,.1,1.18,3.83,0,.1.08.27v0h0c-1.34,1.88-13,19.28-13,19.28Z" transform="translate(-878.63 -417.19)"/><polygon class="cls-8" points="77.93 179.88 77.95 179.87 77.94 179.89 77.93 179.88"/><polygon class="cls-9" points="99.16 190.81 95.72 191.44 95.24 191.53 90.52 192.39 90.22 192.45 88.68 192.73 88.53 192.76 85.73 193.27 85.5 193.31 85.41 193.33 85.35 193.34 80.94 194.15 83.41 190.39 84.69 190.16 84.82 190.13 87.87 189.57 87.91 189.57 88.01 189.55 88.2 189.51 91.38 188.93 91.83 188.85 92.73 188.68 92.98 188.64 98.15 187.69 98.17 187.76 99.16 190.81"/><polygon class="cls-9" points="87.3 207.43 71.72 196.94 74.87 192.21 90.45 202.69 87.3 207.43"/><polygon class="cls-10" points="88.89 194.46 86.36 198.24 85.36 193.4 85.35 193.34 85.31 193.16 84.69 190.16 84.65 189.99 84.36 188.55 83.31 183.5 83.21 183.04 82.48 179.53 85.57 179.29 85.74 179.28 86.88 184.77 87.06 185.63 87.15 186.09 87.84 189.42 87.87 189.57 87.88 189.61 88.5 192.6 88.53 192.76 88.89 194.46"/><polygon class="cls-10" points="96.67 182.78 79.33 208.8 76.41 206.83 95.26 178.54 95.38 178.9 96.67 182.78"/><polygon class="cls-9" points="95.26 178.54 76.41 206.83 73.49 204.86 90.85 178.8 94.84 178.54 95.25 178.51 95.26 178.54"/></svg>