<svg id="Ebene_1" data-name="Ebene 1" xmlns="http://www.w3.org/2000/svg" viewBox="0 0 158.74 246.62"><defs><style>.cls-1{stroke:#000;stroke-miterlimit:10;}.cls-2{fill:#fff;}.cls-3{fill:#666;}</style></defs><title>6</title><path class="cls-1" d="M985,630.52H1023c-.12,0-.25-39.52-.25-39.52H985Z" transform="translate(-884.63 -429.19)"/><polygon points="138.81 201.33 99.93 201.33 100.24 201.6 111.36 211.57 113.07 213.11 118.97 218.4 119.43 218.81 119.89 218.4 125.67 213.19 127.46 211.57 138.32 201.77 138.81 201.33"/><rect class="cls-2" x="100.71" y="178.4" width="36.85" height="16.42"/><rect class="cls-2" x="100.95" y="162.15" width="36.85" height="16.42"/><polygon class="cls-2" points="137.85 201.76 137.85 194.91 100.71 194.91 100.71 201.59 111.55 211.33 113.23 212.84 118.98 218 119.88 218 125.51 212.91 127.26 211.33 137.85 201.76"/><rect x="100.71" y="178.4" width="12.28" height="16.42"/><rect x="112.99" y="162.15" width="12.28" height="16.44"/><polygon points="125.51 212.91 125.51 194.91 113.23 194.91 113.23 212.84 118.98 218 119.43 218.41 119.88 218 125.51 212.91"/><rect x="125.27" y="178.4" width="12.28" height="16.42"/><path class="cls-1" d="M905,630.52H943c-.12,0-.25-39.52-.25-39.52H905Z" transform="translate(-884.63 -429.19)"/><polygon points="58.81 201.33 19.93 201.33 20.24 201.6 31.36 211.57 33.07 213.11 38.97 218.4 39.43 218.81 39.89 218.4 45.67 213.19 47.46 211.57 58.32 201.77 58.81 201.33"/><rect x="20.71" y="178.4" width="36.85" height="16.42"/><rect x="20.95" y="162.15" width="36.85" height="16.42"/><polygon points="57.85 201.76 57.85 194.91 20.71 194.91 20.71 201.59 31.55 211.33 33.23 212.84 38.98 218 39.88 218 45.51 212.91 47.26 211.33 57.85 201.76"/><rect class="cls-2" x="20.71" y="178.4" width="12.28" height="16.42"/><rect class="cls-2" x="32.99" y="162.15" width="12.28" height="16.44"/><polygon class="cls-2" points="45.51 212.91 45.51 194.91 33.23 194.91 33.23 212.84 38.98 218 39.43 218.41 39.88 218 45.51 212.91"/><rect class="cls-2" x="45.27" y="178.4" width="12.28" height="16.42"/><path class="cls-1" d="M905,472.48H943c-.12,0-.25,39.52-.25,39.52H905Z" transform="translate(-884.63 -429.19)"/><polygon points="58.81 43.29 19.93 43.29 20.24 43.02 31.36 33.05 33.07 31.51 38.97 26.22 39.43 25.81 39.89 26.22 45.67 31.43 47.46 33.05 58.32 42.85 58.81 43.29"/><rect class="cls-2" x="20.71" y="49.8" width="36.85" height="16.42"/><rect class="cls-2" x="20.95" y="66.05" width="36.85" height="16.42"/><polygon class="cls-2" points="57.85 42.86 57.85 49.71 20.71 49.71 20.71 43.03 31.55 33.29 33.23 31.78 38.98 26.62 39.88 26.62 45.51 31.71 47.26 33.29 57.85 42.86"/><rect x="20.71" y="49.8" width="12.28" height="16.42"/><rect x="32.99" y="66.03" width="12.28" height="16.44"/><polygon points="45.51 31.71 45.51 49.71 33.23 49.71 33.23 31.78 38.98 26.62 39.43 26.21 39.88 26.62 45.51 31.71"/><rect x="45.27" y="49.8" width="12.28" height="16.42"/><path class="cls-1" d="M985,472.48H1023c-.12,0-.25,39.52-.25,39.52H985Z" transform="translate(-884.63 -429.19)"/><polygon points="138.81 43.29 99.93 43.29 100.24 43.02 111.36 33.05 113.07 31.51 118.97 26.22 119.43 25.81 119.89 26.22 125.67 31.43 127.46 33.05 138.32 42.85 138.81 43.29"/><rect x="100.71" y="49.8" width="36.85" height="16.42"/><rect x="100.95" y="66.05" width="36.85" height="16.42"/><polygon points="137.85 42.86 137.85 49.71 100.71 49.71 100.71 43.03 111.55 33.29 113.23 31.78 118.98 26.62 119.88 26.62 125.51 31.71 127.26 33.29 137.85 42.86"/><rect class="cls-2" x="100.71" y="49.8" width="12.28" height="16.42"/><rect class="cls-2" x="112.99" y="66.03" width="12.28" height="16.44"/><polygon class="cls-2" points="125.51 31.71 125.51 49.71 113.23 49.71 113.23 31.78 118.98 26.62 119.43 26.21 119.88 26.62 125.51 31.71"/><rect class="cls-2" x="125.27" y="49.8" width="12.28" height="16.42"/><path class="cls-3" d="M943.65,537.93c-.12,0-.3,39.33-.3,39.33l-38,0,0-39.33Z" transform="translate(-884.63 -429.19)"/><polygon class="cls-3" points="59.04 108.74 20.72 108.69 21.02 108.41 32 98.37 32.29 98.1 33.69 96.81 39.51 91.49 39.97 91.07 40.42 91.49 46.11 96.75 47.69 98.22 47.87 98.39 58.56 108.29 59.04 108.74"/><polygon points="47.69 98.22 47.62 148.05 32.22 148.03 32.29 98.1 33.69 96.81 39.51 91.49 39.97 91.07 40.42 91.49 46.11 96.75 47.69 98.22"/><circle class="cls-2" cx="39.96" cy="110.73" r="3.3"/><circle class="cls-2" cx="39.96" cy="119.53" r="3.3"/><circle class="cls-2" cx="39.96" cy="128.33" r="3.3"/><circle class="cls-2" cx="39.96" cy="137.13" r="3.3"/><circle class="cls-2" cx="39.96" cy="101.93" r="3.3"/><path class="cls-3" d="M1022.65,537.93c-.12,0-.3,39.33-.3,39.33l-38,0,0-39.33Z" transform="translate(-884.63 -429.19)"/><polygon class="cls-3" points="138.04 108.74 99.72 108.69 100.03 108.41 111 98.37 111.29 98.1 112.69 96.81 118.51 91.49 118.97 91.07 119.42 91.49 125.11 96.75 126.69 98.22 126.87 98.39 137.56 108.29 138.04 108.74"/><polygon points="126.69 98.22 126.62 148.05 111.22 148.03 111.29 98.1 112.69 96.81 118.51 91.49 118.97 91.07 119.42 91.49 125.11 96.75 126.69 98.22"/><circle class="cls-2" cx="118.96" cy="110.73" r="3.3"/><circle class="cls-2" cx="118.96" cy="119.53" r="3.3"/><circle class="cls-2" cx="118.96" cy="128.33" r="3.3"/><circle class="cls-2" cx="118.96" cy="137.13" r="3.3"/><circle class="cls-2" cx="118.96" cy="101.93" r="3.3"/><path d="M1029,430.19a13.35,13.35,0,0,1,13.34,13.34V661.47A13.35,13.35,0,0,1,1029,674.81H899a13.35,13.35,0,0,1-13.34-13.34V443.53A13.35,13.35,0,0,1,899,430.19H1029m0-1H899a14.34,14.34,0,0,0-14.34,14.34V661.47A14.34,14.34,0,0,0,899,675.81H1029a14.34,14.34,0,0,0,14.34-14.34V443.53A14.34,14.34,0,0,0,1029,429.19Z" transform="translate(-884.63 -429.19)"/><path d="M894.49,443.89a3.5,3.5,0,0,1,1.54-.4,4.26,4.26,0,0,1,4.29,4.44,5.06,5.06,0,0,1-4.94,5.3c-2.83,0-5-2.33-5-6a9.82,9.82,0,0,1,6.65-9.05,20.44,20.44,0,0,1,2.71-.62l.14.79a15.33,15.33,0,0,0-2.61.86,7.65,7.65,0,0,0-4.4,5.5Zm.58,1a4.69,4.69,0,0,0-2.33.68,7.79,7.79,0,0,0-.14,1.63c0,3,1.12,5.21,3.16,5.21,1.88,0,2.45-2,2.45-3.58C898.21,446.8,897.25,444.85,895.07,444.85Z" transform="translate(-884.63 -429.19)"/><path d="M1025,443.89a3.5,3.5,0,0,1,1.54-.4,4.26,4.26,0,0,1,4.29,4.44,5.06,5.06,0,0,1-4.94,5.3c-2.83,0-5-2.33-5-6a9.82,9.82,0,0,1,6.65-9.05,20.44,20.44,0,0,1,2.71-.62l.14.79a15.33,15.33,0,0,0-2.61.86,7.65,7.65,0,0,0-4.4,5.5Zm.58,1a4.69,4.69,0,0,0-2.33.68,7.79,7.79,0,0,0-.14,1.63c0,3,1.12,5.21,3.16,5.21,1.88,0,2.45-2,2.45-3.58C1028.71,446.8,1027.75,444.85,1025.57,444.85Z" transform="translate(-884.63 -429.19)"/><path d="M897,658.79a3.38,3.38,0,0,1-1.54.41,4.26,4.26,0,0,1-4.29-4.44,5.06,5.06,0,0,1,4.94-5.3c2.83,0,5,2.32,5,6a9.82,9.82,0,0,1-6.65,9,20.44,20.44,0,0,1-2.71.62l-.14-.79a14.28,14.28,0,0,0,2.61-.87,7.61,7.61,0,0,0,4.4-5.49Zm-.58-1a4.8,4.8,0,0,0,2.33-.67,7.79,7.79,0,0,0,.14-1.63c0-3-1.12-5.21-3.16-5.21-1.88,0-2.45,2-2.45,3.58C893.29,655.89,894.25,657.83,896.43,657.83Z" transform="translate(-884.63 -429.19)"/><path d="M1034,658.79a3.38,3.38,0,0,1-1.54.41,4.26,4.26,0,0,1-4.29-4.44,5.06,5.06,0,0,1,4.94-5.3c2.83,0,5,2.32,5,6a9.82,9.82,0,0,1-6.65,9,20.44,20.44,0,0,1-2.71.62l-.14-.79a14.28,14.28,0,0,0,2.61-.87,7.61,7.61,0,0,0,4.4-5.49Zm-.58-1a4.8,4.8,0,0,0,2.33-.67,7.79,7.79,0,0,0,.14-1.63c0-3-1.12-5.21-3.16-5.21-1.88,0-2.45,2-2.45,3.58C1030.29,655.89,1031.25,657.83,1033.43,657.83Z" transform="translate(-884.63 -429.19)"/></svg>