<svg id="Ebene_1" data-name="Ebene 1" xmlns="http://www.w3.org/2000/svg" viewBox="0 0 158.74 246.62"><defs><style>.cls-1{stroke:#000;stroke-miterlimit:10;}.cls-2{fill:#fff;}.cls-3{fill:#666;}</style></defs><title>7</title><path class="cls-1" d="M953,585.52H991c-.12,0-.25-39.52-.25-39.52H953Z" transform="translate(-852.63 -383.19)"/><polygon points="138.81 202.33 99.93 202.33 100.24 202.6 111.36 212.57 113.07 214.11 118.97 219.4 119.43 219.81 119.89 219.4 125.67 214.19 127.46 212.57 138.32 202.77 138.81 202.33"/><rect class="cls-2" x="100.71" y="179.4" width="36.85" height="16.42"/><rect class="cls-2" x="100.95" y="163.15" width="36.85" height="16.42"/><polygon class="cls-2" points="137.85 202.76 137.85 195.91 100.71 195.91 100.71 202.59 111.55 212.33 113.23 213.84 118.98 219 119.88 219 125.51 213.91 127.26 212.33 137.85 202.76"/><rect x="100.71" y="179.4" width="12.28" height="16.42"/><rect x="112.99" y="163.15" width="12.28" height="16.44"/><polygon points="125.51 213.91 125.51 195.91 113.23 195.91 113.23 213.84 118.98 219 119.43 219.41 119.88 219 125.51 213.91"/><rect x="125.27" y="179.4" width="12.28" height="16.42"/><path class="cls-1" d="M873,585.52H911c-.12,0-.25-39.52-.25-39.52H873Z" transform="translate(-852.63 -383.19)"/><polygon points="58.81 202.33 19.93 202.33 20.24 202.6 31.36 212.57 33.07 214.11 38.97 219.4 39.43 219.81 39.89 219.4 45.67 214.19 47.46 212.57 58.32 202.77 58.81 202.33"/><rect x="20.71" y="179.4" width="36.85" height="16.42"/><rect x="20.95" y="163.15" width="36.85" height="16.42"/><polygon points="57.85 202.76 57.85 195.91 20.71 195.91 20.71 202.59 31.55 212.33 33.23 213.84 38.98 219 39.88 219 45.51 213.91 47.26 212.33 57.85 202.76"/><rect class="cls-2" x="20.71" y="179.4" width="12.28" height="16.42"/><rect class="cls-2" x="32.99" y="163.15" width="12.28" height="16.44"/><polygon class="cls-2" points="45.51 213.91 45.51 195.91 33.23 195.91 33.23 213.84 38.98 219 39.43 219.41 39.88 219 45.51 213.91"/><rect class="cls-2" x="45.27" y="179.4" width="12.28" height="16.42"/><path class="cls-1" d="M873,427.48H911c-.12,0-.25,39.52-.25,39.52H873Z" transform="translate(-852.63 -383.19)"/><polygon points="58.81 44.29 19.93 44.29 20.24 44.02 31.36 34.05 33.07 32.51 38.97 27.22 39.43 26.81 39.89 27.22 45.67 32.44 47.46 34.05 58.32 43.85 58.81 44.29"/><rect class="cls-2" x="20.71" y="50.8" width="36.85" height="16.42"/><rect class="cls-2" x="20.95" y="67.05" width="36.85" height="16.42"/><polygon class="cls-2" points="57.85 43.86 57.85 50.71 20.71 50.71 20.71 44.03 31.55 34.29 33.23 32.78 38.98 27.62 39.88 27.62 45.51 32.71 47.26 34.29 57.85 43.86"/><rect x="20.71" y="50.8" width="12.28" height="16.42"/><rect x="32.99" y="67.03" width="12.28" height="16.44"/><polygon points="45.51 32.71 45.51 50.71 33.23 50.71 33.23 32.78 38.98 27.62 39.43 27.21 39.88 27.62 45.51 32.71"/><rect x="45.27" y="50.8" width="12.28" height="16.42"/><path class="cls-1" d="M953,427.48H991c-.12,0-.25,39.52-.25,39.52H953Z" transform="translate(-852.63 -383.19)"/><polygon points="138.81 44.29 99.93 44.29 100.24 44.02 111.36 34.05 113.07 32.51 118.97 27.22 119.43 26.81 119.89 27.22 125.67 32.44 127.46 34.05 138.32 43.85 138.81 44.29"/><rect x="100.71" y="50.8" width="36.85" height="16.42"/><rect x="100.95" y="67.05" width="36.85" height="16.42"/><polygon points="137.85 43.86 137.85 50.71 100.71 50.71 100.71 44.03 111.55 34.29 113.23 32.78 118.98 27.62 119.88 27.62 125.51 32.71 127.26 34.29 137.85 43.86"/><rect class="cls-2" x="100.71" y="50.8" width="12.28" height="16.42"/><rect class="cls-2" x="112.99" y="67.03" width="12.28" height="16.44"/><polygon class="cls-2" points="125.51 32.71 125.51 50.71 113.23 50.71 113.23 32.78 118.98 27.62 119.43 27.21 119.88 27.62 125.51 32.71"/><rect class="cls-2" x="125.27" y="50.8" width="12.28" height="16.42"/><path class="cls-3" d="M911.65,492.93c-.12,0-.3,39.33-.3,39.33l-38,0,0-39.33Z" transform="translate(-852.63 -383.19)"/><polygon class="cls-3" points="59.04 109.74 20.72 109.69 21.02 109.41 32 99.37 32.29 99.1 33.69 97.81 39.51 92.49 39.97 92.07 40.42 92.49 46.11 97.75 47.69 99.22 47.87 99.39 58.56 109.29 59.04 109.74"/><polygon points="47.69 99.22 47.62 149.05 32.22 149.03 32.29 99.1 33.69 97.81 39.51 92.49 39.97 92.07 40.42 92.49 46.11 97.75 47.69 99.22"/><circle class="cls-2" cx="39.96" cy="111.73" r="3.3"/><circle class="cls-2" cx="39.96" cy="120.53" r="3.3"/><circle class="cls-2" cx="39.96" cy="129.33" r="3.3"/><circle class="cls-2" cx="39.96" cy="138.13" r="3.3"/><circle class="cls-2" cx="39.96" cy="102.93" r="3.3"/><path class="cls-3" d="M990.65,492.93c-.12,0-.3,39.33-.3,39.33l-38,0,0-39.33Z" transform="translate(-852.63 -383.19)"/><polygon class="cls-3" points="138.04 109.74 99.72 109.69 100.03 109.41 111 99.37 111.29 99.1 112.69 97.81 118.51 92.49 118.97 92.07 119.42 92.49 125.11 97.75 126.69 99.22 126.87 99.39 137.56 109.29 138.04 109.74"/><polygon points="126.69 99.22 126.62 149.05 111.22 149.03 111.29 99.1 112.69 97.81 118.51 92.49 118.97 92.07 119.42 92.49 125.11 97.75 126.69 99.22"/><circle class="cls-2" cx="118.96" cy="111.73" r="3.3"/><circle class="cls-2" cx="118.96" cy="120.53" r="3.3"/><circle class="cls-2" cx="118.96" cy="129.33" r="3.3"/><circle class="cls-2" cx="118.96" cy="138.13" r="3.3"/><circle class="cls-2" cx="118.96" cy="102.93" r="3.3"/><path class="cls-3" d="M948.55,459.27a.15.15,0,0,0,0,.06c0,.6-.08,5.41-.12,11.24,0,1.12,0,2.28,0,3.45,0,2.6,0,5.28,0,7.78,0,1.2,0,2.37,0,3.46,0,4.62,0,8,0,8l-32.86,0V470.57l0-11.24v-.1Z" transform="translate(-852.63 -383.19)"/><path d="M948.42,470.57c0,1.12,0,2.28,0,3.45,0,2.6,0,5.28,0,7.78h-32.9V470.57Z" transform="translate(-852.63 -383.19)"/><polygon points="95.94 76.08 62.82 76.04 63.09 75.8 66.48 72.68 72.57 67.12 72.82 66.89 74.03 65.77 79.06 61.17 79.46 60.81 79.84 61.17 84.76 65.72 86.13 66.99 86.28 67.14 92.27 72.68 95.52 75.69 95.94 76.08"/><path d="M997,384.19a13.35,13.35,0,0,1,13.34,13.34V615.47A13.35,13.35,0,0,1,997,628.81H867a13.35,13.35,0,0,1-13.34-13.34V397.53A13.35,13.35,0,0,1,867,384.19H997m0-1H867a14.34,14.34,0,0,0-14.34,14.34V615.47A14.34,14.34,0,0,0,867,629.81H997a14.34,14.34,0,0,0,14.34-14.34V397.53A14.34,14.34,0,0,0,997,383.19Z" transform="translate(-852.63 -383.19)"/><path d="M868.54,392.3c-2.3,4.87-4.54,9.72-6.86,14.69l-1.73.17-.17-.26a132.91,132.91,0,0,0,7-13.13h-5.13c-1.56,0-1.66.21-2.31,1.8h-.74c.24-1.35.33-2.55.45-3.58h9.32Z" transform="translate(-852.63 -383.19)"/><path d="M999,392.3c-2.3,4.87-4.54,9.72-6.86,14.69l-1.73.17-.17-.26a132.91,132.91,0,0,0,7-13.13h-5.13c-1.56,0-1.66.21-2.31,1.8h-.74c.24-1.35.33-2.55.45-3.58h9.32Z" transform="translate(-852.63 -383.19)"/><path d="M859,618.38c2.3-4.87,4.54-9.72,6.86-14.68l1.73-.17.17.26a132.91,132.91,0,0,0-7,13.13h5.13c1.56,0,1.66-.21,2.31-1.8h.74c-.24,1.34-.33,2.55-.45,3.58H859.1Z" transform="translate(-852.63 -383.19)"/><path d="M996,618.38c2.3-4.87,4.54-9.72,6.86-14.68l1.73-.17.17.26a132.91,132.91,0,0,0-7,13.13h5.13c1.56,0,1.66-.21,2.31-1.8h.74c-.24,1.34-.33,2.55-.45,3.58H996.1Z" transform="translate(-852.63 -383.19)"/></svg>