<svg id="Ebene_1" data-name="Ebene 1" xmlns="http://www.w3.org/2000/svg" viewBox="0 0 158.74 246.62"><defs><style>.cls-1{stroke:#000;stroke-miterlimit:10;}.cls-2{fill:#fff;}.cls-3{fill:#666;}</style></defs><title>8</title><path class="cls-1" d="M982,620.52H1020c-.12,0-.25-39.52-.25-39.52H982Z" transform="translate(-881.63 -418.19)"/><polygon points="138.81 202.33 99.93 202.33 100.24 202.6 111.36 212.57 113.07 214.11 118.97 219.4 119.43 219.81 119.89 219.4 125.67 214.19 127.46 212.57 138.32 202.77 138.81 202.33"/><rect class="cls-2" x="100.71" y="179.4" width="36.85" height="16.42"/><rect class="cls-2" x="100.95" y="163.15" width="36.85" height="16.42"/><polygon class="cls-2" points="137.85 202.76 137.85 195.91 100.71 195.91 100.71 202.59 111.55 212.33 113.23 213.84 118.98 219 119.88 219 125.51 213.91 127.26 212.33 137.85 202.76"/><rect x="100.71" y="179.4" width="12.28" height="16.42"/><rect x="112.99" y="163.15" width="12.28" height="16.44"/><polygon points="125.51 213.91 125.51 195.91 113.23 195.91 113.23 213.84 118.98 219 119.43 219.41 119.88 219 125.51 213.91"/><rect x="125.27" y="179.4" width="12.28" height="16.42"/><path class="cls-1" d="M902,620.52H940c-.12,0-.25-39.52-.25-39.52H902Z" transform="translate(-881.63 -418.19)"/><polygon points="58.81 202.33 19.93 202.33 20.24 202.6 31.36 212.57 33.07 214.11 38.97 219.4 39.43 219.81 39.89 219.4 45.67 214.19 47.46 212.57 58.32 202.77 58.81 202.33"/><rect x="20.71" y="179.4" width="36.85" height="16.42"/><rect x="20.95" y="163.15" width="36.85" height="16.42"/><polygon points="57.85 202.76 57.85 195.91 20.71 195.91 20.71 202.59 31.55 212.33 33.23 213.84 38.98 219 39.88 219 45.51 213.91 47.26 212.33 57.85 202.76"/><rect class="cls-2" x="20.71" y="179.4" width="12.28" height="16.42"/><rect class="cls-2" x="32.99" y="163.15" width="12.28" height="16.44"/><polygon class="cls-2" points="45.51 213.91 45.51 195.91 33.23 195.91 33.23 213.84 38.98 219 39.43 219.41 39.88 219 45.51 213.91"/><rect class="cls-2" x="45.27" y="179.4" width="12.28" height="16.42"/><path class="cls-1" d="M902,462.48H940c-.12,0-.25,39.52-.25,39.52H902Z" transform="translate(-881.63 -418.19)"/><polygon points="58.81 44.29 19.93 44.29 20.24 44.02 31.36 34.05 33.07 32.51 38.97 27.22 39.43 26.81 39.89 27.22 45.67 32.44 47.46 34.05 58.32 43.85 58.81 44.29"/><rect class="cls-2" x="20.71" y="50.8" width="36.85" height="16.42"/><rect class="cls-2" x="20.95" y="67.05" width="36.85" height="16.42"/><polygon class="cls-2" points="57.85 43.86 57.85 50.71 20.71 50.71 20.71 44.03 31.55 34.29 33.23 32.78 38.98 27.62 39.88 27.62 45.51 32.71 47.26 34.29 57.85 43.86"/><rect x="20.71" y="50.8" width="12.28" height="16.42"/><rect x="32.99" y="67.03" width="12.28" height="16.44"/><polygon points="45.51 32.71 45.51 50.71 33.23 50.71 33.23 32.78 38.98 27.62 39.43 27.21 39.88 27.62 45.51 32.71"/><rect x="45.27" y="50.8" width="12.28" height="16.42"/><path class="cls-1" d="M982,462.48H1020c-.12,0-.25,39.52-.25,39.52H982Z" transform="translate(-881.63 -418.19)"/><polygon points="138.81 44.29 99.93 44.29 100.24 44.02 111.36 34.05 113.07 32.51 118.97 27.22 119.43 26.81 119.89 27.22 125.67 32.44 127.46 34.05 138.32 43.85 138.81 44.29"/><rect x="100.71" y="50.8" width="36.85" height="16.42"/><rect x="100.95" y="67.05" width="36.85" height="16.42"/><polygon points="137.85 43.86 137.85 50.71 100.71 50.71 100.71 44.03 111.55 34.29 113.23 32.78 118.98 27.62 119.88 27.62 125.51 32.71 127.26 34.29 137.85 43.86"/><rect class="cls-2" x="100.71" y="50.8" width="12.28" height="16.42"/><rect class="cls-2" x="112.99" y="67.03" width="12.28" height="16.44"/><polygon class="cls-2" points="125.51 32.71 125.51 50.71 113.23 50.71 113.23 32.78 118.98 27.62 119.43 27.21 119.88 27.62 125.51 32.71"/><rect class="cls-2" x="125.27" y="50.8" width="12.28" height="16.42"/><path class="cls-3" d="M940.65,527.93c-.12,0-.3,39.33-.3,39.33l-38,0,0-39.33Z" transform="translate(-881.63 -418.19)"/><polygon class="cls-3" points="59.04 109.74 20.72 109.69 21.02 109.41 32 99.37 32.29 99.1 33.69 97.81 39.51 92.49 39.97 92.07 40.42 92.49 46.11 97.75 47.69 99.22 47.87 99.39 58.56 109.29 59.04 109.74"/><polygon points="47.69 99.22 47.62 149.05 32.22 149.03 32.29 99.1 33.69 97.81 39.51 92.49 39.97 92.07 40.42 92.49 46.11 97.75 47.69 99.22"/><circle class="cls-2" cx="39.96" cy="111.73" r="3.3"/><circle class="cls-2" cx="39.96" cy="120.53" r="3.3"/><circle class="cls-2" cx="39.96" cy="129.33" r="3.3"/><circle class="cls-2" cx="39.96" cy="138.13" r="3.3"/><circle class="cls-2" cx="39.96" cy="102.93" r="3.3"/><path class="cls-3" d="M1019.65,527.93c-.12,0-.3,39.33-.3,39.33l-38,0,0-39.33Z" transform="translate(-881.63 -418.19)"/><polygon class="cls-3" points="138.04 109.74 99.72 109.69 100.03 109.41 111 99.37 111.29 99.1 112.69 97.81 118.51 92.49 118.97 92.07 119.42 92.49 125.11 97.75 126.69 99.22 126.87 99.39 137.56 109.29 138.04 109.74"/><polygon points="126.69 99.22 126.62 149.05 111.22 149.03 111.29 99.1 112.69 97.81 118.51 92.49 118.97 92.07 119.42 92.49 125.11 97.75 126.69 99.22"/><circle class="cls-2" cx="118.96" cy="111.73" r="3.3"/><circle class="cls-2" cx="118.96" cy="120.53" r="3.3"/><circle class="cls-2" cx="118.96" cy="129.33" r="3.3"/><circle class="cls-2" cx="118.96" cy="138.13" r="3.3"/><circle class="cls-2" cx="118.96" cy="102.93" r="3.3"/><path class="cls-3" d="M977.55,488.14a.15.15,0,0,0,0,.06c0,.6-.08,5.41-.12,11.24,0,1.12,0,2.28,0,3.45,0,2.6,0,5.28,0,7.78,0,1.2,0,2.37,0,3.46,0,4.62,0,8,0,8l-32.86,0V499.44l0-11.24v-.1Z" transform="translate(-881.63 -418.19)"/><path d="M977.42,499.44c0,1.12,0,2.28,0,3.45,0,2.6,0,5.28,0,7.78h-32.9V499.44Z" transform="translate(-881.63 -418.19)"/><polygon points="95.94 69.95 62.82 69.91 63.09 69.67 66.48 66.55 72.57 60.99 72.82 60.76 74.03 59.64 79.06 55.04 79.46 54.68 79.84 55.04 84.76 59.59 86.13 60.86 86.28 61.01 92.27 66.55 95.52 69.56 95.94 69.95"/><path class="cls-3" d="M977.55,594.86a.15.15,0,0,1,0-.06c0-.6-.08-5.41-.12-11.24,0-1.12,0-2.28,0-3.45,0-2.6,0-5.28,0-7.78,0-1.2,0-2.37,0-3.46,0-4.62,0-8,0-8l-32.86,0v22.65l0,11.24v.1Z" transform="translate(-881.63 -418.19)"/><path d="M977.42,583.56c0-1.12,0-2.28,0-3.45,0-2.6,0-5.28,0-7.78h-32.9v11.23Z" transform="translate(-881.63 -418.19)"/><polygon points="95.94 176.67 62.82 176.71 63.09 176.96 66.48 180.07 72.57 185.63 72.82 185.87 74.03 186.98 79.06 191.58 79.46 191.94 79.84 191.58 84.76 187.03 86.13 185.76 86.28 185.61 92.27 180.07 95.52 177.06 95.94 176.67"/><path d="M1026,419.19a13.35,13.35,0,0,1,13.34,13.34V650.47A13.35,13.35,0,0,1,1026,663.81H896a13.35,13.35,0,0,1-13.34-13.34V432.53A13.35,13.35,0,0,1,896,419.19H1026m0-1H896a14.34,14.34,0,0,0-14.34,14.34V650.47A14.34,14.34,0,0,0,896,664.81H1026a14.34,14.34,0,0,0,14.34-14.34V432.53A14.34,14.34,0,0,0,1026,418.19Z" transform="translate(-881.63 -418.19)"/><path d="M892.52,426.7a3.67,3.67,0,0,1,3.92,3.55,3,3,0,0,1-.68,1.95,18.13,18.13,0,0,1-2,1.53c1.66.92,3.29,2.07,3.29,4.16,0,2.81-2.54,4.34-4.82,4.34-2.67,0-4.64-1.53-4.64-4a2.84,2.84,0,0,1,1.11-2.37,19.94,19.94,0,0,1,2.16-1.49c-1.56-.92-2.67-2.07-2.67-3.77A4.06,4.06,0,0,1,892.52,426.7Zm0,14.74a2.52,2.52,0,0,0,2.6-2.83c0-1.92-1.61-2.86-3.56-3.8a3.7,3.7,0,0,0-2,3.29C889.55,440.31,890.94,441.44,892.52,441.44Zm-.28-13.92A2.21,2.21,0,0,0,890,430c0,1.75,1.17,2.4,3.05,3.38a3.51,3.51,0,0,0,1.58-3C894.66,428.36,893.48,427.52,892.24,427.52Z" transform="translate(-881.63 -418.19)"/><path d="M1023,426.7a3.67,3.67,0,0,1,3.92,3.55,3,3,0,0,1-.68,1.95,18.13,18.13,0,0,1-2,1.53c1.66.92,3.29,2.07,3.29,4.16,0,2.81-2.54,4.34-4.82,4.34-2.67,0-4.64-1.53-4.64-4a2.84,2.84,0,0,1,1.11-2.37,19.94,19.94,0,0,1,2.16-1.49c-1.56-.92-2.67-2.07-2.67-3.77A4.06,4.06,0,0,1,1023,426.7Zm0,14.74a2.52,2.52,0,0,0,2.6-2.83c0-1.92-1.61-2.86-3.56-3.8a3.7,3.7,0,0,0-2,3.29C1020.05,440.31,1021.44,441.44,1023,441.44Zm-.28-13.92a2.21,2.21,0,0,0-2.21,2.45c0,1.75,1.18,2.4,3.05,3.38a3.51,3.51,0,0,0,1.58-3C1025.16,428.36,1024,427.52,1022.74,427.52Z" transform="translate(-881.63 -418.19)"/><path d="M893,654a3.67,3.67,0,0,1-3.92-3.56,2.93,2.93,0,0,1,.68-1.94,19.06,19.06,0,0,1,2-1.54c-1.66-.91-3.29-2.06-3.29-4.15,0-2.81,2.54-4.34,4.82-4.34,2.67,0,4.64,1.53,4.64,4a2.84,2.84,0,0,1-1.11,2.37,21.5,21.5,0,0,1-2.16,1.49c1.56.91,2.67,2.06,2.67,3.77A4.06,4.06,0,0,1,893,654Zm0-14.74a2.52,2.52,0,0,0-2.6,2.83c0,1.92,1.61,2.86,3.56,3.79a3.68,3.68,0,0,0,2-3.29C896,640.38,894.56,639.25,893,639.25Zm.28,13.92a2.21,2.21,0,0,0,2.21-2.45c0-1.75-1.17-2.4-3.05-3.38a3.5,3.5,0,0,0-1.58,3C890.84,652.33,892,653.17,893.26,653.17Z" transform="translate(-881.63 -418.19)"/><path d="M1030,654a3.67,3.67,0,0,1-3.92-3.56,2.93,2.93,0,0,1,.68-1.94,19.06,19.06,0,0,1,2-1.54c-1.66-.91-3.29-2.06-3.29-4.15,0-2.81,2.54-4.34,4.82-4.34,2.67,0,4.64,1.53,4.64,4a2.84,2.84,0,0,1-1.11,2.37,21.5,21.5,0,0,1-2.16,1.49c1.56.91,2.67,2.06,2.67,3.77A4.06,4.06,0,0,1,1030,654Zm0-14.74a2.52,2.52,0,0,0-2.6,2.83c0,1.92,1.61,2.86,3.56,3.79a3.68,3.68,0,0,0,2-3.29C1033,640.38,1031.56,639.25,1030,639.25Zm.28,13.92a2.21,2.21,0,0,0,2.21-2.45c0-1.75-1.18-2.4-3-3.38a3.5,3.5,0,0,0-1.58,3C1027.84,652.33,1029,653.17,1030.26,653.17Z" transform="translate(-881.63 -418.19)"/></svg>