<svg id="Ebene_1" data-name="Ebene 1" xmlns="http://www.w3.org/2000/svg" viewBox="0 0 158.74 246.62"><defs><style>.cls-1{stroke:#000;stroke-miterlimit:10;}.cls-2{fill:#fff;}.cls-3{fill:#666;}</style></defs><title>9</title><path class="cls-1" d="M892.9,459.94h34.57c-.11,0-.22,36-.22,36H892.9Z" transform="translate(-881.63 -418.19)"/><polygon points="46.27 41.75 10.84 41.75 11.12 41.5 21.25 32.41 22.82 31.01 28.19 26.19 28.61 25.81 29.03 26.19 34.3 30.94 35.93 32.41 45.83 41.34 46.27 41.75"/><rect class="cls-2" x="11.55" y="47.68" width="33.59" height="14.97"/><rect class="cls-2" x="11.76" y="62.49" width="33.59" height="14.97"/><polygon class="cls-2" points="45.41 41.35 45.41 47.6 11.54 47.6 11.54 41.5 21.43 32.63 22.96 31.25 28.2 26.55 29.02 26.55 34.16 31.19 35.75 32.63 45.41 41.35"/><rect x="11.55" y="47.68" width="11.2" height="14.97"/><rect x="22.74" y="62.48" width="11.2" height="14.99"/><polygon points="34.16 31.19 34.16 47.6 22.96 47.6 22.96 31.25 28.2 26.55 28.61 26.18 29.02 26.55 34.16 31.19"/><rect x="33.94" y="47.68" width="11.2" height="14.97"/><path class="cls-1" d="M993.54,459.94h34.57c-.12,0-.23,36-.23,36H993.54Z" transform="translate(-881.63 -418.19)"/><polygon points="146.91 41.75 111.47 41.75 111.75 41.5 121.89 32.41 123.45 31.01 128.83 26.19 129.25 25.81 129.67 26.19 134.93 30.94 136.57 32.41 146.47 41.34 146.91 41.75"/><rect x="112.18" y="47.68" width="33.59" height="14.97"/><rect x="112.4" y="62.49" width="33.59" height="14.97"/><polygon points="146.04 41.35 146.04 47.6 112.18 47.6 112.18 41.5 122.07 32.63 123.59 31.25 128.84 26.55 129.66 26.55 134.79 31.19 136.38 32.63 146.04 41.35"/><rect class="cls-2" x="112.18" y="47.68" width="11.2" height="14.97"/><rect class="cls-2" x="123.38" y="62.48" width="11.2" height="14.99"/><polygon class="cls-2" points="134.79 31.19 134.79 47.6 123.59 47.6 123.59 31.25 128.84 26.55 129.25 26.18 129.66 26.55 134.79 31.19"/><rect class="cls-2" x="134.57" y="47.68" width="11.2" height="14.97"/><path class="cls-1" d="M892.9,622.19h34.57c-.11,0-.22-36-.22-36H892.9Z" transform="translate(-881.63 -418.19)"/><polygon points="46.27 204 10.84 204 11.12 204.25 21.25 213.34 22.82 214.74 28.19 219.56 28.61 219.94 29.03 219.56 34.3 214.81 35.93 213.34 45.83 204.41 46.27 204"/><rect class="cls-2" x="11.55" y="183.1" width="33.59" height="14.97"/><rect class="cls-2" x="11.76" y="168.29" width="33.59" height="14.97"/><polygon class="cls-2" points="45.41 204.4 45.41 198.15 11.54 198.15 11.54 204.25 21.43 213.12 22.96 214.5 28.2 219.2 29.02 219.2 34.16 214.56 35.75 213.12 45.41 204.4"/><rect x="11.55" y="183.1" width="11.2" height="14.97"/><rect x="22.74" y="168.29" width="11.2" height="14.99"/><polygon points="34.16 214.56 34.16 198.15 22.96 198.15 22.96 214.5 28.2 219.2 28.61 219.57 29.02 219.2 34.16 214.56"/><rect x="33.94" y="183.1" width="11.2" height="14.97"/><path class="cls-1" d="M993.54,622.19h34.57c-.12,0-.23-36-.23-36H993.54Z" transform="translate(-881.63 -418.19)"/><polygon points="146.91 204 111.47 204 111.75 204.25 121.89 213.34 123.45 214.74 128.83 219.56 129.25 219.94 129.67 219.56 134.93 214.81 136.57 213.34 146.47 204.41 146.91 204"/><rect x="112.18" y="183.1" width="33.59" height="14.97"/><rect x="112.4" y="168.29" width="33.59" height="14.97"/><polygon points="146.04 204.4 146.04 198.15 112.18 198.15 112.18 204.25 122.07 213.12 123.59 214.5 128.84 219.2 129.66 219.2 134.79 214.56 136.38 213.12 146.04 204.4"/><rect class="cls-2" x="112.18" y="183.1" width="11.2" height="14.97"/><rect class="cls-2" x="123.38" y="168.29" width="11.2" height="14.99"/><polygon class="cls-2" points="134.79 214.56 134.79 198.15 123.59 198.15 123.59 214.5 128.84 219.2 129.25 219.57 129.66 219.2 134.79 214.56"/><rect class="cls-2" x="134.57" y="183.1" width="11.2" height="14.97"/><path class="cls-3" d="M927.14,529.67c-.11,0-.27,35.87-.27,35.87l-34.67,0,0-35.86Z" transform="translate(-881.63 -418.19)"/><polygon class="cls-3" points="45.53 111.48 10.59 111.44 10.87 111.19 20.87 102.03 21.14 101.78 22.42 100.61 27.72 95.75 28.14 95.37 28.55 95.75 33.74 100.56 35.18 101.89 35.34 102.05 45.09 111.08 45.53 111.48"/><polygon points="35.18 101.89 35.12 147.33 21.08 147.31 21.14 101.78 22.42 100.61 27.72 95.75 28.14 95.37 28.55 95.75 33.74 100.56 35.18 101.89"/><circle class="cls-2" cx="28.13" cy="113.3" r="3.01"/><circle class="cls-2" cx="28.13" cy="121.33" r="3.01"/><circle class="cls-2" cx="28.13" cy="129.35" r="3.01"/><circle class="cls-2" cx="28.13" cy="137.38" r="3.01"/><circle class="cls-2" cx="28.13" cy="105.28" r="3.01"/><path class="cls-3" d="M1028.05,529.67c-.12,0-.28,35.87-.28,35.87l-34.67,0,0-35.86Z" transform="translate(-881.63 -418.19)"/><polygon class="cls-3" points="146.44 111.48 111.5 111.44 111.77 111.19 121.77 102.03 122.04 101.78 123.32 100.61 128.63 95.75 129.04 95.37 129.46 95.75 134.64 100.56 136.08 101.89 136.25 102.05 146 111.08 146.44 111.48"/><polygon points="136.08 101.89 136.02 147.33 121.98 147.31 122.04 101.78 123.32 100.61 128.63 95.75 129.04 95.37 129.46 95.75 134.64 100.56 136.08 101.89"/><circle class="cls-2" cx="129.04" cy="113.3" r="3.01"/><circle class="cls-2" cx="129.04" cy="121.33" r="3.01"/><circle class="cls-2" cx="129.04" cy="129.35" r="3.01"/><circle class="cls-2" cx="129.04" cy="137.38" r="3.01"/><circle class="cls-2" cx="129.04" cy="105.28" r="3.01"/><path class="cls-3" d="M978.4,460.85a.15.15,0,0,0,0,.06c0,.64-.08,5.76-.13,12,0,1.2,0,2.43,0,3.68,0,2.77,0,5.63,0,8.29,0,1.28,0,2.52,0,3.68,0,4.92,0,8.52,0,8.52l-35,0V472.88l0-12v-.11Z" transform="translate(-881.63 -418.19)"/><path d="M978.26,472.88c0,1.2,0,2.43,0,3.68,0,2.77,0,5.63,0,8.29H943.14v-12Z" transform="translate(-881.63 -418.19)"/><polygon points="96.79 42.66 61.51 42.61 61.8 42.35 65.42 39.04 71.9 33.11 72.16 32.86 73.45 31.68 78.81 26.78 79.23 26.39 79.65 26.78 84.89 31.62 86.34 32.97 86.5 33.13 92.88 39.04 96.34 42.24 96.79 42.66"/><path class="cls-3" d="M978.4,529.18a.17.17,0,0,0,0,.07c0,.63-.08,5.76-.13,12q0,1.8,0,3.69c0,2.77,0,5.62,0,8.28,0,1.28,0,2.52,0,3.68,0,4.93,0,8.53,0,8.53l-35,0V541.21l0-12v-.11Z" transform="translate(-881.63 -418.19)"/><path d="M978.26,541.21q0,1.8,0,3.69c0,2.77,0,5.62,0,8.28H943.14v-12Z" transform="translate(-881.63 -418.19)"/><polygon points="96.79 110.99 61.51 110.95 61.8 110.69 65.42 107.38 71.9 101.45 72.16 101.2 73.45 100.01 78.81 95.11 79.23 94.73 79.65 95.11 84.89 99.95 86.34 101.31 86.5 101.47 92.88 107.38 96.34 110.58 96.79 110.99"/><path class="cls-3" d="M978.4,621.07a.15.15,0,0,1,0-.06c0-.64-.08-5.77-.13-12,0-1.2,0-2.43,0-3.68,0-2.77,0-5.63,0-8.29,0-1.28,0-2.52,0-3.68,0-4.92,0-8.52,0-8.52l-35,0V609l0,12v.11Z" transform="translate(-881.63 -418.19)"/><path d="M978.26,609c0-1.2,0-2.43,0-3.68,0-2.77,0-5.63,0-8.29H943.14v12Z" transform="translate(-881.63 -418.19)"/><polygon points="96.79 202.88 61.51 202.93 61.8 203.19 65.42 206.5 71.9 212.43 72.16 212.68 73.45 213.86 78.81 218.76 79.23 219.15 79.65 218.76 84.89 213.92 86.34 212.57 86.5 212.41 92.88 206.5 96.34 203.3 96.79 202.88"/><path d="M1026,419.19a13.35,13.35,0,0,1,13.34,13.34V650.47A13.35,13.35,0,0,1,1026,663.81H896a13.35,13.35,0,0,1-13.34-13.34V432.53A13.35,13.35,0,0,1,896,419.19H1026m0-1H896a14.34,14.34,0,0,0-14.34,14.34V650.47A14.34,14.34,0,0,0,896,664.81H1026a14.34,14.34,0,0,0,14.34-14.34V432.53A14.34,14.34,0,0,0,1026,418.19Z" transform="translate(-881.63 -418.19)"/><path d="M894.8,435l-1.6.82a3.18,3.18,0,0,1-1.44.36,4.27,4.27,0,0,1-4.32-4.49,4.94,4.94,0,0,1,4.92-5c3.09,0,4.82,2.74,4.82,6a9.54,9.54,0,0,1-6.07,9,10.13,10.13,0,0,1-2.86.62l-.12-.74A8,8,0,0,0,894.8,435Zm-2.73-7.44c-1.87,0-2.52,1.78-2.52,3.46,0,2.11,1.17,3.86,3.19,3.86a3.7,3.7,0,0,0,2.16-.69,12.57,12.57,0,0,0,.1-1.56C895,430.47,894.4,427.54,892.07,427.54Z" transform="translate(-881.63 -418.19)"/><path d="M1025.3,435l-1.6.82a3.18,3.18,0,0,1-1.44.36,4.27,4.27,0,0,1-4.32-4.49,4.94,4.94,0,0,1,4.92-5c3.09,0,4.82,2.74,4.82,6a9.54,9.54,0,0,1-6.07,9,10.06,10.06,0,0,1-2.86.62l-.12-.74A8,8,0,0,0,1025.3,435Zm-2.73-7.44c-1.87,0-2.52,1.78-2.52,3.46,0,2.11,1.17,3.86,3.19,3.86a3.7,3.7,0,0,0,2.16-.69,12.57,12.57,0,0,0,.1-1.56C1025.5,430.47,1024.9,427.54,1022.57,427.54Z" transform="translate(-881.63 -418.19)"/><path d="M890.7,645.71l1.6-.82a3.18,3.18,0,0,1,1.44-.36,4.27,4.27,0,0,1,4.32,4.49,4.94,4.94,0,0,1-4.92,5c-3.09,0-4.82-2.74-4.82-6a9.54,9.54,0,0,1,6.07-9,10.19,10.19,0,0,1,2.86-.63l.12.75A8,8,0,0,0,890.7,645.71Zm2.73,7.44c1.87,0,2.52-1.78,2.52-3.46,0-2.11-1.17-3.87-3.19-3.87a3.71,3.71,0,0,0-2.16.7,12.57,12.57,0,0,0-.1,1.56C890.5,650.22,891.1,653.15,893.43,653.15Z" transform="translate(-881.63 -418.19)"/><path d="M1027.7,645.71l1.6-.82a3.18,3.18,0,0,1,1.44-.36,4.27,4.27,0,0,1,4.32,4.49,4.94,4.94,0,0,1-4.92,5c-3.09,0-4.82-2.74-4.82-6a9.54,9.54,0,0,1,6.07-9,10.19,10.19,0,0,1,2.86-.63l.12.75A8,8,0,0,0,1027.7,645.71Zm2.73,7.44c1.87,0,2.52-1.78,2.52-3.46,0-2.11-1.17-3.87-3.19-3.87a3.71,3.71,0,0,0-2.16.7,12.57,12.57,0,0,0-.1,1.56C1027.5,650.22,1028.1,653.15,1030.43,653.15Z" transform="translate(-881.63 -418.19)"/></svg>