<svg xmlns="http://www.w3.org/2000/svg" viewBox="0 0 158.74 246.62"><defs><style>.cls-1{fill:#d9e021;}.cls-2{fill:#0071bc;}.cls-3{fill:#c1272d;}.cls-4{fill:#333;}.cls-5{fill:#4d4d4d;}</style></defs><title>ass</title><g id="Ebene_3" data-name="Ebene 3"><rect class="cls-1" x="1.02" y="89.81" width="157" height="68"/><path class="cls-2" d="M1039.48,509a94,94,0,0,0-14.67,18H960V509Z" transform="translate(-881.98 -419.19)"/><path class="cls-2" d="M962,559v18H883s10.88-7.07,16.59-18Z" transform="translate(-881.98 -419.19)"/><path class="cls-3" d="M960,509v19H897.39a91.93,91.93,0,0,0-14.54-18.66V509Z" transform="translate(-881.98 -419.19)"/><path class="cls-3" d="M1039,577H961.85V558h59.6C1027.13,569.5,1039,577,1039,577Z" transform="translate(-881.98 -419.19)"/><path class="cls-4" d="M1024.81,527c-3.57,5.88-6.35,12.53-6.35,19a27,27,0,0,0,3,12c5.68,11.5,17.52,19,17.52,19s-35.2-13.35-77-14h-.15L960,563c-41.57.21-77,14-77,14s10.88-7.07,16.59-18A28.09,28.09,0,0,0,903,546c0-6.1-2.41-12.38-5.61-18a91.93,91.93,0,0,0-14.54-18.66c-.48-.48-.78-.76-.85-.83l.85.24.88.25c9.36,2.66,54,15,76.27,15h1c23.21-.34,67.86-12.39,77.26-15a3.51,3.51,0,0,1,1.74,0c0,.05-.23-.28-.52,0A94,94,0,0,0,1024.81,527Z" transform="translate(-881.98 -419.19)"/><path d="M1024.56,420.19a15.17,15.17,0,0,1,15.16,15.15V649.66a15.17,15.17,0,0,1-15.16,15.15H898.13A15.17,15.17,0,0,1,883,649.66V435.34a15.17,15.17,0,0,1,15.15-15.15h126.43m0-1H898.13A16.15,16.15,0,0,0,882,435.34V649.66a16.15,16.15,0,0,0,16.15,16.15h126.43a16.16,16.16,0,0,0,16.16-16.15V435.34a16.16,16.16,0,0,0-16.16-16.15Z" transform="translate(-881.98 -419.19)"/><path class="cls-4" d="M960,507.19l4-6.19,11-4,11-14,9-5s3-9,3-10V455l-6-17-9-2-10,.74a8.54,8.54,0,0,1-2,.26c-1,0-6,2-7,2h-6s-3-3-4-3h-8l-14,2s-5,5-5,6-1,4-2,8-2,6-1,10,0,11,2,13,9,11,9,11l7,5,5,3,3,3,6,5Z" transform="translate(-881.98 -419.19)"/><path class="cls-1" d="M961,460.94a29.77,29.77,0,0,1,0,5.06A17.91,17.91,0,0,1,961,460.94Z" transform="translate(-881.98 -419.19)"/><path class="cls-1" d="M1004,460.94c5-15.94,5-11.94,5-15.94s2-9,5-9-3-5-10-5a14.91,14.91,0,0,0-11,5Z" transform="translate(-881.98 -419.19)"/><circle class="cls-3" cx="135.02" cy="17.81" r="5"/><path class="cls-1" d="M918,460.94C913,445,913,449,913,445s-2-9-5-9,3-5,10-5a14.91,14.91,0,0,1,11,5Z" transform="translate(-881.98 -419.19)"/><circle class="cls-2" cx="23.02" cy="17.81" r="5"/><path class="cls-1" d="M985.27,481.36l4.31,4.71L960,501V451.86c2.08-4.77,7-9.42,18.49-9.42C1001.91,442.44,985.27,481.36,985.27,481.36Z" transform="translate(-881.98 -419.19)"/><path class="cls-1" d="M934.73,481.36l-4.31,4.71L960,501V451.86c-2.08-4.77-7-9.42-18.49-9.42C918.09,442.44,934.73,481.36,934.73,481.36Z" transform="translate(-881.98 -419.19)"/><path class="cls-3" d="M960,509s0-6,4-6,41-10,40-48-33-22-33-18c0,0,22-5,22,25,0,20-24,32-28,34S960,505,960,509Z" transform="translate(-881.98 -419.19)"/><path class="cls-2" d="M960,509s0-6-4-6-41-10-40-48,33-22,33-18c0,0-22-5-22,25,0,20,24,32,28,34S960,505,960,509Z" transform="translate(-881.98 -419.19)"/><polygon class="cls-4" points="89.03 17.81 65.03 17.81 68.03 21.81 83.03 21.81 89.03 19.81 89.03 17.81"/><polygon class="cls-1" points="84.03 16.81 78.03 25.97 78.03 7.65 84.03 16.81"/><polygon class="cls-1" points="72.03 16.81 78.03 25.97 78.03 7.65 72.03 16.81"/><polygon class="cls-4" points="81.84 16.81 78.03 22.64 78.03 10.98 81.84 16.81"/><polygon class="cls-4" points="74.2 16.81 78.03 22.64 78.03 10.98 74.2 16.81"/><polygon class="cls-4" points="78.03 6.81 78.03 7.65 77.47 6.81 78.03 6.81"/><path class="cls-4" d="M962.69,577.81l-4,6.19-11,4-11,14-9,5s-3,9-3,10v13l6,17,9,2,10-.74a8.54,8.54,0,0,1,2-.26c1,0,6-2,7-2h6s3,3,4,3h8l14-2s5-5,5-6,1-4,2-8,2-6,1-10,0-11-2-13-9-11-9-11l-7-5-5-3-3-3-6-5Z" transform="translate(-881.98 -419.19)"/><path class="cls-1" d="M961.68,624.06a29.77,29.77,0,0,1,0-5.06A17.91,17.91,0,0,1,961.68,624.06Z" transform="translate(-881.98 -419.19)"/><path class="cls-1" d="M918.67,624.06c-5,15.94-5,11.94-5,15.94s-2,9-5,9,3,5,10,5a14.91,14.91,0,0,0,11-5Z" transform="translate(-881.98 -419.19)"/><circle class="cls-3" cx="23.72" cy="228.81" r="5"/><path class="cls-1" d="M1004.71,624.06c5,15.94,5,11.94,5,15.94s2,9,5,9-3,5-10,5a14.91,14.91,0,0,1-11-5Z" transform="translate(-881.98 -419.19)"/><circle class="cls-2" cx="135.72" cy="228.81" r="5"/><path class="cls-1" d="M937.42,603.64l-4.31-4.71L962.69,584v49.14c-2.08,4.77-7.05,9.42-18.49,9.42C920.78,642.56,937.42,603.64,937.42,603.64Z" transform="translate(-881.98 -419.19)"/><path class="cls-1" d="M988,603.64l4.31-4.71L962.69,584v49.14c2.08,4.77,7,9.42,18.49,9.42C1004.6,642.56,988,603.64,988,603.64Z" transform="translate(-881.98 -419.19)"/><path class="cls-3" d="M962.69,576s0,6-4,6-41,10-40,48,33,22,33,18c0,0-22,5-22-25,0-20,24-32,28-34S962.69,580,962.69,576Z" transform="translate(-881.98 -419.19)"/><path class="cls-2" d="M962.67,576s0,6,4,6,41,10,40,48-33,22-33,18c0,0,22,5,22-25,0-20-24-32-28-34S962.67,580,962.67,576Z" transform="translate(-881.98 -419.19)"/><polygon class="cls-4" points="69.72 228.81 93.72 228.81 90.72 224.81 75.72 224.81 69.72 226.81 69.72 228.81"/><polygon class="cls-1" points="74.72 229.81 80.72 220.65 80.72 238.97 74.72 229.81"/><polygon class="cls-1" points="86.72 229.81 80.72 220.65 80.72 238.97 86.72 229.81"/><polygon class="cls-4" points="76.89 229.81 80.72 223.98 80.72 235.64 76.89 229.81"/><polygon class="cls-4" points="84.53 229.81 80.72 223.98 80.72 235.64 84.53 229.81"/><polygon class="cls-4" points="80.72 239.81 80.72 238.97 81.27 239.81 80.72 239.81"/><rect class="cls-1" x="30.02" y="112.48" width="99" height="24.66" rx="12.33"/><rect class="cls-5" x="60.95" y="31.31" width="3" height="15"/><rect class="cls-5" x="942.92" y="450.5" width="3" height="15" transform="translate(520.45 -905.61) rotate(90)"/><rect class="cls-5" x="92.95" y="31.31" width="3" height="15"/><rect class="cls-5" x="974.92" y="450.5" width="3" height="15" transform="translate(552.45 -937.61) rotate(90)"/><rect class="cls-5" x="60.79" y="198.31" width="3" height="15"/><rect class="cls-5" x="942.77" y="617.5" width="3" height="15" transform="translate(687.29 -738.46) rotate(90)"/><rect class="cls-5" x="92.79" y="198.31" width="3" height="15"/><rect class="cls-5" x="974.77" y="617.5" width="3" height="15" transform="translate(719.29 -770.46) rotate(90)"/></g></svg>