<svg xmlns="http://www.w3.org/2000/svg" viewBox="0 0 158.74 246.62"><defs><style>.cls-1,.cls-12,.cls-15,.cls-4{fill:#fff;}.cls-1,.cls-15,.cls-16,.cls-18,.cls-4{stroke:#000;stroke-miterlimit:10;}.cls-1{stroke-linecap:round;}.cls-1,.cls-15{stroke-width:0.3px;}.cls-2{fill:#cc051d;}.cls-3{fill:#29abe2;}.cls-5{font-size:16px;font-family:MyriadPro-Regular, Myriad Pro;}.cls-6{letter-spacing:-0.02em;}.cls-7{fill:#0071bc;}.cls-8{fill:#333;}.cls-9{fill:#006837;}.cls-10,.cls-16{fill:#d9e021;}.cls-11{fill:#666;}.cls-13{fill:#d1d700;}.cls-14{fill:#e6e6e6;}.cls-17{fill:#c1272d;}.cls-18{fill:none;}</style></defs><title>könig</title><g id="Ebene_1" data-name="Ebene 1"><path d="M1024.78,417a13.36,13.36,0,0,1,13.34,13.34V648.31a13.35,13.35,0,0,1-13.34,13.34H894.72a13.35,13.35,0,0,1-13.34-13.34V430.37A13.36,13.36,0,0,1,894.72,417h130.06m0-1H894.72a14.34,14.34,0,0,0-14.34,14.34V648.31a14.34,14.34,0,0,0,14.34,14.34h130.06a14.34,14.34,0,0,0,14.34-14.34V430.37A14.34,14.34,0,0,0,1024.78,416Z" transform="translate(-880.38 -416.03)"/></g><g id="Ebene_3" data-name="Ebene 3"><path class="cls-1" d="M960.09,572.19l-.52-.58h0l-.49-.56h0l-3.18-3.63-.13-.15-.1-.12h0l-.47-.53a1.7,1.7,0,0,1,0,.22h0c.11.53.21,1.07.29,1.61a13.73,13.73,0,0,1-1.93,4.9l-.07.09a1.84,1.84,0,0,1-.23.25l-.17.14a1.43,1.43,0,0,1-.3.2l.26-.13.15-.08.15-.07.09-.05,2.4-1.2a12.94,12.94,0,0,0,1,2.53l-.09,1.86v0l-.12,2.42-.1,2a35.64,35.64,0,0,0,2.35,2.75c1.21,1.26,2.27,2,2.73,1.58s-.93-3.07-2.41-5.32c1.77,2.36,3.85,4.88,4.41,4.32s-2.27-4.35-4.27-6.79l-1.19-1.47c-.36-.44-.57-.71-.54-.74s.29.17.63.6.67.89,1.11,1.48c1.89,2.55,4.75,6.43,5.76,5.42.26-.26-1.9-3.63-3.38-5.85,1.61,2,4.13,4.34,4.38,3.85C967.09,579.19,960.09,572.19,960.09,572.19Z" transform="translate(-880.38 -416.03)"/><polygon class="cls-2" points="86.62 137.65 82.62 143.65 78.62 146.65 74.62 140.65 71.62 136.65 73.62 132.65 78.62 132.65 84.62 134.65 86.62 137.65"/><path class="cls-3" d="M966,560.19s-4,7-2,13l-11-8s0-6,2-8,3-4,5-5,6,8,6,8Z" transform="translate(-880.38 -416.03)"/><polygon class="cls-4" points="152.99 180.47 152.81 180.69 152.49 181.06 149.13 185.07 88.98 134.5 81.57 128.27 77.02 124.44 75.5 123.16 70.36 118.84 70.07 118.6 68.63 117.38 66.83 115.88 64.01 113.5 58.85 109.16 55.86 106.65 53.92 105.02 52.05 103.45 51.09 102.64 50.66 102.28 47.93 99.99 43.32 96.12 40.57 93.8 40.17 93.46 39.01 92.49 36.38 90.28 36.11 90.05 26.24 81.75 26.18 81.7 22.5 78.61 5.6 64.4 5.43 64.25 5.25 64.1 5.59 63.69 8.35 60.41 9.11 59.51 22.5 70.77 26.42 74.06 26.45 74.09 31.4 78.25 39.83 85.34 40.84 86.19 44.17 88.99 45.1 89.77 48.04 92.24 48.64 92.75 48.73 92.82 57.95 100.57 68.32 109.29 73.33 113.5 74.9 114.82 75.5 115.32 76.9 116.5 79.83 118.96 82.6 121.29 87.62 125.51 89.12 126.77 89.73 127.29 93.3 130.29 99.08 135.14 100.28 136.16 106.63 141.5 109.07 143.55 109.08 143.56 109.63 144.01 112.74 146.63 115.59 149.03 116.55 149.84 120.07 152.79 120.46 153.12 121.71 154.18 124.36 156.4 124.69 156.67 136.75 166.82 136.79 166.85 140.62 170.07 152.99 180.47"/><text class="cls-5" transform="translate(152.1 226.76) rotate(180)"><tspan class="cls-6">K</tspan><tspan x="8.4" y="0">ÖNIG</tspan></text><polygon class="cls-7" points="95.5 134.5 82.5 134.5 78.5 129.5 76.5 126.5 77.5 122.5 83.5 122.5 88.5 126.5 95.5 134.5"/><rect class="cls-8" x="900.88" y="529.53" width="55" height="23" transform="translate(976.39 666.02) rotate(-180)"/><path class="cls-9" d="M913.88,594.53l-2-6,5-5,9-6,5-1,2,7s1,4,0,5-9,5-9,5Z" transform="translate(-880.38 -416.03)"/><path class="cls-10" d="M953.88,556.53s-11,13-17,17-16,12-16,12l-3-7-4-29,2-11,12-2,10,1,12,7,2,6-1,3Z" transform="translate(-880.38 -416.03)"/><polygon class="cls-7" points="43.5 90.5 43.48 90.51 40.57 93.8 40.39 94.01 30.45 105.29 29.27 106.63 28.5 107.5 21.5 113.5 20.5 114.36 14.5 119.5 6.5 123.5 5.61 64.77 5.6 64.4 5.6 64.05 5.59 63.69 8.35 60.41 8.52 60.58 11.52 63.64 22.5 72.86 26.36 76.1 26.39 76.13 38.85 86.59 39.19 86.88 41.34 88.68 43.11 90.17 43.5 90.5"/><polygon class="cls-11" points="65.5 108.5 55.5 109.5 34.5 107.5 28.5 106.5 45.5 87.5 65.5 108.5 65.5 108.5"/><path class="cls-10" d="M944.46,523.85S927.38,521,914.38,521s-24,12-24,21,5.5,17.5,12.5,16.5v-5s-2-3-2-10,2-14,14-14,38,3,38,3h5Z" transform="translate(-880.38 -416.03)"/><path class="cls-12" d="M936.86,517.53s.52,2.5-2.48,3.5-6-2-6-2-2,3-5,1-3-4-1-7l6-4,8.48,8.5Z" transform="translate(-880.38 -416.03)"/><circle class="cls-3" cx="44.5" cy="100.5" r="2"/><circle class="cls-3" cx="52.5" cy="101.5" r="2"/><circle class="cls-3" cx="48.5" cy="96.5" r="2"/><polygon class="cls-2" points="41.5 89.5 26.5 107.5 22.5 107.5 22.5 70.5 26.5 71.5 25.5 103.5 40.5 84.5 41.5 89.5"/><polygon class="cls-12" points="39.5 86.5 25.67 103.28 26.47 73.23 39.5 86.5"/><path class="cls-2" d="M920.88,585.53l-8,5a38.59,38.59,0,0,1-11-27v-21c0-11,6.45-13,14.73-13s34.27,2.74,34.27,5c0,1-9,10-9,10s-7-2-11-3-8,1-8,5a269.46,269.46,0,0,1-3,27C918.88,578.53,920.88,585.53,920.88,585.53Z" transform="translate(-880.38 -416.03)"/><path class="cls-2" d="M954.88,532.53s-3,2,2,6,7.43,2,7.43,2l-9.43-8Z" transform="translate(-880.38 -416.03)"/><polygon class="cls-2" points="55.5 147.5 58.5 147.5 58.5 151.5 55.5 151.5 55.5 154.5 51.5 154.5 51.5 151.5 48.5 151.5 48.5 147.5 51.5 147.5 51.5 144.5 55.5 144.5 55.5 147.5 55.5 147.5"/><path class="cls-13" d="M921.88,619.53l-6-4-2-3-2-4,1-10s-3-6,5-7,8.5-1.5,8.5-1.5,4-1,3-4a19.12,19.12,0,0,1-.62-5.53,6.32,6.32,0,0,1,2.21-4.76l4.91-4.21,17-19,4.5,7.5,2,6s1,7-1,10-5,11-5,11l-5,11-3,8-3.5,3.5-8-1h-4c-1,0-2,3-2,3l-6,8Z" transform="translate(-880.38 -416.03)"/><path class="cls-14" d="M943.88,607.53a81.66,81.66,0,0,1-4,11c-3,7-5,7-10,4s-7-4-7-4-2-4,1-9l3-5s1-7,6-1S943.88,607.53,943.88,607.53Z" transform="translate(-880.38 -416.03)"/><path class="cls-2" d="M935.88,624.53s-7-2-11-5-11-9-11-9l-7,7s7,5,12,9,15,6,15,6l2-8Z" transform="translate(-880.38 -416.03)"/><path class="cls-10" d="M933.88,632.53l1,9s-11-2-20-8-15-11-15-11l7-5Z" transform="translate(-880.38 -416.03)"/><circle class="cls-2" cx="53.5" cy="228.5" r="3"/><circle class="cls-2" cx="45.5" cy="225.5" r="3"/><circle class="cls-2" cx="37.5" cy="222.5" r="3"/><circle class="cls-2" cx="30.5" cy="218.5" r="3"/><circle class="cls-2" cx="23.5" cy="213.5" r="3"/><circle class="cls-2" cx="17.5" cy="208.5" r="3"/><path class="cls-15" d="M960.88,545.53l8,7s7.24,12.53,5,17c-1,2-4.66-11-4-9,1,3,4.58,10.42,3,12-1,1-5-11-5-11s5,10,4,13-6-12-6-12,5,13,4,14-10-13-10-13l6,9s-3,1-6-5a78.6,78.6,0,0,1-4-9l-3-6" transform="translate(-880.38 -416.03)"/><rect class="cls-3" x="943.63" y="536.65" width="16.5" height="15.27" rx="2.48" transform="translate(1117.6 -200.41) rotate(132.8)"/><polygon class="cls-16" points="101.33 167.63 94.11 174.77 88.4 180.41 88.4 212.12 124.4 212.12 124.4 179.45 122.74 177.99 122.6 177.87 122.59 177.85 117.95 173.76 105.89 163.12 104.1 164.89 101.33 167.63"/><polygon class="cls-7" points="124.4 184.97 124.4 179.45 122.75 177.99 122.6 177.87 122.59 177.85 88.4 207.39 88.4 212.12 92.56 212.12 124.4 184.97"/><polygon class="cls-17" points="122.75 177.99 122.6 177.87 122.59 177.85 117.95 173.76 88.4 199 88.4 207.47 122.75 177.99"/><polygon class="cls-18" points="88.12 212.15 124.12 212.15 124.12 179.49 105.61 163.15 88.12 180.45 88.12 212.15"/><rect class="cls-17" x="994" y="615.69" width="2" height="7" transform="translate(1109.62 822.34) rotate(-180)"/><rect class="cls-17" x="994" y="615.69" width="2" height="7" transform="translate(-504.57 1198.15) rotate(-90)"/><rect class="cls-7" x="978" y="592.69" width="2" height="7" transform="translate(1077.62 776.34) rotate(-180)"/><rect class="cls-7" x="978" y="592.69" width="2" height="7" transform="translate(-497.57 1159.15) rotate(-90)"/><path class="cls-1" d="M965.92,501.81l-.15.08-.15.07-.09.05-2.4,1.2a12.94,12.94,0,0,0-1-2.53l.09-1.86v0l.12-2.42.1-2a35.64,35.64,0,0,0-2.35-2.75c-1.21-1.26-2.27-2-2.73-1.58s.93,3.07,2.41,5.32c-1.77-2.36-3.85-4.88-4.41-4.32s2.27,4.35,4.27,6.79l1.19,1.47c.36.44.57.71.54.74s-.29-.17-.63-.6-.67-.89-1.11-1.48c-1.89-2.55-4.75-6.43-5.76-5.42-.26.26,1.88,3.6,3.37,5.82-1.62-2-4.13-4.31-4.37-3.82-1,2,6,9,6,9l.52.58h0l.49.56h0l3.18,3.63.13.15.1.12h0l.47.53a1.7,1.7,0,0,1,0-.22h0c-.11-.53-.21-1.07-.29-1.61a13.73,13.73,0,0,1,1.93-4.9l.07-.09a1.84,1.84,0,0,1,.23-.25l.17-.14a1.43,1.43,0,0,1,.3-.2Z" transform="translate(-880.38 -416.03)"/><polygon class="cls-2" points="71.62 105.97 75.62 99.97 79.62 96.97 83.62 102.97 86.62 106.97 84.62 110.97 79.62 110.97 73.62 108.97 71.62 105.97"/><path class="cls-3" d="M953,515.5s4-7,2-13l11,8s0,6-2,8-3,4-5,5-6-8-6-8Z" transform="translate(-880.38 -416.03)"/><polygon class="cls-4" points="152.99 179.53 152.65 179.93 152.65 179.94 149.89 183.22 149.13 184.12 135.74 172.86 131.82 169.57 131.79 169.54 126.87 165.41 118.41 158.29 117.4 157.44 114.07 154.64 113.14 153.86 110.2 151.39 109.6 150.88 109.51 150.81 100.29 143.06 89.92 134.34 84.91 130.13 83.33 128.8 82.74 128.31 81.34 127.13 78.41 124.67 75.64 122.34 70.62 118.12 69.12 116.86 68.51 116.34 64.94 113.34 59.16 108.49 57.96 107.47 51.61 102.13 49.17 100.08 49.16 100.07 48.61 99.62 45.5 97 42.65 94.6 41.69 93.79 38.17 90.84 37.78 90.51 36.53 89.45 33.88 87.23 33.55 86.96 21.49 76.81 21.45 76.78 17.62 73.56 5.25 63.16 5.44 62.94 5.75 62.57 9.11 58.56 69.26 109.13 76.67 115.36 81.22 119.19 82.74 120.47 87.88 124.79 88.17 125.03 89.61 126.25 91.41 127.75 94.23 130.13 99.39 134.47 102.37 136.97 104.32 138.61 106.19 140.18 107.15 140.99 107.58 141.35 110.31 143.64 114.92 147.51 117.67 149.83 118.07 150.17 119.23 151.14 121.86 153.35 122.13 153.58 132 161.88 132.06 161.93 135.74 165.02 152.64 179.23 152.64 179.24 152.81 179.38 152.99 179.53"/><text class="cls-5" transform="translate(6.14 16.86)"><tspan class="cls-6">K</tspan><tspan x="8.4" y="0">ÖNIG</tspan></text><polygon class="cls-7" points="62.74 109.12 75.74 109.12 79.74 114.12 81.74 117.12 80.74 121.12 74.74 121.12 69.74 117.12 62.74 109.12"/><rect class="cls-8" x="82.74" y="107.12" width="55" height="23"/><path class="cls-9" d="M1005.12,481.16l2,6-5,5-9,6-5,1-2-7s-1-4,0-5,9-5,9-5Z" transform="translate(-880.38 -416.03)"/><path class="cls-10" d="M965.12,519.16s11-13,17-17,16-12,16-12l3,7,4,29-2,11-12,2-10-1-12-7-2-6,1-3Z" transform="translate(-880.38 -416.03)"/><polygon class="cls-7" points="152.67 181.23 150.48 183.83 150.31 183.66 149.89 183.22 149.72 183.05 146.72 179.99 135.74 170.77 131.88 167.53 131.85 167.5 119.39 157.04 119.05 156.75 116.9 154.95 115.13 153.46 114.74 153.13 114.76 153.12 117 150.58 117.18 150.37 117.67 149.83 117.85 149.62 127.79 138.34 128.97 137 129.74 136.13 136.74 130.13 137.74 129.27 143.74 124.13 151.74 120.13 152.63 178.86 152.64 179.23 152.64 179.58 152.65 179.94 152.65 180.18 152.66 180.56 152.66 180.86 152.67 181.23"/><polygon class="cls-11" points="129.74 137.13 128.84 138.13 119.17 148.95 118.07 150.17 115.13 153.46 114.07 154.64 113.82 154.93 102.62 145.51 100.3 143.07 100.29 143.06 92.74 135.13 93.07 135.1 99.38 134.47 99.39 134.47 101.68 134.24 102.74 134.13 123.74 136.13 128.97 137 129.74 137.13"/><path class="cls-10" d="M974.54,551.83s17.08,2.83,30.08,2.83,24-12,24-21-5.5-17.5-12.5-16.5v5s2,3,2,10-2,14-14,14-38-3-38-3h-5Z" transform="translate(-880.38 -416.03)"/><path class="cls-12" d="M982.14,558.16s-.52-2.5,2.48-3.5,6,2,6,2,2-3,5-1,3,4,1,7l-6,4-8.48-8.5Z" transform="translate(-880.38 -416.03)"/><circle class="cls-3" cx="113.74" cy="143.12" r="2"/><circle class="cls-3" cx="105.74" cy="142.12" r="2"/><circle class="cls-3" cx="109.74" cy="147.12" r="2"/><polygon class="cls-2" points="135.74 136.13 135.74 172.86 131.82 169.57 131.83 169.21 131.88 167.53 132.06 161.93 132.07 161.57 132.74 140.13 132.57 140.34 132.57 140.35 122.3 153.36 122.13 153.58 119.39 157.04 119.06 157.46 118.58 158.07 118.41 158.29 117.74 159.13 117.4 157.44 117.31 157 116.9 154.95 116.74 154.13 119.23 151.14 119.41 150.93 130.41 137.73 131.74 136.13 135.74 136.13"/><polygon class="cls-12" points="118.74 157.12 132.57 140.34 131.77 170.39 118.74 157.12"/><path class="cls-2" d="M998.12,490.16l8-5a38.59,38.59,0,0,1,11,27v21c0,11-6.45,13-14.73,13s-34.27-2.75-34.27-5c0-1,9-10,9-10s7,2,11,3,8-1,8-5a269.46,269.46,0,0,1,3-27C1000.12,497.16,998.12,490.16,998.12,490.16Z" transform="translate(-880.38 -416.03)"/><path class="cls-2" d="M964.12,543.16s3-2-2-6-7.43-2-7.43-2l9.43,8Z" transform="translate(-880.38 -416.03)"/><polygon class="cls-2" points="102.74 96.12 99.74 96.12 99.74 92.12 102.74 92.12 102.74 89.12 106.74 89.12 106.74 92.12 109.74 92.12 109.74 96.12 106.74 96.12 106.74 99.12 102.74 99.12 102.74 96.12 102.74 96.12"/><path class="cls-13" d="M997.12,456.16l6,4,2,3,2,4-1,10s3,6-5,7-8.5,1.5-8.5,1.5-4,1-3,4a19.08,19.08,0,0,1,.62,5.53,6.3,6.3,0,0,1-2.21,4.75l-4.91,4.22-17,19-4.5-7.5-2-6s-1-7,1-10,5-11,5-11l5-11,3-8,3.5-3.5,8,1h4c1,0,2-3,2-3l6-8Z" transform="translate(-880.38 -416.03)"/><path class="cls-14" d="M975.12,468.16a81.66,81.66,0,0,1,4-11c3-7,5-7,10-4s7,4,7,4,2,4-1,9l-3,5s-1,7-6,1S975.12,468.16,975.12,468.16Z" transform="translate(-880.38 -416.03)"/><path class="cls-2" d="M983.12,451.16s7,2,11,5,11,9,11,9l7-7s-7-5-12-9-15-6-15-6l-2,8Z" transform="translate(-880.38 -416.03)"/><path class="cls-10" d="M985.12,443.16l-1-9s11,2,20,8,15,11,15,11l-7,5Z" transform="translate(-880.38 -416.03)"/><circle class="cls-2" cx="104.74" cy="15.12" r="3"/><circle class="cls-2" cx="112.74" cy="18.12" r="3"/><circle class="cls-2" cx="120.74" cy="21.12" r="3"/><circle class="cls-2" cx="127.74" cy="25.12" r="3"/><circle class="cls-2" cx="134.74" cy="30.12" r="3"/><circle class="cls-2" cx="140.74" cy="35.12" r="3"/><path class="cls-15" d="M958.12,530.16l-8-7s-7.24-12.53-5-17c1-2,4.66,11,4,9-1-3-4.58-10.42-3-12,1-1,5,11,5,11s-5-10-4-13,6,12,6,12-5-13-4-14,10,13,10,13l-6-9s3-1,6,5a78.6,78.6,0,0,1,4,9l3,6" transform="translate(-880.38 -416.03)"/><rect class="cls-3" x="958.87" y="523.76" width="16.5" height="15.27" rx="2.48" transform="translate(-960.25 463.96) rotate(-47.2)"/><polygon class="cls-16" points="56.91 75.99 64.13 68.85 69.84 63.21 69.84 31.5 33.84 31.5 33.84 64.17 35.5 65.63 35.64 65.75 35.65 65.77 40.29 69.86 52.35 80.5 54.14 78.73 56.91 75.99"/><polygon class="cls-7" points="33.84 58.65 33.84 64.17 35.49 65.63 35.64 65.75 35.65 65.77 69.84 36.23 69.84 31.5 65.68 31.5 33.84 58.65"/><polygon class="cls-17" points="35.49 65.63 35.64 65.75 35.65 65.77 40.29 69.86 69.84 44.62 69.84 36.15 35.49 65.63"/><polygon class="cls-18" points="70.12 31.47 34.12 31.47 34.12 64.13 52.63 80.47 70.12 63.17 70.12 31.47"/><rect class="cls-17" x="42.62" y="36.97" width="2" height="7"/><rect class="cls-17" x="923" y="453" width="2" height="7" transform="translate(500.12 -883.53) rotate(90)"/><rect class="cls-7" x="58.62" y="59.97" width="2" height="7"/><rect class="cls-7" x="939" y="476" width="2" height="7" transform="translate(539.12 -876.53) rotate(90)"/><polygon class="cls-4" points="153.95 178.21 152.9 179.46 152.65 179.76 149.81 183.14 149.04 184.05 148.79 184.35 131.78 170.04 129.73 168.31 118.17 158.59 117.52 158.04 113.82 154.93 102.62 145.51 84.35 130.13 82.74 128.78 80.91 127.24 80.78 127.13 4.95 63.33 10.11 57.19 71.84 109.13 76.57 113.11 77.61 113.98 77.76 114.11 81.67 117.4 82.74 118.3 88.88 123.46 89.31 123.83 93.23 127.12 94.33 128.05 96.8 130.13 101.68 134.24 105.36 137.33 106.92 138.64 111.78 142.73 114.47 144.99 116.3 146.53 118.75 148.6 119.17 148.95 120.28 149.88 122.9 152.08 123.14 152.29 132.05 159.79 132.12 159.85 135.74 162.89 152.6 177.08 153.95 178.21"/></g></svg>