<svg xmlns="http://www.w3.org/2000/svg" viewBox="0 0 158.74 246.62"><defs><style>.cls-1{fill:#333;}.cls-2,.cls-7{fill:#d9e021;}.cls-3{fill:#0071bc;}.cls-4{fill:none;}.cls-11,.cls-4,.cls-7,.cls-8{stroke:#000;}.cls-10,.cls-11,.cls-4,.cls-7,.cls-8{stroke-miterlimit:10;}.cls-5,.cls-8{fill:#ccc;}.cls-6{fill:#c1272d;}.cls-8{stroke-width:0.3px;}.cls-9{font-size:18px;font-family:MyriadPro-Regular, Myriad Pro;}.cls-10{fill:#666;stroke:#666;stroke-linecap:round;}.cls-11{fill:#fff;}</style></defs><title>ober</title><g id="Ebene_1" data-name="Ebene 1"><path d="M1025,419.19a13.35,13.35,0,0,1,13.34,13.34V650.47A13.35,13.35,0,0,1,1025,663.81H895a13.35,13.35,0,0,1-13.34-13.34V432.53A13.35,13.35,0,0,1,895,419.19H1025m0-1H895a14.34,14.34,0,0,0-14.34,14.34V650.47A14.34,14.34,0,0,0,895,664.81H1025a14.34,14.34,0,0,0,14.34-14.34V432.53A14.34,14.34,0,0,0,1025,418.19Z" transform="translate(-880.63 -418.19)"/></g><g id="Ebene_4" data-name="Ebene 4"><ellipse class="cls-1" cx="25.63" cy="32.38" rx="4.11" ry="3.84"/></g><g id="Ebene_3" data-name="Ebene 3"><path class="cls-2" d="M935.22,519.28l9-2.75,1-12-3-2s-3,5-5,6-7,3-7,3Z" transform="translate(-880.63 -418.19)"/><path class="cls-3" d="M997.79,563.62S996.72,548,997.72,541s7-33,2-44-9-19-14-20-17,2-17,2l-8,8s-2,10-1,13-2,20-2,22v16.12Z" transform="translate(-880.63 -418.19)"/><path class="cls-4" d="M966.19,543.53s18-20,16-35,1-21,6-21,11,15,11,24-8,29-12,34a48.88,48.88,0,0,0-5,7H979.7Z" transform="translate(-880.63 -418.19)"/><path class="cls-5" d="M968,475.68l.26-4.15a6.93,6.93,0,0,1-5,0c-3-1-3-3-3-5a10.07,10.07,0,0,1-1-3v-4s-3,0-2-2,2-3,2-5,1-10,2-11,8,1,8,1,3,1,3,2,3,3,3,5,2,8,2,8l2,6s0,4,1,4,2,2,2,2l-.45,3.28-1.55,1.72-11,3Z" transform="translate(-880.63 -418.19)"/><path class="cls-6" d="M934.06,523.1A76.65,76.65,0,0,1,948.72,495c11-13,15-14,15-14h8s-2,8,0,28,3.49,22.2,3.49,22.2l-9,12.3L934.06,523.1" transform="translate(-880.63 -418.19)"/><path class="cls-2" d="M947.59,531.42s1.63-16.89,6.63-30.89,11-19,11-19h1s-4,20-2,34a95.33,95.33,0,0,1-.2,26.62l-16.43-10.73" transform="translate(-880.63 -418.19)"/><path class="cls-2" d="M967.22,475.53a18.58,18.58,0,0,0,8,0,24.89,24.89,0,0,0,7-3l3,4a25.07,25.07,0,0,1-9,4c-5,1-13,0-13,0Z" transform="translate(-880.63 -418.19)"/><path class="cls-3" d="M922.22,502.53s0-4,5-7a36.85,36.85,0,0,1,9-4c2-1,4,3,5,6s3,7-3,11-11,4-13,0Z" transform="translate(-880.63 -418.19)"/><polyline class="cls-7" points="39.89 72.57 38.1 74.34 26.04 63.7 21.4 59.61 21.39 59.59 21.25 59.47 19.59 58.01 19.59 25.34 55.59 25.34 55.59 57.05 49.88 62.69 42.69 69.8 42.66 69.83"/><polygon class="cls-3" points="19.59 52.49 19.59 58.01 21.25 59.47 21.39 59.59 21.4 59.61 55.59 30.07 55.59 25.34 51.43 25.34 19.59 52.49"/><polygon class="cls-6" points="21.25 59.47 21.39 59.59 21.4 59.61 26.04 63.71 55.59 38.47 55.59 29.99 21.25 59.47"/><ellipse class="cls-1" cx="43.25" cy="58.01" rx="4.11" ry="3.84"/><polygon class="cls-4" points="55.59 25.34 19.59 25.34 19.59 58.01 38.1 74.34 55.59 57.05 55.59 25.34"/><path class="cls-8" d="M935.22,498.53a52,52,0,0,0-5,3c-2.2,1.47-7.17-5.55-9.7-10.77l2.77-2.74.37.43-.34-.46-1.1-1.46a4.83,4.83,0,0,0,0-4c-1-2-5-1-5-3s3-1,6-1a12.13,12.13,0,0,1,5,1,7.24,7.24,0,0,1,2.29,1.35c.23.19.47.41.71.65a7.81,7.81,0,0,1,2,5Z" transform="translate(-880.63 -418.19)"/><text class="cls-9" transform="translate(14.65 23.08)">OBER</text><path class="cls-2" d="M961.22,441.53s0-5,11-5,15,8,15,15-1,7,2,12-4,8-7,9-8-8-8-8,3-3,2-5-3,0-5-2,2-4,0-7-3-2-4-4-2-4-3-4A3.67,3.67,0,0,1,961.22,441.53Z" transform="translate(-880.63 -418.19)"/><line class="cls-10" x1="79.09" y1="44.84" x2="70.59" y2="46.34"/><rect class="cls-11" x="958.64" y="489.49" width="2.94" height="103.85" transform="translate(-892.57 642.89) rotate(-57.55)"/><path class="cls-2" d="M984.78,563.72l-9,2.75-1,12,3,2s3-5,5-6,7-3,7-3Z" transform="translate(-880.63 -418.19)"/><path class="cls-3" d="M922.21,519.38s1.07,15.59.07,22.59-7,33-2,44,9,19,14,20,17-2,17-2l8-8s2-10,1-13,2-20,2-22V544.85Z" transform="translate(-880.63 -418.19)"/><path class="cls-4" d="M953.81,539.47s-18,20-16,35-1,21-6,21-11-15-11-24,8-29,12-34a48.88,48.88,0,0,0,5-7h2.52Z" transform="translate(-880.63 -418.19)"/><path class="cls-5" d="M952,607.32l-.26,4.15a6.93,6.93,0,0,1,5,0c3,1,3,3,3,5a10.07,10.07,0,0,1,1,3v4s3,0,2,2-2,3-2,5-1,10-2,11-8-1-8-1-3-1-3-2-3-3-3-5-2-8-2-8l-2-6s0-4-1-4-2-2-2-2l.45-3.28,1.55-1.72,11-3Z" transform="translate(-880.63 -418.19)"/><path class="cls-6" d="M985.94,559.9A76.65,76.65,0,0,1,971.28,588c-11,13-15,14-15,14h-8s2-8,0-28-3.49-22.2-3.49-22.2l9-12.3,32.13,20.43" transform="translate(-880.63 -418.19)"/><path class="cls-2" d="M972.41,551.58s-1.63,16.89-6.63,30.89-11,19-11,19h-1s4-20,2-34a95.33,95.33,0,0,1,.2-26.62l16.43,10.73" transform="translate(-880.63 -418.19)"/><path class="cls-2" d="M952.78,607.47a18.58,18.58,0,0,0-8,0,24.89,24.89,0,0,0-7,3l-3-4a25.07,25.07,0,0,1,9-4c5-1,13,0,13,0Z" transform="translate(-880.63 -418.19)"/><path class="cls-3" d="M997.78,580.47s0,4-5,7a36.85,36.85,0,0,1-9,4c-2,1-4-3-5-6s-3-7,3-11,11-4,13,0Z" transform="translate(-880.63 -418.19)"/><polyline class="cls-7" points="118.85 174.05 120.64 172.28 132.7 182.92 137.34 187.01 137.35 187.03 137.49 187.15 139.15 188.61 139.15 221.28 103.15 221.28 103.15 189.57 108.86 183.93 116.05 176.82 116.08 176.79"/><polygon class="cls-3" points="139.15 194.13 139.15 188.61 137.5 187.15 137.35 187.03 137.34 187.01 103.15 216.55 103.15 221.28 107.31 221.28 139.15 194.13"/><polygon class="cls-6" points="137.5 187.15 137.35 187.03 137.34 187.01 132.7 182.91 103.15 208.15 103.15 216.63 137.5 187.15"/><ellipse class="cls-1" cx="115.49" cy="188.61" rx="4.11" ry="3.84"/><polygon class="cls-4" points="103.15 221.28 139.15 221.28 139.15 188.61 120.64 172.28 103.15 189.57 103.15 221.28"/><path class="cls-8" d="M984.78,584.47a52,52,0,0,0,5-3c2.2-1.47,7.17,5.55,9.7,10.77L996.71,595l-.37-.43.34.46,1.1,1.46a4.83,4.83,0,0,0,0,4c1,2,5,1,5,3s-3,1-6,1a12.13,12.13,0,0,1-5-1,7.24,7.24,0,0,1-2.29-1.35c-.23-.19-.47-.41-.71-.65a7.81,7.81,0,0,1-2-5Z" transform="translate(-880.63 -418.19)"/><text class="cls-9" transform="translate(144.09 223.54) rotate(180)">OBER</text><path class="cls-2" d="M958.78,641.47s0,5-11,5-15-8-15-15,1-7-2-12,4-8,7-9,8,8,8,8-3,3-2,5,3,0,5,2-2,4,0,7,3,2,4,4,2,4,3,4A3.67,3.67,0,0,1,958.78,641.47Z" transform="translate(-880.63 -418.19)"/><line class="cls-10" x1="79.65" y1="201.78" x2="88.15" y2="200.28"/><rect class="cls-11" x="958.42" y="489.66" width="2.94" height="103.85" transform="translate(1051.34 -395.99) rotate(122.45)"/></g></svg>