<svg xmlns="http://www.w3.org/2000/svg" viewBox="0 0 158.74 246.62"><defs><style>.cls-1{font-size:18px;font-family:MyriadPro-Regular, Myriad Pro;}.cls-2,.cls-7,.cls-8{fill:#d9e021;}.cls-3,.cls-6{fill:#ccc;}.cls-4{fill:#0071bc;}.cls-5{fill:#c1272d;}.cls-10,.cls-11,.cls-12,.cls-6,.cls-7,.cls-8{stroke:#000;stroke-miterlimit:10;}.cls-12,.cls-6{stroke-width:0.3px;}.cls-10,.cls-8{stroke-linecap:round;}.cls-9{fill:#333;}.cls-10,.cls-11{fill:none;}.cls-12{fill:#fff;}</style></defs><title>under</title><g id="Ebene_1" data-name="Ebene 1"><path d="M814,397.19a13.35,13.35,0,0,1,13.34,13.34V628.47A13.35,13.35,0,0,1,814,641.81H684a13.35,13.35,0,0,1-13.34-13.34V410.53A13.35,13.35,0,0,1,684,397.19H814m0-1H684a14.34,14.34,0,0,0-14.34,14.34V628.47A14.34,14.34,0,0,0,684,642.81H814a14.34,14.34,0,0,0,14.34-14.34V410.53A14.34,14.34,0,0,0,814,396.19Z" transform="translate(-669.63 -396.19)"/></g><g id="Ebene_5" data-name="Ebene 5"><text class="cls-1" transform="translate(6.49 19.09)">UNDER</text><path class="cls-2" d="M759,438s22,5,23,7-23,0-23,1,4,4,3,5-8,1-11-2-5-11-5-11Z" transform="translate(-669.63 -396.19)"/><path class="cls-2" d="M756,437s10-21,4-26-17.1-3-32,10c-8,7,28,16,28,16" transform="translate(-669.63 -396.19)"/><path class="cls-3" d="M752.5,447.5a10.07,10.07,0,0,1-1,3l-1,5-7,7-8.15.14,1.15-4.14v-4h-11a2,2,0,0,1-2-2c0-1.55,1.21-1.3,1.74-2.51a3.55,3.55,0,0,0,.26-1.49v-6s-5-1-4-3,4-4,4-4v-11h12s1-2,2,0,5,4,5,4l4,5v6l3,6A3.49,3.49,0,0,1,752.5,447.5Z" transform="translate(-669.63 -396.19)"/><path class="cls-4" d="M756,437s-5-7-11-10a48.74,48.74,0,0,0-13-4l11-10s3-3,1-4-21,14-18,16,6,6,11,8S754,443,756,437Z" transform="translate(-669.63 -396.19)"/><path class="cls-5" d="M740,427s3-8,7-11,9-6,9-6,1-1,3,0,1,4-2,6-11,13-11,13-2,3-5,2S740,427,740,427Z" transform="translate(-669.63 -396.19)"/><circle class="cls-4" cx="91.37" cy="12.81" r="4"/><path class="cls-5" d="M764,406s7-3,10,1,4,7,2,9-7,0-8-2,0-5-2-5h-3l1-2.62" transform="translate(-669.63 -396.19)"/><path class="cls-4" d="M731,491l-3-4-2-12s6-13,13-15a37.91,37.91,0,0,0,12-6s10.31,10.75,10.16,10.38-5.41,14.12-5.41,14.12L740,489Z" transform="translate(-669.63 -396.19)"/><path class="cls-5" d="M725.55,500.92S727,491,731,488s23-24,22-28a32.24,32.24,0,0,0-2-6s12,0,12,4-10,27-10,27-7,5-11,8-12,10-12,10Z" transform="translate(-669.63 -396.19)"/><path class="cls-2" d="M726.21,551.33,724,524v-4l-11-11s19-12,21-14,11-18,13-19,12-11,13-12,3-6,3-6a20.54,20.54,0,0,1,6,8,13.64,13.64,0,0,0,5.6,6.87l-48.39,78.46Z" transform="translate(-669.63 -396.19)"/><ellipse class="cls-5" cx="71.87" cy="117.31" rx="4.5" ry="1.5"/><path class="cls-5" d="M743.17,525.36A29.9,29.9,0,0,1,734,525c-4-1-11-3-11-3l-1,6s7,3,10,3h7.75Z" transform="translate(-669.63 -396.19)"/><path class="cls-2" d="M726.08,475.46s2.47-5.12,4.2-7.79S733,465,733,465s0,12,2,15,5,7,6,6,2-7,1-9-6.86-14.82-6.86-14.82l1.86-1.31s1-1.87-2-2.87-13,8-13,11S724.15,477.91,726.08,475.46Z" transform="translate(-669.63 -396.19)"/><path class="cls-6" d="M711.15,489S704,481,699,484s-2,5-2,5h-6s-3,0-3,1a2.15,2.15,0,0,0,2,2s6,0,6,2-1,8,7,9,9-1,9-1l1-6Z" transform="translate(-669.63 -396.19)"/><path class="cls-5" d="M721,490s-10-6-10-3,1,5,1,9-4,9-2,10,11-4,11-4h0l1-2-1-10" transform="translate(-669.63 -396.19)"/><polygon class="cls-2" points="59.6 93.77 51.37 93.81 51.67 105.5 56.37 103.01 59.6 93.77"/><polygon class="cls-7" points="14.37 92.81 33.37 92.81 27.37 78.81 8.37 78.81 14.37 92.81"/><line class="cls-8" x1="27.37" y1="78.81" x2="14.37" y2="92.81"/><line class="cls-8" x1="8.37" y1="78.81" x2="33.37" y2="92.81"/><path class="cls-5" d="M714.18,510.18,709,513s5,0,7,3a54.36,54.36,0,0,1,4,8s5-4,3-6S714.18,510.18,714.18,510.18Z" transform="translate(-669.63 -396.19)"/><path class="cls-6" d="M708.56,515.62S699,523,699,527s1,5,2,5,2-2,2-3l-1,8s0,3,1,3,2-3,2-3l7-5s3-3,3-5a28.27,28.27,0,0,1,.61-4.81L715,519l-3-4Z" transform="translate(-669.63 -396.19)"/><path class="cls-9" d="M721,525a19.56,19.56,0,0,0-5-9c-4-4-8-4-8-4l-2,2a50,50,0,0,1,7,5,79.74,79.74,0,0,1,6,8Z" transform="translate(-669.63 -396.19)"/><path class="cls-10" d="M724,520s31-19,32-24,11-14,11-14,7-9,0-20" transform="translate(-669.63 -396.19)"/><polygon class="cls-7" points="48.37 138.81 48.37 172.81 46.76 174.33 46.62 174.46 46.61 174.48 42.1 178.74 30.37 189.81 13.37 171.81 13.37 138.81 48.37 138.81"/><polygon class="cls-4" points="48.37 167.07 48.37 172.81 46.76 174.33 46.62 174.46 46.61 174.48 13.37 143.73 13.37 138.81 17.41 138.81 48.37 167.07"/><polygon class="cls-5" points="46.76 174.33 46.62 174.46 46.61 174.48 42.1 178.74 13.37 152.47 13.37 143.65 46.76 174.33"/><circle class="cls-9" cx="39.37" cy="149.81" r="4"/><circle class="cls-9" cx="25.37" cy="172.81" r="4"/><polygon class="cls-11" points="13.37 138.81 48.37 138.81 48.37 172.81 30.37 189.81 13.37 171.81 13.37 138.81"/><text class="cls-1" transform="translate(152.4 225.03) rotate(180)">UNDER</text><path class="cls-2" d="M739.16,598.5s-22-5-23-7,23,0,23-1-4-4-3-5,8-1,11,2,5,11,5,11Z" transform="translate(-669.63 -396.19)"/><path class="cls-2" d="M742.16,599.5s-10,21-4,26,17.1,3,32-10c8-7-28-16-28-16" transform="translate(-669.63 -396.19)"/><path class="cls-3" d="M745.66,589a10.07,10.07,0,0,1,1-3l1-5,7-7,8.15-.14L761.66,578v4h11a2,2,0,0,1,2,2c0,1.55-1.21,1.3-1.74,2.51a3.55,3.55,0,0,0-.26,1.49v6s5,1,4,3-4,4-4,4v11h-12s-1,2-2,0-5-4-5-4l-4-5v-6l-3-6A3.49,3.49,0,0,1,745.66,589Z" transform="translate(-669.63 -396.19)"/><path class="cls-4" d="M742.16,599.5s5,7,11,10a48.74,48.74,0,0,0,13,4l-11,10s-3,3-1,4,21-14,18-16-6-6-11-8S744.16,593.5,742.16,599.5Z" transform="translate(-669.63 -396.19)"/><path class="cls-5" d="M758.16,609.5s-3,8-7,11-9,6-9,6-1,1-3,0-1-4,2-6,11-13,11-13,2-3,5-2S758.16,609.5,758.16,609.5Z" transform="translate(-669.63 -396.19)"/><circle class="cls-4" cx="67.53" cy="231.31" r="4"/><path class="cls-5" d="M734.16,630.5s-7,3-10-1-4-7-2-9,7,0,8,2,0,5,2,5h3l-1,2.62" transform="translate(-669.63 -396.19)"/><path class="cls-4" d="M767.16,545.5l3,4,2,12s-6,13-13,15a37.91,37.91,0,0,0-12,6S736.84,571.75,737,572.12,742.4,558,742.4,558l15.76-10.5Z" transform="translate(-669.63 -396.19)"/><path class="cls-5" d="M772.6,535.58s-1.44,9.92-5.44,12.92-23,24-22,28a32.24,32.24,0,0,0,2,6s-12,0-12-4,10-27,10-27,7-5,11-8,12-10,12-10Z" transform="translate(-669.63 -396.19)"/><path class="cls-2" d="M771.94,485.17l2.22,27.33v4l11,11s-19,12-21,14-11,18-13,19-12,11-13,12-3,6-3,6a20.54,20.54,0,0,1-6-8,13.64,13.64,0,0,0-5.6-6.87l48.38-78.46Z" transform="translate(-669.63 -396.19)"/><ellipse class="cls-5" cx="87.03" cy="126.81" rx="4.5" ry="1.5"/><path class="cls-5" d="M755,511.14a30,30,0,0,1,9.18.36c4,1,11,3,11,3l1-6s-7-3-10-3h-7.75Z" transform="translate(-669.63 -396.19)"/><path class="cls-2" d="M772.08,561s-2.48,5.12-4.2,7.79-2.72,2.67-2.72,2.67,0-12-2-15-5-7-6-6-2,7-1,9S763,574.32,763,574.32l-1.86,1.31s-1,1.87,2,2.87,13-8,13-11S774,558.59,772.08,561Z" transform="translate(-669.63 -396.19)"/><path class="cls-6" d="M787,547.46s7.15,8,12.15,5,2-5,2-5h6s3,0,3-1a2.15,2.15,0,0,0-2-2s-6,0-6-2,1-8-7-9-9,1-9,1l-1,6Z" transform="translate(-669.63 -396.19)"/><path class="cls-5" d="M777.16,546.5s10,6,10,3-1-5-1-9,4-9,2-10-11,4-11,4h0l-1,2,1,10" transform="translate(-669.63 -396.19)"/><polygon class="cls-2" points="99.29 150.35 107.53 150.31 107.22 138.62 102.53 141.11 99.29 150.35"/><polygon class="cls-7" points="144.53 151.31 125.53 151.31 131.53 165.31 150.53 165.31 144.53 151.31"/><line class="cls-7" x1="131.53" y1="165.31" x2="144.53" y2="151.31"/><line class="cls-7" x1="150.53" y1="165.31" x2="125.53" y2="151.31"/><path class="cls-5" d="M784,526.32l5.18-2.82s-5,0-7-3a54.36,54.36,0,0,1-4-8s-5,4-3,6S784,526.32,784,526.32Z" transform="translate(-669.63 -396.19)"/><path class="cls-6" d="M789.6,520.88s9.56-7.38,9.56-11.38-1-5-2-5-2,2-2,3l1-8s0-3-1-3-2,3-2,3l-7,5s-3,3-3,5a27.84,27.84,0,0,1-.62,4.81l.62,3.19,3,4Z" transform="translate(-669.63 -396.19)"/><path class="cls-9" d="M777.16,511.5a19.56,19.56,0,0,0,5,9c4,4,8,4,8,4l2-2a50,50,0,0,1-7-5,79.74,79.74,0,0,1-6-8Z" transform="translate(-669.63 -396.19)"/><path class="cls-10" d="M774.16,516.5s-31,19-32,24-11,14-11,14-7,9,0,20" transform="translate(-669.63 -396.19)"/><polygon class="cls-7" points="110.53 105.31 110.53 71.31 112.14 69.79 112.28 69.66 112.28 69.64 116.8 65.38 128.53 54.31 145.53 72.31 145.53 105.31 110.53 105.31"/><polygon class="cls-4" points="110.53 77.05 110.53 71.31 112.14 69.79 112.28 69.66 112.28 69.64 145.53 100.39 145.53 105.31 141.49 105.31 110.53 77.05"/><polygon class="cls-5" points="112.14 69.79 112.28 69.66 112.28 69.64 116.8 65.38 145.53 91.65 145.53 100.47 112.14 69.79"/><circle class="cls-9" cx="119.53" cy="94.31" r="4"/><circle class="cls-9" cx="133.53" cy="71.31" r="4"/><polygon class="cls-11" points="145.53 105.31 110.53 105.31 110.53 71.31 128.53 54.31 145.53 72.31 145.53 105.31"/></g><g id="Ebene_3" data-name="Ebene 3"><rect class="cls-12" x="745.99" y="459.76" width="4.65" height="117.09" transform="translate(443.58 956.05) rotate(-148.34)"/></g></svg>