<svg id="Ebene_1" data-name="Ebene 1" xmlns="http://www.w3.org/2000/svg" xmlns:xlink="http://www.w3.org/1999/xlink" viewBox="0 0 158.74 246.62"><defs><style>.cls-1{stroke:#000;stroke-miterlimit:10;fill:url(#Unbenannter_Verlauf_41);}.cls-2{fill:#e8de2d;}.cls-3{fill:#cc051d;}.cls-4{fill:#19bab6;}.cls-5{fill:#0071bc;}.cls-6{fill:#ccc;}.cls-7{fill:#d8c623;}.cls-8{fill:#1a1a1a;}.cls-9{fill:#d9e021;}.cls-10{fill:red;}</style><linearGradient id="Unbenannter_Verlauf_41" x1="963.17" y1="652.13" x2="963.17" y2="433.13" gradientTransform="translate(-4.17 166.2) scale(1 0.69)" gradientUnits="userSpaceOnUse"><stop offset="0" stop-color="#c1272d"/><stop offset="0" stop-color="#c22a2d"/><stop offset="0" stop-color="#ce532a"/><stop offset="0.01" stop-color="#d97728"/><stop offset="0.01" stop-color="#e29726"/><stop offset="0.01" stop-color="#eab325"/><stop offset="0.02" stop-color="#f1c923"/><stop offset="0.03" stop-color="#f6da22"/><stop offset="0.03" stop-color="#f9e522"/><stop offset="0.04" stop-color="#fbec21"/><stop offset="0.07" stop-color="#fcee21"/><stop offset="0.07" stop-color="#fbeb21"/><stop offset="0.07" stop-color="#efc224"/><stop offset="0.08" stop-color="#e49e26"/><stop offset="0.08" stop-color="#db7e28"/><stop offset="0.08" stop-color="#d36229"/><stop offset="0.09" stop-color="#cc4c2b"/><stop offset="0.09" stop-color="#c73b2c"/><stop offset="0.1" stop-color="#c4302c"/><stop offset="0.11" stop-color="#c2292d"/><stop offset="0.14" stop-color="#c1272d"/><stop offset="0.14" stop-color="#c22a2d"/><stop offset="0.14" stop-color="#ce532a"/><stop offset="0.14" stop-color="#d97728"/><stop offset="0.15" stop-color="#e29726"/><stop offset="0.15" stop-color="#eab325"/><stop offset="0.16" stop-color="#f1c923"/><stop offset="0.16" stop-color="#f6da22"/><stop offset="0.17" stop-color="#f9e522"/><stop offset="0.18" stop-color="#fbec21"/><stop offset="0.21" stop-color="#fcee21"/><stop offset="0.21" stop-color="#fbeb21"/><stop offset="0.21" stop-color="#efc224"/><stop offset="0.21" stop-color="#e49e26"/><stop offset="0.22" stop-color="#db7e28"/><stop offset="0.22" stop-color="#d36229"/><stop offset="0.23" stop-color="#cc4c2b"/><stop offset="0.23" stop-color="#c73b2c"/><stop offset="0.24" stop-color="#c4302c"/><stop offset="0.25" stop-color="#c2292d"/><stop offset="0.29" stop-color="#c1272d"/><stop offset="0.29" stop-color="#c22a2d"/><stop offset="0.29" stop-color="#ce532a"/><stop offset="0.29" stop-color="#d97728"/><stop offset="0.3" stop-color="#e29726"/><stop offset="0.3" stop-color="#eab325"/><stop offset="0.31" stop-color="#f1c923"/><stop offset="0.32" stop-color="#f6da22"/><stop offset="0.33" stop-color="#f9e522"/><stop offset="0.34" stop-color="#fbec21"/><stop offset="0.38" stop-color="#fcee21"/><stop offset="0.38" stop-color="#fbeb21"/><stop offset="0.38" stop-color="#efc224"/><stop offset="0.39" stop-color="#e49e26"/><stop offset="0.4" stop-color="#db7e28"/><stop offset="0.4" stop-color="#d36229"/><stop offset="0.41" stop-color="#cc4c2b"/><stop offset="0.42" stop-color="#c73b2c"/><stop offset="0.43" stop-color="#c4302c"/><stop offset="0.45" stop-color="#c2292d"/><stop offset="0.5" stop-color="#c1272d"/><stop offset="0.5" stop-color="#c22a2d"/><stop offset="0.5" stop-color="#ce532a"/><stop offset="0.51" stop-color="#d97728"/><stop offset="0.51" stop-color="#e29726"/><stop offset="0.52" stop-color="#eab325"/><stop offset="0.53" stop-color="#f1c923"/><stop offset="0.53" stop-color="#f6da22"/><stop offset="0.54" stop-color="#f9e522"/><stop offset="0.56" stop-color="#fbec21"/><stop offset="0.59" stop-color="#fcee21"/><stop offset="0.59" stop-color="#fbeb21"/><stop offset="0.6" stop-color="#efc224"/><stop offset="0.6" stop-color="#e49e26"/><stop offset="0.61" stop-color="#db7e28"/><stop offset="0.61" stop-color="#d36229"/><stop offset="0.62" stop-color="#cc4c2b"/><stop offset="0.62" stop-color="#c73b2c"/><stop offset="0.63" stop-color="#c4302c"/><stop offset="0.64" stop-color="#c2292d"/><stop offset="0.68" stop-color="#c1272d"/><stop offset="0.68" stop-color="#c22a2d"/><stop offset="0.68" stop-color="#ce532a"/><stop offset="0.68" stop-color="#d97728"/><stop offset="0.69" stop-color="#e29726"/><stop offset="0.69" stop-color="#eab325"/><stop offset="0.7" stop-color="#f1c923"/><stop offset="0.71" stop-color="#f6da22"/><stop offset="0.72" stop-color="#f9e522"/><stop offset="0.73" stop-color="#fbec21"/><stop offset="0.76" stop-color="#fcee21"/><stop offset="0.76" stop-color="#fbeb21"/><stop offset="0.76" stop-color="#efc224"/><stop offset="0.77" stop-color="#e49e26"/><stop offset="0.77" stop-color="#db7e28"/><stop offset="0.78" stop-color="#d36229"/><stop offset="0.78" stop-color="#cc4c2b"/><stop offset="0.79" stop-color="#c73b2c"/><stop offset="0.8" stop-color="#c4302c"/><stop offset="0.81" stop-color="#c2292d"/><stop offset="0.84" stop-color="#c1272d"/><stop offset="0.84" stop-color="#c22a2d"/><stop offset="0.84" stop-color="#ce532a"/><stop offset="0.85" stop-color="#d97728"/><stop offset="0.85" stop-color="#e29726"/><stop offset="0.86" stop-color="#eab325"/><stop offset="0.86" stop-color="#f1c923"/><stop offset="0.87" stop-color="#f6da22"/><stop offset="0.87" stop-color="#f9e522"/><stop offset="0.88" stop-color="#fbec21"/><stop offset="0.91" stop-color="#fcee21"/><stop offset="0.91" stop-color="#fbeb21"/><stop offset="0.91" stop-color="#efc224"/><stop offset="0.92" stop-color="#e49e26"/><stop offset="0.92" stop-color="#db7e28"/><stop offset="0.93" stop-color="#d36229"/><stop offset="0.94" stop-color="#cc4c2b"/><stop offset="0.94" stop-color="#c73b2c"/><stop offset="0.95" stop-color="#c4302c"/><stop offset="0.96" stop-color="#c2292d"/><stop offset="1" stop-color="#c1272d"/></linearGradient></defs><title>10</title><path d="M1024,419.19a13.35,13.35,0,0,1,13.34,13.34V650.47A13.35,13.35,0,0,1,1024,663.81H894a13.35,13.35,0,0,1-13.34-13.34V432.53A13.35,13.35,0,0,1,894,419.19H1024m0-1H894a14.34,14.34,0,0,0-14.34,14.34V650.47A14.34,14.34,0,0,0,894,664.81H1024a14.34,14.34,0,0,0,14.34-14.34V432.53A14.34,14.34,0,0,0,1024,418.19Z" transform="translate(-879.63 -418.19)"/><path d="M886.68,441.94v-.67c2.67-.17,2.81-.29,2.81-2.09V430c0-1.23-.17-1.28-1.22-1.37l-1.18-.12v-.6a19.86,19.86,0,0,0,4.39-1.18v12.48c0,1.83.15,1.92,2.84,2.09v.67Z" transform="translate(-879.63 -418.19)"/><path d="M902,426.7c3.6,0,4.94,4,4.94,7.75,0,3.51-1.34,7.78-4.94,7.78s-5-4-5-7.75C897,431,898.35,426.7,902,426.7Zm0,.84c-2.24,0-2.79,3.53-2.79,6.89s.67,7,2.79,7,2.73-3.58,2.73-6.94S904.13,427.54,902,427.54Z" transform="translate(-879.63 -418.19)"/><path d="M1010.18,441.94v-.67c2.67-.17,2.81-.29,2.81-2.09V430c0-1.23-.17-1.28-1.22-1.37l-1.18-.12v-.6a19.86,19.86,0,0,0,4.39-1.18v12.48c0,1.83.15,1.92,2.84,2.09v.67Z" transform="translate(-879.63 -418.19)"/><path d="M1025.5,426.7c3.6,0,4.94,4,4.94,7.75,0,3.51-1.34,7.78-4.94,7.78s-5-4-5-7.75C1020.48,431,1021.85,426.7,1025.5,426.7Zm0,.84c-2.24,0-2.79,3.53-2.79,6.89s.67,7,2.79,7,2.73-3.58,2.73-6.94S1027.63,427.54,1025.5,427.54Z" transform="translate(-879.63 -418.19)"/><path d="M907.82,638.74v.68c-2.67.16-2.81.28-2.81,2.08v9.22c0,1.23.17,1.27,1.22,1.37l1.18.12v.6A19.33,19.33,0,0,0,903,654V641.5c0-1.82-.15-1.92-2.84-2.08v-.68Z" transform="translate(-879.63 -418.19)"/><path d="M892.5,654c-3.6,0-4.94-4-4.94-7.76,0-3.5,1.34-7.77,4.94-7.77s5,4,5,7.75C897.52,649.71,896.15,654,892.5,654Zm0-.84c2.24,0,2.79-3.53,2.79-6.89s-.67-7-2.79-7-2.73,3.57-2.73,6.93S890.37,653.15,892.5,653.15Z" transform="translate(-879.63 -418.19)"/><path d="M1031.82,638.74v.68c-2.67.16-2.81.28-2.81,2.08v9.22c0,1.23.17,1.27,1.22,1.37l1.18.12v.6A19.33,19.33,0,0,0,1027,654V641.5c0-1.82-.15-1.92-2.84-2.08v-.68Z" transform="translate(-879.63 -418.19)"/><path d="M1016.5,654c-3.6,0-4.94-4-4.94-7.76,0-3.5,1.34-7.77,4.94-7.77s5,4,5,7.75C1021.52,649.71,1020.15,654,1016.5,654Zm0-.84c2.24,0,2.79-3.53,2.79-6.89s-.67-7-2.79-7-2.73,3.57-2.73,6.93S1014.37,653.15,1016.5,653.15Z" transform="translate(-879.63 -418.19)"/><rect class="cls-1" x="956.5" y="465.77" width="5" height="151.47" transform="translate(-431.61 -852.3) rotate(32.91)"/><polygon class="cls-2" points="122.85 55.11 132.9 38.56 124.61 45.21 122.85 55.11"/><polygon points="122.89 55.17 132.9 38.56 131.15 48.41 122.89 55.17"/><circle class="cls-3" cx="122.37" cy="56.81" r="3"/><path class="cls-4" d="M1004.08,479.86c-.21.37-.86.44-1.73.25A14,14,0,0,0,999,478a19.41,19.41,0,0,1-2-1c-.66-.7-.69-1.11-.46-1.5.41-.72,2.44-.32,4.52.88S1004.5,479.14,1004.08,479.86Z" transform="translate(-879.63 -418.19)"/><polygon class="cls-2" points="35.76 190.46 24.39 206.14 33.2 200.19 35.76 190.46"/><polygon points="35.72 190.4 24.39 206.14 26.94 196.47 35.72 190.4"/><circle class="cls-3" cx="36.37" cy="188.81" r="3"/><path class="cls-4" d="M914.32,602c.24-.35.9-.37,1.75-.11a14,14,0,0,0,3.16,2.37,20.48,20.48,0,0,1,1.92,1.16c.6.75.59,1.17.33,1.54-.46.68-2.46.12-4.43-1.25S913.85,602.67,914.32,602Z" transform="translate(-879.63 -418.19)"/><path class="cls-3" d="M995,480s-10.5-14.5-25.5-22.5S927,448,918,459c-2.54,3.1-5.48,1.55-7,5-3.86,8.77-10,25,1,36,7.28,7.28,21,17,20,31-.9,12.56-7,18-7,18s13.37,2.63,22-6c4-4,16-20,7-30-.59-.65,7.3-2.56,8-3C984,496,995,480,995,480Z" transform="translate(-879.63 -418.19)"/><path class="cls-5" d="M963,530c-9-6-14-19-4-35,20.67-33.07,18.5,12.5,18.5,12.5Z" transform="translate(-879.63 -418.19)"/><path class="cls-6" d="M956,499c3.39,2.55-2-2,0,0s17,16,17,16l25-39-1,2c-10-9-7.87-5.11-14-12-8-9-19-20-27-25-11.53-7.21-29-6-42,4-9.8,7.54-12,23-8,42,0,0-2-9,6-14,0,0,4.45-2.83,12,0C932,476,944,490,956,499Z" transform="translate(-879.63 -418.19)"/><path class="cls-5" d="M927,516c18,18-1,33-1,33s-5.21-1.09-12,4c-4,3-5,13-5,17-.16-.36-9-8-9-17,0-7,6-12,12-16,5.58-3.72,9-7,12-12C929.25,516.26,927,516,927,516Z" transform="translate(-879.63 -418.19)"/><circle class="cls-3" cx="29.37" cy="152.81" r="1"/><path class="cls-7" d="M914,586H904c.38-4.83,3.18-13.08,5-15C910.82,572.92,913.62,581.17,914,586Z" transform="translate(-879.63 -418.19)"/><path class="cls-3" d="M924,601s10.5,14.5,25.5,22.5S992,633,1001,622c2.54-3.1,5.48-1.55,7-5,3.86-8.77,10-25-1-36-7.28-7.28-21-17-20-31,.9-12.56,7-18,7-18s-13.37-2.63-22,6c-4,4-16,20-7,30,.59.65-7.3,2.56-8,3C935,585,924,601,924,601Z" transform="translate(-879.63 -418.19)"/><path class="cls-5" d="M956,551c9,6,14,19,4,35-20.67,33.07-18.5-12.5-18.5-12.5Z" transform="translate(-879.63 -418.19)"/><path class="cls-6" d="M963,582c-3.39-2.55,2,2,0,0s-17-16-17-16l-25,39,1-2c10,9,7.87,5.11,14,12,8,9,19,20,27,25,11.53,7.21,29,6,42-4,9.8-7.54,12-23,8-42,0,0,2,9-6,14,0,0-4.45,2.83-12,0C987,605,975,591,963,582Z" transform="translate(-879.63 -418.19)"/><path class="cls-5" d="M992,565c-18-18,1-33,1-33s5.21,1.09,12-4c4-3,5-13,5-17,.16.36,9,8,9,17,0,7-6,12-12,16-5.58,3.72-9,7-12,12C989.75,564.74,992,565,992,565Z" transform="translate(-879.63 -418.19)"/><circle class="cls-3" cx="130.37" cy="91.81" r="1"/><path class="cls-7" d="M1005,495h10c-.38,4.83-3.18,13.08-5,15C1008.18,508.08,1005.38,499.83,1005,495Z" transform="translate(-879.63 -418.19)"/><path class="cls-8" d="M955.82,460.09c-2.7.9-7.2-1.8-7.2-1.8s1.8,5.4,0,6.3l2.7,3.6.9,1.8,5.4-1.8-.45-2-1.35-6.08Z" transform="translate(-879.63 -418.19)"/><path class="cls-8" d="M969.65,464.82c-2-2-1.51-7.27-1.51-7.27s-4.08,4-5.67,2.73l-2.08,4-1.23,1.59,4,4.08,1.63-1.28,4.89-3.85Z" transform="translate(-879.63 -418.19)"/><path class="cls-8" d="M972.41,479.64c1.09-2.63,6.08-4.26,6.08-4.26s-5.25-2.18-4.75-4.13l-4.49-.32-2-.5-2.18,5.25,1.82,1,5.47,3Z" transform="translate(-879.63 -418.19)"/><path class="cls-8" d="M961.23,489c2.83-.22,6.55,3.49,6.55,3.49s-.44-5.68,1.52-6.12l-1.75-4.14-.44-2-5.67.45-.06,2.07-.15,6.22Z" transform="translate(-879.63 -418.19)"/><path class="cls-8" d="M948.35,484.8c1.86,2.15,1.09,7.34,1.09,7.34s4.3-3.73,5.82-2.41l2.29-3.88,1.32-1.52L955.14,480l-1.7,1.19-5.09,3.57Z" transform="translate(-879.63 -418.19)"/><path class="cls-8" d="M944.67,470.58c-.57,2.79-5.16,5.33-5.16,5.33s5.57,1.15,5.45,3.16l4.47-.54,2,.12,1.14-5.58-2-.62-5.93-1.87Z" transform="translate(-879.63 -418.19)"/><path class="cls-9" d="M955.82,467.29s0-.9-1.8-3.6,0-7.2,4.5-7.2c5.4,0,8.25,1.51,5.4,7.2a20.07,20.07,0,0,1-2.7,4.5Z" transform="translate(-879.63 -418.19)"/><path class="cls-9" d="M963.11,468.71s.73-.51,1.92-3.53,5.91-4.12,8.48-.43c3.09,4.43,3.48,7.63-2.82,8.55a20.32,20.32,0,0,1-5.24.36Z" transform="translate(-879.63 -418.19)"/><path class="cls-9" d="M967.3,475.53s.7.56,3.94.82,5.64,4.47,2.85,8c-3.35,4.24-6.3,5.53-9-.23a20.36,20.36,0,0,1-1.85-4.91Z" transform="translate(-879.63 -418.19)"/><path class="cls-9" d="M962.5,481.66s0,.9,1.84,3.57.08,7.2-4.42,7.26c-5.4.06-8.26-1.42-5.48-7.14a20.07,20.07,0,0,1,2.65-4.53Z" transform="translate(-879.63 -418.19)"/><path class="cls-9" d="M955.27,481.08s-.73.53-1.87,3.57-5.84,4.2-8.47.55c-3.15-4.38-3.59-7.57,2.69-8.59a19.84,19.84,0,0,1,5.23-.43Z" transform="translate(-879.63 -418.19)"/><path class="cls-9" d="M950.27,474.33s-.71-.55-3.95-.76-5.72-4.38-3-8c3.29-4.28,6.21-5.62,9,.1a20.09,20.09,0,0,1,1.93,4.88Z" transform="translate(-879.63 -418.19)"/><circle class="cls-10" cx="79.34" cy="56.75" r="8.55"/><path class="cls-8" d="M955.82,594.09c-2.7.9-7.2-1.8-7.2-1.8s1.8,5.4,0,6.3l2.7,3.6.9,1.8,5.4-1.8-.45-2-1.35-6.08Z" transform="translate(-879.63 -418.19)"/><path class="cls-8" d="M969.65,598.82c-2-2-1.51-7.27-1.51-7.27s-4.08,4-5.67,2.73l-2.08,4-1.23,1.59,4,4.08,1.63-1.28,4.89-3.85Z" transform="translate(-879.63 -418.19)"/><path class="cls-8" d="M972.41,613.64c1.09-2.63,6.08-4.26,6.08-4.26s-5.25-2.18-4.75-4.13l-4.49-.32-2-.5-2.18,5.25,1.82,1,5.47,3Z" transform="translate(-879.63 -418.19)"/><path class="cls-8" d="M961.23,623c2.83-.22,6.55,3.49,6.55,3.49s-.44-5.68,1.52-6.12l-1.75-4.14-.44-2-5.67.45-.06,2.07-.15,6.22Z" transform="translate(-879.63 -418.19)"/><path class="cls-8" d="M948.35,618.8c1.86,2.15,1.09,7.34,1.09,7.34s4.3-3.73,5.82-2.41l2.29-3.88,1.32-1.52L955.14,614l-1.7,1.19-5.09,3.57Z" transform="translate(-879.63 -418.19)"/><path class="cls-8" d="M944.67,604.58c-.57,2.79-5.16,5.33-5.16,5.33s5.57,1.15,5.45,3.16l4.47-.54,2,.12,1.14-5.58-2-.62-5.93-1.87Z" transform="translate(-879.63 -418.19)"/><path class="cls-9" d="M955.82,601.29s0-.9-1.8-3.6,0-7.2,4.5-7.2c5.4,0,8.25,1.51,5.4,7.2a20.07,20.07,0,0,1-2.7,4.5Z" transform="translate(-879.63 -418.19)"/><path class="cls-9" d="M963.11,602.71s.73-.51,1.92-3.53,5.91-4.12,8.48-.43c3.09,4.43,3.48,7.63-2.82,8.55a20.32,20.32,0,0,1-5.24.36Z" transform="translate(-879.63 -418.19)"/><path class="cls-9" d="M967.3,609.53s.7.56,3.94.82,5.64,4.47,2.85,8c-3.35,4.24-6.3,5.53-9-.23a20.36,20.36,0,0,1-1.85-4.91Z" transform="translate(-879.63 -418.19)"/><path class="cls-9" d="M962.5,615.66s0,.9,1.84,3.57.08,7.2-4.42,7.26c-5.4.06-8.26-1.42-5.48-7.14a20.07,20.07,0,0,1,2.65-4.53Z" transform="translate(-879.63 -418.19)"/><path class="cls-9" d="M955.27,615.08s-.73.53-1.87,3.57-5.84,4.2-8.47.55c-3.15-4.38-3.59-7.57,2.69-8.59a19.84,19.84,0,0,1,5.23-.43Z" transform="translate(-879.63 -418.19)"/><path class="cls-9" d="M950.27,608.33s-.71-.55-3.95-.76-5.72-4.38-3-8c3.29-4.28,6.21-5.62,9,.1a20.09,20.09,0,0,1,1.93,4.88Z" transform="translate(-879.63 -418.19)"/><circle class="cls-10" cx="79.34" cy="190.75" r="8.55"/></svg>