<svg xmlns="http://www.w3.org/2000/svg" viewBox="0 0 158.74 246.62"><defs><style>.cls-1{fill:red;}.cls-2{fill:#ff0;}.cls-3{fill:none;stroke:#000;stroke-miterlimit:10;stroke-width:0.3px;}.cls-4{fill:#fcee21;}.cls-5{fill:#1a1a1a;}.cls-6{fill:#d9e021;}</style></defs><title>6</title><g id="Ebene_1" data-name="Ebene 1"><path d="M941.18,660.79a3.38,3.38,0,0,1-1.54.41,4.27,4.27,0,0,1-4.3-4.44,5.07,5.07,0,0,1,4.95-5.3c2.83,0,5,2.32,5,6a9.82,9.82,0,0,1-6.65,9,21.22,21.22,0,0,1-2.71.62l-.14-.79a14.54,14.54,0,0,0,2.61-.87,7.61,7.61,0,0,0,4.4-5.49Zm-.58-1a4.8,4.8,0,0,0,2.33-.67,7.79,7.79,0,0,0,.14-1.63c0-3-1.12-5.21-3.17-5.21-1.87,0-2.44,2-2.44,3.58C937.46,657.89,938.42,659.83,940.6,659.83Z" transform="translate(-928.63 -431.19)"/><path d="M1073,432.19a13.35,13.35,0,0,1,13.34,13.34V663.47A13.35,13.35,0,0,1,1073,676.81H943a13.35,13.35,0,0,1-13.34-13.34V445.53A13.35,13.35,0,0,1,943,432.19H1073m0-1H943a14.34,14.34,0,0,0-14.34,14.34V663.47A14.34,14.34,0,0,0,943,677.81H1073a14.34,14.34,0,0,0,14.34-14.34V445.53A14.34,14.34,0,0,0,1073,431.19Z" transform="translate(-928.63 -431.19)"/><path d="M938.49,445.89a3.5,3.5,0,0,1,1.54-.4,4.26,4.26,0,0,1,4.29,4.44,5.06,5.06,0,0,1-4.94,5.3c-2.83,0-5-2.33-5-6a9.82,9.82,0,0,1,6.65-9.05,20.44,20.44,0,0,1,2.71-.62l.14.79a15.33,15.33,0,0,0-2.61.86,7.65,7.65,0,0,0-4.4,5.5Zm.58,1a4.69,4.69,0,0,0-2.33.68,7.79,7.79,0,0,0-.14,1.63c0,3,1.12,5.21,3.16,5.21,1.88,0,2.45-2,2.45-3.58C942.21,448.8,941.25,446.85,939.07,446.85Z" transform="translate(-928.63 -431.19)"/><path d="M1075.32,445.89a3.5,3.5,0,0,1,1.54-.4,4.27,4.27,0,0,1,4.3,4.44,5.07,5.07,0,0,1-5,5.3c-2.83,0-5-2.33-5-6a9.82,9.82,0,0,1,6.65-9.05,21.22,21.22,0,0,1,2.71-.62l.14.79a15.33,15.33,0,0,0-2.61.86,7.65,7.65,0,0,0-4.4,5.5Zm.58,1a4.69,4.69,0,0,0-2.33.68,7.79,7.79,0,0,0-.14,1.63c0,3,1.12,5.21,3.17,5.21,1.87,0,2.44-2,2.44-3.58C1079,448.8,1078.08,446.85,1075.9,446.85Z" transform="translate(-928.63 -431.19)"/><path d="M1078,660.79a3.38,3.38,0,0,1-1.54.41,4.26,4.26,0,0,1-4.29-4.44,5.06,5.06,0,0,1,4.94-5.3c2.83,0,5,2.32,5,6a9.82,9.82,0,0,1-6.65,9,20.44,20.44,0,0,1-2.71.62l-.14-.79a14.28,14.28,0,0,0,2.61-.87,7.61,7.61,0,0,0,4.4-5.49Zm-.58-1a4.8,4.8,0,0,0,2.33-.67,7.79,7.79,0,0,0,.14-1.63c0-3-1.12-5.21-3.16-5.21-1.88,0-2.45,2-2.45,3.58C1074.29,657.89,1075.25,659.83,1077.43,659.83Z" transform="translate(-928.63 -431.19)"/><path class="cls-1" d="M1011.14,560" transform="translate(-928.63 -431.19)"/><ellipse class="cls-2" cx="78.23" cy="115.83" rx="4.29" ry="0.65"/><ellipse class="cls-2" cx="78.23" cy="129.42" rx="4.29" ry="0.65"/><path class="cls-1" d="M1002.57,547l.33.05a26.88,26.88,0,0,0,7.91,0l.33-.05-.74,4.92a14.05,14.05,0,0,0,0,4.39l.71,4.28h0a14.89,14.89,0,0,0-8.57,0h0l.26-1.59a31.09,31.09,0,0,0,.08-9.77Z" transform="translate(-928.63 -431.19)"/><path class="cls-1" d="M1005.79,560.61h2.14l5.36,37.52-1.67-.33a24.21,24.21,0,0,0-9.52,0l-1.67.33Z" transform="translate(-928.63 -431.19)"/><polygon points="77.16 128.77 79.3 128.77 82.51 151.41 73.94 151.41 77.16 128.77"/><path d="M1006.32,585.32l.54,1.17.53-1.17h0a4.53,4.53,0,0,1,1.92-2,6.07,6.07,0,0,1,1.83-.71h-8.57a6.14,6.14,0,0,1,1.84.71,4.55,4.55,0,0,1,1.91,2Z" transform="translate(-928.63 -431.19)"/><ellipse class="cls-2" cx="78.23" cy="166.94" rx="6.43" ry="1.94"/><path class="cls-1" d="M1005.79,547h2.14l5.36-37.53-1.67.34a24.21,24.21,0,0,1-9.52,0l-1.67-.34Z" transform="translate(-928.63 -431.19)"/><polygon points="77.16 116.47 79.3 116.47 82.51 93.83 73.94 93.83 77.16 116.47"/><path d="M1006.32,522.76l.54-1,.53,1h0a4.12,4.12,0,0,0,1.92,1.67,6.9,6.9,0,0,0,1.83.59h-8.57a7,7,0,0,0,1.84-.59,4.14,4.14,0,0,0,1.91-1.67Z" transform="translate(-928.63 -431.19)"/><ellipse class="cls-2" cx="78.23" cy="78.3" rx="6.43" ry="1.94"/><line class="cls-3" x1="20.37" y1="122.95" x2="140.37" y2="122.95"/><line class="cls-3" x1="58.94" y1="122.95" x2="76.08" y2="122.95"/><path class="cls-3" d="M1051,622" transform="translate(-928.63 -431.19)"/><path class="cls-3" d="M1016.31,584.17" transform="translate(-928.63 -431.19)"/><path class="cls-3" d="M1009,558.66" transform="translate(-928.63 -431.19)"/><path class="cls-3" d="M1051,490" transform="translate(-928.63 -431.19)"/><path class="cls-3" d="M1009,549" transform="translate(-928.63 -431.19)"/><path class="cls-1" d="M1002.57,547l.33.05a26.88,26.88,0,0,0,7.91,0l.33-.05-.74,4.92a14.05,14.05,0,0,0,0,4.39l.71,4.28h0a14.89,14.89,0,0,0-8.57,0h0l.84-5.07a9.13,9.13,0,0,0,0-2.81Z" transform="translate(-928.63 -431.19)"/><path class="cls-3" d="M1004.71,549l-.54-2.54C1000.79,530.58,997,498,985,495c-8.43-2.11-14.41-3-20-3" transform="translate(-928.63 -431.19)"/><path class="cls-3" d="M1004.71,558l-.54,2.54C1000.79,576.38,997,609,985,612c-8.43,2.11-14.41,3-20,3" transform="translate(-928.63 -431.19)"/><path class="cls-3" d="M1009,548l.54-2.54c3.39-15.84,7.17-48.42,19.17-51.42,8.44-2.11,14.42-3,20-3" transform="translate(-928.63 -431.19)"/><path class="cls-3" d="M1009,557l.54,2.54c3.39,15.84,7.17,48.42,19.17,51.42,8.44,2.11,14.42,3,20,3" transform="translate(-928.63 -431.19)"/><path class="cls-1" d="M1002.57,547l.33.05a26.88,26.88,0,0,0,7.91,0l.33-.05-.74,4.92a14.05,14.05,0,0,0,0,4.39l.71,4.28h0a14.91,14.91,0,0,0-2-.46l-.26,0a15.14,15.14,0,0,0-6.26.49h0l.84-5.07a9.13,9.13,0,0,0,0-2.81Z" transform="translate(-928.63 -431.19)"/><path class="cls-4" d="M1006.86,512.42s-2.15-32.46-6.43-35.71c0,0,6.43-3.25,6.43-8.12" transform="translate(-928.63 -431.19)"/><path d="M1006.86,512.42s2.14-32.46,6.43-35.71c0,0-6.43-3.25-6.43-8.12" transform="translate(-928.63 -431.19)"/><path class="cls-4" d="M1006.86,595.2s-2.15,32.47-6.43,35.71c0,0,6.43,3.25,6.43,8.12" transform="translate(-928.63 -431.19)"/><path d="M1006.86,595.2s2.14,32.47,6.43,35.71c0,0-6.43,3.25-6.43,8.12" transform="translate(-928.63 -431.19)"/><path class="cls-4" d="M1024,452.36c-3.69,1.4-8.21,15.1-16.16,16.15a8.09,8.09,0,0,1-1,.08h0s.12-.05,0-.07h0c-3.84-.53-6.84-4-9.37-7.53-2.72-3.86-4.86-7.89-6.77-8.62-4.07-1.54,5.42-7.5,10-1.09a7.43,7.43,0,0,1,.68,1.09s3.18-8.44,5.43-10.76a0,0,0,0,0,0,0,.5.5,0,0,1,1,0c2.25,2.31,5.45,10.78,5.45,10.78C1017.57,444.25,1028.29,450.74,1024,452.36Z" transform="translate(-928.63 -431.19)"/><path class="cls-1" d="M1006.84,441l0,27.59c-3.84-.53-6.86-4-9.39-7.61,2.4.83,7.22,2.34,7.22,1.12,0-1.05-1-2.3-2.14-4.87-1.59-3.62-2-4.54-1.82-6,.06-.48.19-1,.36-1.75C1001.91,446.13,1004,441,1006.84,441Z" transform="translate(-928.63 -431.19)"/><path class="cls-1" d="M1017.53,460.53c-.26.48-4.44,8.06-10.67,8.06V441c2.89,0,4.93,5.13,5.74,8.52.69,2.84.69,2.84-1.46,7.71-1.13,2.57-2.14,3.82-2.14,4.87C1009,463.68,1017,460.72,1017.53,460.53Z" transform="translate(-928.63 -431.19)"/><path class="cls-4" d="M1004.69,643.9c0-1.22-4.82.29-7.22,1.12-2.72,3.86-4.86,7.89-6.77,8.62-4.07,1.54,5.42,7.5,10,1.09-.17-1.42.23-2.34,1.82-6C1003.69,646.2,1004.69,645,1004.69,643.9Z" transform="translate(-928.63 -431.19)"/><rect class="cls-4" x="78.21" y="206.22" width="0.02" height="0.02"/><path class="cls-4" d="M1024,653.64c-1.86-.7-3.92-4.55-6.54-8.3a.69.69,0,0,0,.07.13c-.56-.19-8.53-3.15-8.53-1.57,0,1.05,1,2.3,2.14,4.87,1.48,3.34,1.93,4.38,1.85,5.63l.3-.76C1017.57,661.75,1028.29,655.26,1024,653.64Z" transform="translate(-928.63 -431.19)"/><path class="cls-1" d="M1017.53,645.47a.69.69,0,0,1-.07-.13c-2.12-3-4.58-6-7.58-7.28a3.1,3.1,0,0,0-.6-.23,6.29,6.29,0,0,0-.71-.2,5.25,5.25,0,0,0-.73-.14.65.65,0,0,0-.19,0,3.4,3.4,0,0,1-.45,0h-.34s.08.05,0,.07h0a10.19,10.19,0,0,0-5.4,2.81l-.69.66c-.24.26-.49.54-.75.81a38.17,38.17,0,0,0-2.53,3.25c2.4-.83,7.22-2.34,7.22-1.12,0,1.05-1,2.3-2.14,4.87-1.59,3.62-2,4.54-1.82,6,.06.48.19,1,.36,1.75.82,3.39,2.87,8.52,5.75,8.52v-.6a0,0,0,0,1,0,0V665c2.89,0,4.93-5.13,5.74-8.52a12.42,12.42,0,0,0,.39-2.05s0,0,0,0c.08-1.25-.37-2.29-1.85-5.63C1010,646.2,1009,645,1009,643.9,1009,642.32,1017,645.28,1017.53,645.47Z" transform="translate(-928.63 -431.19)"/><path class="cls-1" d="M1006.86,665v-.06C1006.94,664.94,1006.88,665,1006.86,665Z" transform="translate(-928.63 -431.19)"/></g><g id="Ebene_3" data-name="Ebene 3"><path class="cls-5" d="M1047.47,473.24c-3,1-8-2-8-2s2,6,0,7l3,4,1,2,6-2L1049,480l-1.5-6.75" transform="translate(-928.63 -431.19)"/><path class="cls-5" d="M1062.83,478.49c-2.21-2.27-1.67-8.07-1.67-8.07s-4.54,4.4-6.31,3l-2.3,4.44-1.37,1.77,4.41,4.54,1.81-1.43,5.43-4.28" transform="translate(-928.63 -431.19)"/><path class="cls-5" d="M1065.9,495c1.21-2.92,6.76-4.73,6.76-4.73s-5.84-2.42-5.29-4.59l-5-.36-2.17-.56-2.42,5.85,2,1.09,6.08,3.3" transform="translate(-928.63 -431.19)"/><path class="cls-5" d="M1053.47,505.39c3.16-.25,7.28,3.87,7.28,3.87s-.49-6.31,1.69-6.8l-1.94-4.6-.49-2.18-6.3.49-.06,2.3-.18,6.92" transform="translate(-928.63 -431.19)"/><path class="cls-5" d="M1039.17,500.7c2.07,2.38,1.21,8.15,1.21,8.15s4.78-4.14,6.47-2.68l2.54-4.3,1.47-1.69-4.15-4.78-1.88,1.32-5.66,4" transform="translate(-928.63 -431.19)"/><path class="cls-5" d="M1035.07,484.89c-.63,3.1-5.73,5.93-5.73,5.93s6.2,1.27,6.06,3.5l5-.6,2.23.14,1.27-6.2-2.2-.69-6.6-2.08" transform="translate(-928.63 -431.19)"/><path class="cls-6" d="M1047.47,481.24s0-1-2-4,0-8,5-8c6,0,9.16,1.68,6,8-2,4-3,5-3,5" transform="translate(-928.63 -431.19)"/><path class="cls-6" d="M1055.56,482.82s.82-.57,2.14-3.93,6.56-4.57,9.42-.47c3.43,4.92,3.86,8.48-3.13,9.5-4.43.64-5.82.39-5.82.39" transform="translate(-928.63 -431.19)"/><path class="cls-6" d="M1060.22,490.4s.78.62,4.38.91,6.27,5,3.17,8.89c-3.72,4.7-7,6.14-10-.26-1.89-4.05-2.06-5.46-2.06-5.46" transform="translate(-928.63 -431.19)"/><path class="cls-6" d="M1054.89,497.2s0,1,2,4,.1,8-4.9,8.05c-6,.07-9.18-1.57-6.09-7.93,2-4,2.94-5,2.94-5" transform="translate(-928.63 -431.19)"/><path class="cls-6" d="M1046.86,496.57s-.81.58-2.08,4-6.49,4.67-9.41.61c-3.51-4.87-4-8.42,3-9.54,4.41-.72,5.81-.49,5.81-.49" transform="translate(-928.63 -431.19)"/><path class="cls-6" d="M1041.3,489.06s-.79-.61-4.39-.85-6.35-4.86-3.31-8.83c3.65-4.77,6.9-6.26,10,.1,2,4,2.15,5.42,2.15,5.42" transform="translate(-928.63 -431.19)"/><circle class="cls-1" cx="122.34" cy="58.55" r="9.5"/><path class="cls-5" d="M1047.47,539.24c-3,1-8-2-8-2s2,6,0,7l3,4,1,2,6-2L1049,546l-1.5-6.75" transform="translate(-928.63 -431.19)"/><path class="cls-5" d="M1062.83,544.49c-2.21-2.27-1.67-8.07-1.67-8.07s-4.54,4.4-6.31,3l-2.3,4.44-1.37,1.77,4.41,4.54,1.81-1.43,5.43-4.28" transform="translate(-928.63 -431.19)"/><path class="cls-5" d="M1065.9,561c1.21-2.92,6.76-4.73,6.76-4.73s-5.84-2.42-5.29-4.59l-5-.36-2.17-.56-2.42,5.85,2,1.09,6.08,3.3" transform="translate(-928.63 -431.19)"/><path class="cls-5" d="M1053.47,571.39c3.16-.25,7.28,3.87,7.28,3.87s-.49-6.31,1.69-6.8l-1.94-4.6-.49-2.18-6.3.49-.06,2.3-.18,6.92" transform="translate(-928.63 -431.19)"/><path class="cls-5" d="M1039.17,566.7c2.07,2.38,1.21,8.15,1.21,8.15s4.78-4.14,6.47-2.68l2.54-4.3,1.47-1.69-4.15-4.78-1.88,1.32-5.66,4" transform="translate(-928.63 -431.19)"/><path class="cls-5" d="M1035.07,550.89c-.63,3.1-5.73,5.93-5.73,5.93s6.2,1.27,6.06,3.5l5-.6,2.23.14,1.27-6.2-2.2-.69-6.6-2.08" transform="translate(-928.63 -431.19)"/><path class="cls-6" d="M1047.47,547.24s0-1-2-4,0-8,5-8c6,0,9.16,1.68,6,8-2,4-3,5-3,5" transform="translate(-928.63 -431.19)"/><path class="cls-6" d="M1055.56,548.82s.82-.57,2.14-3.93,6.56-4.57,9.42-.47c3.43,4.92,3.86,8.48-3.13,9.5-4.43.64-5.82.39-5.82.39" transform="translate(-928.63 -431.19)"/><path class="cls-6" d="M1060.22,556.4s.78.62,4.38.91,6.27,5,3.17,8.89c-3.72,4.7-7,6.14-10-.26-1.89-4.05-2.06-5.46-2.06-5.46" transform="translate(-928.63 -431.19)"/><path class="cls-6" d="M1054.89,563.2s0,1,2,4,.1,8-4.9,8.05c-6,.07-9.18-1.57-6.09-7.93,2-4,2.94-5,2.94-5" transform="translate(-928.63 -431.19)"/><path class="cls-6" d="M1046.86,562.57s-.81.58-2.08,4-6.49,4.67-9.41.61c-3.51-4.87-4-8.42,3-9.54,4.41-.72,5.81-.49,5.81-.49" transform="translate(-928.63 -431.19)"/><path class="cls-6" d="M1041.3,555.06s-.79-.61-4.39-.85-6.35-4.86-3.31-8.83c3.65-4.77,6.9-6.26,10,.1,2,4,2.15,5.42,2.15,5.42" transform="translate(-928.63 -431.19)"/><circle class="cls-1" cx="122.34" cy="124.55" r="9.5"/><path class="cls-5" d="M1047.47,604.24c-3,1-8-2-8-2s2,6,0,7l3,4,1,2,6-2L1049,611l-1.5-6.75" transform="translate(-928.63 -431.19)"/><path class="cls-5" d="M1062.83,609.49c-2.21-2.27-1.67-8.07-1.67-8.07s-4.54,4.4-6.31,3l-2.3,4.44-1.37,1.77,4.41,4.54,1.81-1.43,5.43-4.28" transform="translate(-928.63 -431.19)"/><path class="cls-5" d="M1065.9,626c1.21-2.92,6.76-4.73,6.76-4.73s-5.84-2.42-5.29-4.59l-5-.36-2.17-.56-2.42,5.85,2,1.09,6.08,3.3" transform="translate(-928.63 -431.19)"/><path class="cls-5" d="M1053.47,636.39c3.16-.25,7.28,3.87,7.28,3.87s-.49-6.31,1.69-6.8l-1.94-4.6-.49-2.18-6.3.49-.06,2.3-.18,6.92" transform="translate(-928.63 -431.19)"/><path class="cls-5" d="M1039.17,631.7c2.07,2.38,1.21,8.15,1.21,8.15s4.78-4.14,6.47-2.68l2.54-4.3,1.47-1.69-4.15-4.78-1.88,1.32-5.66,4" transform="translate(-928.63 -431.19)"/><path class="cls-5" d="M1035.07,615.89c-.63,3.1-5.73,5.93-5.73,5.93s6.2,1.27,6.06,3.5l5-.6,2.23.14,1.27-6.2-2.2-.69-6.6-2.08" transform="translate(-928.63 -431.19)"/><path class="cls-6" d="M1047.47,612.24s0-1-2-4,0-8,5-8c6,0,9.16,1.68,6,8-2,4-3,5-3,5" transform="translate(-928.63 -431.19)"/><path class="cls-6" d="M1055.56,613.82s.82-.57,2.14-3.93,6.56-4.57,9.42-.47c3.43,4.92,3.86,8.48-3.13,9.5-4.43.64-5.82.39-5.82.39" transform="translate(-928.63 -431.19)"/><path class="cls-6" d="M1060.22,621.4s.78.62,4.38.91,6.27,5,3.17,8.89c-3.72,4.7-7,6.14-10-.26-1.89-4.05-2.06-5.46-2.06-5.46" transform="translate(-928.63 -431.19)"/><path class="cls-6" d="M1054.89,628.2s0,1,2,4,.1,8-4.9,8.05c-6,.07-9.18-1.57-6.09-7.93,2-4,2.94-5,2.94-5" transform="translate(-928.63 -431.19)"/><path class="cls-6" d="M1046.86,627.57s-.81.58-2.08,4-6.49,4.67-9.41.61c-3.51-4.87-4-8.42,3-9.54,4.41-.72,5.81-.49,5.81-.49" transform="translate(-928.63 -431.19)"/><path class="cls-6" d="M1041.3,620.06s-.79-.61-4.39-.85-6.35-4.86-3.31-8.83c3.65-4.77,6.9-6.26,10,.1,2,4,2.15,5.42,2.15,5.42" transform="translate(-928.63 -431.19)"/><circle class="cls-1" cx="122.34" cy="189.55" r="9.5"/><path class="cls-5" d="M961.47,475.74c-3,1-8-2-8-2s2,6,0,7l3,4,1,2,6-2-.5-2.25-1.5-6.75" transform="translate(-928.63 -431.19)"/><path class="cls-5" d="M976.83,481c-2.21-2.27-1.67-8.07-1.67-8.07s-4.54,4.4-6.31,3l-2.3,4.44-1.37,1.77,4.41,4.54,1.81-1.43,5.43-4.28" transform="translate(-928.63 -431.19)"/><path class="cls-5" d="M979.9,497.46c1.21-2.92,6.76-4.73,6.76-4.73s-5.84-2.42-5.29-4.59l-5-.36-2.17-.56-2.42,5.85,2,1.09,6.08,3.3" transform="translate(-928.63 -431.19)"/><path class="cls-5" d="M967.47,507.89c3.16-.25,7.28,3.87,7.28,3.87s-.49-6.31,1.69-6.8l-1.94-4.6-.49-2.18-6.3.49-.06,2.3-.18,6.92" transform="translate(-928.63 -431.19)"/><path class="cls-5" d="M953.17,503.2c2.07,2.38,1.21,8.15,1.21,8.15s4.78-4.14,6.47-2.68l2.54-4.3,1.47-1.69-4.15-4.78-1.88,1.32-5.66,4" transform="translate(-928.63 -431.19)"/><path class="cls-5" d="M949.07,487.39c-.63,3.1-5.73,5.93-5.73,5.93s6.2,1.27,6.06,3.5l5-.6,2.23.14,1.27-6.2-2.2-.69-6.6-2.08" transform="translate(-928.63 -431.19)"/><path class="cls-6" d="M961.47,483.74s0-1-2-4,0-8,5-8c6,0,9.16,1.68,6,8-2,4-3,5-3,5" transform="translate(-928.63 -431.19)"/><path class="cls-6" d="M969.56,485.32s.82-.57,2.14-3.93,6.56-4.57,9.42-.47c3.43,4.92,3.86,8.48-3.13,9.5-4.43.64-5.82.39-5.82.39" transform="translate(-928.63 -431.19)"/><path class="cls-6" d="M974.22,492.9s.78.62,4.38.91,6.27,5,3.17,8.89c-3.72,4.7-7,6.14-10-.26-1.89-4.05-2.06-5.46-2.06-5.46" transform="translate(-928.63 -431.19)"/><path class="cls-6" d="M968.89,499.7s0,1,2,4,.1,8-4.9,8.05c-6,.07-9.18-1.57-6.09-7.93,1.95-4,2.94-5,2.94-5" transform="translate(-928.63 -431.19)"/><path class="cls-6" d="M960.86,499.07s-.81.58-2.08,4-6.49,4.67-9.41.61c-3.51-4.87-4-8.42,3-9.54,4.41-.72,5.81-.49,5.81-.49" transform="translate(-928.63 -431.19)"/><path class="cls-6" d="M955.3,491.56s-.79-.61-4.39-.85-6.35-4.86-3.31-8.83c3.65-4.77,6.9-6.26,10,.1,2,4,2.15,5.42,2.15,5.42" transform="translate(-928.63 -431.19)"/><circle class="cls-1" cx="36.34" cy="61.05" r="9.5"/><path class="cls-5" d="M961.47,601.74c-3,1-8-2-8-2s2,6,0,7l3,4,1,2,6-2-.5-2.25-1.5-6.75" transform="translate(-928.63 -431.19)"/><path class="cls-5" d="M976.83,607c-2.21-2.27-1.67-8.07-1.67-8.07s-4.54,4.4-6.31,3l-2.3,4.44-1.37,1.77,4.41,4.54,1.81-1.43,5.43-4.28" transform="translate(-928.63 -431.19)"/><path class="cls-5" d="M979.9,623.46c1.21-2.92,6.76-4.73,6.76-4.73s-5.84-2.42-5.29-4.59l-5-.36-2.17-.56-2.42,5.85,2,1.09,6.08,3.3" transform="translate(-928.63 -431.19)"/><path class="cls-5" d="M967.47,633.89c3.16-.25,7.28,3.87,7.28,3.87s-.49-6.31,1.69-6.8l-1.94-4.6-.49-2.18-6.3.49-.06,2.3-.18,6.92" transform="translate(-928.63 -431.19)"/><path class="cls-5" d="M953.17,629.2c2.07,2.38,1.21,8.15,1.21,8.15s4.78-4.14,6.47-2.68l2.54-4.3,1.47-1.69-4.15-4.78-1.88,1.32-5.66,4" transform="translate(-928.63 -431.19)"/><path class="cls-5" d="M949.07,613.39c-.63,3.1-5.73,5.93-5.73,5.93s6.2,1.27,6.06,3.5l5-.6,2.23.14,1.27-6.2-2.2-.69-6.6-2.08" transform="translate(-928.63 -431.19)"/><path class="cls-6" d="M961.47,609.74s0-1-2-4,0-8,5-8c6,0,9.16,1.68,6,8-2,4-3,5-3,5" transform="translate(-928.63 -431.19)"/><path class="cls-6" d="M969.56,611.32s.82-.57,2.14-3.93,6.56-4.57,9.42-.47c3.43,4.92,3.86,8.48-3.13,9.5-4.43.64-5.82.39-5.82.39" transform="translate(-928.63 -431.19)"/><path class="cls-6" d="M974.22,618.9s.78.62,4.38.91,6.27,5,3.17,8.89c-3.72,4.7-7,6.14-10-.26-1.89-4.05-2.06-5.46-2.06-5.46" transform="translate(-928.63 -431.19)"/><path class="cls-6" d="M968.89,625.7s0,1,2,4,.1,8-4.9,8.05c-6,.07-9.18-1.57-6.09-7.93,1.95-4,2.94-5,2.94-5" transform="translate(-928.63 -431.19)"/><path class="cls-6" d="M960.86,625.07s-.81.58-2.08,4-6.49,4.67-9.41.61c-3.51-4.87-4-8.42,3-9.54,4.41-.72,5.81-.49,5.81-.49" transform="translate(-928.63 -431.19)"/><path class="cls-6" d="M955.3,617.56s-.79-.61-4.39-.85-6.35-4.86-3.31-8.83c3.65-4.77,6.9-6.26,10,.1,2,4,2.15,5.42,2.15,5.42" transform="translate(-928.63 -431.19)"/><circle class="cls-1" cx="36.34" cy="187.05" r="9.5"/><path class="cls-5" d="M961.47,541.74c-3,1-8-2-8-2s2,6,0,7l3,4,1,2,6-2-.5-2.25-1.5-6.75" transform="translate(-928.63 -431.19)"/><path class="cls-5" d="M976.83,547c-2.21-2.27-1.67-8.07-1.67-8.07s-4.54,4.4-6.31,3l-2.3,4.44-1.37,1.77,4.41,4.54,1.81-1.43,5.43-4.28" transform="translate(-928.63 -431.19)"/><path class="cls-5" d="M979.9,563.46c1.21-2.92,6.76-4.73,6.76-4.73s-5.84-2.42-5.29-4.59l-5-.36-2.17-.56-2.42,5.85,2,1.09,6.08,3.3" transform="translate(-928.63 -431.19)"/><path class="cls-5" d="M967.47,573.89c3.16-.25,7.28,3.87,7.28,3.87s-.49-6.31,1.69-6.8l-1.94-4.6-.49-2.18-6.3.49-.06,2.3-.18,6.92" transform="translate(-928.63 -431.19)"/><path class="cls-5" d="M953.17,569.2c2.07,2.38,1.21,8.15,1.21,8.15s4.78-4.14,6.47-2.68l2.54-4.3,1.47-1.69-4.15-4.78-1.88,1.32-5.66,4" transform="translate(-928.63 -431.19)"/><path class="cls-5" d="M949.07,553.39c-.63,3.1-5.73,5.93-5.73,5.93s6.2,1.27,6.06,3.5l5-.6,2.23.14,1.27-6.2-2.2-.69-6.6-2.08" transform="translate(-928.63 -431.19)"/><path class="cls-6" d="M961.47,549.74s0-1-2-4,0-8,5-8c6,0,9.16,1.68,6,8-2,4-3,5-3,5" transform="translate(-928.63 -431.19)"/><path class="cls-6" d="M969.56,551.32s.82-.57,2.14-3.93,6.56-4.57,9.42-.47c3.43,4.92,3.86,8.48-3.13,9.5-4.43.64-5.82.39-5.82.39" transform="translate(-928.63 -431.19)"/><path class="cls-6" d="M974.22,558.9s.78.62,4.38.91,6.27,5,3.17,8.89c-3.72,4.7-7,6.14-10-.26-1.89-4.05-2.06-5.46-2.06-5.46" transform="translate(-928.63 -431.19)"/><path class="cls-6" d="M968.89,565.7s0,1,2,4,.1,8-4.9,8.05c-6,.07-9.18-1.57-6.09-7.93,1.95-4,2.94-5,2.94-5" transform="translate(-928.63 -431.19)"/><path class="cls-6" d="M960.86,565.07s-.81.58-2.08,4-6.49,4.67-9.41.61c-3.51-4.87-4-8.42,3-9.54,4.41-.72,5.81-.49,5.81-.49" transform="translate(-928.63 -431.19)"/><path class="cls-6" d="M955.3,557.56s-.79-.61-4.39-.85-6.35-4.86-3.31-8.83c3.65-4.77,6.9-6.26,10,.1,2,4,2.15,5.42,2.15,5.42" transform="translate(-928.63 -431.19)"/><circle class="cls-1" cx="36.34" cy="127.05" r="9.5"/></g></svg>