<svg xmlns="http://www.w3.org/2000/svg" viewBox="0 0 158.74 246.62"><defs><style>.cls-1{fill:none;}.cls-1,.cls-2{stroke:#000;stroke-miterlimit:10;stroke-width:0.3px;}.cls-2,.cls-7{fill:#d9e021;}.cls-3{fill:#ff0;}.cls-4{fill:red;}.cls-5{fill:#fcee21;}.cls-6{fill:#1a1a1a;}</style></defs><title>7</title><g id="Ebene_3" data-name="Ebene 3"><path class="cls-1" d="M744,742s1.94-23,11-23c13,0,17,17,19,44" transform="translate(-698.63 -697.19)"/><polygon class="cls-2" points="66.65 27.25 71.37 27.81 70.62 35.48 66.65 27.25"/><path class="cls-1" d="M743,808s1.94-23,11-23c13,0,17,19,19,46" transform="translate(-698.63 -697.19)"/><polygon class="cls-2" points="65.65 93.25 70.37 93.81 69.62 101.48 65.65 93.25"/><path class="cls-1" d="M744,899s1.94,23,11,23c12,0,18-27,20-54" transform="translate(-698.63 -697.19)"/><polygon class="cls-2" points="65.65 218.38 70.37 217.81 69.62 210.14 65.65 218.38"/><path class="cls-1" d="M811,742s-1.94-23-11-23c-13,0-17,17-19,44" transform="translate(-698.63 -697.19)"/><polygon class="cls-2" points="91.09 27.25 86.37 27.81 87.12 35.48 91.09 27.25"/><path class="cls-1" d="M812,808s-1.94-23-11-23c-13,0-17,19-19,46" transform="translate(-698.63 -697.19)"/><polygon class="cls-2" points="92.09 93.25 87.37 93.81 88.12 101.48 92.09 93.25"/><path class="cls-1" d="M811,899s-1.94,23-11,23c-12,0-18-27-20-54" transform="translate(-698.63 -697.19)"/><polygon class="cls-2" points="92.09 218.38 87.37 217.81 88.12 210.14 92.09 218.38"/></g><g id="Ebene_1" data-name="Ebene 1"><path d="M705.13,932.38c2.3-4.87,4.54-9.72,6.86-14.68l1.73-.17.17.26a132.91,132.91,0,0,0-7,13.13H712c1.56,0,1.66-.21,2.31-1.8H715c-.24,1.34-.33,2.55-.45,3.58h-9.32Z" transform="translate(-698.63 -697.19)"/><path d="M843,698.19a13.35,13.35,0,0,1,13.34,13.34V929.47A13.35,13.35,0,0,1,843,942.81H713a13.35,13.35,0,0,1-13.34-13.34V711.53A13.35,13.35,0,0,1,713,698.19H843m0-1H713a14.34,14.34,0,0,0-14.34,14.34V929.47A14.34,14.34,0,0,0,713,943.81H843a14.34,14.34,0,0,0,14.34-14.34V711.53A14.34,14.34,0,0,0,843,697.19Z" transform="translate(-698.63 -697.19)"/><path d="M714.54,706.3c-2.3,4.87-4.54,9.72-6.86,14.69l-1.73.17-.17-.26a132.91,132.91,0,0,0,7-13.13h-5.13c-1.56,0-1.66.21-2.31,1.8h-.74c.24-1.35.33-2.55.45-3.58h9.32Z" transform="translate(-698.63 -697.19)"/><path d="M851.37,706.3c-2.3,4.87-4.54,9.72-6.86,14.69l-1.73.17-.17-.26a132.91,132.91,0,0,0,7-13.13h-5.13c-1.56,0-1.66.21-2.31,1.8h-.74c.24-1.35.33-2.55.45-3.58h9.32Z" transform="translate(-698.63 -697.19)"/><path d="M842,932.38c2.3-4.87,4.54-9.72,6.86-14.68l1.73-.17.17.26a132.91,132.91,0,0,0-7,13.13h5.13c1.56,0,1.66-.21,2.31-1.8h.74c-.24,1.34-.33,2.55-.45,3.58H842.1Z" transform="translate(-698.63 -697.19)"/><ellipse class="cls-3" cx="78.73" cy="141.43" rx="5.1" ry="1.38"/><path class="cls-4" d="M772.26,838.62l.4.11a17.85,17.85,0,0,0,9.4,0l.39-.11" transform="translate(-698.63 -697.19)"/><path class="cls-4" d="M776.08,838.62h2.55l6.37-79.8-2,.72a16.56,16.56,0,0,1-11.32,0l-2-.72Z" transform="translate(-698.63 -697.19)"/><polygon points="77.45 142.81 80 142.81 83.82 94.65 73.63 94.65 77.45 142.81"/><path d="M776.72,787l.64-2.07L778,787h0a7.74,7.74,0,0,0,2.28,3.57,6.24,6.24,0,0,0,2.18,1.24H772.26a6.06,6.06,0,0,0,2.18-1.24,7.66,7.66,0,0,0,2.28-3.57Z" transform="translate(-698.63 -697.19)"/><ellipse class="cls-3" cx="78.73" cy="61.63" rx="7.64" ry="4.13"/><path class="cls-4" d="M772.26,838.62l.4.11a17.85,17.85,0,0,0,9.4,0l.39-.11" transform="translate(-698.63 -697.19)"/><path class="cls-5" d="M777.36,764s-1.65-29.31-4.93-32.24c0,0,4.93-2.93,4.93-7.33" transform="translate(-698.63 -697.19)"/><path d="M777.36,764s1.64-29.31,4.93-32.24c0,0-4.93-2.93-4.93-7.33" transform="translate(-698.63 -697.19)"/><path class="cls-5" d="M777.36,882.78s-1.65,25.22-4.93,27.74c0,0,4.93,2.52,4.93,6.31" transform="translate(-698.63 -697.19)"/><path d="M777.36,882.78S779,908,782.29,910.52c0,0-4.93,2.52-4.93,6.31" transform="translate(-698.63 -697.19)"/><path class="cls-5" d="M790.5,711.83c-2.83,1.08-6.29,11.72-12.39,12.54a6.32,6.32,0,0,1-.75.06h0s.1,0,0,0h0c-2.94-.41-5.24-3.07-7.18-5.85-2.09-3-3.73-6.13-5.19-6.69-3.12-1.2,4.16-5.83,7.69-.85a5.07,5.07,0,0,1,.52.85s2.44-6.56,4.16-8.36a0,0,0,0,0,0,0,2.46,2.46,0,0,1,.37-.32,2.08,2.08,0,0,1,.38.32c1.73,1.79,4.18,8.38,4.18,8.38C785.57,705.52,793.79,710.57,790.5,711.83Z" transform="translate(-698.63 -697.19)"/><path class="cls-4" d="M777.34,703l0,21.43c-2.94-.41-5.26-3.13-7.2-5.91,1.84.64,5.54,1.82,5.54.87s-.77-1.79-1.65-3.78c-1.21-2.81-1.52-3.53-1.39-4.63.05-.38.15-.79.28-1.36C773.56,707,775.14,703,777.34,703Z" transform="translate(-698.63 -697.19)"/><path class="cls-4" d="M785.54,718.17c-.2.38-3.4,6.26-8.18,6.26V703c2.21,0,3.78,4,4.4,6.62.53,2.21.53,2.21-1.12,6-.87,2-1.64,3-1.64,3.78C779,720.61,785.11,718.32,785.54,718.17Z" transform="translate(-698.63 -697.19)"/><path class="cls-5" d="M775.7,920.61c0-1-3.7.23-5.54.87-2.09,3-3.73,6.13-5.19,6.69-3.12,1.2,4.16,5.83,7.69.85-.13-1.1.18-1.82,1.39-4.63C774.93,922.4,775.7,921.43,775.7,920.61Z" transform="translate(-698.63 -697.19)"/><rect class="cls-5" x="78.71" y="218.38" width="0.02" height="0.01"/><path class="cls-5" d="M790.5,928.17c-1.43-.54-3-3.53-5-6.44a.3.3,0,0,0,0,.1c-.43-.15-6.54-2.44-6.54-1.22,0,.82.77,1.79,1.64,3.78,1.14,2.6,1.48,3.41,1.42,4.38.14-.38.23-.6.23-.6C785.57,934.48,793.79,929.43,790.5,928.17Z" transform="translate(-698.63 -697.19)"/><path class="cls-4" d="M785.54,921.83a.3.3,0,0,1,0-.1c-1.63-2.36-3.52-4.66-5.82-5.66a2.1,2.1,0,0,0-.46-.18l-.54-.15a3.27,3.27,0,0,0-.56-.11l-.15,0-.34,0h-.26s.06,0,0,0h0a7.83,7.83,0,0,0-4.14,2.18l-.52.52-.58.63a30.07,30.07,0,0,0-1.94,2.52c1.84-.64,5.54-1.82,5.54-.87s-.77,1.79-1.65,3.78c-1.21,2.81-1.52,3.53-1.39,4.63.05.38.15.79.28,1.36.62,2.64,2.2,6.62,4.4,6.62v-.47a0,0,0,0,1,0,0V937c2.21,0,3.78-4,4.4-6.62a9.43,9.43,0,0,0,.3-1.59,0,0,0,0,0,0,0c.06-1-.28-1.78-1.42-4.38-.87-2-1.64-3-1.64-3.78C779,919.39,785.11,921.68,785.54,921.83Z" transform="translate(-698.63 -697.19)"/><path class="cls-4" d="M777.36,937v0C777.42,937,777.37,937,777.36,937Z" transform="translate(-698.63 -697.19)"/><path class="cls-6" d="M817.47,739.24c-3,1-8-2-8-2s2,6,0,7l3,4,1,2,6-2L819,746l-1.5-6.75" transform="translate(-698.63 -697.19)"/><path class="cls-6" d="M832.83,744.49c-2.21-2.27-1.67-8.07-1.67-8.07s-4.54,4.4-6.31,3l-2.3,4.44-1.37,1.77,4.41,4.54,1.81-1.43,5.43-4.28" transform="translate(-698.63 -697.19)"/><path class="cls-6" d="M835.9,761c1.21-2.92,6.76-4.73,6.76-4.73s-5.84-2.42-5.29-4.59l-5-.36-2.17-.56-2.42,5.85,2,1.09,6.08,3.3" transform="translate(-698.63 -697.19)"/><path class="cls-6" d="M823.47,771.39c3.16-.25,7.28,3.87,7.28,3.87s-.49-6.31,1.69-6.8l-1.94-4.6-.49-2.18-6.3.49-.06,2.3-.18,6.92" transform="translate(-698.63 -697.19)"/><path class="cls-6" d="M809.17,766.7c2.07,2.38,1.21,8.15,1.21,8.15s4.78-4.14,6.47-2.68l2.54-4.3,1.47-1.69-4.15-4.78-1.88,1.32-5.66,4" transform="translate(-698.63 -697.19)"/><path class="cls-6" d="M805.07,750.89c-.63,3.1-5.73,5.93-5.73,5.93s6.2,1.27,6.06,3.5l5-.6,2.23.14,1.27-6.2-2.2-.69-6.6-2.08" transform="translate(-698.63 -697.19)"/><path class="cls-7" d="M817.47,747.24s0-1-2-4,0-8,5-8c6,0,9.16,1.68,6,8-2,4-3,5-3,5" transform="translate(-698.63 -697.19)"/><path class="cls-7" d="M825.56,748.82s.82-.57,2.14-3.93,6.56-4.57,9.42-.47c3.43,4.92,3.86,8.48-3.13,9.5-4.43.64-5.82.39-5.82.39" transform="translate(-698.63 -697.19)"/><path class="cls-7" d="M830.22,756.4s.78.62,4.38.91,6.27,5,3.17,8.89c-3.72,4.7-7,6.14-10-.26-1.89-4.05-2.06-5.46-2.06-5.46" transform="translate(-698.63 -697.19)"/><path class="cls-7" d="M824.89,763.2s0,1,2,4,.1,8-4.9,8.05c-6,.07-9.18-1.57-6.09-7.93,1.95-4,2.94-5,2.94-5" transform="translate(-698.63 -697.19)"/><path class="cls-7" d="M816.86,762.57s-.81.58-2.08,4-6.49,4.67-9.41.61c-3.51-4.87-4-8.42,3-9.54,4.41-.72,5.81-.49,5.81-.49" transform="translate(-698.63 -697.19)"/><path class="cls-7" d="M811.3,755.06s-.79-.61-4.39-.85-6.35-4.86-3.31-8.83c3.65-4.77,6.9-6.26,10,.1,2,4,2.15,5.42,2.15,5.42" transform="translate(-698.63 -697.19)"/><circle class="cls-4" cx="122.34" cy="58.55" r="9.5"/><path class="cls-6" d="M817.47,805.24c-3,1-8-2-8-2s2,6,0,7l3,4,1,2,6-2L819,812l-1.5-6.75" transform="translate(-698.63 -697.19)"/><path class="cls-6" d="M832.83,810.49c-2.21-2.27-1.67-8.07-1.67-8.07s-4.54,4.4-6.31,3l-2.3,4.44-1.37,1.77,4.41,4.54,1.81-1.43,5.43-4.28" transform="translate(-698.63 -697.19)"/><path class="cls-6" d="M835.9,827c1.21-2.92,6.76-4.73,6.76-4.73s-5.84-2.42-5.29-4.59l-5-.36-2.17-.56-2.42,5.85,2,1.09,6.08,3.3" transform="translate(-698.63 -697.19)"/><path class="cls-6" d="M823.47,837.39c3.16-.25,7.28,3.87,7.28,3.87s-.49-6.31,1.69-6.8l-1.94-4.6-.49-2.18-6.3.49-.06,2.3-.18,6.92" transform="translate(-698.63 -697.19)"/><path class="cls-6" d="M809.17,832.7c2.07,2.38,1.21,8.15,1.21,8.15s4.78-4.14,6.47-2.68l2.54-4.3,1.47-1.69-4.15-4.78-1.88,1.32-5.66,4" transform="translate(-698.63 -697.19)"/><path class="cls-6" d="M805.07,816.89c-.63,3.1-5.73,5.93-5.73,5.93s6.2,1.27,6.06,3.5l5-.6,2.23.14,1.27-6.2-2.2-.69-6.6-2.08" transform="translate(-698.63 -697.19)"/><path class="cls-7" d="M817.47,813.24s0-1-2-4,0-8,5-8c6,0,9.16,1.68,6,8-2,4-3,5-3,5" transform="translate(-698.63 -697.19)"/><path class="cls-7" d="M825.56,814.82s.82-.57,2.14-3.93,6.56-4.57,9.42-.47c3.43,4.92,3.86,8.48-3.13,9.5-4.43.64-5.82.39-5.82.39" transform="translate(-698.63 -697.19)"/><path class="cls-7" d="M830.22,822.4s.78.62,4.38.91,6.27,5,3.17,8.89c-3.72,4.7-7,6.14-10-.26-1.89-4.05-2.06-5.46-2.06-5.46" transform="translate(-698.63 -697.19)"/><path class="cls-7" d="M824.89,829.2s0,1,2,4,.1,8-4.9,8.05c-6,.07-9.18-1.57-6.09-7.93,1.95-4,2.94-5,2.94-5" transform="translate(-698.63 -697.19)"/><path class="cls-7" d="M816.86,828.57s-.81.58-2.08,4-6.49,4.67-9.41.61c-3.51-4.87-4-8.42,3-9.54,4.41-.72,5.81-.49,5.81-.49" transform="translate(-698.63 -697.19)"/><path class="cls-7" d="M811.3,821.06s-.79-.61-4.39-.85-6.35-4.86-3.31-8.83c3.65-4.77,6.9-6.26,10,.1,2,4,2.15,5.42,2.15,5.42" transform="translate(-698.63 -697.19)"/><circle class="cls-4" cx="122.34" cy="124.55" r="9.5"/><path class="cls-6" d="M817.47,870.24c-3,1-8-2-8-2s2,6,0,7l3,4,1,2,6-2L819,877l-1.5-6.75" transform="translate(-698.63 -697.19)"/><path class="cls-6" d="M832.83,875.49c-2.21-2.27-1.67-8.07-1.67-8.07s-4.54,4.4-6.31,3l-2.3,4.44-1.37,1.77,4.41,4.54,1.81-1.43,5.43-4.28" transform="translate(-698.63 -697.19)"/><path class="cls-6" d="M835.9,892c1.21-2.92,6.76-4.73,6.76-4.73s-5.84-2.42-5.29-4.59l-5-.36-2.17-.56-2.42,5.85,2,1.09,6.08,3.3" transform="translate(-698.63 -697.19)"/><path class="cls-6" d="M823.47,902.39c3.16-.25,7.28,3.87,7.28,3.87s-.49-6.31,1.69-6.8l-1.94-4.6-.49-2.18-6.3.49-.06,2.3-.18,6.92" transform="translate(-698.63 -697.19)"/><path class="cls-6" d="M809.17,897.7c2.07,2.38,1.21,8.15,1.21,8.15s4.78-4.14,6.47-2.68l2.54-4.3,1.47-1.69-4.15-4.78-1.88,1.32-5.66,4" transform="translate(-698.63 -697.19)"/><path class="cls-6" d="M805.07,881.89c-.63,3.1-5.73,5.93-5.73,5.93s6.2,1.27,6.06,3.5l5-.6,2.23.14,1.27-6.2-2.2-.69-6.6-2.08" transform="translate(-698.63 -697.19)"/><path class="cls-7" d="M817.47,878.24s0-1-2-4,0-8,5-8c6,0,9.16,1.68,6,8-2,4-3,5-3,5" transform="translate(-698.63 -697.19)"/><path class="cls-7" d="M825.56,879.82s.82-.57,2.14-3.93,6.56-4.57,9.42-.47c3.43,4.92,3.86,8.48-3.13,9.5-4.43.64-5.82.39-5.82.39" transform="translate(-698.63 -697.19)"/><path class="cls-7" d="M830.22,887.4s.78.62,4.38.91,6.27,5,3.17,8.89c-3.72,4.7-7,6.14-10-.26-1.89-4.05-2.06-5.46-2.06-5.46" transform="translate(-698.63 -697.19)"/><path class="cls-7" d="M824.89,894.2s0,1,2,4,.1,8-4.9,8.05c-6,.07-9.18-1.57-6.09-7.93,1.95-4,2.94-5,2.94-5" transform="translate(-698.63 -697.19)"/><path class="cls-7" d="M816.86,893.57s-.81.58-2.08,4-6.49,4.67-9.41.61c-3.51-4.87-4-8.42,3-9.54,4.41-.72,5.81-.49,5.81-.49" transform="translate(-698.63 -697.19)"/><path class="cls-7" d="M811.3,886.06s-.79-.61-4.39-.85-6.35-4.86-3.31-8.83c3.65-4.77,6.9-6.26,10,.1,2,4,2.15,5.42,2.15,5.42" transform="translate(-698.63 -697.19)"/><circle class="cls-4" cx="122.34" cy="189.55" r="9.5"/><path class="cls-6" d="M731.47,741.74c-3,1-8-2-8-2s2,6,0,7l3,4,1,2,6-2-.5-2.25-1.5-6.75" transform="translate(-698.63 -697.19)"/><path class="cls-6" d="M746.83,747c-2.21-2.27-1.67-8.07-1.67-8.07s-4.54,4.4-6.31,3l-2.3,4.44-1.37,1.77,4.41,4.54,1.81-1.43,5.43-4.28" transform="translate(-698.63 -697.19)"/><path class="cls-6" d="M749.9,763.46c1.21-2.92,6.76-4.73,6.76-4.73s-5.84-2.42-5.29-4.59l-5-.36-2.17-.56-2.42,5.85,2,1.09,6.08,3.3" transform="translate(-698.63 -697.19)"/><path class="cls-6" d="M737.47,773.89c3.16-.25,7.28,3.87,7.28,3.87s-.49-6.31,1.69-6.8l-1.94-4.6-.49-2.18-6.3.49-.06,2.3-.18,6.92" transform="translate(-698.63 -697.19)"/><path class="cls-6" d="M723.17,769.2c2.07,2.38,1.21,8.15,1.21,8.15s4.78-4.14,6.47-2.68l2.54-4.3,1.47-1.69-4.15-4.78-1.88,1.32-5.66,4" transform="translate(-698.63 -697.19)"/><path class="cls-6" d="M719.07,753.39c-.63,3.1-5.73,5.93-5.73,5.93s6.2,1.27,6.06,3.5l5-.6,2.23.14,1.27-6.2-2.2-.69-6.6-2.08" transform="translate(-698.63 -697.19)"/><path class="cls-7" d="M731.47,749.74s0-1-2-4,0-8,5-8c6,0,9.16,1.68,6,8-2,4-3,5-3,5" transform="translate(-698.63 -697.19)"/><path class="cls-7" d="M739.56,751.32s.82-.57,2.14-3.93,6.56-4.57,9.42-.47c3.43,4.92,3.86,8.48-3.13,9.5-4.43.64-5.82.39-5.82.39" transform="translate(-698.63 -697.19)"/><path class="cls-7" d="M744.22,758.9s.78.62,4.38.91,6.27,5,3.17,8.89c-3.72,4.7-7,6.14-10-.26-1.89-4.05-2.06-5.46-2.06-5.46" transform="translate(-698.63 -697.19)"/><path class="cls-7" d="M738.89,765.7s0,1,2,4,.1,8-4.9,8.05c-6,.07-9.18-1.57-6.09-7.93,1.95-4,2.94-5,2.94-5" transform="translate(-698.63 -697.19)"/><path class="cls-7" d="M730.86,765.07s-.81.58-2.08,4-6.49,4.67-9.41.61c-3.51-4.87-4-8.42,3-9.54,4.41-.72,5.81-.49,5.81-.49" transform="translate(-698.63 -697.19)"/><path class="cls-7" d="M725.3,757.56s-.79-.61-4.39-.85-6.35-4.86-3.31-8.83c3.65-4.77,6.9-6.26,10,.1,2,4,2.15,5.42,2.15,5.42" transform="translate(-698.63 -697.19)"/><circle class="cls-4" cx="36.34" cy="61.05" r="9.5"/><path class="cls-6" d="M731.47,867.74c-3,1-8-2-8-2s2,6,0,7l3,4,1,2,6-2-.5-2.25-1.5-6.75" transform="translate(-698.63 -697.19)"/><path class="cls-6" d="M746.83,873c-2.21-2.27-1.67-8.07-1.67-8.07s-4.54,4.4-6.31,3l-2.3,4.44-1.37,1.77,4.41,4.54,1.81-1.43,5.43-4.28" transform="translate(-698.63 -697.19)"/><path class="cls-6" d="M749.9,889.46c1.21-2.92,6.76-4.73,6.76-4.73s-5.84-2.42-5.29-4.59l-5-.36-2.17-.56-2.42,5.85,2,1.09,6.08,3.3" transform="translate(-698.63 -697.19)"/><path class="cls-6" d="M737.47,899.89c3.16-.25,7.28,3.87,7.28,3.87s-.49-6.31,1.69-6.8l-1.94-4.6-.49-2.18-6.3.49-.06,2.3-.18,6.92" transform="translate(-698.63 -697.19)"/><path class="cls-6" d="M723.17,895.2c2.07,2.38,1.21,8.15,1.21,8.15s4.78-4.14,6.47-2.68l2.54-4.3,1.47-1.69-4.15-4.78-1.88,1.32-5.66,4" transform="translate(-698.63 -697.19)"/><path class="cls-6" d="M719.07,879.39c-.63,3.1-5.73,5.93-5.73,5.93s6.2,1.27,6.06,3.5l5-.6,2.23.14,1.27-6.2-2.2-.69-6.6-2.08" transform="translate(-698.63 -697.19)"/><path class="cls-7" d="M731.47,875.74s0-1-2-4,0-8,5-8c6,0,9.16,1.68,6,8-2,4-3,5-3,5" transform="translate(-698.63 -697.19)"/><path class="cls-7" d="M739.56,877.32s.82-.57,2.14-3.93,6.56-4.57,9.42-.47c3.43,4.92,3.86,8.48-3.13,9.5-4.43.64-5.82.39-5.82.39" transform="translate(-698.63 -697.19)"/><path class="cls-7" d="M744.22,884.9s.78.62,4.38.91,6.27,5,3.17,8.89c-3.72,4.7-7,6.14-10-.26-1.89-4.05-2.06-5.46-2.06-5.46" transform="translate(-698.63 -697.19)"/><path class="cls-7" d="M738.89,891.7s0,1,2,4,.1,8-4.9,8.05c-6,.07-9.18-1.57-6.09-7.93,1.95-4,2.94-5,2.94-5" transform="translate(-698.63 -697.19)"/><path class="cls-7" d="M730.86,891.07s-.81.58-2.08,4-6.49,4.67-9.41.61c-3.51-4.87-4-8.42,3-9.54,4.41-.72,5.81-.49,5.81-.49" transform="translate(-698.63 -697.19)"/><path class="cls-7" d="M725.3,883.56s-.79-.61-4.39-.85-6.35-4.86-3.31-8.83c3.65-4.77,6.9-6.26,10,.1,2,4,2.15,5.42,2.15,5.42" transform="translate(-698.63 -697.19)"/><circle class="cls-4" cx="36.34" cy="187.05" r="9.5"/><path class="cls-6" d="M782.53,832.82c-3.07-.78-5.67-6-5.67-6s-1.54,6.14-3.77,5.9l.38,5-.24,2.22,6.14,1.55.79-2.17,2.37-6.49" transform="translate(-698.63 -697.19)"/><path class="cls-6" d="M792.64,845.5c-.63-3.09,2.94-7.7,2.94-7.7s-6.19,1.27-7-.84l-4.33,2.51-2.1.75,1.27,6.2,2.29-.23,6.88-.69" transform="translate(-698.63 -697.19)"/><path class="cls-6" d="M786.37,861c2.6-1.81,8.24-.35,8.24-.35s-3.62-5.19-2-6.72l-4-3-1.53-1.64L781.91,853l1.11,2,3.35,6" transform="translate(-698.63 -697.19)"/><path class="cls-6" d="M770.29,863.14c2.79,1.49,4.05,7.18,4.05,7.18s3-5.58,5.08-4.82l.84-4.93.76-2.1-5.58-3-1.28,1.91-3.87,5.74" transform="translate(-698.63 -697.19)"/><path class="cls-6" d="M760.75,851.49c.46,3.12-3.36,7.53-3.36,7.53s6.26-.93,6.89,1.21l4.46-2.25,2.15-.64-.93-6.26-2.3.1-6.91.31" transform="translate(-698.63 -697.19)"/><path class="cls-6" d="M765.81,836c-2.21,2.27-8,1.91-8,1.91s4.54,4.4,3.23,6.21l4.51,2.17,1.81,1.31,4.4-4.54-1.48-1.76-4.44-5.3" transform="translate(-698.63 -697.19)"/><path class="cls-7" d="M778.22,839.56s.54-.84.47-4.45,4.3-6.74,8.52-4.05c5,3.23,6.82,6.34.75,10-3.84,2.29-5.22,2.6-5.22,2.6" transform="translate(-698.63 -697.19)"/><path class="cls-7" d="M784.19,845.24s1,0,3.92-2.16,8-.32,8.19,4.67c.24,6-1.3,9.23-7.75,6.32-4.08-1.84-5.12-2.8-5.12-2.8" transform="translate(-698.63 -697.19)"/><path class="cls-7" d="M784,854.13s.33,1,3.2,3.13,2.62,7.56-2.11,9.19c-5.67,2-9.21,1.42-8.29-5.59.59-4.44,1.2-5.71,1.2-5.71" transform="translate(-698.63 -697.19)"/><path class="cls-7" d="M775.89,857s-.53.85-.42,4.45-4.23,6.79-8.47,4.15c-5.1-3.17-6.9-6.26-.87-10,3.81-2.34,5.19-2.66,5.19-2.66" transform="translate(-698.63 -697.19)"/><path class="cls-7" d="M769.46,852.15s-1,.05-3.88,2.21-8,.45-8.27-4.54c-.33-6,1.17-9.24,7.66-6.44,4.1,1.78,5.16,2.72,5.16,2.72" transform="translate(-698.63 -697.19)"/><path class="cls-7" d="M768.82,842.83s-.35-.94-3.25-3.08-2.74-7.52,2-9.23c5.64-2,9.19-1.55,8.38,5.47-.52,4.44-1.11,5.72-1.11,5.72" transform="translate(-698.63 -697.19)"/><circle class="cls-4" cx="77.97" cy="151.42" r="9.5"/><path class="cls-6" d="M731.47,807.74c-3,1-8-2-8-2s2,6,0,7l3,4,1,2,6-2-.5-2.25-1.5-6.75" transform="translate(-698.63 -697.19)"/><path class="cls-6" d="M746.83,813c-2.21-2.27-1.67-8.07-1.67-8.07s-4.54,4.4-6.31,3l-2.3,4.44-1.37,1.77,4.41,4.54,1.81-1.43,5.43-4.28" transform="translate(-698.63 -697.19)"/><path class="cls-6" d="M749.9,829.46c1.21-2.92,6.76-4.73,6.76-4.73s-5.84-2.42-5.29-4.59l-5-.36-2.17-.56-2.42,5.85,2,1.09,6.08,3.3" transform="translate(-698.63 -697.19)"/><path class="cls-6" d="M737.47,839.89c3.16-.25,7.28,3.87,7.28,3.87s-.49-6.31,1.69-6.8l-1.94-4.6-.49-2.18-6.3.49-.06,2.3-.18,6.92" transform="translate(-698.63 -697.19)"/><path class="cls-6" d="M723.17,835.2c2.07,2.38,1.21,8.15,1.21,8.15s4.78-4.14,6.47-2.68l2.54-4.3,1.47-1.69-4.15-4.78-1.88,1.32-5.66,4" transform="translate(-698.63 -697.19)"/><path class="cls-6" d="M719.07,819.39c-.63,3.1-5.73,5.93-5.73,5.93s6.2,1.27,6.06,3.5l5-.6,2.23.14,1.27-6.2-2.2-.69-6.6-2.08" transform="translate(-698.63 -697.19)"/><path class="cls-7" d="M731.47,815.74s0-1-2-4,0-8,5-8c6,0,9.16,1.68,6,8-2,4-3,5-3,5" transform="translate(-698.63 -697.19)"/><path class="cls-7" d="M739.56,817.32s.82-.57,2.14-3.93,6.56-4.57,9.42-.47c3.43,4.92,3.86,8.48-3.13,9.5-4.43.64-5.82.39-5.82.39" transform="translate(-698.63 -697.19)"/><path class="cls-7" d="M744.22,824.9s.78.62,4.38.91,6.27,5,3.17,8.89c-3.72,4.7-7,6.14-10-.26-1.89-4.05-2.06-5.46-2.06-5.46" transform="translate(-698.63 -697.19)"/><path class="cls-7" d="M738.89,831.7s0,1,2,4,.1,8-4.9,8.05c-6,.07-9.18-1.57-6.09-7.93,1.95-4,2.94-5,2.94-5" transform="translate(-698.63 -697.19)"/><path class="cls-7" d="M730.86,831.07s-.81.58-2.08,4-6.49,4.67-9.41.61c-3.51-4.87-4-8.42,3-9.54,4.41-.72,5.81-.49,5.81-.49" transform="translate(-698.63 -697.19)"/><path class="cls-7" d="M725.3,823.56s-.79-.61-4.39-.85-6.35-4.86-3.31-8.83c3.65-4.77,6.9-6.26,10,.1,2,4,2.15,5.42,2.15,5.42" transform="translate(-698.63 -697.19)"/><circle class="cls-4" cx="36.34" cy="127.05" r="9.5"/><line class="cls-1" x1="74.71" y1="58.12" x2="75.44" y2="65.36"/></g></svg>