<svg xmlns="http://www.w3.org/2000/svg" viewBox="0 0 158.74 246.62"><defs><style>.cls-1{fill:none;}.cls-1,.cls-2{stroke:#000;stroke-miterlimit:10;stroke-width:0.3px;}.cls-2,.cls-7{fill:#d9e021;}.cls-3{fill:red;}.cls-4{fill:#ff0;}.cls-5{fill:#fcee21;}.cls-6{fill:#1a1a1a;}</style></defs><title>8</title><g id="Ebene_3" data-name="Ebene 3"><path class="cls-1" d="M1007,803s-1.94-17-11-17c-13,0-17,14-19,34" transform="translate(-895.63 -702.19)"/><polygon class="cls-2" points="90.07 87.51 85.37 87.95 86.11 93.91 90.07 87.51"/><path class="cls-1" d="M1007,848s-1.94,17-11,17c-13,0-17-14-19-34" transform="translate(-895.63 -702.19)"/><polygon class="cls-2" points="90.07 159.11 85.37 158.68 86.11 152.71 90.07 159.11"/><path class="cls-1" d="M978,869c0,.61.1,1.22.16,1.83C979.39,884.49,981.87,898,986,907a33.93,33.93,0,0,0,2.24,4.22c2.68,4.25,5.92,6.78,9.78,6.78,3.65,0,6.15-3.4,7.83-7.45l.17-.42a42.27,42.27,0,0,0,1.6-5.06" transform="translate(-895.63 -702.19)"/><path class="cls-1" d="M1008.39,901.38c.31-1.75.49-3.13.56-3.8,0-.29,0-.45,0-.45" transform="translate(-895.63 -702.19)"/><polygon class="cls-2" points="93.09 209.97 88.37 209.46 89.12 202.5 93.09 209.97"/><path class="cls-1" d="M1007.6,746.93a42.27,42.27,0,0,0-1.6-5.06l-.17-.42c-1.68-4.05-4.18-7.45-7.83-7.45-3.86,0-7.1,2.53-9.78,6.78A33.93,33.93,0,0,0,986,745c-4.11,9-6.59,22.51-7.82,36.17-.06.61-.11,1.22-.16,1.83" transform="translate(-895.63 -702.19)"/><path class="cls-1" d="M1009,754.87s0-.16,0-.45c-.07-.67-.25-2-.56-3.8" transform="translate(-895.63 -702.19)"/><polygon class="cls-2" points="93.09 37.65 88.37 38.16 89.12 45.12 93.09 37.65"/><path class="cls-1" d="M941,803s1.94-17,11-17c13,0,17,14,19,34" transform="translate(-895.63 -702.19)"/><polygon class="cls-2" points="66.67 87.51 71.37 87.95 70.63 93.91 66.67 87.51"/><path class="cls-1" d="M941,848s1.94,17,11,17c13,0,17-14,19-34" transform="translate(-895.63 -702.19)"/><polygon class="cls-2" points="66.67 159.11 71.37 158.68 70.63 152.71 66.67 159.11"/><path class="cls-1" d="M940.4,905.07a42.27,42.27,0,0,0,1.6,5.06l.17.42c1.68,4.05,4.18,7.45,7.83,7.45,3.86,0,7.1-2.53,9.78-6.78A33.93,33.93,0,0,0,962,907c4.11-9,6.59-22.51,7.82-36.17.06-.61.11-1.22.16-1.83" transform="translate(-895.63 -702.19)"/><path class="cls-1" d="M939,897.13s0,.16,0,.45c.07.67.25,2,.56,3.8" transform="translate(-895.63 -702.19)"/><polygon class="cls-2" points="63.65 209.97 68.37 209.46 67.62 202.5 63.65 209.97"/><path class="cls-1" d="M970,783c0-.61-.1-1.22-.16-1.83C968.61,767.51,966.13,754,962,745a33.93,33.93,0,0,0-2.24-4.22c-2.68-4.25-5.92-6.78-9.78-6.78-3.65,0-6.15,3.4-7.83,7.45l-.17.42a42.27,42.27,0,0,0-1.6,5.06" transform="translate(-895.63 -702.19)"/><path class="cls-1" d="M939.61,750.62c-.31,1.75-.49,3.13-.56,3.8,0,.29,0,.45,0,.45" transform="translate(-895.63 -702.19)"/><polygon class="cls-2" points="63.65 37.65 68.37 38.16 67.62 45.12 63.65 37.65"/><path class="cls-1" d="M977.75,867.59" transform="translate(-895.63 -702.19)"/><line class="cls-2" x1="82.78" y1="76.36" x2="82.37" y2="79.78"/></g><g id="Ebene_1" data-name="Ebene 1"><path d="M907.15,938a3.67,3.67,0,0,1-3.92-3.56,3,3,0,0,1,.67-1.94,21,21,0,0,1,2-1.54c-1.66-.91-3.29-2.06-3.29-4.15,0-2.81,2.54-4.34,4.82-4.34,2.67,0,4.64,1.53,4.64,4a2.84,2.84,0,0,1-1.11,2.37,21.5,21.5,0,0,1-2.16,1.49c1.56.91,2.67,2.06,2.67,3.77A4.06,4.06,0,0,1,907.15,938Zm0-14.74a2.52,2.52,0,0,0-2.6,2.83c0,1.92,1.61,2.86,3.55,3.79a3.67,3.67,0,0,0,2-3.29C910.12,924.38,908.73,923.25,907.15,923.25Zm.28,13.92a2.21,2.21,0,0,0,2.21-2.45c0-1.75-1.18-2.4-3-3.38a3.5,3.5,0,0,0-1.58,3C905,936.33,906.19,937.17,907.43,937.17Z" transform="translate(-895.63 -702.19)"/><path d="M1040,703.19a13.35,13.35,0,0,1,13.34,13.34V934.47A13.35,13.35,0,0,1,1040,947.81H910a13.35,13.35,0,0,1-13.34-13.34V716.53A13.35,13.35,0,0,1,910,703.19H1040m0-1H910a14.34,14.34,0,0,0-14.34,14.34V934.47A14.34,14.34,0,0,0,910,948.81H1040a14.34,14.34,0,0,0,14.34-14.34V716.53A14.34,14.34,0,0,0,1040,702.19Z" transform="translate(-895.63 -702.19)"/><path d="M906.52,710.7a3.67,3.67,0,0,1,3.92,3.55,3,3,0,0,1-.68,2,18.13,18.13,0,0,1-2,1.53c1.66.92,3.29,2.07,3.29,4.16,0,2.81-2.54,4.34-4.82,4.34-2.67,0-4.64-1.53-4.64-4a2.88,2.88,0,0,1,1.11-2.38,21.72,21.72,0,0,1,2.16-1.48c-1.56-.92-2.67-2.07-2.67-3.77A4.06,4.06,0,0,1,906.52,710.7Zm0,14.74a2.52,2.52,0,0,0,2.6-2.83c0-1.92-1.61-2.86-3.56-3.8a3.7,3.7,0,0,0-2,3.29C903.55,724.31,904.94,725.44,906.52,725.44Zm-.28-13.92A2.21,2.21,0,0,0,904,714c0,1.75,1.17,2.4,3.05,3.38a3.5,3.5,0,0,0,1.58-3C908.66,712.36,907.48,711.52,906.24,711.52Z" transform="translate(-895.63 -702.19)"/><path d="M1043.36,710.7a3.67,3.67,0,0,1,3.91,3.55,3,3,0,0,1-.67,2,19.87,19.87,0,0,1-2,1.53c1.66.92,3.29,2.07,3.29,4.16,0,2.81-2.54,4.34-4.82,4.34-2.67,0-4.64-1.53-4.64-4a2.88,2.88,0,0,1,1.11-2.38,21.72,21.72,0,0,1,2.16-1.48c-1.56-.92-2.66-2.07-2.66-3.77A4.05,4.05,0,0,1,1043.36,710.7Zm0,14.74a2.52,2.52,0,0,0,2.59-2.83c0-1.92-1.61-2.86-3.56-3.8a3.7,3.7,0,0,0-2,3.29C1040.38,724.31,1041.77,725.44,1043.36,725.44Zm-.29-13.92a2.21,2.21,0,0,0-2.21,2.45c0,1.75,1.18,2.4,3.05,3.38a3.5,3.5,0,0,0,1.58-3C1045.49,712.36,1044.31,711.52,1043.07,711.52Z" transform="translate(-895.63 -702.19)"/><path d="M1044,938a3.67,3.67,0,0,1-3.92-3.56,2.93,2.93,0,0,1,.68-1.94,19.06,19.06,0,0,1,2-1.54c-1.66-.91-3.29-2.06-3.29-4.15,0-2.81,2.54-4.34,4.82-4.34,2.67,0,4.64,1.53,4.64,4a2.84,2.84,0,0,1-1.11,2.37,21.5,21.5,0,0,1-2.16,1.49c1.56.91,2.67,2.06,2.67,3.77A4.06,4.06,0,0,1,1044,938Zm0-14.74a2.52,2.52,0,0,0-2.6,2.83c0,1.92,1.61,2.86,3.56,3.79a3.68,3.68,0,0,0,2-3.29C1047,924.38,1045.56,923.25,1044,923.25Zm.28,13.92a2.21,2.21,0,0,0,2.21-2.45c0-1.75-1.18-2.4-3-3.38a3.5,3.5,0,0,0-1.58,3C1041.84,936.33,1043,937.17,1044.26,937.17Z" transform="translate(-895.63 -702.19)"/><path class="cls-3" d="M978.14,831" transform="translate(-895.63 -702.19)"/><ellipse class="cls-4" cx="78.23" cy="115.83" rx="4.29" ry="0.65"/><ellipse class="cls-4" cx="78.23" cy="129.42" rx="4.29" ry="0.65"/><path class="cls-3" d="M969.57,818l.33.05a26.88,26.88,0,0,0,7.91,0l.33-.05-.74,4.92a14.05,14.05,0,0,0,0,4.39l.71,4.28h0a14.89,14.89,0,0,0-8.57,0h0l.26-1.59a31.09,31.09,0,0,0,.08-9.77Z" transform="translate(-895.63 -702.19)"/><path class="cls-3" d="M972.79,831.61h2.14l5.36,37.52-1.67-.33a24.21,24.21,0,0,0-9.52,0l-1.67.33Z" transform="translate(-895.63 -702.19)"/><polygon points="77.16 128.77 79.3 128.77 82.51 151.41 73.94 151.41 77.16 128.77"/><path d="M973.32,856.32l.54,1.17.53-1.17h0a4.53,4.53,0,0,1,1.92-2,6.07,6.07,0,0,1,1.83-.71h-8.57a6.14,6.14,0,0,1,1.84.71,4.55,4.55,0,0,1,1.91,2Z" transform="translate(-895.63 -702.19)"/><ellipse class="cls-4" cx="78.23" cy="166.94" rx="6.43" ry="1.94"/><path class="cls-3" d="M972.79,818h2.14l5.36-37.53-1.67.34a24.21,24.21,0,0,1-9.52,0l-1.67-.34Z" transform="translate(-895.63 -702.19)"/><polygon points="77.16 116.47 79.3 116.47 82.51 93.83 73.94 93.83 77.16 116.47"/><path d="M973.32,793.76l.54-1,.53,1h0a4.12,4.12,0,0,0,1.92,1.67,6.9,6.9,0,0,0,1.83.59h-8.57a7,7,0,0,0,1.84-.59,4.14,4.14,0,0,0,1.91-1.67Z" transform="translate(-895.63 -702.19)"/><ellipse class="cls-4" cx="78.23" cy="78.3" rx="6.43" ry="1.94"/><path class="cls-1" d="M1036,825.14" transform="translate(-895.63 -702.19)"/><path class="cls-1" d="M916,825.14" transform="translate(-895.63 -702.19)"/><path class="cls-1" d="M971.71,825.14" transform="translate(-895.63 -702.19)"/><path class="cls-1" d="M954.57,825.14" transform="translate(-895.63 -702.19)"/><path class="cls-1" d="M1018,893" transform="translate(-895.63 -702.19)"/><path class="cls-1" d="M983.31,855.17" transform="translate(-895.63 -702.19)"/><path class="cls-1" d="M976,829.66" transform="translate(-895.63 -702.19)"/><path class="cls-1" d="M1018,761" transform="translate(-895.63 -702.19)"/><path class="cls-1" d="M976,820" transform="translate(-895.63 -702.19)"/><path class="cls-3" d="M969.57,818l.33.05a26.88,26.88,0,0,0,7.91,0l.33-.05-.74,4.92a14.05,14.05,0,0,0,0,4.39l.71,4.28h0a14.89,14.89,0,0,0-8.57,0h0l.84-5.07a9.13,9.13,0,0,0,0-2.81Z" transform="translate(-895.63 -702.19)"/><path class="cls-1" d="M932,763" transform="translate(-895.63 -702.19)"/><path class="cls-1" d="M971.71,820" transform="translate(-895.63 -702.19)"/><path class="cls-1" d="M932,886" transform="translate(-895.63 -702.19)"/><path class="cls-1" d="M971.71,829" transform="translate(-895.63 -702.19)"/><path class="cls-1" d="M1015.71,762" transform="translate(-895.63 -702.19)"/><path class="cls-1" d="M995.71,765" transform="translate(-895.63 -702.19)"/><path class="cls-1" d="M976.54,816.42" transform="translate(-895.63 -702.19)"/><path class="cls-1" d="M976,819" transform="translate(-895.63 -702.19)"/><path class="cls-3" d="M969.57,818l.33.05a26.88,26.88,0,0,0,7.91,0l.33-.05-.74,4.92a14.05,14.05,0,0,0,0,4.39l.71,4.28h0a14.91,14.91,0,0,0-2-.46l-.26,0a15.14,15.14,0,0,0-6.26.49h0l.84-5.07a9.13,9.13,0,0,0,0-2.81Z" transform="translate(-895.63 -702.19)"/><path class="cls-5" d="M973.86,783.42s-2.15-32.46-6.43-35.71c0,0,6.43-3.25,6.43-8.12" transform="translate(-895.63 -702.19)"/><path d="M973.86,783.42S976,751,980.29,747.71c0,0-6.43-3.25-6.43-8.12" transform="translate(-895.63 -702.19)"/><path class="cls-5" d="M973.86,866.2s-2.15,32.47-6.43,35.71c0,0,6.43,3.25,6.43,8.12" transform="translate(-895.63 -702.19)"/><path d="M974,740l-.14,170c0-4.87,6.43-8.12,6.43-8.12-4.29-3.24-6.43-35.71-6.43-35.71" transform="translate(-895.63 -702.19)"/><path class="cls-5" d="M991,723.36c-3.69,1.4-8.21,15.1-16.16,16.15a8.09,8.09,0,0,1-1,.08h0s.12-.05,0-.07h0c-3.84-.53-6.84-4-9.37-7.53-2.72-3.86-4.86-7.89-6.77-8.62-4.07-1.54,5.42-7.5,10-1.09a7.43,7.43,0,0,1,.68,1.09s3.18-8.44,5.43-10.76a0,0,0,0,0,0,0,.5.5,0,0,1,1,0c2.25,2.31,5.45,10.78,5.45,10.78C984.57,715.25,995.29,721.74,991,723.36Z" transform="translate(-895.63 -702.19)"/><path class="cls-3" d="M973.84,712l0,27.59c-3.84-.53-6.86-4-9.39-7.61,2.4.83,7.22,2.34,7.22,1.12,0-1.05-1-2.3-2.14-4.87-1.59-3.62-2-4.54-1.82-6,.06-.48.19-1,.36-1.75C968.91,717.13,971,712,973.84,712Z" transform="translate(-895.63 -702.19)"/><path class="cls-3" d="M984.53,731.53c-.26.48-4.44,8.06-10.67,8.06V712c2.89,0,4.93,5.13,5.74,8.52.69,2.84.69,2.84-1.46,7.71C977,730.8,976,732.05,976,733.1,976,734.68,984,731.72,984.53,731.53Z" transform="translate(-895.63 -702.19)"/><path class="cls-5" d="M971.69,914.9c0-1.22-4.82.29-7.22,1.12-2.72,3.86-4.86,7.89-6.77,8.62-4.07,1.54,5.42,7.5,10,1.09-.17-1.42.23-2.34,1.82-6C970.69,917.2,971.69,916,971.69,914.9Z" transform="translate(-895.63 -702.19)"/><rect class="cls-5" x="78.21" y="206.22" width="0.02" height="0.02"/><path class="cls-5" d="M991,924.64c-1.86-.7-3.92-4.55-6.54-8.3a.69.69,0,0,0,.07.13c-.56-.19-8.53-3.15-8.53-1.57,0,1.05,1,2.3,2.14,4.87,1.48,3.34,1.93,4.38,1.85,5.63l.3-.76C984.57,932.75,995.29,926.26,991,924.64Z" transform="translate(-895.63 -702.19)"/><path class="cls-3" d="M984.53,916.47a.69.69,0,0,1-.07-.13c-2.12-3-4.58-6-7.58-7.28a3.1,3.1,0,0,0-.6-.23,6.29,6.29,0,0,0-.71-.2,5.25,5.25,0,0,0-.73-.14.65.65,0,0,0-.19,0,3.4,3.4,0,0,1-.45,0h-.34s.08.05,0,.07h0a10.19,10.19,0,0,0-5.4,2.81l-.69.66c-.24.26-.49.54-.75.81a38.17,38.17,0,0,0-2.53,3.25c2.4-.83,7.22-2.34,7.22-1.12,0,1.05-1,2.3-2.14,4.87-1.59,3.62-2,4.54-1.82,6,.06.48.19,1,.36,1.75.82,3.39,2.87,8.52,5.75,8.52v-.6a0,0,0,0,1,0,0V936c2.89,0,4.93-5.13,5.74-8.52a12.42,12.42,0,0,0,.39-2.05s0,0,0,0c.08-1.25-.37-2.29-1.85-5.63C977,917.2,976,916,976,914.9,976,913.32,984,916.28,984.53,916.47Z" transform="translate(-895.63 -702.19)"/><path class="cls-3" d="M973.86,936v-.06C973.94,935.94,973.88,936,973.86,936Z" transform="translate(-895.63 -702.19)"/><path class="cls-6" d="M1012.88,739.24c-3,1-8-2-8-2s2,6,0,7l3,4,1,2,6-2-.5-2.25-1.5-6.75Z" transform="translate(-895.63 -702.19)"/><path class="cls-6" d="M1028.23,744.49c-2.2-2.27-1.67-8.07-1.67-8.07s-4.54,4.4-6.31,3l-2.3,4.44-1.37,1.77,4.41,4.54,1.81-1.43,5.43-4.28Z" transform="translate(-895.63 -702.19)"/><path class="cls-6" d="M1031.3,761c1.22-2.92,6.76-4.73,6.76-4.73s-5.84-2.42-5.28-4.59l-5-.36-2.17-.56-2.42,5.85,2,1.09,6.07,3.3Z" transform="translate(-895.63 -702.19)"/><path class="cls-6" d="M1018.88,771.39c3.15-.25,7.28,3.87,7.28,3.87s-.49-6.31,1.69-6.8l-1.95-4.6-.49-2.18-6.3.49-.06,2.3-.17,6.92Z" transform="translate(-895.63 -702.19)"/><path class="cls-6" d="M1004.57,766.7c2.07,2.38,1.22,8.15,1.22,8.15s4.77-4.14,6.46-2.68l2.55-4.3,1.46-1.69-4.14-4.78-1.89,1.32-5.66,4Z" transform="translate(-895.63 -702.19)"/><path class="cls-6" d="M1000.48,750.89c-.64,3.1-5.73,5.93-5.73,5.93s6.19,1.27,6.06,3.5l5-.6,2.23.14,1.27-6.2-2.2-.69-6.59-2.08Z" transform="translate(-895.63 -702.19)"/><path class="cls-7" d="M1012.88,747.24s0-1-2-4,0-8,5-8c6,0,9.16,1.68,6,8-2,4-3,5-3,5Z" transform="translate(-895.63 -702.19)"/><path class="cls-7" d="M1021,748.82s.82-.57,2.14-3.93,6.57-4.57,9.43-.47c3.43,4.92,3.86,8.48-3.14,9.5-4.42.64-5.82.39-5.82.39Z" transform="translate(-895.63 -702.19)"/><path class="cls-7" d="M1025.62,756.4s.79.62,4.38.91,6.27,5,3.17,8.89c-3.72,4.7-7,6.14-10-.26-1.9-4.05-2.06-5.46-2.06-5.46Z" transform="translate(-895.63 -702.19)"/><path class="cls-7" d="M1020.29,763.2s0,1,2.05,4,.09,8-4.91,8.05c-6,.07-9.18-1.57-6.09-7.93,1.95-4,2.94-5,2.94-5Z" transform="translate(-895.63 -702.19)"/><path class="cls-7" d="M1012.26,762.57s-.81.58-2.07,4-6.5,4.67-9.42.61c-3.5-4.87-4-8.42,3-9.54,4.42-.72,5.81-.49,5.81-.49Z" transform="translate(-895.63 -702.19)"/><path class="cls-7" d="M1006.71,755.06s-.8-.61-4.39-.85-6.36-4.86-3.31-8.83c3.64-4.77,6.9-6.26,10,.1,2,4,2.15,5.42,2.15,5.42Z" transform="translate(-895.63 -702.19)"/><circle class="cls-3" cx="120.74" cy="53.55" r="9.5"/><path class="cls-6" d="M1012.88,782.74c-3,1-8-2-8-2s2,6,0,7l3,4,1,2,6-2-.5-2.25-1.5-6.75Z" transform="translate(-895.63 -702.19)"/><path class="cls-6" d="M1028.23,788c-2.2-2.27-1.67-8.07-1.67-8.07s-4.54,4.4-6.31,3l-2.3,4.44-1.37,1.77,4.41,4.54,1.81-1.43,5.43-4.28Z" transform="translate(-895.63 -702.19)"/><path class="cls-6" d="M1031.3,804.46c1.22-2.92,6.76-4.73,6.76-4.73s-5.84-2.42-5.28-4.59l-5-.36-2.17-.56-2.42,5.85,2,1.09,6.07,3.3Z" transform="translate(-895.63 -702.19)"/><path class="cls-6" d="M1018.88,814.89c3.15-.25,7.28,3.87,7.28,3.87s-.49-6.31,1.69-6.8l-1.95-4.6-.49-2.18-6.3.49-.06,2.3-.17,6.92Z" transform="translate(-895.63 -702.19)"/><path class="cls-6" d="M1004.57,810.2c2.07,2.38,1.22,8.15,1.22,8.15s4.77-4.14,6.46-2.68l2.55-4.3,1.46-1.69-4.14-4.78-1.89,1.32-5.66,4Z" transform="translate(-895.63 -702.19)"/><path class="cls-6" d="M1000.48,794.39c-.64,3.1-5.73,5.93-5.73,5.93s6.19,1.27,6.06,3.5l5-.6,2.23.14,1.27-6.2-2.2-.69-6.59-2.08Z" transform="translate(-895.63 -702.19)"/><path class="cls-7" d="M1012.88,790.74s0-1-2-4,0-8,5-8c6,0,9.16,1.68,6,8-2,4-3,5-3,5Z" transform="translate(-895.63 -702.19)"/><path class="cls-7" d="M1021,792.32s.82-.57,2.14-3.93,6.57-4.57,9.43-.47c3.43,4.92,3.86,8.48-3.14,9.5-4.42.64-5.82.39-5.82.39Z" transform="translate(-895.63 -702.19)"/><path class="cls-7" d="M1025.62,799.9s.79.62,4.38.91,6.27,5,3.17,8.89c-3.72,4.7-7,6.14-10-.26-1.9-4.05-2.06-5.46-2.06-5.46Z" transform="translate(-895.63 -702.19)"/><path class="cls-7" d="M1020.29,806.7s0,1,2.05,4,.09,8-4.91,8.05c-6,.07-9.18-1.57-6.09-7.93,1.95-4,2.94-5,2.94-5Z" transform="translate(-895.63 -702.19)"/><path class="cls-7" d="M1012.26,806.07s-.81.58-2.07,4-6.5,4.67-9.42.61c-3.5-4.87-4-8.42,3-9.54,4.42-.72,5.81-.49,5.81-.49Z" transform="translate(-895.63 -702.19)"/><path class="cls-7" d="M1006.71,798.56s-.8-.61-4.39-.85-6.36-4.86-3.31-8.83c3.64-4.77,6.9-6.26,10,.1,2,4,2.15,5.42,2.15,5.42Z" transform="translate(-895.63 -702.19)"/><circle class="cls-3" cx="120.74" cy="97.05" r="9.5"/><path class="cls-6" d="M1012.88,836.24c-3,1-8-2-8-2s2,6,0,7l3,4,1,2,6-2-.5-2.25-1.5-6.75Z" transform="translate(-895.63 -702.19)"/><path class="cls-6" d="M1028.23,841.49c-2.2-2.27-1.67-8.07-1.67-8.07s-4.54,4.4-6.31,3l-2.3,4.44-1.37,1.77,4.41,4.54,1.81-1.43,5.43-4.28Z" transform="translate(-895.63 -702.19)"/><path class="cls-6" d="M1031.3,858c1.22-2.92,6.76-4.73,6.76-4.73s-5.84-2.42-5.28-4.59l-5-.36-2.17-.56-2.42,5.85,2,1.09,6.07,3.3Z" transform="translate(-895.63 -702.19)"/><path class="cls-6" d="M1018.88,868.39c3.15-.25,7.28,3.87,7.28,3.87s-.49-6.31,1.69-6.8l-1.95-4.6-.49-2.18-6.3.49-.06,2.3-.17,6.92Z" transform="translate(-895.63 -702.19)"/><path class="cls-6" d="M1004.57,863.7c2.07,2.38,1.22,8.15,1.22,8.15s4.77-4.14,6.46-2.68l2.55-4.3,1.46-1.69-4.14-4.78-1.89,1.32-5.66,4Z" transform="translate(-895.63 -702.19)"/><path class="cls-6" d="M1000.48,847.89c-.64,3.1-5.73,5.93-5.73,5.93s6.19,1.27,6.06,3.5l5-.6,2.23.14,1.27-6.2-2.2-.69-6.59-2.08Z" transform="translate(-895.63 -702.19)"/><path class="cls-7" d="M1012.88,844.24s0-1-2-4,0-8,5-8c6,0,9.16,1.68,6,8-2,4-3,5-3,5Z" transform="translate(-895.63 -702.19)"/><path class="cls-7" d="M1021,845.82s.82-.57,2.14-3.93,6.57-4.57,9.43-.47c3.43,4.92,3.86,8.48-3.14,9.5-4.42.64-5.82.39-5.82.39Z" transform="translate(-895.63 -702.19)"/><path class="cls-7" d="M1025.62,853.4s.79.62,4.38.91,6.27,5,3.17,8.89c-3.72,4.7-7,6.14-10-.26-1.9-4.05-2.06-5.46-2.06-5.46Z" transform="translate(-895.63 -702.19)"/><path class="cls-7" d="M1020.29,860.2s0,1,2.05,4,.09,8-4.91,8.05c-6,.07-9.18-1.57-6.09-7.93,1.95-4,2.94-5,2.94-5Z" transform="translate(-895.63 -702.19)"/><path class="cls-7" d="M1012.26,859.57s-.81.58-2.07,4-6.5,4.67-9.42.61c-3.5-4.87-4-8.42,3-9.54,4.42-.72,5.81-.49,5.81-.49Z" transform="translate(-895.63 -702.19)"/><path class="cls-7" d="M1006.71,852.06s-.8-.61-4.39-.85-6.36-4.86-3.31-8.83c3.64-4.77,6.9-6.26,10,.1,2,4,2.15,5.42,2.15,5.42Z" transform="translate(-895.63 -702.19)"/><circle class="cls-3" cx="120.74" cy="150.55" r="9.5"/><path class="cls-6" d="M1012.88,879.74c-3,1-8-2-8-2s2,6,0,7l3,4,1,2,6-2-.5-2.25-1.5-6.75Z" transform="translate(-895.63 -702.19)"/><path class="cls-6" d="M1028.23,885c-2.2-2.27-1.67-8.07-1.67-8.07s-4.54,4.4-6.31,3l-2.3,4.44-1.37,1.77,4.41,4.54,1.81-1.43,5.43-4.28Z" transform="translate(-895.63 -702.19)"/><path class="cls-6" d="M1031.3,901.46c1.22-2.92,6.76-4.73,6.76-4.73s-5.84-2.42-5.28-4.59l-5-.36-2.17-.56-2.42,5.85,2,1.09,6.07,3.3Z" transform="translate(-895.63 -702.19)"/><path class="cls-6" d="M1018.88,911.89c3.15-.25,7.28,3.87,7.28,3.87s-.49-6.31,1.69-6.8l-1.95-4.6-.49-2.18-6.3.49-.06,2.3-.17,6.92Z" transform="translate(-895.63 -702.19)"/><path class="cls-6" d="M1004.57,907.2c2.07,2.38,1.22,8.15,1.22,8.15s4.77-4.14,6.46-2.68l2.55-4.3,1.46-1.69-4.14-4.78-1.89,1.32-5.66,4Z" transform="translate(-895.63 -702.19)"/><path class="cls-6" d="M1000.48,891.39c-.64,3.1-5.73,5.93-5.73,5.93s6.19,1.27,6.06,3.5l5-.6,2.23.14,1.27-6.2-2.2-.69-6.59-2.08Z" transform="translate(-895.63 -702.19)"/><path class="cls-7" d="M1012.88,887.74s0-1-2-4,0-8,5-8c6,0,9.16,1.68,6,8-2,4-3,5-3,5Z" transform="translate(-895.63 -702.19)"/><path class="cls-7" d="M1021,889.32s.82-.57,2.14-3.93,6.57-4.57,9.43-.47c3.43,4.92,3.86,8.48-3.14,9.5-4.42.64-5.82.39-5.82.39Z" transform="translate(-895.63 -702.19)"/><path class="cls-7" d="M1025.62,896.9s.79.62,4.38.91,6.27,5,3.17,8.89c-3.72,4.7-7,6.14-10-.26-1.9-4.05-2.06-5.46-2.06-5.46Z" transform="translate(-895.63 -702.19)"/><path class="cls-7" d="M1020.29,903.7s0,1,2.05,4,.09,8-4.91,8.05c-6,.07-9.18-1.57-6.09-7.93,1.95-4,2.94-5,2.94-5Z" transform="translate(-895.63 -702.19)"/><path class="cls-7" d="M1012.26,903.07s-.81.58-2.07,4-6.5,4.67-9.42.61c-3.5-4.87-4-8.42,3-9.54,4.42-.72,5.81-.49,5.81-.49Z" transform="translate(-895.63 -702.19)"/><path class="cls-7" d="M1006.71,895.56s-.8-.61-4.39-.85-6.36-4.86-3.31-8.83c3.64-4.77,6.9-6.26,10,.1,2,4,2.15,5.42,2.15,5.42Z" transform="translate(-895.63 -702.19)"/><circle class="cls-3" cx="120.74" cy="194.05" r="9.5"/><path class="cls-6" d="M928.88,739.24c-3,1-8-2-8-2s2,6,0,7l3,4,1,2,6-2-.5-2.25-1.5-6.75Z" transform="translate(-895.63 -702.19)"/><path class="cls-6" d="M944.23,744.49c-2.2-2.27-1.67-8.07-1.67-8.07s-4.54,4.4-6.31,3l-2.3,4.44-1.37,1.77L937,750.2l1.81-1.43,5.43-4.28Z" transform="translate(-895.63 -702.19)"/><path class="cls-6" d="M947.3,761c1.22-2.92,6.76-4.73,6.76-4.73s-5.84-2.42-5.28-4.59l-5-.36-2.17-.56-2.42,5.85,2,1.09,6.07,3.3Z" transform="translate(-895.63 -702.19)"/><path class="cls-6" d="M934.88,771.39c3.15-.25,7.28,3.87,7.28,3.87s-.49-6.31,1.69-6.8l-2-4.6-.49-2.18-6.3.49-.06,2.3-.17,6.92Z" transform="translate(-895.63 -702.19)"/><path class="cls-6" d="M920.57,766.7c2.07,2.38,1.22,8.15,1.22,8.15s4.77-4.14,6.46-2.68l2.55-4.3,1.46-1.69-4.14-4.78-1.89,1.32-5.66,4Z" transform="translate(-895.63 -702.19)"/><path class="cls-6" d="M916.48,750.89c-.64,3.1-5.73,5.93-5.73,5.93s6.19,1.27,6.06,3.5l5-.6,2.23.14,1.27-6.2-2.2-.69-6.59-2.08Z" transform="translate(-895.63 -702.19)"/><path class="cls-7" d="M928.88,747.24s0-1-2-4,0-8,5-8c6,0,9.16,1.68,6,8-2,4-3,5-3,5Z" transform="translate(-895.63 -702.19)"/><path class="cls-7" d="M937,748.82s.82-.57,2.14-3.93,6.57-4.57,9.43-.47c3.43,4.92,3.86,8.48-3.14,9.5-4.42.64-5.82.39-5.82.39Z" transform="translate(-895.63 -702.19)"/><path class="cls-7" d="M941.62,756.4s.79.62,4.38.91,6.27,5,3.17,8.89c-3.72,4.7-7,6.14-10-.26-1.9-4.05-2.06-5.46-2.06-5.46Z" transform="translate(-895.63 -702.19)"/><path class="cls-7" d="M936.29,763.2s0,1,2.05,4,.09,8-4.91,8.05c-6,.07-9.18-1.57-6.09-7.93,1.95-4,2.94-5,2.94-5Z" transform="translate(-895.63 -702.19)"/><path class="cls-7" d="M928.26,762.57s-.81.58-2.07,4-6.5,4.67-9.42.61c-3.5-4.87-4-8.42,3-9.54,4.42-.72,5.81-.49,5.81-.49Z" transform="translate(-895.63 -702.19)"/><path class="cls-7" d="M922.71,755.06s-.8-.61-4.39-.85-6.36-4.86-3.31-8.83c3.64-4.77,6.9-6.26,10,.1,2,4,2.15,5.42,2.15,5.42Z" transform="translate(-895.63 -702.19)"/><circle class="cls-3" cx="36.74" cy="53.55" r="9.5"/><path class="cls-6" d="M928.88,782.74c-3,1-8-2-8-2s2,6,0,7l3,4,1,2,6-2-.5-2.25-1.5-6.75Z" transform="translate(-895.63 -702.19)"/><path class="cls-6" d="M944.23,788c-2.2-2.27-1.67-8.07-1.67-8.07s-4.54,4.4-6.31,3l-2.3,4.44-1.37,1.77L937,793.7l1.81-1.43,5.43-4.28Z" transform="translate(-895.63 -702.19)"/><path class="cls-6" d="M947.3,804.46c1.22-2.92,6.76-4.73,6.76-4.73s-5.84-2.42-5.28-4.59l-5-.36-2.17-.56-2.42,5.85,2,1.09,6.07,3.3Z" transform="translate(-895.63 -702.19)"/><path class="cls-6" d="M934.88,814.89c3.15-.25,7.28,3.87,7.28,3.87s-.49-6.31,1.69-6.8l-2-4.6-.49-2.18-6.3.49-.06,2.3-.17,6.92Z" transform="translate(-895.63 -702.19)"/><path class="cls-6" d="M920.57,810.2c2.07,2.38,1.22,8.15,1.22,8.15s4.77-4.14,6.46-2.68l2.55-4.3,1.46-1.69-4.14-4.78-1.89,1.32-5.66,4Z" transform="translate(-895.63 -702.19)"/><path class="cls-6" d="M916.48,794.39c-.64,3.1-5.73,5.93-5.73,5.93s6.19,1.27,6.06,3.5l5-.6,2.23.14,1.27-6.2-2.2-.69-6.59-2.08Z" transform="translate(-895.63 -702.19)"/><path class="cls-7" d="M928.88,790.74s0-1-2-4,0-8,5-8c6,0,9.16,1.68,6,8-2,4-3,5-3,5Z" transform="translate(-895.63 -702.19)"/><path class="cls-7" d="M937,792.32s.82-.57,2.14-3.93,6.57-4.57,9.43-.47c3.43,4.92,3.86,8.48-3.14,9.5-4.42.64-5.82.39-5.82.39Z" transform="translate(-895.63 -702.19)"/><path class="cls-7" d="M941.62,799.9s.79.62,4.38.91,6.27,5,3.17,8.89c-3.72,4.7-7,6.14-10-.26-1.9-4.05-2.06-5.46-2.06-5.46Z" transform="translate(-895.63 -702.19)"/><path class="cls-7" d="M936.29,806.7s0,1,2.05,4,.09,8-4.91,8.05c-6,.07-9.18-1.57-6.09-7.93,1.95-4,2.94-5,2.94-5Z" transform="translate(-895.63 -702.19)"/><path class="cls-7" d="M928.26,806.07s-.81.58-2.07,4-6.5,4.67-9.42.61c-3.5-4.87-4-8.42,3-9.54,4.42-.72,5.81-.49,5.81-.49Z" transform="translate(-895.63 -702.19)"/><path class="cls-7" d="M922.71,798.56s-.8-.61-4.39-.85-6.36-4.86-3.31-8.83c3.64-4.77,6.9-6.26,10,.1,2,4,2.15,5.42,2.15,5.42Z" transform="translate(-895.63 -702.19)"/><circle class="cls-3" cx="36.74" cy="97.05" r="9.5"/><path class="cls-6" d="M928.88,836.24c-3,1-8-2-8-2s2,6,0,7l3,4,1,2,6-2-.5-2.25-1.5-6.75Z" transform="translate(-895.63 -702.19)"/><path class="cls-6" d="M944.23,841.49c-2.2-2.27-1.67-8.07-1.67-8.07s-4.54,4.4-6.31,3l-2.3,4.44-1.37,1.77L937,847.2l1.81-1.43,5.43-4.28Z" transform="translate(-895.63 -702.19)"/><path class="cls-6" d="M947.3,858c1.22-2.92,6.76-4.73,6.76-4.73s-5.84-2.42-5.28-4.59l-5-.36-2.17-.56-2.42,5.85,2,1.09,6.07,3.3Z" transform="translate(-895.63 -702.19)"/><path class="cls-6" d="M934.88,868.39c3.15-.25,7.28,3.87,7.28,3.87s-.49-6.31,1.69-6.8l-2-4.6-.49-2.18-6.3.49-.06,2.3-.17,6.92Z" transform="translate(-895.63 -702.19)"/><path class="cls-6" d="M920.57,863.7c2.07,2.38,1.22,8.15,1.22,8.15s4.77-4.14,6.46-2.68l2.55-4.3,1.46-1.69-4.14-4.78-1.89,1.32-5.66,4Z" transform="translate(-895.63 -702.19)"/><path class="cls-6" d="M916.48,847.89c-.64,3.1-5.73,5.93-5.73,5.93s6.19,1.27,6.06,3.5l5-.6,2.23.14,1.27-6.2-2.2-.69-6.59-2.08Z" transform="translate(-895.63 -702.19)"/><path class="cls-7" d="M928.88,844.24s0-1-2-4,0-8,5-8c6,0,9.16,1.68,6,8-2,4-3,5-3,5Z" transform="translate(-895.63 -702.19)"/><path class="cls-7" d="M937,845.82s.82-.57,2.14-3.93,6.57-4.57,9.43-.47c3.43,4.92,3.86,8.48-3.14,9.5-4.42.64-5.82.39-5.82.39Z" transform="translate(-895.63 -702.19)"/><path class="cls-7" d="M941.62,853.4s.79.62,4.38.91,6.27,5,3.17,8.89c-3.72,4.7-7,6.14-10-.26-1.9-4.05-2.06-5.46-2.06-5.46Z" transform="translate(-895.63 -702.19)"/><path class="cls-7" d="M936.29,860.2s0,1,2.05,4,.09,8-4.91,8.05c-6,.07-9.18-1.57-6.09-7.93,1.95-4,2.94-5,2.94-5Z" transform="translate(-895.63 -702.19)"/><path class="cls-7" d="M928.26,859.57s-.81.58-2.07,4-6.5,4.67-9.42.61c-3.5-4.87-4-8.42,3-9.54,4.42-.72,5.81-.49,5.81-.49Z" transform="translate(-895.63 -702.19)"/><path class="cls-7" d="M922.71,852.06s-.8-.61-4.39-.85-6.36-4.86-3.31-8.83c3.64-4.77,6.9-6.26,10,.1,2,4,2.15,5.42,2.15,5.42Z" transform="translate(-895.63 -702.19)"/><circle class="cls-3" cx="36.74" cy="150.55" r="9.5"/><path class="cls-6" d="M928.88,879.74c-3,1-8-2-8-2s2,6,0,7l3,4,1,2,6-2-.5-2.25-1.5-6.75Z" transform="translate(-895.63 -702.19)"/><path class="cls-6" d="M944.23,885c-2.2-2.27-1.67-8.07-1.67-8.07s-4.54,4.4-6.31,3l-2.3,4.44-1.37,1.77L937,890.7l1.81-1.43,5.43-4.28Z" transform="translate(-895.63 -702.19)"/><path class="cls-6" d="M947.3,901.46c1.22-2.92,6.76-4.73,6.76-4.73s-5.84-2.42-5.28-4.59l-5-.36-2.17-.56-2.42,5.85,2,1.09,6.07,3.3Z" transform="translate(-895.63 -702.19)"/><path class="cls-6" d="M934.88,911.89c3.15-.25,7.28,3.87,7.28,3.87s-.49-6.31,1.69-6.8l-2-4.6-.49-2.18-6.3.49-.06,2.3-.17,6.92Z" transform="translate(-895.63 -702.19)"/><path class="cls-6" d="M920.57,907.2c2.07,2.38,1.22,8.15,1.22,8.15s4.77-4.14,6.46-2.68l2.55-4.3,1.46-1.69-4.14-4.78-1.89,1.32-5.66,4Z" transform="translate(-895.63 -702.19)"/><path class="cls-6" d="M916.48,891.39c-.64,3.1-5.73,5.93-5.73,5.93s6.19,1.27,6.06,3.5l5-.6,2.23.14,1.27-6.2-2.2-.69-6.59-2.08Z" transform="translate(-895.63 -702.19)"/><path class="cls-7" d="M928.88,887.74s0-1-2-4,0-8,5-8c6,0,9.16,1.68,6,8-2,4-3,5-3,5Z" transform="translate(-895.63 -702.19)"/><path class="cls-7" d="M937,889.32s.82-.57,2.14-3.93,6.57-4.57,9.43-.47c3.43,4.92,3.86,8.48-3.14,9.5-4.42.64-5.82.39-5.82.39Z" transform="translate(-895.63 -702.19)"/><path class="cls-7" d="M941.62,896.9s.79.62,4.38.91,6.27,5,3.17,8.89c-3.72,4.7-7,6.14-10-.26-1.9-4.05-2.06-5.46-2.06-5.46Z" transform="translate(-895.63 -702.19)"/><path class="cls-7" d="M936.29,903.7s0,1,2.05,4,.09,8-4.91,8.05c-6,.07-9.18-1.57-6.09-7.93,1.95-4,2.94-5,2.94-5Z" transform="translate(-895.63 -702.19)"/><path class="cls-7" d="M928.26,903.07s-.81.58-2.07,4-6.5,4.67-9.42.61c-3.5-4.87-4-8.42,3-9.54,4.42-.72,5.81-.49,5.81-.49Z" transform="translate(-895.63 -702.19)"/><path class="cls-7" d="M922.71,895.56s-.8-.61-4.39-.85-6.36-4.86-3.31-8.83c3.64-4.77,6.9-6.26,10,.1,2,4,2.15,5.42,2.15,5.42Z" transform="translate(-895.63 -702.19)"/><circle class="cls-3" cx="36.74" cy="194.05" r="9.5"/><line class="cls-1" x1="83.37" y1="176.81" x2="82.12" y2="165.4"/><line class="cls-2" x1="83.1" y1="73.44" x2="82.37" y2="79.78"/><line class="cls-2" x1="73.71" y1="74.06" x2="74.28" y2="79.78"/><line class="cls-2" x1="74.21" y1="168.64" x2="74.37" y2="165.4"/></g></svg>