<svg id="Ebene_1" data-name="Ebene 1" xmlns="http://www.w3.org/2000/svg" viewBox="0 0 158.74 246.62"><defs><style>.cls-1{fill:none;}.cls-1,.cls-2{stroke:#000;stroke-miterlimit:10;stroke-width:0.3px;}.cls-2,.cls-7{fill:#d9e021;}.cls-3{fill:red;}.cls-4{fill:#ff0;}.cls-5{fill:#fcee21;}.cls-6{fill:#1a1a1a;}</style></defs><title>9</title><path class="cls-1" d="M1002,506s-1.94-17-11-17c-13,0-17,14-19,34" transform="translate(-890.63 -405.19)"/><polygon class="cls-2" points="90.07 87.51 85.37 87.95 86.11 93.91 90.07 87.51"/><path class="cls-1" d="M1002,551s-1.94,17-11,17c-13,0-17-14-19-34" transform="translate(-890.63 -405.19)"/><polygon class="cls-2" points="90.07 159.11 85.37 158.68 86.11 152.71 90.07 159.11"/><path class="cls-1" d="M973,572c0,.61.1,1.22.16,1.83C974.39,587.49,976.87,601,981,610a33.93,33.93,0,0,0,2.24,4.22c2.68,4.25,5.92,6.78,9.78,6.78,3.65,0,6.15-3.4,7.83-7.45l.17-.42a42.27,42.27,0,0,0,1.6-5.06" transform="translate(-890.63 -405.19)"/><path class="cls-1" d="M1003.39,604.38c.31-1.75.49-3.13.56-3.8,0-.29,0-.45,0-.45" transform="translate(-890.63 -405.19)"/><polygon class="cls-2" points="93.09 209.97 88.37 209.46 89.12 202.5 93.09 209.97"/><path class="cls-1" d="M1002.6,449.93a42.27,42.27,0,0,0-1.6-5.06l-.17-.42c-1.68-4.05-4.18-7.45-7.83-7.45-3.86,0-7.1,2.53-9.78,6.78A33.93,33.93,0,0,0,981,448c-4.11,9-6.59,22.51-7.82,36.17-.06.61-.11,1.22-.16,1.83" transform="translate(-890.63 -405.19)"/><path class="cls-1" d="M1004,457.87s0-.16,0-.45c-.07-.67-.25-2.05-.56-3.8" transform="translate(-890.63 -405.19)"/><polygon class="cls-2" points="93.09 37.65 88.37 38.16 89.12 45.12 93.09 37.65"/><path class="cls-1" d="M936,506s1.94-17,11-17c13,0,17,14,19,34" transform="translate(-890.63 -405.19)"/><polygon class="cls-2" points="66.67 87.51 71.37 87.95 70.63 93.91 66.67 87.51"/><path class="cls-1" d="M936,551s1.94,17,11,17c13,0,17-14,19-34" transform="translate(-890.63 -405.19)"/><polygon class="cls-2" points="66.67 159.11 71.37 158.68 70.63 152.71 66.67 159.11"/><path class="cls-1" d="M935.4,608.07a42.27,42.27,0,0,0,1.6,5.06l.17.42c1.68,4.05,4.18,7.45,7.83,7.45,3.86,0,7.1-2.53,9.78-6.78A33.93,33.93,0,0,0,957,610c4.11-9,6.59-22.51,7.82-36.17.06-.61.11-1.22.16-1.83" transform="translate(-890.63 -405.19)"/><path class="cls-1" d="M934,600.13s0,.16,0,.45c.07.67.25,2,.56,3.8" transform="translate(-890.63 -405.19)"/><polygon class="cls-2" points="63.65 209.97 68.37 209.46 67.62 202.5 63.65 209.97"/><path class="cls-1" d="M965,486c0-.61-.1-1.22-.16-1.83C963.61,470.51,961.13,457,957,448a33.93,33.93,0,0,0-2.24-4.22c-2.68-4.25-5.92-6.78-9.78-6.78-3.65,0-6.15,3.4-7.83,7.45l-.17.42a42.27,42.27,0,0,0-1.6,5.06" transform="translate(-890.63 -405.19)"/><path class="cls-1" d="M934.61,453.62c-.31,1.75-.49,3.13-.56,3.8,0,.29,0,.45,0,.45" transform="translate(-890.63 -405.19)"/><polygon class="cls-2" points="63.65 37.65 68.37 38.16 67.62 45.12 63.65 37.65"/><path class="cls-1" d="M972.75,570.59" transform="translate(-890.63 -405.19)"/><line class="cls-2" x1="82.78" y1="76.36" x2="82.37" y2="79.78"/><path d="M899.86,632.71l1.61-.82a3.18,3.18,0,0,1,1.44-.36,4.27,4.27,0,0,1,4.32,4.49,4.94,4.94,0,0,1-4.92,5c-3.09,0-4.82-2.74-4.82-6a9.54,9.54,0,0,1,6.07-9,10.11,10.11,0,0,1,2.86-.63l.12.75A8,8,0,0,0,899.86,632.71Zm2.74,7.44c1.87,0,2.52-1.78,2.52-3.46,0-2.11-1.17-3.87-3.19-3.87a3.68,3.68,0,0,0-2.16.7,12.57,12.57,0,0,0-.1,1.56C899.67,637.22,900.27,640.15,902.6,640.15Z" transform="translate(-890.63 -405.19)"/><path d="M1035,406.19a13.35,13.35,0,0,1,13.34,13.34V637.47A13.35,13.35,0,0,1,1035,650.81H905a13.35,13.35,0,0,1-13.34-13.34V419.53A13.35,13.35,0,0,1,905,406.19H1035m0-1H905a14.34,14.34,0,0,0-14.34,14.34V637.47A14.34,14.34,0,0,0,905,651.81H1035a14.34,14.34,0,0,0,14.34-14.34V419.53A14.34,14.34,0,0,0,1035,405.19Z" transform="translate(-890.63 -405.19)"/><path d="M903.8,422l-1.6.82a3.18,3.18,0,0,1-1.44.36,4.27,4.27,0,0,1-4.32-4.49,4.94,4.94,0,0,1,4.92-5c3.09,0,4.82,2.74,4.82,6a9.54,9.54,0,0,1-6.07,9,10.13,10.13,0,0,1-2.86.62l-.12-.74A8,8,0,0,0,903.8,422Zm-2.73-7.44c-1.87,0-2.52,1.78-2.52,3.46,0,2.11,1.17,3.86,3.19,3.86a3.7,3.7,0,0,0,2.16-.69,12.57,12.57,0,0,0,.1-1.56C904,417.47,903.4,414.54,901.07,414.54Z" transform="translate(-890.63 -405.19)"/><path d="M1040.63,422l-1.6.82a3.18,3.18,0,0,1-1.44.36,4.27,4.27,0,0,1-4.32-4.49,4.94,4.94,0,0,1,4.92-5c3.09,0,4.82,2.74,4.82,6a9.54,9.54,0,0,1-6.07,9,10.06,10.06,0,0,1-2.86.62l-.12-.74A8,8,0,0,0,1040.63,422Zm-2.73-7.44c-1.87,0-2.52,1.78-2.52,3.46,0,2.11,1.17,3.86,3.19,3.86a3.68,3.68,0,0,0,2.16-.69,12.57,12.57,0,0,0,.1-1.56C1040.83,417.47,1040.23,414.54,1037.9,414.54Z" transform="translate(-890.63 -405.19)"/><path d="M1036.7,632.71l1.6-.82a3.18,3.18,0,0,1,1.44-.36,4.27,4.27,0,0,1,4.32,4.49,4.94,4.94,0,0,1-4.92,5c-3.09,0-4.82-2.74-4.82-6a9.54,9.54,0,0,1,6.07-9,10.19,10.19,0,0,1,2.86-.63l.12.75A8,8,0,0,0,1036.7,632.71Zm2.73,7.44c1.87,0,2.52-1.78,2.52-3.46,0-2.11-1.17-3.87-3.19-3.87a3.71,3.71,0,0,0-2.16.7,12.57,12.57,0,0,0-.1,1.56C1036.5,637.22,1037.1,640.15,1039.43,640.15Z" transform="translate(-890.63 -405.19)"/><path class="cls-3" d="M973.14,534" transform="translate(-890.63 -405.19)"/><path class="cls-3" d="M968,534.61h1.7L974,572.13l-1.32-.33a15.28,15.28,0,0,0-7.54,0l-1.32.33Z" transform="translate(-890.63 -405.19)"/><polygon points="77.38 128.77 79.08 128.77 81.62 151.41 74.83 151.41 77.38 128.77"/><path d="M968.43,559.32l.43,1.17.42-1.17h0a4.46,4.46,0,0,1,3-2.72h-6.79a4.41,4.41,0,0,1,3,2.72Z" transform="translate(-890.63 -405.19)"/><ellipse class="cls-4" cx="78.23" cy="166.94" rx="5.09" ry="1.94"/><path class="cls-3" d="M968,521h1.7L974,483.49l-1.32.34a15.28,15.28,0,0,1-7.54,0l-1.32-.34Z" transform="translate(-890.63 -405.19)"/><polygon points="77.38 116.47 79.08 116.47 81.62 93.83 74.83 93.83 77.38 116.47"/><path d="M968.43,496.76l.43-1,.42,1h0a3.68,3.68,0,0,0,1.52,1.67,4.69,4.69,0,0,0,1.45.59h-6.79a4.76,4.76,0,0,0,1.46-.59,3.71,3.71,0,0,0,1.51-1.67Z" transform="translate(-890.63 -405.19)"/><ellipse class="cls-4" cx="78.23" cy="78.3" rx="5.09" ry="1.94"/><path class="cls-1" d="M935.71,466" transform="translate(-890.63 -405.19)"/><path class="cls-1" d="M967.16,523" transform="translate(-890.63 -405.19)"/><path class="cls-1" d="M935.71,589" transform="translate(-890.63 -405.19)"/><path class="cls-1" d="M967.16,532" transform="translate(-890.63 -405.19)"/><path class="cls-1" d="M1002,465" transform="translate(-890.63 -405.19)"/><path class="cls-1" d="M986.16,468" transform="translate(-890.63 -405.19)"/><path class="cls-1" d="M971,519.42" transform="translate(-890.63 -405.19)"/><path class="cls-1" d="M970.55,522" transform="translate(-890.63 -405.19)"/><path class="cls-5" d="M968.86,486.42s-2.15-32.46-6.43-35.71c0,0,6.43-3.25,6.43-8.12" transform="translate(-890.63 -405.19)"/><path d="M968.86,486.42S971,454,975.29,450.71c0,0-6.43-3.25-6.43-8.12" transform="translate(-890.63 -405.19)"/><path class="cls-5" d="M968.86,569.2s-2.15,32.47-6.43,35.71c0,0,6.43,3.25,6.43,8.12" transform="translate(-890.63 -405.19)"/><path d="M969,443l-.14,170c0-4.87,6.43-8.12,6.43-8.12-4.29-3.24-6.43-35.71-6.43-35.71" transform="translate(-890.63 -405.19)"/><path class="cls-5" d="M986,426.36c-3.69,1.4-8.21,15.1-16.16,16.15a8.09,8.09,0,0,1-1,.08h0s.12-.05,0-.07h0c-3.84-.53-6.84-4-9.37-7.53-2.72-3.86-4.86-7.89-6.77-8.62-4.07-1.54,5.42-7.5,10-1.09a7.43,7.43,0,0,1,.68,1.09s3.18-8.44,5.43-10.76a0,0,0,0,0,0,0,.5.5,0,0,1,1,0c2.25,2.31,5.45,10.78,5.45,10.78C979.57,418.25,990.29,424.74,986,426.36Z" transform="translate(-890.63 -405.19)"/><path class="cls-3" d="M968.84,415l0,27.59c-3.84-.53-6.86-4-9.39-7.61,2.4.83,7.22,2.34,7.22,1.12,0-1.05-1-2.3-2.14-4.87-1.59-3.62-2-4.54-1.82-6,.06-.48.19-1,.36-1.75C963.91,420.13,966,415,968.84,415Z" transform="translate(-890.63 -405.19)"/><path class="cls-3" d="M979.53,434.53c-.26.48-4.44,8.06-10.67,8.06V415c2.89,0,4.93,5.13,5.74,8.52.69,2.84.69,2.84-1.46,7.71C972,433.8,971,435.05,971,436.1,971,437.68,979,434.72,979.53,434.53Z" transform="translate(-890.63 -405.19)"/><path class="cls-5" d="M966.69,617.9c0-1.22-4.82.29-7.22,1.12-2.72,3.86-4.86,7.89-6.77,8.62-4.07,1.54,5.42,7.5,10,1.09-.17-1.42.23-2.34,1.82-6C965.69,620.2,966.69,619,966.69,617.9Z" transform="translate(-890.63 -405.19)"/><rect class="cls-5" x="78.21" y="206.22" width="0.02" height="0.02"/><path class="cls-5" d="M986,627.64c-1.86-.7-3.92-4.55-6.54-8.3a.69.69,0,0,0,.07.13c-.56-.19-8.53-3.15-8.53-1.57,0,1.05,1,2.3,2.14,4.87,1.48,3.34,1.93,4.38,1.85,5.63l.3-.76C979.57,635.75,990.29,629.26,986,627.64Z" transform="translate(-890.63 -405.19)"/><path class="cls-3" d="M979.53,619.47a.69.69,0,0,1-.07-.13c-2.12-3-4.58-6-7.58-7.28a3.1,3.1,0,0,0-.6-.23,6.29,6.29,0,0,0-.71-.2,5.25,5.25,0,0,0-.73-.14.65.65,0,0,0-.19,0,3.4,3.4,0,0,1-.45,0h-.34s.08.05,0,.07h0a10.19,10.19,0,0,0-5.4,2.81l-.69.66c-.24.26-.49.54-.75.81a38.17,38.17,0,0,0-2.53,3.25c2.4-.83,7.22-2.34,7.22-1.12,0,1.05-1,2.3-2.14,4.87-1.59,3.62-2,4.54-1.82,6,.06.48.19,1,.36,1.75.82,3.39,2.87,8.52,5.75,8.52v-.6a0,0,0,0,1,0,0V639c2.89,0,4.93-5.13,5.74-8.52a12.42,12.42,0,0,0,.39-2.05s0,0,0,0c.08-1.25-.37-2.29-1.85-5.63C972,620.2,971,619,971,617.9,971,616.32,979,619.28,979.53,619.47Z" transform="translate(-890.63 -405.19)"/><path class="cls-3" d="M968.86,639v-.06C968.94,638.94,968.88,639,968.86,639Z" transform="translate(-890.63 -405.19)"/><path class="cls-6" d="M1007.88,442.24c-3,1-8-2-8-2s2,6,0,7l3,4,1,2,6-2-.5-2.25-1.5-6.75Z" transform="translate(-890.63 -405.19)"/><path class="cls-6" d="M1023.23,447.49c-2.2-2.27-1.67-8.07-1.67-8.07s-4.54,4.4-6.31,3l-2.3,4.44-1.37,1.77,4.41,4.54,1.81-1.43,5.43-4.28Z" transform="translate(-890.63 -405.19)"/><path class="cls-6" d="M1026.3,464c1.22-2.92,6.76-4.73,6.76-4.73s-5.84-2.42-5.28-4.59l-5-.36-2.17-.56-2.42,5.85,2,1.09,6.07,3.3Z" transform="translate(-890.63 -405.19)"/><path class="cls-6" d="M1013.88,474.39c3.15-.25,7.28,3.87,7.28,3.87s-.49-6.31,1.69-6.8l-2-4.6-.49-2.18-6.3.49-.06,2.3-.17,6.92Z" transform="translate(-890.63 -405.19)"/><path class="cls-6" d="M999.57,469.7c2.07,2.38,1.22,8.15,1.22,8.15s4.77-4.14,6.46-2.68l2.55-4.3,1.46-1.69-4.14-4.78-1.89,1.32-5.66,4Z" transform="translate(-890.63 -405.19)"/><path class="cls-6" d="M995.48,453.89c-.64,3.1-5.73,5.93-5.73,5.93s6.19,1.27,6.06,3.5l5-.6,2.23.14,1.27-6.2-2.2-.69-6.59-2.08Z" transform="translate(-890.63 -405.19)"/><path class="cls-7" d="M1007.88,450.24s0-1-2-4,0-8,5-8c6,0,9.16,1.68,6,8-2,4-3,5-3,5Z" transform="translate(-890.63 -405.19)"/><path class="cls-7" d="M1016,451.82s.82-.57,2.14-3.93,6.57-4.57,9.43-.47c3.43,4.92,3.86,8.48-3.14,9.5-4.42.64-5.82.39-5.82.39Z" transform="translate(-890.63 -405.19)"/><path class="cls-7" d="M1020.62,459.4s.79.62,4.38.91,6.27,5,3.17,8.89c-3.72,4.7-7,6.14-10-.26-1.9-4.05-2.06-5.46-2.06-5.46Z" transform="translate(-890.63 -405.19)"/><path class="cls-7" d="M1015.29,466.2s0,1,2.05,4,.09,8-4.91,8.05c-6,.07-9.18-1.57-6.09-7.93,1.95-4,2.94-5,2.94-5Z" transform="translate(-890.63 -405.19)"/><path class="cls-7" d="M1007.26,465.57s-.81.58-2.07,4-6.5,4.67-9.42.61c-3.5-4.87-4-8.42,3-9.54,4.42-.72,5.81-.49,5.81-.49Z" transform="translate(-890.63 -405.19)"/><path class="cls-7" d="M1001.71,458.06s-.8-.61-4.39-.85-6.36-4.86-3.31-8.83c3.64-4.77,6.9-6.26,10,.1,2,4,2.15,5.42,2.15,5.42Z" transform="translate(-890.63 -405.19)"/><circle class="cls-3" cx="120.74" cy="53.55" r="9.5"/><path class="cls-6" d="M1007.88,485.74c-3,1-8-2-8-2s2,6,0,7l3,4,1,2,6-2-.5-2.25-1.5-6.75Z" transform="translate(-890.63 -405.19)"/><path class="cls-6" d="M1023.23,491c-2.2-2.27-1.67-8.07-1.67-8.07s-4.54,4.4-6.31,3l-2.3,4.44-1.37,1.77,4.41,4.54,1.81-1.43,5.43-4.28Z" transform="translate(-890.63 -405.19)"/><path class="cls-6" d="M1026.3,507.46c1.22-2.92,6.76-4.73,6.76-4.73s-5.84-2.42-5.28-4.59l-5-.36-2.17-.56-2.42,5.85,2,1.09,6.07,3.3Z" transform="translate(-890.63 -405.19)"/><path class="cls-6" d="M1013.88,517.89c3.15-.25,7.28,3.87,7.28,3.87s-.49-6.31,1.69-6.8l-2-4.6-.49-2.18-6.3.49-.06,2.3-.17,6.92Z" transform="translate(-890.63 -405.19)"/><path class="cls-6" d="M999.57,513.2c2.07,2.38,1.22,8.15,1.22,8.15s4.77-4.14,6.46-2.68l2.55-4.3,1.46-1.69-4.14-4.78-1.89,1.32-5.66,4Z" transform="translate(-890.63 -405.19)"/><path class="cls-6" d="M995.48,497.39c-.64,3.1-5.73,5.93-5.73,5.93s6.19,1.27,6.06,3.5l5-.6,2.23.14,1.27-6.2-2.2-.69-6.59-2.08Z" transform="translate(-890.63 -405.19)"/><path class="cls-7" d="M1007.88,493.74s0-1-2-4,0-8,5-8c6,0,9.16,1.68,6,8-2,4-3,5-3,5Z" transform="translate(-890.63 -405.19)"/><path class="cls-7" d="M1016,495.32s.82-.57,2.14-3.93,6.57-4.57,9.43-.47c3.43,4.92,3.86,8.48-3.14,9.5-4.42.64-5.82.39-5.82.39Z" transform="translate(-890.63 -405.19)"/><path class="cls-7" d="M1020.62,502.9s.79.62,4.38.91,6.27,5,3.17,8.89c-3.72,4.7-7,6.14-10-.26-1.9-4.05-2.06-5.46-2.06-5.46Z" transform="translate(-890.63 -405.19)"/><path class="cls-7" d="M1015.29,509.7s0,1,2.05,4,.09,8-4.91,8.05c-6,.07-9.18-1.57-6.09-7.93,1.95-4,2.94-5,2.94-5Z" transform="translate(-890.63 -405.19)"/><path class="cls-7" d="M1007.26,509.07s-.81.58-2.07,4-6.5,4.67-9.42.61c-3.5-4.87-4-8.42,3-9.54,4.42-.72,5.81-.49,5.81-.49Z" transform="translate(-890.63 -405.19)"/><path class="cls-7" d="M1001.71,501.56s-.8-.61-4.39-.85-6.36-4.86-3.31-8.83c3.64-4.77,6.9-6.26,10,.1,2,4,2.15,5.42,2.15,5.42Z" transform="translate(-890.63 -405.19)"/><circle class="cls-3" cx="120.74" cy="97.05" r="9.5"/><path class="cls-6" d="M965,512c-3,1-8-2-8-2s2,6,0,7l3,4,1,2,6-2-.5-2.25L965,512Z" transform="translate(-890.63 -405.19)"/><path class="cls-6" d="M980.36,517.25c-2.21-2.27-1.67-8.08-1.67-8.08s-4.54,4.41-6.31,3l-2.3,4.44-1.37,1.77,4.41,4.54,1.81-1.43,5.43-4.28Z" transform="translate(-890.63 -405.19)"/><path class="cls-6" d="M983.43,533.72c1.21-2.92,6.76-4.73,6.76-4.73s-5.84-2.43-5.29-4.59l-5-.36-2.16-.56-2.43,5.84,2,1.1,6.08,3.3Z" transform="translate(-890.63 -405.19)"/><path class="cls-6" d="M971,544.14c3.15-.24,7.28,3.87,7.28,3.87s-.49-6.3,1.69-6.79l-1.94-4.6-.49-2.19-6.31.5-.05,2.3-.18,6.91Z" transform="translate(-890.63 -405.19)"/><path class="cls-6" d="M956.69,539.45c2.08,2.39,1.22,8.16,1.22,8.16s4.78-4.15,6.47-2.68l2.54-4.31,1.47-1.69-4.15-4.77-1.89,1.32-5.66,4Z" transform="translate(-890.63 -405.19)"/><path class="cls-6" d="M952.6,523.65c-.63,3.1-5.73,5.93-5.73,5.93s6.2,1.27,6.06,3.5l5-.6,2.23.14,1.27-6.2-2.2-.69-6.6-2.08Z" transform="translate(-890.63 -405.19)"/><path class="cls-7" d="M965,520s0-1-2-4,0-8,5-8c6,0,9.16,1.68,6,8-2,4-3,5-3,5Z" transform="translate(-890.63 -405.19)"/><path class="cls-7" d="M973.09,521.57s.82-.57,2.14-3.92,6.56-4.58,9.42-.47c3.43,4.92,3.86,8.47-3.13,9.49-4.43.65-5.82.4-5.82.4Z" transform="translate(-890.63 -405.19)"/><path class="cls-7" d="M977.75,529.15s.78.62,4.38.92,6.27,5,3.17,8.88c-3.73,4.71-7,6.15-10-.26-1.9-4.05-2.06-5.45-2.06-5.45Z" transform="translate(-890.63 -405.19)"/><path class="cls-7" d="M972.42,536s0,1,2,4,.09,8-4.91,8.06c-6,.07-9.18-1.57-6.09-7.93,2-4,2.95-5,2.95-5Z" transform="translate(-890.63 -405.19)"/><path class="cls-7" d="M964.39,535.32s-.81.59-2.08,4-6.49,4.68-9.41.62c-3.51-4.87-4-8.42,3-9.55,4.41-.71,5.81-.48,5.81-.48Z" transform="translate(-890.63 -405.19)"/><path class="cls-7" d="M958.83,527.81s-.79-.6-4.39-.84-6.35-4.87-3.31-8.84c3.65-4.76,6.9-6.25,10,.11,2,4,2.14,5.42,2.14,5.42Z" transform="translate(-890.63 -405.19)"/><circle class="cls-3" cx="77.87" cy="123.31" r="9.5"/><path class="cls-6" d="M1007.88,539.24c-3,1-8-2-8-2s2,6,0,7l3,4,1,2,6-2-.5-2.25-1.5-6.75Z" transform="translate(-890.63 -405.19)"/><path class="cls-6" d="M1023.23,544.49c-2.2-2.27-1.67-8.07-1.67-8.07s-4.54,4.4-6.31,3l-2.3,4.44-1.37,1.77,4.41,4.54,1.81-1.43,5.43-4.28Z" transform="translate(-890.63 -405.19)"/><path class="cls-6" d="M1026.3,561c1.22-2.92,6.76-4.73,6.76-4.73s-5.84-2.42-5.28-4.59l-5-.36-2.17-.56-2.42,5.85,2,1.09,6.07,3.3Z" transform="translate(-890.63 -405.19)"/><path class="cls-6" d="M1013.88,571.39c3.15-.25,7.28,3.87,7.28,3.87s-.49-6.31,1.69-6.8l-2-4.6-.49-2.18-6.3.49-.06,2.3-.17,6.92Z" transform="translate(-890.63 -405.19)"/><path class="cls-6" d="M999.57,566.7c2.07,2.38,1.22,8.15,1.22,8.15s4.77-4.14,6.46-2.68l2.55-4.3,1.46-1.69-4.14-4.78-1.89,1.32-5.66,4Z" transform="translate(-890.63 -405.19)"/><path class="cls-6" d="M995.48,550.89c-.64,3.1-5.73,5.93-5.73,5.93s6.19,1.27,6.06,3.5l5-.6,2.23.14,1.27-6.2-2.2-.69-6.59-2.08Z" transform="translate(-890.63 -405.19)"/><path class="cls-7" d="M1007.88,547.24s0-1-2-4,0-8,5-8c6,0,9.16,1.68,6,8-2,4-3,5-3,5Z" transform="translate(-890.63 -405.19)"/><path class="cls-7" d="M1016,548.82s.82-.57,2.14-3.93,6.57-4.57,9.43-.47c3.43,4.92,3.86,8.48-3.14,9.5-4.42.64-5.82.39-5.82.39Z" transform="translate(-890.63 -405.19)"/><path class="cls-7" d="M1020.62,556.4s.79.62,4.38.91,6.27,5,3.17,8.89c-3.72,4.7-7,6.14-10-.26-1.9-4.05-2.06-5.46-2.06-5.46Z" transform="translate(-890.63 -405.19)"/><path class="cls-7" d="M1015.29,563.2s0,1,2.05,4,.09,8-4.91,8.05c-6,.07-9.18-1.57-6.09-7.93,1.95-4,2.94-5,2.94-5Z" transform="translate(-890.63 -405.19)"/><path class="cls-7" d="M1007.26,562.57s-.81.58-2.07,4-6.5,4.67-9.42.61c-3.5-4.87-4-8.42,3-9.54,4.42-.72,5.81-.49,5.81-.49Z" transform="translate(-890.63 -405.19)"/><path class="cls-7" d="M1001.71,555.06s-.8-.61-4.39-.85-6.36-4.86-3.31-8.83c3.64-4.77,6.9-6.26,10,.1,2,4,2.15,5.42,2.15,5.42Z" transform="translate(-890.63 -405.19)"/><circle class="cls-3" cx="120.74" cy="150.55" r="9.5"/><path class="cls-6" d="M1007.88,582.74c-3,1-8-2-8-2s2,6,0,7l3,4,1,2,6-2-.5-2.25-1.5-6.75Z" transform="translate(-890.63 -405.19)"/><path class="cls-6" d="M1023.23,588c-2.2-2.27-1.67-8.07-1.67-8.07s-4.54,4.4-6.31,3l-2.3,4.44-1.37,1.77,4.41,4.54,1.81-1.43,5.43-4.28Z" transform="translate(-890.63 -405.19)"/><path class="cls-6" d="M1026.3,604.46c1.22-2.92,6.76-4.73,6.76-4.73s-5.84-2.42-5.28-4.59l-5-.36-2.17-.56-2.42,5.85,2,1.09,6.07,3.3Z" transform="translate(-890.63 -405.19)"/><path class="cls-6" d="M1013.88,614.89c3.15-.25,7.28,3.87,7.28,3.87s-.49-6.31,1.69-6.8l-2-4.6-.49-2.18-6.3.49-.06,2.3-.17,6.92Z" transform="translate(-890.63 -405.19)"/><path class="cls-6" d="M999.57,610.2c2.07,2.38,1.22,8.15,1.22,8.15s4.77-4.14,6.46-2.68l2.55-4.3,1.46-1.69-4.14-4.78-1.89,1.32-5.66,4Z" transform="translate(-890.63 -405.19)"/><path class="cls-6" d="M995.48,594.39c-.64,3.1-5.73,5.93-5.73,5.93s6.19,1.27,6.06,3.5l5-.6,2.23.14,1.27-6.2-2.2-.69-6.59-2.08Z" transform="translate(-890.63 -405.19)"/><path class="cls-7" d="M1007.88,590.74s0-1-2-4,0-8,5-8c6,0,9.16,1.68,6,8-2,4-3,5-3,5Z" transform="translate(-890.63 -405.19)"/><path class="cls-7" d="M1016,592.32s.82-.57,2.14-3.93,6.57-4.57,9.43-.47c3.43,4.92,3.86,8.48-3.14,9.5-4.42.64-5.82.39-5.82.39Z" transform="translate(-890.63 -405.19)"/><path class="cls-7" d="M1020.62,599.9s.79.62,4.38.91,6.27,5,3.17,8.89c-3.72,4.7-7,6.14-10-.26-1.9-4.05-2.06-5.46-2.06-5.46Z" transform="translate(-890.63 -405.19)"/><path class="cls-7" d="M1015.29,606.7s0,1,2.05,4,.09,8-4.91,8.05c-6,.07-9.18-1.57-6.09-7.93,1.95-4,2.94-5,2.94-5Z" transform="translate(-890.63 -405.19)"/><path class="cls-7" d="M1007.26,606.07s-.81.58-2.07,4-6.5,4.67-9.42.61c-3.5-4.87-4-8.42,3-9.54,4.42-.72,5.81-.49,5.81-.49Z" transform="translate(-890.63 -405.19)"/><path class="cls-7" d="M1001.71,598.56s-.8-.61-4.39-.85-6.36-4.86-3.31-8.83c3.64-4.77,6.9-6.26,10,.1,2,4,2.15,5.42,2.15,5.42Z" transform="translate(-890.63 -405.19)"/><circle class="cls-3" cx="120.74" cy="194.05" r="9.5"/><path class="cls-6" d="M923.88,442.24c-3,1-8-2-8-2s2,6,0,7l3,4,1,2,6-2-.5-2.25-1.5-6.75Z" transform="translate(-890.63 -405.19)"/><path class="cls-6" d="M939.23,447.49c-2.2-2.27-1.67-8.07-1.67-8.07s-4.54,4.4-6.31,3l-2.3,4.44-1.37,1.77L932,453.2l1.81-1.43,5.43-4.28Z" transform="translate(-890.63 -405.19)"/><path class="cls-6" d="M942.3,464c1.22-2.92,6.76-4.73,6.76-4.73s-5.84-2.42-5.28-4.59l-5-.36-2.17-.56-2.42,5.85,2,1.09,6.07,3.3Z" transform="translate(-890.63 -405.19)"/><path class="cls-6" d="M929.88,474.39c3.15-.25,7.28,3.87,7.28,3.87s-.49-6.31,1.69-6.8l-2-4.6-.49-2.18-6.3.49-.06,2.3-.17,6.92Z" transform="translate(-890.63 -405.19)"/><path class="cls-6" d="M915.57,469.7c2.07,2.38,1.22,8.15,1.22,8.15s4.77-4.14,6.46-2.68l2.55-4.3,1.46-1.69-4.14-4.78-1.89,1.32-5.66,4Z" transform="translate(-890.63 -405.19)"/><path class="cls-6" d="M911.48,453.89c-.64,3.1-5.73,5.93-5.73,5.93s6.19,1.27,6.06,3.5l5-.6,2.23.14,1.27-6.2-2.2-.69-6.59-2.08Z" transform="translate(-890.63 -405.19)"/><path class="cls-7" d="M923.88,450.24s0-1-2-4,0-8,5-8c6,0,9.16,1.68,6,8-2,4-3,5-3,5Z" transform="translate(-890.63 -405.19)"/><path class="cls-7" d="M932,451.82s.82-.57,2.14-3.93,6.57-4.57,9.43-.47c3.43,4.92,3.86,8.48-3.14,9.5-4.42.64-5.82.39-5.82.39Z" transform="translate(-890.63 -405.19)"/><path class="cls-7" d="M936.62,459.4s.79.62,4.38.91,6.27,5,3.17,8.89c-3.72,4.7-7,6.14-10-.26-1.9-4.05-2.06-5.46-2.06-5.46Z" transform="translate(-890.63 -405.19)"/><path class="cls-7" d="M931.29,466.2s0,1,2.05,4,.09,8-4.91,8.05c-6,.07-9.18-1.57-6.09-7.93,1.95-4,2.94-5,2.94-5Z" transform="translate(-890.63 -405.19)"/><path class="cls-7" d="M923.26,465.57s-.81.58-2.07,4-6.5,4.67-9.42.61c-3.5-4.87-4-8.42,3-9.54,4.42-.72,5.81-.49,5.81-.49Z" transform="translate(-890.63 -405.19)"/><path class="cls-7" d="M917.71,458.06s-.8-.61-4.39-.85-6.36-4.86-3.31-8.83c3.64-4.77,6.9-6.26,10,.1,2,4,2.15,5.42,2.15,5.42Z" transform="translate(-890.63 -405.19)"/><circle class="cls-3" cx="36.74" cy="53.55" r="9.5"/><path class="cls-6" d="M923.88,485.74c-3,1-8-2-8-2s2,6,0,7l3,4,1,2,6-2-.5-2.25-1.5-6.75Z" transform="translate(-890.63 -405.19)"/><path class="cls-6" d="M939.23,491c-2.2-2.27-1.67-8.07-1.67-8.07s-4.54,4.4-6.31,3l-2.3,4.44-1.37,1.77L932,496.7l1.81-1.43,5.43-4.28Z" transform="translate(-890.63 -405.19)"/><path class="cls-6" d="M942.3,507.46c1.22-2.92,6.76-4.73,6.76-4.73s-5.84-2.42-5.28-4.59l-5-.36-2.17-.56-2.42,5.85,2,1.09,6.07,3.3Z" transform="translate(-890.63 -405.19)"/><path class="cls-6" d="M929.88,517.89c3.15-.25,7.28,3.87,7.28,3.87s-.49-6.31,1.69-6.8l-2-4.6-.49-2.18-6.3.49-.06,2.3-.17,6.92Z" transform="translate(-890.63 -405.19)"/><path class="cls-6" d="M915.57,513.2c2.07,2.38,1.22,8.15,1.22,8.15s4.77-4.14,6.46-2.68l2.55-4.3,1.46-1.69-4.14-4.78-1.89,1.32-5.66,4Z" transform="translate(-890.63 -405.19)"/><path class="cls-6" d="M911.48,497.39c-.64,3.1-5.73,5.93-5.73,5.93s6.19,1.27,6.06,3.5l5-.6,2.23.14,1.27-6.2-2.2-.69-6.59-2.08Z" transform="translate(-890.63 -405.19)"/><path class="cls-7" d="M923.88,493.74s0-1-2-4,0-8,5-8c6,0,9.16,1.68,6,8-2,4-3,5-3,5Z" transform="translate(-890.63 -405.19)"/><path class="cls-7" d="M932,495.32s.82-.57,2.14-3.93,6.57-4.57,9.43-.47c3.43,4.92,3.86,8.48-3.14,9.5-4.42.64-5.82.39-5.82.39Z" transform="translate(-890.63 -405.19)"/><path class="cls-7" d="M936.62,502.9s.79.62,4.38.91,6.27,5,3.17,8.89c-3.72,4.7-7,6.14-10-.26-1.9-4.05-2.06-5.46-2.06-5.46Z" transform="translate(-890.63 -405.19)"/><path class="cls-7" d="M931.29,509.7s0,1,2.05,4,.09,8-4.91,8.05c-6,.07-9.18-1.57-6.09-7.93,1.95-4,2.94-5,2.94-5Z" transform="translate(-890.63 -405.19)"/><path class="cls-7" d="M923.26,509.07s-.81.58-2.07,4-6.5,4.67-9.42.61c-3.5-4.87-4-8.42,3-9.54,4.42-.72,5.81-.49,5.81-.49Z" transform="translate(-890.63 -405.19)"/><path class="cls-7" d="M917.71,501.56s-.8-.61-4.39-.85-6.36-4.86-3.31-8.83c3.64-4.77,6.9-6.26,10,.1,2,4,2.15,5.42,2.15,5.42Z" transform="translate(-890.63 -405.19)"/><circle class="cls-3" cx="36.74" cy="97.05" r="9.5"/><path class="cls-6" d="M923.88,539.24c-3,1-8-2-8-2s2,6,0,7l3,4,1,2,6-2-.5-2.25-1.5-6.75Z" transform="translate(-890.63 -405.19)"/><path class="cls-6" d="M939.23,544.49c-2.2-2.27-1.67-8.07-1.67-8.07s-4.54,4.4-6.31,3l-2.3,4.44-1.37,1.77L932,550.2l1.81-1.43,5.43-4.28Z" transform="translate(-890.63 -405.19)"/><path class="cls-6" d="M942.3,561c1.22-2.92,6.76-4.73,6.76-4.73s-5.84-2.42-5.28-4.59l-5-.36-2.17-.56-2.42,5.85,2,1.09,6.07,3.3Z" transform="translate(-890.63 -405.19)"/><path class="cls-6" d="M929.88,571.39c3.15-.25,7.28,3.87,7.28,3.87s-.49-6.31,1.69-6.8l-2-4.6-.49-2.18-6.3.49-.06,2.3-.17,6.92Z" transform="translate(-890.63 -405.19)"/><path class="cls-6" d="M915.57,566.7c2.07,2.38,1.22,8.15,1.22,8.15s4.77-4.14,6.46-2.68l2.55-4.3,1.46-1.69-4.14-4.78-1.89,1.32-5.66,4Z" transform="translate(-890.63 -405.19)"/><path class="cls-6" d="M911.48,550.89c-.64,3.1-5.73,5.93-5.73,5.93s6.19,1.27,6.06,3.5l5-.6,2.23.14,1.27-6.2-2.2-.69-6.59-2.08Z" transform="translate(-890.63 -405.19)"/><path class="cls-7" d="M923.88,547.24s0-1-2-4,0-8,5-8c6,0,9.16,1.68,6,8-2,4-3,5-3,5Z" transform="translate(-890.63 -405.19)"/><path class="cls-7" d="M932,548.82s.82-.57,2.14-3.93,6.57-4.57,9.43-.47c3.43,4.92,3.86,8.48-3.14,9.5-4.42.64-5.82.39-5.82.39Z" transform="translate(-890.63 -405.19)"/><path class="cls-7" d="M936.62,556.4s.79.62,4.38.91,6.27,5,3.17,8.89c-3.72,4.7-7,6.14-10-.26-1.9-4.05-2.06-5.46-2.06-5.46Z" transform="translate(-890.63 -405.19)"/><path class="cls-7" d="M931.29,563.2s0,1,2.05,4,.09,8-4.91,8.05c-6,.07-9.18-1.57-6.09-7.93,1.95-4,2.94-5,2.94-5Z" transform="translate(-890.63 -405.19)"/><path class="cls-7" d="M923.26,562.57s-.81.58-2.07,4-6.5,4.67-9.42.61c-3.5-4.87-4-8.42,3-9.54,4.42-.72,5.81-.49,5.81-.49Z" transform="translate(-890.63 -405.19)"/><path class="cls-7" d="M917.71,555.06s-.8-.61-4.39-.85-6.36-4.86-3.31-8.83c3.64-4.77,6.9-6.26,10,.1,2,4,2.15,5.42,2.15,5.42Z" transform="translate(-890.63 -405.19)"/><circle class="cls-3" cx="36.74" cy="150.55" r="9.5"/><path class="cls-6" d="M923.88,582.74c-3,1-8-2-8-2s2,6,0,7l3,4,1,2,6-2-.5-2.25-1.5-6.75Z" transform="translate(-890.63 -405.19)"/><path class="cls-6" d="M939.23,588c-2.2-2.27-1.67-8.07-1.67-8.07s-4.54,4.4-6.31,3l-2.3,4.44-1.37,1.77L932,593.7l1.81-1.43,5.43-4.28Z" transform="translate(-890.63 -405.19)"/><path class="cls-6" d="M942.3,604.46c1.22-2.92,6.76-4.73,6.76-4.73s-5.84-2.42-5.28-4.59l-5-.36-2.17-.56-2.42,5.85,2,1.09,6.07,3.3Z" transform="translate(-890.63 -405.19)"/><path class="cls-6" d="M929.88,614.89c3.15-.25,7.28,3.87,7.28,3.87s-.49-6.31,1.69-6.8l-2-4.6-.49-2.18-6.3.49-.06,2.3-.17,6.92Z" transform="translate(-890.63 -405.19)"/><path class="cls-6" d="M915.57,610.2c2.07,2.38,1.22,8.15,1.22,8.15s4.77-4.14,6.46-2.68l2.55-4.3,1.46-1.69-4.14-4.78-1.89,1.32-5.66,4Z" transform="translate(-890.63 -405.19)"/><path class="cls-6" d="M911.48,594.39c-.64,3.1-5.73,5.93-5.73,5.93s6.19,1.27,6.06,3.5l5-.6,2.23.14,1.27-6.2-2.2-.69-6.59-2.08Z" transform="translate(-890.63 -405.19)"/><path class="cls-7" d="M923.88,590.74s0-1-2-4,0-8,5-8c6,0,9.16,1.68,6,8-2,4-3,5-3,5Z" transform="translate(-890.63 -405.19)"/><path class="cls-7" d="M932,592.32s.82-.57,2.14-3.93,6.57-4.57,9.43-.47c3.43,4.92,3.86,8.48-3.14,9.5-4.42.64-5.82.39-5.82.39Z" transform="translate(-890.63 -405.19)"/><path class="cls-7" d="M936.62,599.9s.79.62,4.38.91,6.27,5,3.17,8.89c-3.72,4.7-7,6.14-10-.26-1.9-4.05-2.06-5.46-2.06-5.46Z" transform="translate(-890.63 -405.19)"/><path class="cls-7" d="M931.29,606.7s0,1,2.05,4,.09,8-4.91,8.05c-6,.07-9.18-1.57-6.09-7.93,1.95-4,2.94-5,2.94-5Z" transform="translate(-890.63 -405.19)"/><path class="cls-7" d="M923.26,606.07s-.81.58-2.07,4-6.5,4.67-9.42.61c-3.5-4.87-4-8.42,3-9.54,4.42-.72,5.81-.49,5.81-.49Z" transform="translate(-890.63 -405.19)"/><path class="cls-7" d="M917.71,598.56s-.8-.61-4.39-.85-6.36-4.86-3.31-8.83c3.64-4.77,6.9-6.26,10,.1,2,4,2.15,5.42,2.15,5.42Z" transform="translate(-890.63 -405.19)"/><circle class="cls-3" cx="36.74" cy="194.05" r="9.5"/><line class="cls-1" x1="83.37" y1="176.81" x2="82.12" y2="165.4"/><line class="cls-2" x1="83.1" y1="73.44" x2="82.37" y2="79.78"/><line class="cls-2" x1="73.71" y1="74.06" x2="74.28" y2="79.78"/><line class="cls-2" x1="74.21" y1="168.64" x2="74.37" y2="165.4"/></svg>