<svg xmlns="http://www.w3.org/2000/svg" viewBox="0 0 158.74 246.62"><defs><style>.cls-1{fill:#006837;}.cls-2{fill:none;stroke:#000;stroke-linecap:round;stroke-miterlimit:10;stroke-width:0.5px;}.cls-3{fill:#ed1c24;}.cls-4{fill:#0071bc;}.cls-5{fill:#fcee21;}</style></defs><title>ass</title><g id="Ebene_1" data-name="Ebene 1"><path d="M1024.61,416.7A13.35,13.35,0,0,1,1038,430V648a13.36,13.36,0,0,1-13.34,13.34H894.55A13.36,13.36,0,0,1,881.21,648V430a13.36,13.36,0,0,1,13.34-13.34h130.06m0-1H894.55A14.34,14.34,0,0,0,880.21,430V648a14.34,14.34,0,0,0,14.34,14.34h130.06A14.34,14.34,0,0,0,1039,648V430a14.34,14.34,0,0,0-14.34-14.34Z" transform="translate(-880.21 -415.7)"/></g><g id="Ebene_3" data-name="Ebene 3"><ellipse class="cls-1" cx="994.42" cy="530.77" rx="16.97" ry="4" transform="translate(-964.27 442.93) rotate(-45)"/><line class="cls-2" x1="101.71" y1="127.58" x2="126.2" y2="103.23"/><ellipse class="cls-1" cx="1003.51" cy="546.92" rx="16.97" ry="4" transform="translate(-993.29 -112.46) rotate(-16.28)"/><line class="cls-2" x1="106.33" y1="136.18" x2="139.5" y2="126.6"/><ellipse class="cls-1" cx="925.3" cy="552.66" rx="16.97" ry="4" transform="translate(-999.99 400.46) rotate(-45)"/><line class="cls-2" x1="57.58" y1="124.47" x2="33.1" y2="148.81"/><ellipse class="cls-1" cx="916.21" cy="536.51" rx="16.97" ry="4" transform="translate(-993.88 -137.35) rotate(-16.28)"/><line class="cls-2" x1="52.96" y1="115.86" x2="19.79" y2="125.44"/><path d="M939.26,509a42.82,42.82,0,0,1,4.66-13l3-9-4.5,2.5A41.84,41.84,0,0,0,935,506.56a30.14,30.14,0,0,0-.38,3.35,30.68,30.68,0,0,0,.26,6.8,34.3,34.3,0,0,0,1,4.75c1.42.73,2.87,1.5,4.35,2.29a29.46,29.46,0,0,1-1.16-4.71,30.82,30.82,0,0,1-.29-6.7A31.18,31.18,0,0,1,939.26,509Zm59,125.48a.6.6,0,0,0,.09-.13s0,0,0,0A1.74,1.74,0,0,0,998.25,634.44Zm4.32-9.17c-.48,1.35-1,2.67-1.58,3.86a.56.56,0,0,0,0-.08,21.82,21.82,0,0,0,1.62-3.8c.21-.67.4-1.34.55-2C1003,623.91,1002.8,624.6,1002.57,625.27Zm1.11-10.18a6.61,6.61,0,0,0-1.7-3.87,11.74,11.74,0,0,1-2-.22,7.14,7.14,0,0,1,3.6,4.14,7,7,0,0,1,.22.73C1003.76,615.6,1003.72,615.34,1003.68,615.09ZM925.91,500.84c-.19,1.07-.34,2.16-.45,3.26a49.71,49.71,0,0,0-.21,7.35c.06,1.57.2,3.15.41,4.74.88.46,1.79.92,2.7,1.38a41.2,41.2,0,0,1-.45-4.67,41.81,41.81,0,0,1,.25-7c.12-1.09.29-2.16.51-3.22a35.16,35.16,0,0,1,12.75-21.18l-3-3C931.7,483.71,927.48,491.7,925.91,500.84Z" transform="translate(-880.21 -415.7)"/><path d="M1013.42,599.49c.4,10.72-6.78,14.51-9.74,15.6a6.61,6.61,0,0,0-1.7-3.87c3.53.13,10.17-1.06,7.94-12.23-1.11-5.55-8.18-11.86-16.65-17.61-.91-.61-1.84-1.22-2.77-1.82-2.09-1.35-4.23-2.65-6.36-3.89q-2.13-1.24-4.23-2.4c-10.4-5.78-19.49-9.78-19.49-9.78-21.15-10.31-32.45-29.29-34.76-47.3.88.46,1.79.92,2.7,1.38,2.36,16.09,13.33,32.82,34.06,42.92,0,0,8.13,3.83,17.91,9.4,1.37.77,2.77,1.59,4.19,2.43,2.14,1.28,4.33,2.63,6.49,4,.9.59,1.81,1.18,2.7,1.79C1004.12,585.14,1013.18,593.06,1013.42,599.49Z" transform="translate(-880.21 -415.7)"/><path d="M1006.92,628c-4,0-7.42,4.56-8.58,6.32,0,0,0,0,0,0,.55-1,1.58-2.8,2.6-5.06l0-.07a.56.56,0,0,0,0-.08,21.82,21.82,0,0,0,1.62-3.8c7.09-1.68,17.82-9.44,18.76-20.76.75-9-5-20-16-27-3.47-2.21-7.33-4.41-11.5-6.72l-2.66-1.46c-2.26-1.23-4.6-2.49-7-3.81-1.39-.75-2.8-1.53-4.23-2.32-5.32-2.94-10.9-6.12-16.61-9.69-9.74-6.09-23.19-17.37-27.48-32,1.42.73,2.87,1.5,4.35,2.29,4.11,12.33,15.81,21.11,25.63,27.24,4.55,2.85,8.86,5.29,13,7.49,1.48.79,2.94,1.55,4.36,2.29,2.62,1.36,5.14,2.64,7.58,3.88.91.46,1.81.92,2.7,1.39,4.41,2.27,8.54,4.48,12.41,7,11,7,17,18,18,31S1011.92,628,1006.92,628Z" transform="translate(-880.21 -415.7)"/><path d="M1003.92,620Z" transform="translate(-880.21 -415.7)"/><path class="cls-3" d="M1021.42,604.49c-.94,11.32-11.67,19.08-18.76,20.76.21-.67.4-1.34.55-2,0,0,0,0,0-.05a24.6,24.6,0,0,0,.69-3.19,10.74,10.74,0,0,0-.13-4.07.09.09,0,0,0,0,0c0-.27-.06-.53-.1-.78,3-1.09,10.14-4.88,9.74-15.6-.24-6.43-9.3-14.35-19.71-21.36-.89-.61-1.8-1.2-2.7-1.79-2.16-1.39-4.35-2.74-6.49-4-1.42-.84-2.82-1.66-4.19-2.43-9.78-5.57-17.91-9.4-17.91-9.4-20.73-10.1-31.7-26.83-34.06-42.92a41.2,41.2,0,0,1-.45-4.67,41.81,41.81,0,0,1,.25-7c.12-1.09.29-2.16.51-3.22a35.16,35.16,0,0,1,12.75-21.18l5.5,5.5-4.5,2.5A41.84,41.84,0,0,0,935,506.56a30.14,30.14,0,0,0-.38,3.35,30.68,30.68,0,0,0,.26,6.8,34.3,34.3,0,0,0,1,4.75c4.29,14.66,17.74,25.94,27.48,32,5.71,3.57,11.29,6.75,16.61,9.69,1.43.79,2.84,1.57,4.23,2.32,2.4,1.32,4.74,2.58,7,3.81l2.66,1.46c4.17,2.31,8,4.51,11.5,6.72C1016.42,584.49,1022.17,595.47,1021.42,604.49Z" transform="translate(-880.21 -415.7)"/><path class="cls-3" d="M1003.92,620a24.6,24.6,0,0,1-.69,3.19s0,0,0,.05c-.15.68-.34,1.35-.55,2l-.09,0a10.51,10.51,0,0,1-1.15.22l1-10a11.06,11.06,0,0,0,1.14-.35l.12,0c0,.25.08.51.1.78a.09.09,0,0,1,0,0A10.74,10.74,0,0,1,1003.92,620Z" transform="translate(-880.21 -415.7)"/><path class="cls-4" d="M1006.42,641.49c0,4-3,6-7,5s-5.5-6.5-4-13c.36-1.54,0-5-1-8s0-15.66,6-15a2.7,2.7,0,0,1,1.56.73,6.61,6.61,0,0,1,1.7,3.87c0,.25.08.51.1.78a.09.09,0,0,1,0,0,23.1,23.1,0,0,1-.56,7.26s0,0,0,.05c-.15.68-.34,1.35-.55,2a21.82,21.82,0,0,1-1.62,3.8.56.56,0,0,1,0,.08l0,.07a53.54,53.54,0,0,0-2.6,5.06s0,0,0,0c-.71,1.82-.42,2.57-.42,5.68,0,5,2,5,4,5s1-2,0-2-2,0-2-3a2.94,2.94,0,0,1,3-3C1003.92,637,1006.42,637.49,1006.42,641.49Z" transform="translate(-880.21 -415.7)"/><ellipse cx="998.9" cy="620.65" rx="5.75" ry="2.66" transform="translate(-638.23 1105) rotate(-81.79)"/><path d="M920.92,447.79l-.08.12a0,0,0,0,1,0,0Z" transform="translate(-880.21 -415.7)"/><path d="M993.51,566c-.89-.47-1.79-.93-2.7-1.39-2.44-1.24-5-2.52-7.58-3.88-1.42-.74-2.88-1.5-4.36-2.29-4.1-12.33-15.8-21.11-25.62-27.24-4.56-2.85-8.87-5.29-13-7.49-1.48-.79-2.93-1.56-4.35-2.29-2.62-1.36-5.15-2.64-7.58-3.89-.91-.46-1.82-.92-2.7-1.38-4.42-2.27-8.54-4.49-12.41-7-11-7-17-18-18-31s12-24,17-24c4,0,7.39-4.53,8.57-6.29-.57,1-1.63,2.89-2.69,5.24a.8.8,0,0,0-.08.16c-.51,1.13-1,2.35-1.45,3.61-.22.65-.43,1.31-.63,2l0,.12a24.6,24.6,0,0,0-.69,3.19,10.74,10.74,0,0,0,.13,4.07.09.09,0,0,0,0,.05,7,7,0,0,0,.22.73,7.14,7.14,0,0,0,3.6,4.14,13,13,0,0,0-2-.22c-3.53-.13-10.17,1.06-7.94,12.23,1.11,5.56,8.19,11.86,16.66,17.6q1.35.93,2.76,1.83c2.09,1.34,4.23,2.64,6.36,3.89,1.43.83,2.84,1.64,4.23,2.4,10.4,5.77,19.49,9.78,19.49,9.78C979.9,529.05,991.2,548,993.51,566Z" transform="translate(-880.21 -415.7)"/><path d="M993.27,581.38c-1.58,9.15-5.8,17.14-12.52,22.36l-8.5-8.5,3-9a42.82,42.82,0,0,0,4.66-13q2.1,1.15,4.23,2.4c2.13,1.24,4.27,2.54,6.36,3.89C991.43,580.16,992.36,580.77,993.27,581.38Z" transform="translate(-880.21 -415.7)"/><path d="M915.25,462.25Z" transform="translate(-880.21 -415.7)"/><path class="cls-4" d="M990.5,579.56a35.16,35.16,0,0,1-12.75,21.18l-5.5-5.5,4.5-2.5a41.84,41.84,0,0,0,7.39-17.07C986.27,576.91,988.41,578.21,990.5,579.56Z" transform="translate(-880.21 -415.7)"/><path class="cls-4" d="M990.81,564.65c-2.44-1.24-5-2.52-7.58-3.88-4.29-14.66-17.74-25.94-27.48-32-5.72-3.57-11.3-6.76-16.62-9.7-1.43-.8-2.84-1.57-4.22-2.33-2.41-1.3-4.75-2.57-7-3.81-.9-.48-1.79-1-2.66-1.45-4.17-2.3-8-4.5-11.5-6.71-11-7-16.75-18-16-27,.94-11.33,11.68-19.09,18.77-20.76l.08,0a10.51,10.51,0,0,1,1.15-.22l-1,10a11.06,11.06,0,0,0-1.14.35l-.12.05c-3,1.09-10.14,4.88-9.74,15.6.24,6.43,9.29,14.35,19.71,21.36.89.61,1.79,1.2,2.7,1.79,2.16,1.39,4.35,2.74,6.49,4,1.42.84,2.82,1.66,4.19,2.43,9.78,5.57,17.91,9.4,17.91,9.4C977.47,531.84,988.45,548.56,990.81,564.65Z" transform="translate(-880.21 -415.7)"/><path class="cls-3" d="M918.75,471.75c6,.66,7-12,6-15s-1.36-6.46-1-8c1.5-6.5,0-12-4-13s-7,1-7,5,2.5,4.5,3.5,4.5a2.94,2.94,0,0,0,3-3c0-3-1-3-2-3s-2-2,0-2,4,0,4,5,.75,3.89-3.12,10.94S914.25,471.25,918.75,471.75Z" transform="translate(-880.21 -415.7)"/><ellipse cx="920.26" cy="461.6" rx="5.75" ry="2.66" transform="translate(-548.22 890.82) rotate(-81.79)"/><path d="M961,457.63s-8.82-16.15-10.05-18.61,1.23-6.15,4.92-7.38,7.38-3.69,7.38-6.15" transform="translate(-880.21 -415.7)"/><path d="M973.46,455.66l-12.49,2,2.25-32.14c.68,2.37,4.06,3.63,7.94,3.79s7.28,3,6.78,5.72-4.48,20.66-4.48,20.66" transform="translate(-880.21 -415.7)"/><path class="cls-5" d="M961.59,455.63s-7.17-13.14-8.17-15.14,1-5,4-6,6-3,6-5" transform="translate(-880.21 -415.7)"/><path class="cls-5" d="M971.75,454l-10.16,1.6,1.83-26.14c.55,1.93,3.3,3,6.46,3.08s5.91,2.45,5.51,4.65S971.75,454,971.75,454" transform="translate(-880.21 -415.7)"/><path d="M970.91,455.26s9-16,10.45-18.39,5.87-2.21,8.86.26,7,4.31,9.13,3" transform="translate(-880.21 -415.7)"/><path d="M979.19,464.81l-8.28-9.55,28.44-15.13c-1.64,1.84-.93,5.37,1,8.75s1.3,7.76-1.26,8.77-19.9,7.16-19.9,7.16" transform="translate(-880.21 -415.7)"/><path class="cls-5" d="M972.93,454.72s7.34-13,8.5-15,4.77-1.8,7.21.21,5.73,3.5,7.42,2.44" transform="translate(-880.21 -415.7)"/><path class="cls-5" d="M979.67,462.49l-6.74-7.77,23.13-12.3c-1.33,1.49-.75,4.37.82,7.11s1,6.32-1,7.14-16.18,5.82-16.18,5.82" transform="translate(-880.21 -415.7)"/><path d="M979.26,462.42s18.24,2.37,21,2.82,4.25,4.61,3.08,8.32-1.36,8.13.63,9.58" transform="translate(-880.21 -415.7)"/><path d="M973.5,473.68l5.76-11.26,24.66,20.72c-2.31-.84-5.32,1.15-7.73,4.2s-6.72,4.11-8.61,2.12-14.08-15.78-14.08-15.78" transform="translate(-880.21 -415.7)"/><path class="cls-5" d="M980.51,464.1s14.84,1.92,17,2.29,3.46,3.75,2.5,6.77-1.1,6.61.52,7.79" transform="translate(-880.21 -415.7)"/><path class="cls-5" d="M975.83,473.25l4.68-9.15L1000.57,481c-1.89-.68-4.33.93-6.29,3.41s-5.47,3.35-7,1.73-11.44-12.84-11.44-12.84" transform="translate(-880.21 -415.7)"/><path d="M974.52,472.31s9.9,15.51,11.29,17.88-.81,6.22-4.41,7.69-7.11,4.18-6.95,6.64" transform="translate(-880.21 -415.7)"/><path d="M962.2,475.11l12.32-2.8-.07,32.21c-.84-2.31-4.29-3.35-8.18-3.24s-7.46-2.52-7.15-5.25,3.08-20.92,3.08-20.92" transform="translate(-880.21 -415.7)"/><path class="cls-5" d="M974,474.34s8,12.62,9.18,14.55-.66,5.06-3.59,6.26-5.78,3.39-5.65,5.39" transform="translate(-880.21 -415.7)"/><path class="cls-5" d="M964,476.62l10-2.28-.06,26.2c-.68-1.88-3.49-2.72-6.65-2.63s-6.07-2.05-5.82-4.27,2.51-17,2.51-17" transform="translate(-880.21 -415.7)"/><path d="M965.5,474.4s-8.53,16.3-9.89,18.69-5.8,2.39-8.87,0-7.16-4.09-9.21-2.72" transform="translate(-880.21 -415.7)"/><path d="M956.93,465.11l8.57,9.29-28,16c1.59-1.88.76-5.39-1.26-8.71s-1.54-7.72,1-8.81,19.67-7.75,19.67-7.75" transform="translate(-880.21 -415.7)"/><path class="cls-5" d="M963.49,475s-6.93,13.25-8,15.2-4.72,1.94-7.21,0-5.83-3.32-7.49-2.21" transform="translate(-880.21 -415.7)"/><path class="cls-5" d="M956.52,467.44l7,7.56-22.74,13c1.28-1.53.62-4.39-1-7.08s-1.25-6.28.8-7.17,16-6.3,16-6.3" transform="translate(-880.21 -415.7)"/><path d="M957.05,468s-18.36-1.25-21.09-1.53-4.52-4.35-3.57-8.12.85-8.2-1.22-9.52" transform="translate(-880.21 -415.7)"/><path d="M962.11,456.42,957.05,468l-25.88-19.17c2.36.69,5.24-1.47,7.46-4.67s6.46-4.51,8.47-2.63,15,14.89,15,14.89" transform="translate(-880.21 -415.7)"/><path class="cls-5" d="M955.7,466.4s-14.93-1-17.15-1.24-3.68-3.54-2.91-6.6.7-6.68-1-7.75" transform="translate(-880.21 -415.7)"/><path class="cls-5" d="M959.81,457l-4.11,9.42-21.05-15.59c1.92.56,4.26-1.2,6.07-3.79s5.25-3.67,6.89-2.15S959.81,457,959.81,457" transform="translate(-880.21 -415.7)"/><circle class="cls-3" cx="88.2" cy="49.8" r="12"/><path class="cls-5" d="M971.75,454" transform="translate(-880.21 -415.7)"/><path d="M946,605.63s-8.82-16.15-10.05-18.61,1.23-6.15,4.92-7.38,7.38-3.69,7.38-6.15" transform="translate(-880.21 -415.7)"/><path d="M958.46,603.66l-12.49,2,2.25-32.14c.68,2.37,4.06,3.63,7.94,3.79s7.28,3,6.78,5.72-4.48,20.66-4.48,20.66" transform="translate(-880.21 -415.7)"/><path class="cls-5" d="M946.59,603.63s-7.17-13.14-8.17-15.14,1-5,4-6,6-3,6-5" transform="translate(-880.21 -415.7)"/><path class="cls-5" d="M956.75,602l-10.16,1.6,1.83-26.14c.55,1.93,3.3,3,6.46,3.08s5.91,2.45,5.51,4.65S956.75,602,956.75,602" transform="translate(-880.21 -415.7)"/><path d="M955.91,603.26s9-16,10.45-18.39,5.87-2.21,8.86.26,7,4.31,9.13,3" transform="translate(-880.21 -415.7)"/><path d="M964.19,612.81l-8.28-9.55,28.44-15.13c-1.64,1.84-.93,5.37,1,8.75s1.3,7.76-1.26,8.77-19.9,7.16-19.9,7.16" transform="translate(-880.21 -415.7)"/><path class="cls-5" d="M957.93,602.72s7.34-13,8.5-15,4.77-1.8,7.21.21,5.73,3.5,7.42,2.44" transform="translate(-880.21 -415.7)"/><path class="cls-5" d="M964.67,610.49l-6.74-7.77,23.13-12.3c-1.33,1.49-.75,4.37.82,7.11s1,6.32-1,7.14-16.18,5.82-16.18,5.82" transform="translate(-880.21 -415.7)"/><path d="M964.26,610.42s18.24,2.37,21,2.82,4.25,4.61,3.08,8.32-1.36,8.13.63,9.58" transform="translate(-880.21 -415.7)"/><path d="M958.5,621.68l5.76-11.26,24.66,20.72c-2.31-.84-5.32,1.15-7.73,4.2s-6.72,4.11-8.61,2.12-14.08-15.78-14.08-15.78" transform="translate(-880.21 -415.7)"/><path class="cls-5" d="M965.51,612.1s14.84,1.92,17,2.29,3.46,3.75,2.5,6.77-1.1,6.61.52,7.79" transform="translate(-880.21 -415.7)"/><path class="cls-5" d="M960.83,621.25l4.68-9.15L985.57,629c-1.89-.68-4.33.93-6.29,3.41s-5.47,3.35-7,1.73-11.44-12.84-11.44-12.84" transform="translate(-880.21 -415.7)"/><path d="M959.52,620.31s9.9,15.51,11.29,17.88-.81,6.22-4.41,7.69-7.11,4.18-6.95,6.64" transform="translate(-880.21 -415.7)"/><path d="M947.2,623.11l12.32-2.8-.07,32.21c-.84-2.31-4.29-3.35-8.18-3.24s-7.46-2.52-7.15-5.25,3.08-20.92,3.08-20.92" transform="translate(-880.21 -415.7)"/><path class="cls-5" d="M959,622.34s8,12.62,9.18,14.55-.66,5.06-3.59,6.26-5.78,3.39-5.65,5.39" transform="translate(-880.21 -415.7)"/><path class="cls-5" d="M949,624.62l10-2.28-.06,26.2c-.68-1.88-3.49-2.72-6.65-2.63s-6.07-2-5.82-4.27,2.51-17,2.51-17" transform="translate(-880.21 -415.7)"/><path d="M950.5,622.4s-8.53,16.3-9.89,18.69-5.8,2.39-8.87,0-7.16-4.09-9.21-2.72" transform="translate(-880.21 -415.7)"/><path d="M941.93,613.11l8.57,9.29-28,16c1.59-1.88.76-5.39-1.26-8.71s-1.54-7.72,1-8.81,19.67-7.75,19.67-7.75" transform="translate(-880.21 -415.7)"/><path class="cls-5" d="M948.49,623s-6.93,13.25-8,15.2-4.72,1.94-7.21,0-5.83-3.32-7.49-2.21" transform="translate(-880.21 -415.7)"/><path class="cls-5" d="M941.52,615.44l7,7.56-22.74,13c1.28-1.53.62-4.39-1-7.08s-1.25-6.28.8-7.17,16-6.3,16-6.3" transform="translate(-880.21 -415.7)"/><path d="M942.05,616s-18.36-1.25-21.09-1.53-4.52-4.35-3.57-8.12.85-8.2-1.22-9.52" transform="translate(-880.21 -415.7)"/><path d="M947.11,604.42,942.05,616l-25.88-19.17c2.36.69,5.24-1.47,7.46-4.67s6.46-4.51,8.47-2.63,15,14.89,15,14.89" transform="translate(-880.21 -415.7)"/><path class="cls-5" d="M940.7,614.4s-14.93-1-17.15-1.24-3.68-3.54-2.91-6.6.7-6.68-1-7.75" transform="translate(-880.21 -415.7)"/><path class="cls-5" d="M944.81,605l-4.11,9.42-21.05-15.59c1.92.56,4.26-1.2,6.07-3.79s5.25-3.67,6.89-2.15S944.81,605,944.81,605" transform="translate(-880.21 -415.7)"/><circle class="cls-3" cx="73.2" cy="197.8" r="12"/><path class="cls-5" d="M956.75,602" transform="translate(-880.21 -415.7)"/></g></svg>