<svg xmlns="http://www.w3.org/2000/svg" viewBox="0 0 158.74 246.62"><defs><style>.cls-1{fill:#0071bc;}.cls-2{fill:#ed1c24;}.cls-3{fill:#d9e021;}.cls-4{fill:#ccc;}.cls-5,.cls-7{fill:none;}.cls-5{stroke:#006837;stroke-width:2px;}.cls-10,.cls-5,.cls-7{stroke-miterlimit:10;}.cls-6{fill:#006837;}.cls-10,.cls-7{stroke:#000;}.cls-7{stroke-linecap:round;stroke-width:0.5px;}.cls-8{fill:#1a1a1a;}.cls-9{fill:red;}.cls-10{fill:#fff;}.cls-11{fill:#999;}.cls-12{font-size:18px;font-family:MyriadPro-Regular, Myriad Pro;}.cls-13{letter-spacing:-0.02em;}</style></defs><title>könig</title><g id="Ebene_1" data-name="Ebene 1"><path d="M1025,418.19a13.35,13.35,0,0,1,13.34,13.34V649.47A13.35,13.35,0,0,1,1025,662.81H895a13.35,13.35,0,0,1-13.34-13.34V431.53A13.35,13.35,0,0,1,895,418.19H1025m0-1H895a14.34,14.34,0,0,0-14.34,14.34V649.47A14.34,14.34,0,0,0,895,663.81H1025a14.34,14.34,0,0,0,14.34-14.34V431.53A14.34,14.34,0,0,0,1025,417.19Z" transform="translate(-880.63 -417.19)"/></g><g id="Ebene_5" data-name="Ebene 5"><path class="cls-1" d="M936.5,510.5s7,3,8,4,23-28,28-26c0,0,4,3,11,3S993,489,993,489s17.5,8.5,20.5,13.5l12,20s2,3,2,5-2,4-4,8a94.17,94.17,0,0,0-4,10l-4,4-12-2-2-2v-7s1-7,3-9,2-3,2-3l-4-4-11,15,6,8,2,6,5,8,3,5,3,7,3,7,2,4,1,2-56-46-1-8-4,3-21-17Z" transform="translate(-880.63 -417.19)"/><path class="cls-2" d="M1001.17,571.67S1000,566,999,562s-6-8-5-11,7-14,7-21,0-19,2-23,4.36-10.26,4.36-10.26S999,488,996,488l-3,1s2,2,1,8-5,20-6,27-1,21-1,21l.5,1.5h-7a114.83,114.83,0,0,1,0-20c1-10,3-24,5-28a23.83,23.83,0,0,0,2.35-7.41l-4.35.41-7.69-1.33s-8.31,12.33-9.31,25.33-.89,27.2-.89,27.2l-2.86-2.7s-1.25-27.5,1.75-33.5,9.87-16.94,9.87-16.94l-1.87-1.06S962,502,961,509s-2.5,27.5-2.5,27.5Z" transform="translate(-880.63 -417.19)"/><path class="cls-3" d="M978.42,553.08,999,549.9l-2-5.9-19,2s-1-26,1-36a83.73,83.73,0,0,1,6-18l-8.08-1.46S971,505.07,970,512s-2.42,32-2.42,32Z" transform="translate(-880.63 -417.19)"/><path class="cls-4" d="M1000.8,550.62l-5,5.61A3.25,3.25,0,0,0,995,561c2,3,5,6,6,6s3,0,5-3,4-4,4-7a4.33,4.33,0,0,0-2-4Z" transform="translate(-880.63 -417.19)"/><path class="cls-2" d="M1000,549a10.76,10.76,0,0,0,4,5c3,2,9,2,9,2l6.76-11.25S1012,547,1009,545a59.86,59.86,0,0,1-7-6S998,545,1000,549Z" transform="translate(-880.63 -417.19)"/><path class="cls-4" d="M928.84,504,926,500v-4a13.23,13.23,0,0,0-6-8c-5-3-9-4-12,1l-3,5,18,15,4-1Z" transform="translate(-880.63 -417.19)"/><path class="cls-2" d="M935,516s2.29-3.44,2.15-5.22S932,501,930,501c0,0-1,4-3,5a12.38,12.38,0,0,0-3,2l10,8Z" transform="translate(-880.63 -417.19)"/><path class="cls-5" d="M919,470a43.54,43.54,0,0,1-3.15,12.08,13.77,13.77,0,0,0-1,3.61c-1,5.84-.06,14.11.56,17" transform="translate(-880.63 -417.19)"/><path class="cls-6" d="M914.87,484l-.28-.06c-2.9-.61-6.63-4-9.41-8.86-2.86-5-3.85-10.14-2.74-12.89,2.94.44,6.83,3.9,9.69,8.92S916,481.26,914.87,484Z" transform="translate(-880.63 -417.19)"/><line class="cls-7" x1="34.12" y1="66.39" x2="22.13" y2="45.43"/><ellipse class="cls-6" cx="932.46" cy="476.78" rx="16.97" ry="4" transform="matrix(0.95, -0.31, 0.31, 0.95, -983.07, -100.98)"/><ellipse class="cls-6" cx="932.46" cy="476.78" rx="16.97" ry="4" transform="matrix(0.95, -0.31, 0.31, 0.95, -983.07, -100.98)"/><line class="cls-7" x1="35.04" y1="65.12" x2="67.86" y2="54.4"/><path class="cls-8" d="M924.71,466.55c2.34-1.06,6.62.94,6.62.94s-2.11-4.68-.59-5.65l-2.75-3-1-1.53-4.67,2.12.59,1.77,1.78,5.32" transform="translate(-880.63 -417.19)"/><path class="cls-8" d="M911.88,463.61c2,1.64,2,6.37,2,6.37s3.29-3.94,4.83-3l1.48-3.78,1-1.54-3.94-3.29-1.34,1.31-4,3.91" transform="translate(-880.63 -417.19)"/><path class="cls-8" d="M908,450.59C907.28,453,903,455,903,455s4.92,1.46,4.65,3.26l4.06-.13,1.79.26,1.46-4.91-1.72-.72L908,450.59" transform="translate(-880.63 -417.19)"/><path class="cls-8" d="M917.16,441.13c-2.52.46-6.2-2.51-6.2-2.51s.93,5-.79,5.62l2,3.55.57,1.72,5-.93-.15-1.86-.44-5.59" transform="translate(-880.63 -417.19)"/><path class="cls-8" d="M929.1,443.7c-1.88-1.75-1.67-6.47-1.67-6.47s-3.51,3.74-5,2.71l-1.69,3.68-1,1.49,3.75,3.5,1.41-1.23,4.23-3.68" transform="translate(-880.63 -417.19)"/><path class="cls-8" d="M933.73,456.1c.25-2.55,4.12-5.26,4.12-5.26s-5.1-.5-5.18-2.31l-4,.9-1.81.08-.5,5.1,1.83.37,5.5,1.12" transform="translate(-880.63 -417.19)"/><path class="cls-3" d="M924,460.09s.08.81,2,3.06a4.34,4.34,0,0,1-3.36,6.88c-4.84.5-7.53-.58-5.51-5.95a18,18,0,0,1,2-4.29" transform="translate(-880.63 -417.19)"/><path class="cls-3" d="M917.38,459.51s-.61.53-1.39,3.35a4.33,4.33,0,0,1-7.56,1.17c-3.19-3.68-3.83-6.51,1.72-7.92a18.2,18.2,0,0,1,4.66-.82" transform="translate(-880.63 -417.19)"/><path class="cls-3" d="M913,453.79s-.68-.44-3.61-.37a4.33,4.33,0,0,1-3.3-6.9c2.6-4.11,5.12-5.55,8.08-.64a18.1,18.1,0,0,1,2.12,4.23" transform="translate(-880.63 -417.19)"/><path class="cls-3" d="M916.71,447.85s-.1-.81-2-3A4.33,4.33,0,0,1,918,437.9c4.83-.56,7.54.49,5.58,5.88a18.08,18.08,0,0,1-1.94,4.31" transform="translate(-880.63 -417.19)"/><path class="cls-3" d="M923.24,447.68s.6-.54,1.34-3.37a4.33,4.33,0,0,1,7.54-1.29c3.24,3.64,3.93,6.45-1.6,8a17.92,17.92,0,0,1-4.65.88" transform="translate(-880.63 -417.19)"/><path class="cls-3" d="M928.35,453.27s.7.42,3.62.31a4.33,4.33,0,0,1,3.41,6.85c-2.54,4.15-5,5.63-8.07.76a18.27,18.27,0,0,1-2.19-4.19" transform="translate(-880.63 -417.19)"/><circle class="cls-9" cx="39.87" cy="36.34" r="7.7"/><polygon class="cls-10" points="138.5 169.5 136.63 171.84 22.24 77.13 24.11 74.78 138.5 169.5"/><path class="cls-3" d="M974,461s-6,13-5,17,3,5,6,4,15,0,15,0l7,5s3,2,4,0,.58-17.4.58-17.4L997,462l-16-2-7-1Z" transform="translate(-880.63 -417.19)"/><path class="cls-4" d="M975,483c-2-1-2-8-2-8V463s2-4,10-1,8,3,8,4-1,16-1,16v3l-10,1-4-1Z" transform="translate(-880.63 -417.19)"/><path class="cls-11" d="M972,488s6,4.63,12,3.81S997,487,997,487l-7-5s-2,3-7,3a15.39,15.39,0,0,1-8-2S974,488,972,488Z" transform="translate(-880.63 -417.19)"/><path class="cls-2" d="M974,461s2-1.74,12,2.13,16,6.87,16,6.87-1-5,1-8c0,0-4-4-12-7s-17-2-17-2Z" transform="translate(-880.63 -417.19)"/><path class="cls-1" d="M974,453s12,0,15.49,1.48S1002,461,1003,462a61.25,61.25,0,0,1,4-6s-7-6-13-8-21-2-21-2Z" transform="translate(-880.63 -417.19)"/><path class="cls-3" d="M973,446s15.28.23,19.64,1.61S1007,456,1007,456l4-4s-11-8-17-9-21-1-21-1Z" transform="translate(-880.63 -417.19)"/><circle class="cls-3" cx="93.62" cy="20.81" r="1.75"/><rect class="cls-3" x="93.12" y="20.81" width="1" height="4"/><circle class="cls-3" cx="97.62" cy="20.81" r="1.75"/><rect class="cls-3" x="97.12" y="20.81" width="1" height="6"/><circle class="cls-3" cx="102.62" cy="20.81" r="1.75"/><rect class="cls-3" x="102.12" y="20.81" width="1" height="6"/><circle class="cls-3" cx="109.62" cy="21.81" r="1.75"/><rect class="cls-3" x="109.12" y="21.81" width="1" height="6"/><circle class="cls-3" cx="117.2" cy="22.89" r="1.75"/><rect class="cls-3" x="996.51" y="439.97" width="1" height="6" transform="translate(-722.3 -671.98) rotate(15.8)"/><circle class="cls-3" cx="123.69" cy="26.1" r="1.75"/><rect class="cls-3" x="1002.31" y="442.88" width="1" height="6" transform="translate(-519.76 -861.45) rotate(30.23)"/><circle class="cls-3" cx="128.89" cy="29.23" r="1.75"/><rect class="cls-3" x="1007.23" y="445.83" width="1" height="6" transform="translate(-412.87 -930.34) rotate(36.69)"/><text class="cls-12" transform="translate(12.7 17.92)"><tspan class="cls-13">K</tspan><tspan x="9.45" y="0">ÖNIG</tspan></text><path class="cls-1" d="M985.33,569.87s-7-3-8-4-23,28-28,26c0,0-4-3-11-3s-9.5,2.5-9.5,2.5-17.5-8.5-20.5-13.5l-12-20s-2-3-2-5,2-4,4-8a94.17,94.17,0,0,0,4-10l4-4,12,2,2,2v7s-1,7-3,9-2,3-2,3l4,4,11-15-6-8-2-6-5-8-3-5-3-7-3-7-2-4-1-2,56,46,1,8,4-3,21,17Z" transform="translate(-880.63 -417.19)"/><path class="cls-2" d="M920.67,508.7s1.16,5.67,2.16,9.67,6,8,5,11-7,14-7,21,0,19-2,23-4.36,10.25-4.36,10.25,8.36,8.75,11.36,8.75l3-1s-2-2-1-8,5-20,6-27,1-21,1-21l-.5-1.5h7a114.83,114.83,0,0,1,0,20c-1,10-3,24-5,28a23.82,23.82,0,0,0-2.35,7.4l4.35-.4,7.7,1.33s8.3-12.33,9.3-25.33.89-27.2.89-27.2l2.87,2.7s1.24,27.5-1.76,33.5-9.87,16.93-9.87,16.93l1.87,1.07s10.5-13.5,11.5-20.5,2.5-27.5,2.5-27.5Z" transform="translate(-880.63 -417.19)"/><path class="cls-3" d="M943.42,527.28l-20.55,3.19,2,5.9,19-2s1,26-1,36a84,84,0,0,1-6,18l8.08,1.45s5.93-14.53,6.92-21.45,2.42-32,2.42-32Z" transform="translate(-880.63 -417.19)"/><path class="cls-4" d="M921,529.74l5-5.6a3.25,3.25,0,0,0,.81-4.77c-2-3-5-6-6-6s-3,0-5,3-4,4-4,7a4.33,4.33,0,0,0,2,4Z" transform="translate(-880.63 -417.19)"/><path class="cls-2" d="M921.83,531.37a10.76,10.76,0,0,0-4-5c-3-2-9-2-9-2l-6.75,11.25s7.75-2.25,10.75-.25a59.86,59.86,0,0,1,7,6S923.83,535.37,921.83,531.37Z" transform="translate(-880.63 -417.19)"/><path class="cls-4" d="M993,576.41l2.84,4v4a13.23,13.23,0,0,0,6,8c5,3,9,4,12-1l3-5-18-15-4,1Z" transform="translate(-880.63 -417.19)"/><path class="cls-2" d="M986.83,564.37s-2.29,3.43-2.14,5.21,5.14,9.79,7.14,9.79c0,0,1-4,3-5a12.38,12.38,0,0,0,3-2l-10-8Z" transform="translate(-880.63 -417.19)"/><path class="cls-5" d="M1002.83,610.37a43.54,43.54,0,0,1,3.15-12.08,13.77,13.77,0,0,0,1-3.61c1-5.84.06-14.11-.56-17" transform="translate(-880.63 -417.19)"/><path class="cls-6" d="M1007,596.36l.29,0c2.89.61,6.62,4,9.4,8.87,2.87,5,3.86,10.13,2.74,12.88-2.94-.44-6.82-3.89-9.69-8.92S1005.84,599.11,1007,596.36Z" transform="translate(-880.63 -417.19)"/><line class="cls-7" x1="126.45" y1="179.6" x2="138.44" y2="200.56"/><ellipse class="cls-6" cx="989.37" cy="603.59" rx="16.97" ry="4" transform="translate(-1019.94 -76.76) rotate(-18.26)"/><ellipse class="cls-6" cx="989.37" cy="603.59" rx="16.97" ry="4" transform="translate(-1019.94 -76.76) rotate(-18.26)"/><line class="cls-7" x1="125.53" y1="180.86" x2="92.71" y2="191.58"/><path class="cls-8" d="M997.12,613.82c-2.34,1.06-6.62-.94-6.62-.94s2.12,4.67.59,5.65l2.76,3,1,1.53,4.67-2.12-.59-1.77-1.78-5.32" transform="translate(-880.63 -417.19)"/><path class="cls-8" d="M1010,616.76c-2-1.65-2-6.38-2-6.38s-3.29,3.94-4.83,3l-1.48,3.77-1,1.54,3.94,3.29,1.34-1.3,4-3.91" transform="translate(-880.63 -417.19)"/><path class="cls-8" d="M1013.82,629.78c.73-2.46,5-4.38,5-4.38s-4.92-1.47-4.65-3.26l-4.05.13-1.8-.27-1.46,4.92,1.73.71,5.18,2.15" transform="translate(-880.63 -417.19)"/><path class="cls-8" d="M1004.67,639.24c2.53-.47,6.2,2.51,6.2,2.51s-.93-5,.79-5.62l-1.95-3.56-.58-1.71-5,.92.15,1.87.44,5.59" transform="translate(-880.63 -417.19)"/><path class="cls-8" d="M992.74,636.66c1.87,1.75,1.67,6.48,1.67,6.48s3.5-3.75,5-2.71l1.69-3.69,1-1.48-3.75-3.51L997,633l-4.23,3.68" transform="translate(-880.63 -417.19)"/><path class="cls-8" d="M988.1,624.26c-.25,2.56-4.12,5.27-4.12,5.27s5.11.5,5.19,2.31l4-.9,1.81-.08.5-5.11-1.83-.37-5.5-1.12" transform="translate(-880.63 -417.19)"/><path class="cls-3" d="M997.8,620.27s-.09-.81-2-3.06a4.33,4.33,0,0,1,3.36-6.87c4.84-.51,7.53.58,5.52,5.94a18.21,18.21,0,0,1-2,4.29" transform="translate(-880.63 -417.19)"/><path class="cls-3" d="M1004.45,620.86s.62-.53,1.4-3.35a4.33,4.33,0,0,1,7.56-1.17c3.18,3.68,3.83,6.51-1.73,7.92a18.28,18.28,0,0,1-4.66.81" transform="translate(-880.63 -417.19)"/><path class="cls-3" d="M1008.85,626.58s.69.43,3.61.37a4.33,4.33,0,0,1,3.31,6.9c-2.61,4.11-5.13,5.54-8.09.63a18.1,18.1,0,0,1-2.12-4.23" transform="translate(-880.63 -417.19)"/><path class="cls-3" d="M1005.12,632.52s.1.8,2,3a4.33,4.33,0,0,1-3.28,6.91c-4.83.57-7.54-.49-5.58-5.88a18.24,18.24,0,0,1,2-4.31" transform="translate(-880.63 -417.19)"/><path class="cls-3" d="M998.6,632.68s-.61.54-1.35,3.37a4.33,4.33,0,0,1-7.54,1.29c-3.24-3.63-3.93-6.45,1.61-8a17.83,17.83,0,0,1,4.64-.88" transform="translate(-880.63 -417.19)"/><path class="cls-3" d="M993.48,627.09s-.69-.42-3.61-.31a4.32,4.32,0,0,1-3.42-6.84c2.54-4.15,5-5.63,8.07-.76a18,18,0,0,1,2.19,4.19" transform="translate(-880.63 -417.19)"/><circle class="cls-9" cx="120.71" cy="209.64" r="7.7"/><polygon class="cls-10" points="22.07 76.49 23.94 74.14 138.33 168.86 136.47 171.21 22.07 76.49"/><path class="cls-3" d="M947.83,619.37s6-13,5-17-3-5-6-4-15,0-15,0l-7-5s-3-2-4,0-.58,17.4-.58,17.4l4.58,7.6,16,2,7,1Z" transform="translate(-880.63 -417.19)"/><path class="cls-4" d="M946.83,597.37c2,1,2,8,2,8v12s-2,4-10,1-8-3-8-4,1-16,1-16v-3l10-1,4,1Z" transform="translate(-880.63 -417.19)"/><path class="cls-11" d="M949.83,592.37s-5.94-4.63-12-3.82-13,4.82-13,4.82l7,5s2-3,7-3a15.39,15.39,0,0,1,8,2S947.83,592.37,949.83,592.37Z" transform="translate(-880.63 -417.19)"/><path class="cls-2" d="M947.83,619.37s-2,1.74-12-2.13-16-6.87-16-6.87,1,5-1,8c0,0,4,4,12,7s17,2,17,2Z" transform="translate(-880.63 -417.19)"/><path class="cls-1" d="M947.83,627.37s-12,0-15.48-1.49-12.52-6.51-13.52-7.51a61.25,61.25,0,0,1-4,6s7,6,13,8,21,2,21,2Z" transform="translate(-880.63 -417.19)"/><path class="cls-3" d="M948.83,634.37s-15.27-.23-19.63-1.62-14.37-8.38-14.37-8.38l-4,4s11,8,17,9,21,1,21,1Z" transform="translate(-880.63 -417.19)"/><circle class="cls-3" cx="66.95" cy="225.18" r="1.75"/><rect class="cls-3" x="947.08" y="638.37" width="1" height="4" transform="translate(1014.54 863.54) rotate(-180)"/><circle class="cls-3" cx="62.95" cy="225.18" r="1.75"/><rect class="cls-3" x="943.08" y="636.37" width="1" height="6" transform="translate(1006.54 861.54) rotate(-180)"/><circle class="cls-3" cx="57.95" cy="225.18" r="1.75"/><rect class="cls-3" x="938.08" y="636.37" width="1" height="6" transform="translate(996.54 861.54) rotate(-180)"/><circle class="cls-3" cx="50.95" cy="224.18" r="1.75"/><rect class="cls-3" x="931.08" y="635.37" width="1" height="6" transform="translate(982.54 859.54) rotate(-180)"/><circle class="cls-3" cx="43.37" cy="223.09" r="1.75"/><rect class="cls-3" x="924.32" y="634.4" width="1" height="6" transform="translate(760.46 1085.39) rotate(-164.2)"/><circle class="cls-3" cx="36.88" cy="219.89" r="1.75"/><rect class="cls-3" x="918.52" y="631.48" width="1" height="6" transform="translate(512.99 1228.2) rotate(-149.77)"/><circle class="cls-3" cx="31.68" cy="216.75" r="1.75"/><rect class="cls-3" x="913.61" y="628.54" width="1" height="6" transform="translate(389.21 1266.91) rotate(-143.31)"/><text class="cls-12" transform="translate(147.87 228.06) rotate(180)"><tspan class="cls-13">K</tspan><tspan x="9.45" y="0">ÖNIG</tspan></text></g></svg>