<svg xmlns="http://www.w3.org/2000/svg" viewBox="0 0 158.74 246.62"><defs><style>.cls-1{fill:red;}.cls-2{fill:#fff;}.cls-10,.cls-2{stroke:#000;stroke-width:0.5px;}.cls-10,.cls-2,.cls-8{stroke-miterlimit:10;}.cls-3{fill:#c7002d;}.cls-4{fill:#d9e021;}.cls-5{fill:#0071bc;}.cls-6{fill:#e6e6e6;}.cls-7{fill:#1a1a1a;}.cls-10,.cls-8{fill:none;}.cls-8{stroke:#006837;stroke-width:2px;}.cls-9{fill:#006837;}.cls-10{stroke-linecap:round;}.cls-11{font-size:18px;font-family:MyriadPro-Regular, Myriad Pro;}.cls-12{fill:#999;}.cls-13{fill:#f2f2f2;}.cls-14{fill:#c1c11a;}.cls-15{fill:#4d4d4d;}</style></defs><title>ober</title><g id="Ebene_1" data-name="Ebene 1"><path d="M1031,413.19a13.35,13.35,0,0,1,13.34,13.34V644.47A13.35,13.35,0,0,1,1031,657.81H901a13.35,13.35,0,0,1-13.34-13.34V426.53A13.35,13.35,0,0,1,901,413.19H1031m0-1H901a14.34,14.34,0,0,0-14.34,14.34V644.47A14.34,14.34,0,0,0,901,658.81H1031a14.34,14.34,0,0,0,14.34-14.34V426.53A14.34,14.34,0,0,0,1031,412.19Z" transform="translate(-886.63 -412.19)"/><path class="cls-1" d="M969.14,541" transform="translate(-886.63 -412.19)"/></g><g id="Ebene_3" data-name="Ebene 3"><rect class="cls-2" x="966.01" y="467.38" width="2.36" height="137.85" transform="translate(974.97 -526.35) rotate(114.97)"/><path class="cls-3" d="M936.17,513.47a40.61,40.61,0,0,0,11,6c6,2,11,1,16-2s7,3,7,3l-4,13-.5.83,23.39,10.89,15.11.28,10-21s1-11,0-12-5-7-5-7-2-5-3-7-.5-16.5-1.5-18.5-5.5-4.5-5.5-4.5l-5-3-15,7-3,4-18,16a6.85,6.85,0,0,1-8,2c-5-2-11-4-11-4a44,44,0,0,1-1,9C937.17,510.47,936.17,513.47,936.17,513.47Z" transform="translate(-886.63 -412.19)"/><path class="cls-4" d="M965.67,534s-4-13-2-24,14-28,14-28,3,1,10-1,9-7,9-7a32.3,32.3,0,0,1,5,3s-15,11-19,29a247.07,247.07,0,0,0-5,34Z" transform="translate(-886.63 -412.19)"/><path class="cls-5" d="M994.67,481c8-6,15,2,17,5s5,10,9,15,10,12,10,12a5,5,0,0,1,1,5c-1,3-14,18-14,18s-4.65-.93-7.32-3.47-4.68-7.53-4.68-7.53a84.92,84.92,0,0,0,3-9c1-4-7-10-7-10s-9-7-10-9-1-10,0-12A18.66,18.66,0,0,1,994.67,481Z" transform="translate(-886.63 -412.19)"/><polygon class="cls-5" points="126.04 128.78 126.04 143.99 112.44 137.66 112.04 131.78 117.04 127.78 123.04 126.78 126.04 128.78"/><path class="cls-6" d="M998.74,533.35a10.66,10.66,0,0,0-5.07.62c-2,1-2,2-2,2h3c1,0-2,6-2,6s-1,2,0,3a14.39,14.39,0,0,0,3,2s3,2,5,1,4-4,4-4v-1h1l-5-7Z" transform="translate(-886.63 -412.19)"/><path class="cls-7" d="M1019.67,535a19.17,19.17,0,0,1-9-3.14,13.22,13.22,0,0,1-5-6.86l-7,7s1,7,4,9,9,5,9,5Z" transform="translate(-886.63 -412.19)"/><path class="cls-4" d="M1005.67,530l-5,4s0,4,3,6a54.36,54.36,0,0,0,8,4l4-7a17.36,17.36,0,0,1-6.41-2.25A10.31,10.31,0,0,1,1005.67,530Z" transform="translate(-886.63 -412.19)"/><path class="cls-5" d="M920.67,511c3,3,15,3,16,2s4-17,2-18-11-6-14-3-4,10-4,10S919.67,510,920.67,511Z" transform="translate(-886.63 -412.19)"/><path class="cls-4" d="M932.13,513.57s4.54-7.6,4.54-11.6a82.13,82.13,0,0,0-.5-8.26s-5.06-2.39-7.28-2.57c0,0,.78,8.83-1.22,13.83a34.06,34.06,0,0,1-4,7.55S931.59,514.16,932.13,513.57Z" transform="translate(-886.63 -412.19)"/><path class="cls-6" d="M926.67,493c-3.16,0-6-8-8-9s-8-4-10-2-4,9-3,12,7,7,9,7,7,0,8,1,3,1,3-2S927.67,493,926.67,493Z" transform="translate(-886.63 -412.19)"/><path class="cls-8" d="M908,507.45c1.57-2.59,3.33-6,3.09-8-.41-3.5-.41-15.5,2.59-20.5a35.19,35.19,0,0,0,4-10" transform="translate(-886.63 -412.19)"/><path class="cls-8" d="M906.71,509.46c-.61.93-1,1.51-1,1.51" transform="translate(-886.63 -412.19)"/><path class="cls-9" d="M912.5,480.78l-.28-.08c-2.82-.91-6.18-4.67-8.43-9.8-2.33-5.3-2.78-10.48-1.38-13.1,2.87.74,6.38,4.58,8.7,9.88S913.9,478.16,912.5,480.78Z" transform="translate(-886.63 -412.19)"/><line class="cls-10" x1="25.8" y1="68.15" x2="16.05" y2="46.06"/><ellipse class="cls-9" cx="930.74" cy="475.42" rx="16.97" ry="4" transform="translate(-966.49 -203.2) rotate(-12.29)"/><ellipse class="cls-9" cx="930.74" cy="475.42" rx="16.97" ry="4" transform="translate(-966.49 -203.2) rotate(-12.29)"/><line class="cls-10" x1="26.84" y1="66.99" x2="60.6" y2="59.74"/><path class="cls-7" d="M924.1,464.44c2.43-.81,6.49,1.62,6.49,1.62s-1.62-4.86,0-5.67l-2.43-3.25-.81-1.62-4.87,1.62.4,1.83,1.22,5.47" transform="translate(-886.63 -412.19)"/><path class="cls-7" d="M911.65,460.18c1.78,1.84,1.35,6.55,1.35,6.55s3.68-3.57,5.12-2.46l1.86-3.6,1.11-1.44-3.57-3.68-1.47,1.16-4.4,3.47" transform="translate(-886.63 -412.19)"/><path class="cls-7" d="M909.16,446.83c-1,2.37-5.48,3.83-5.48,3.83s4.73,2,4.28,3.73l4,.29,1.75.45,2-4.74-1.64-.89-4.93-2.67" transform="translate(-886.63 -412.19)"/><path class="cls-7" d="M919.23,438.37c-2.55.2-5.9-3.14-5.9-3.14s.4,5.12-1.37,5.51l1.58,3.74.39,1.77,5.12-.4,0-1.87.14-5.61" transform="translate(-886.63 -412.19)"/><path class="cls-7" d="M930.84,442.18c-1.68-1.94-1-6.62-1-6.62s-3.87,3.36-5.24,2.18l-2.07,3.49-1.19,1.37,3.37,3.87,1.53-1.07,4.59-3.22" transform="translate(-886.63 -412.19)"/><path class="cls-7" d="M934.16,455c.51-2.51,4.64-4.81,4.64-4.81s-5-1-4.91-2.84l-4,.49-1.81-.11-1,5,1.79.56,5.35,1.68" transform="translate(-886.63 -412.19)"/><path class="cls-4" d="M924.1,458s0,.81,1.62,3.25a4.32,4.32,0,0,1-4.05,6.48c-4.87,0-7.43-1.35-4.87-6.48a17.69,17.69,0,0,1,2.44-4.06" transform="translate(-886.63 -412.19)"/><path class="cls-4" d="M917.54,456.68s-.66.46-1.73,3.18a4.34,4.34,0,0,1-7.65.38c-2.78-4-3.13-6.87,2.55-7.7a18.25,18.25,0,0,1,4.72-.32" transform="translate(-886.63 -412.19)"/><path class="cls-4" d="M913.76,450.53s-.63-.51-3.55-.74a4.33,4.33,0,0,1-2.57-7.21c3-3.81,5.68-5,8.11.21a18,18,0,0,1,1.67,4.43" transform="translate(-886.63 -412.19)"/><path class="cls-4" d="M918.09,445s0-.81-1.66-3.22a4.33,4.33,0,0,1,4-6.54c4.86-.05,7.44,1.27,4.94,6.43a18.21,18.21,0,0,1-2.39,4.09" transform="translate(-886.63 -412.19)"/><path class="cls-4" d="M924.6,445.52s.66-.47,1.68-3.21a4.34,4.34,0,0,1,7.64-.5c2.84,3.95,3.23,6.83-2.43,7.74a18.27,18.27,0,0,1-4.71.4" transform="translate(-886.63 -412.19)"/><path class="cls-4" d="M929.1,451.61s.65.5,3.57.69a4.33,4.33,0,0,1,2.68,7.16c-3,3.87-5.6,5.08-8.11-.08a18,18,0,0,1-1.74-4.4" transform="translate(-886.63 -412.19)"/><circle class="cls-1" cx="34.63" cy="38.87" r="7.7"/><text class="cls-11" transform="translate(10.42 18.12)">OBER</text><path class="cls-12" d="M979.79,479.18A7.78,7.78,0,0,1,983.1,473c3.44-2.39,4.58-6,8-6s5.2,2,4.32,4.59S979.79,479.18,979.79,479.18Z" transform="translate(-886.63 -412.19)"/><path class="cls-13" d="M985.67,471c-5,5-5,6-8,6s-5-3-5-6a12.13,12.13,0,0,0-1-5s-3,1-3,0a10.56,10.56,0,0,1,2-5c1-1,1-9,1-9s0-3,1-4,6,0,6,0,6,3,7,4,2,3,3,4,2,4,3,5a4.94,4.94,0,0,1,1,3,3.1,3.1,0,0,1-1,2C990.67,467,985.67,471,985.67,471Z" transform="translate(-886.63 -412.19)"/><path class="cls-14" d="M971.89,449.8s8.78,3.17,10.78,5.17,2,8,2,8,0,3,2,4,7,4,8,6,5,4,6,3,2-5,2-5v-6s-1,0-1-3,2-5,1-6-14-9-16-9-10-5-13-3S971.89,449.8,971.89,449.8Z" transform="translate(-886.63 -412.19)"/><path class="cls-15" d="M974.67,444s1-3,2-3,13,5,15,6,11,6,11,7v3s-12-5-13-5-14-6-14-6Z" transform="translate(-886.63 -412.19)"/><path class="cls-3" d="M977.07,441.05,987.67,431a5.57,5.57,0,0,1,6-2c2.39.59,4.42.84,5.67,1.57a2.56,2.56,0,0,1,1.33,2.43,35.48,35.48,0,0,1-1,7l3,9v4s-6-1-6-2S977.07,441.05,977.07,441.05Z" transform="translate(-886.63 -412.19)"/><path class="cls-5" d="M999.66,430.75s3-4.78,6-4.78,4,4,3,5a3.67,3.67,0,0,1-3,1C1004.67,432,999.66,430.75,999.66,430.75Z" transform="translate(-886.63 -412.19)"/><rect class="cls-2" x="965.63" y="467.77" width="2.36" height="137.85" transform="translate(-814.42 774.46) rotate(-65.03)"/><path class="cls-3" d="M997.83,559.53a40.61,40.61,0,0,0-11-6c-6-2-11-1-16,2s-7-3-7-3l4-13,.5-.83-23.39-10.89-15.11-.28-10,21s-1,11,0,12,5,7,5,7,2,5,3,7,.5,16.5,1.5,18.5,5.5,4.5,5.5,4.5l5,3,15-7,3-4,18-16a6.85,6.85,0,0,1,8-2c5,2,11,4,11,4a44,44,0,0,1,1-9C996.83,562.53,997.83,559.53,997.83,559.53Z" transform="translate(-886.63 -412.19)"/><path class="cls-4" d="M968.33,539s4,13,2,24-14,28-14,28-3-1-10,1-9,7-9,7a32.3,32.3,0,0,1-5-3s15-11,19-29a247.07,247.07,0,0,0,5-34Z" transform="translate(-886.63 -412.19)"/><path class="cls-5" d="M939.33,592c-8,6-15-2-17-5s-5-10-9-15-10-12-10-12a5,5,0,0,1-1-5c1-3,14-18,14-18s4.65.93,7.32,3.47,4.68,7.53,4.68,7.53a84.92,84.92,0,0,0-3,9c-1,4,7,10,7,10s9,7,10,9,1,10,0,12A18.66,18.66,0,0,1,939.33,592Z" transform="translate(-886.63 -412.19)"/><polygon class="cls-5" points="34.7 119.84 34.7 104.63 48.3 110.96 48.7 116.84 43.7 120.84 37.7 121.84 34.7 119.84"/><path class="cls-6" d="M935.26,539.65a10.66,10.66,0,0,0,5.07-.62c2-1,2-2,2-2h-3c-1,0,2-6,2-6s1-2,0-3a14.39,14.39,0,0,0-3-2s-3-2-5-1-4,4-4,4v1h-1l5,7Z" transform="translate(-886.63 -412.19)"/><path class="cls-7" d="M914.33,538a19.17,19.17,0,0,1,9,3.14,13.22,13.22,0,0,1,5,6.86l7-7s-1-7-4-9-9-5-9-5Z" transform="translate(-886.63 -412.19)"/><path class="cls-4" d="M928.33,543l5-4s0-4-3-6a54.36,54.36,0,0,0-8-4l-4,7a17.36,17.36,0,0,1,6.41,2.25A10.31,10.31,0,0,1,928.33,543Z" transform="translate(-886.63 -412.19)"/><path class="cls-5" d="M1013.33,562c-3-3-15-3-16-2s-4,17-2,18,11,6,14,3,4-10,4-10S1014.33,563,1013.33,562Z" transform="translate(-886.63 -412.19)"/><path class="cls-4" d="M1001.87,559.43s-4.54,7.6-4.54,11.6a82.13,82.13,0,0,0,.5,8.26s5.06,2.39,7.28,2.57c0,0-.78-8.83,1.22-13.83a34.06,34.06,0,0,1,4-7.55S1002.41,558.84,1001.87,559.43Z" transform="translate(-886.63 -412.19)"/><path class="cls-6" d="M1007.33,580c3.16,0,6,8,8,9s8,4,10,2,4-9,3-12-7-7-9-7-7,0-8-1-3-1-3,2S1006.33,580,1007.33,580Z" transform="translate(-886.63 -412.19)"/><path class="cls-8" d="M1026,565.55c-1.57,2.59-3.33,6-3.09,8,.41,3.5.41,15.5-2.59,20.5a35.19,35.19,0,0,0-4,10" transform="translate(-886.63 -412.19)"/><path class="cls-8" d="M1027.29,563.54c.61-.93,1-1.51,1-1.51" transform="translate(-886.63 -412.19)"/><path class="cls-9" d="M1021.5,592.22l.28.08c2.82.91,6.18,4.67,8.43,9.8,2.33,5.3,2.78,10.48,1.38,13.1-2.87-.74-6.38-4.58-8.7-9.88S1020.1,594.84,1021.5,592.22Z" transform="translate(-886.63 -412.19)"/><line class="cls-10" x1="134.94" y1="180.47" x2="144.69" y2="202.56"/><ellipse class="cls-9" cx="1003.26" cy="597.58" rx="16.97" ry="4" transform="translate(-990.83 -184.97) rotate(-12.29)"/><ellipse class="cls-9" cx="1003.26" cy="597.58" rx="16.97" ry="4" transform="translate(-990.83 -184.97) rotate(-12.29)"/><line class="cls-10" x1="133.9" y1="181.63" x2="100.14" y2="188.88"/><path class="cls-7" d="M1009.9,608.56c-2.43.81-6.49-1.62-6.49-1.62s1.62,4.86,0,5.67l2.43,3.25.81,1.62,4.87-1.62-.4-1.83-1.22-5.47" transform="translate(-886.63 -412.19)"/><path class="cls-7" d="M1022.35,612.82c-1.78-1.84-1.35-6.55-1.35-6.55s-3.68,3.57-5.12,2.46l-1.86,3.6-1.11,1.44,3.57,3.68,1.47-1.16,4.4-3.47" transform="translate(-886.63 -412.19)"/><path class="cls-7" d="M1024.84,626.17c1-2.37,5.48-3.83,5.48-3.83s-4.73-2-4.28-3.73l-4-.29-1.75-.45-2,4.74,1.64.89,4.93,2.67" transform="translate(-886.63 -412.19)"/><path class="cls-7" d="M1014.77,634.63c2.55-.2,5.9,3.14,5.9,3.14s-.4-5.12,1.37-5.51l-1.58-3.74-.39-1.77-5.12.4,0,1.87-.14,5.61" transform="translate(-886.63 -412.19)"/><path class="cls-7" d="M1003.16,630.82c1.68,1.94,1,6.62,1,6.62s3.87-3.36,5.24-2.18l2.07-3.49,1.19-1.37-3.37-3.87-1.53,1.07-4.59,3.22" transform="translate(-886.63 -412.19)"/><path class="cls-7" d="M999.84,618c-.51,2.51-4.64,4.81-4.64,4.81s5,1,4.91,2.84l4-.49,1.81.11,1-5-1.79-.56L999.84,618" transform="translate(-886.63 -412.19)"/><path class="cls-4" d="M1009.9,615.05s0-.81-1.62-3.25a4.32,4.32,0,0,1,4.05-6.48c4.87,0,7.43,1.35,4.87,6.48a17.69,17.69,0,0,1-2.44,4.06" transform="translate(-886.63 -412.19)"/><path class="cls-4" d="M1016.46,616.32s.66-.46,1.73-3.18a4.34,4.34,0,0,1,7.65-.38c2.78,4,3.13,6.87-2.55,7.7a18.25,18.25,0,0,1-4.72.32" transform="translate(-886.63 -412.19)"/><path class="cls-4" d="M1020.24,622.47s.63.51,3.55.74a4.33,4.33,0,0,1,2.57,7.21c-3,3.81-5.68,5-8.11-.21a18,18,0,0,1-1.67-4.43" transform="translate(-886.63 -412.19)"/><path class="cls-4" d="M1015.91,628s0,.81,1.66,3.22a4.33,4.33,0,0,1-4,6.54c-4.86,0-7.44-1.27-4.94-6.43a18.21,18.21,0,0,1,2.39-4.09" transform="translate(-886.63 -412.19)"/><path class="cls-4" d="M1009.4,627.48s-.66.47-1.68,3.21a4.34,4.34,0,0,1-7.64.5c-2.84-4-3.23-6.83,2.43-7.74a18.27,18.27,0,0,1,4.71-.4" transform="translate(-886.63 -412.19)"/><path class="cls-4" d="M1004.9,621.39s-.65-.5-3.57-.69a4.33,4.33,0,0,1-2.68-7.16c3-3.87,5.6-5.08,8.11.08a18,18,0,0,1,1.74,4.4" transform="translate(-886.63 -412.19)"/><circle class="cls-1" cx="126.11" cy="209.75" r="7.7"/><text class="cls-11" transform="translate(148.32 228.5) rotate(180)">OBER</text><path class="cls-12" d="M954.21,593.82a7.78,7.78,0,0,1-3.31,6.23c-3.44,2.39-4.58,6-8,6s-5.2-2-4.32-4.59S954.21,593.82,954.21,593.82Z" transform="translate(-886.63 -412.19)"/><path class="cls-13" d="M948.33,602c5-5,5-6,8-6s5,3,5,6a12.13,12.13,0,0,0,1,5s3-1,3,0a10.56,10.56,0,0,1-2,5c-1,1-1,9-1,9s0,3-1,4-6,0-6,0-6-3-7-4-2-3-3-4-2-4-3-5a4.94,4.94,0,0,1-1-3,3.1,3.1,0,0,1,1-2C943.33,606,948.33,602,948.33,602Z" transform="translate(-886.63 -412.19)"/><path class="cls-14" d="M962.11,623.2S953.33,620,951.33,618s-2-8-2-8,0-3-2-4-7-4-8-6-5-4-6-3-2,5-2,5v6s1,0,1,3-2,5-1,6,14,9,16,9,10,5,13,3S962.11,623.2,962.11,623.2Z" transform="translate(-886.63 -412.19)"/><path class="cls-15" d="M959.33,629s-1,3-2,3-13-5-15-6-11-6-11-7v-3s12,5,13,5,14,6,14,6Z" transform="translate(-886.63 -412.19)"/><path class="cls-3" d="M956.93,632,946.33,642a5.57,5.57,0,0,1-6,2c-2.39-.59-4.42-.84-5.67-1.57a2.56,2.56,0,0,1-1.33-2.43,35.48,35.48,0,0,1,1-7l-3-9v-4s6,1,6,2S956.93,632,956.93,632Z" transform="translate(-886.63 -412.19)"/><path class="cls-5" d="M934.34,642.25s-3,4.78-6,4.78-4-4-3-5a3.67,3.67,0,0,1,3-1C929.33,641,934.34,642.25,934.34,642.25Z" transform="translate(-886.63 -412.19)"/></g></svg>