<svg xmlns="http://www.w3.org/2000/svg" viewBox="0 0 158.74 246.62"><defs><style>.cls-1{fill:red;}.cls-2{fill:#e6e6e6;}.cls-3{fill:#d9e021;}.cls-4{fill:#c7002d;}.cls-5{fill:#0071bc;}.cls-12,.cls-6,.cls-9{fill:none;}.cls-10,.cls-12,.cls-14,.cls-6,.cls-9{stroke:#000;stroke-miterlimit:10;}.cls-7{fill:#f2f2f2;}.cls-8{font-size:14px;font-family:MyriadPro-Regular, Myriad Pro;}.cls-10,.cls-12,.cls-9{stroke-width:0.5px;}.cls-10,.cls-14{fill:#fff;}.cls-11{fill:#006837;}.cls-12{stroke-linecap:round;}.cls-13{fill:#1a1a1a;}.cls-14{stroke-width:0.3px;}.cls-15{fill:#333;}</style></defs><title>under</title><g id="Ebene_2" data-name="Ebene 2"><path d="M1024,419.19a13.35,13.35,0,0,1,13.34,13.34V650.47A13.35,13.35,0,0,1,1024,663.81H894a13.35,13.35,0,0,1-13.34-13.34V432.53A13.35,13.35,0,0,1,894,419.19H1024m0-1H894a14.34,14.34,0,0,0-14.34,14.34V650.47A14.34,14.34,0,0,0,894,664.81H1024a14.34,14.34,0,0,0,14.34-14.34V432.53A14.34,14.34,0,0,0,1024,418.19Z" transform="translate(-879.63 -418.19)"/><path class="cls-1" d="M962.14,547" transform="translate(-879.63 -418.19)"/><path class="cls-2" d="M954.63,473.75,955,470s-5,1-6-3h0s-1-1,1-2c0,0,1-1-1-2s-2-4-2-4,6,4,8-1c0,0-4,1-5-1h0l-4-1s-1,0,0-2,3-3,4-5-1-5,2-7,14.22,2,14.22,2h0c-4.22-5-7.22-10-7.22-9s9-7,9-7l6-2h10l1,4a43.31,43.31,0,0,1,1,5c0,1,0,3-1,4s-3,6-3,7-7,10-7,10l-4,5-2,3,3,5-1,5-6,2H953l1.63-2.25" transform="translate(-879.63 -418.19)"/><path class="cls-3" d="M962,458c-1-6,2-12,2-12l6.46-2s6.54,5,6.54,6,3,4,3,4v3l-1,1s-2,2-2,4,0,3-1,4-3,2-8-2S962,458,962,458Z" transform="translate(-879.63 -418.19)"/><path class="cls-4" d="M954,436s5-6,12-8,19-2,19-2,4,11,2,17-3.8,10.41-3.8,10.41L982,454s-29-14-29-15a13.19,13.19,0,0,1,.7-3Z" transform="translate(-879.63 -418.19)"/><path class="cls-5" d="M981,458l-15-10c-6-4-13-5-15-6a4.83,4.83,0,0,1,0-4c1-2,2-2,3-2s5,0,15,6,13,9,14,11,1,3,0,4-1,1-2,1" transform="translate(-879.63 -418.19)"/><path class="cls-5" d="M970,426" transform="translate(-879.63 -418.19)"/><path class="cls-5" d="M985,426a29.54,29.54,0,0,1,6-3c3-1,7,0,8,2s2,6-1,8-5,2-7-1-2-5-4-5Z" transform="translate(-879.63 -418.19)"/><path class="cls-6" d="M947.28,460.72A11.13,11.13,0,0,0,942,466c-2,4-2,5-6,7s-4,2-5,1" transform="translate(-879.63 -418.19)"/><path class="cls-7" d="M929,442a10.57,10.57,0,0,1,12,8c1,4-7,11-7,11l-1.77,1.78S921,455,921,450,929,442,929,442Z" transform="translate(-879.63 -418.19)"/><path class="cls-3" d="M935.5,472.5s3-4,2-7-5-5-5-5-4,5-3,8S935.5,472.5,935.5,472.5Z" transform="translate(-879.63 -418.19)"/><text class="cls-8" transform="translate(8.81 19.12)">UNDER</text><path class="cls-4" d="M910,523a64.16,64.16,0,0,1,5-11c3-5,6-6,10-11s8-12,11-15,11.28-9,11.28-9L941,509l-8,6-2,1a28.77,28.77,0,0,1-4,6,17.27,17.27,0,0,0-3,4l-2,3-8,2-4-3Z" transform="translate(-879.63 -418.19)"/><path class="cls-9" d="M926.5,527.5s2,7,0,10-12,15-13,18-5,9-5,17v6" transform="translate(-879.63 -418.19)"/><path class="cls-10" d="M909,534l-2,6s-1.5,1.5-.5,5.5A55.49,55.49,0,0,0,909,552h2l-2-5,2,5h1l-1.5-5.5S912,553,913,553s1.44-5.81,1-8c-.5-2.5,1,7,2,7s1-8,1-8,1,6,3,6,3-8,2-9-3-6-3-6l-4-2Z" transform="translate(-879.63 -418.19)"/><ellipse class="cls-11" cx="902" cy="566" rx="16.97" ry="4" transform="translate(-1015.66 385.4) rotate(-45)"/><ellipse class="cls-11" cx="902" cy="566" rx="16.97" ry="4" transform="translate(-1015.66 385.4) rotate(-45)"/><ellipse class="cls-11" cx="918.22" cy="567.95" rx="4" ry="12.55" transform="translate(-1030.52 -0.94) rotate(-23.71)"/><path class="cls-11" d="M913.18,556.47l.28.08c2.82.91,6.17,4.67,8.43,9.8,2.32,5.29,2.78,10.47,1.38,13.09-2.87-.74-6.38-4.58-8.71-9.88S911.78,559.08,913.18,556.47Z" transform="translate(-879.63 -418.19)"/><line class="cls-12" x1="33.62" y1="138.72" x2="43.37" y2="160.81"/><line class="cls-12" x1="34.87" y1="135.31" x2="10.38" y2="159.65"/><path class="cls-13" d="M905.57,577.81c-2.43.81-6.48-1.63-6.48-1.63s1.62,4.87,0,5.68l2.43,3.25.81,1.62,4.87-1.62-.41-1.83-1.22-5.47" transform="translate(-879.63 -418.19)"/><path class="cls-13" d="M918,582.06c-1.79-1.84-1.36-6.54-1.36-6.54s-3.68,3.57-5.11,2.46l-1.87,3.6L908.58,583l3.58,3.68,1.46-1.15,4.41-3.48" transform="translate(-879.63 -418.19)"/><path class="cls-13" d="M920.52,595.42c1-2.37,5.48-3.84,5.48-3.84s-4.74-2-4.29-3.72l-4-.29-1.76-.45-2,4.74,1.64.89,4.93,2.67" transform="translate(-879.63 -418.19)"/><path class="cls-13" d="M910.44,603.87c2.56-.2,5.91,3.14,5.91,3.14s-.4-5.11,1.37-5.5l-1.58-3.74-.4-1.77-5.11.4,0,1.87-.14,5.6" transform="translate(-879.63 -418.19)"/><path class="cls-13" d="M898.84,600.07c1.68,1.94,1,6.62,1,6.62s3.88-3.37,5.25-2.18l2.06-3.49,1.19-1.37L905,595.78l-1.53,1.07-4.59,3.22" transform="translate(-879.63 -418.19)"/><path class="cls-13" d="M895.52,587.26c-.51,2.51-4.65,4.8-4.65,4.8s5,1,4.92,2.84l4-.48,1.81.11,1-5-1.78-.56-5.35-1.68" transform="translate(-879.63 -418.19)"/><path class="cls-3" d="M905.57,584.29s0-.81-1.62-3.24a4.33,4.33,0,0,1,4.06-6.49c4.86,0,7.43,1.36,4.86,6.49a18.42,18.42,0,0,1-2.43,4.06" transform="translate(-879.63 -418.19)"/><path class="cls-3" d="M912.13,585.57s.67-.46,1.74-3.18a4.32,4.32,0,0,1,7.64-.38c2.78,4,3.13,6.87-2.54,7.7a18.25,18.25,0,0,1-4.72.32" transform="translate(-879.63 -418.19)"/><path class="cls-3" d="M915.91,591.72s.64.5,3.55.74a4.33,4.33,0,0,1,2.57,7.21c-3,3.81-5.67,5-8.1-.21a18,18,0,0,1-1.67-4.43" transform="translate(-879.63 -418.19)"/><path class="cls-3" d="M911.59,597.24s0,.81,1.66,3.22a4.33,4.33,0,0,1-4,6.54c-4.87,0-7.45-1.28-4.94-6.44a18.06,18.06,0,0,1,2.38-4.08" transform="translate(-879.63 -418.19)"/><path class="cls-3" d="M905.08,596.72s-.66.48-1.69,3.21a4.32,4.32,0,0,1-7.63.5c-2.84-3.95-3.24-6.82,2.42-7.74a17.78,17.78,0,0,1,4.71-.39" transform="translate(-879.63 -418.19)"/><path class="cls-3" d="M900.57,590.63s-.64-.49-3.56-.68a4.33,4.33,0,0,1-2.68-7.17c2.95-3.86,5.59-5.07,8.1.08a18.21,18.21,0,0,1,1.74,4.4" transform="translate(-879.63 -418.19)"/><circle class="cls-1" cx="28.78" cy="173" r="7.7"/><polygon class="cls-14" points="50.15 190.71 48.35 189.84 113.59 57.91 115.39 58.78 50.15 190.71"/><path class="cls-5" d="M939,515s-1-18,1-28,12-12,12-12l7,2s9-6,16-6,17.58,6.39,17.58,6.39l-22.25,45L942,518Z" transform="translate(-879.63 -418.19)"/><path class="cls-4" d="M943,516a106.86,106.86,0,0,0,1-13c0-7,1-11,1-13s1-2,1-6a37.67,37.67,0,0,1,.49-6.52L954,473s-2,1,5,1,13-5,13-5l4,2s-5,4-5,7v12c0,3-2,5-2,8s-3,1-4,3-5,13-5,16Z" transform="translate(-879.63 -418.19)"/><path class="cls-4" d="M930.46,603S930,583,932,580c1.81-2.72.34-11.16-2.92-12.74A2.39,2.39,0,0,0,928,567s3-31,11-39,32-7,32-7l-40.68,82.3Z" transform="translate(-879.63 -418.19)"/><path class="cls-3" d="M945,516s0-23,2-26,2-11,2-11-1,2,9,2,11-1,11-1,1,8,0,10a40.76,40.76,0,0,0-2,7s-3,0-5,5-5.12,14.82-5.12,14.82l15.89.63-3,6L960,527l2.09,12-14.7,29.73S946,552,948,546s3-17,4-19-13,0-13,0,3-3,3-6-3-6-3-6" transform="translate(-879.63 -418.19)"/><path class="cls-15" d="M931,581l10,1,7.11-14.7S946,571,938,570s-9-3-9-3S928,579,931,581Z" transform="translate(-879.63 -418.19)"/><path class="cls-3" d="M910,523s1,2,6,3a16.94,16.94,0,0,0,8,0s-1,6-2,7a20.8,20.8,0,0,1-2.92,2.2L909,534s-2-4-1-7A11,11,0,0,1,910,523Z" transform="translate(-879.63 -418.19)"/><path class="cls-2" d="M968.37,611.53l-.37,3.75s5-1,6,3h0s1,1-1,2c0,0-1,1,1,2s2,4,2,4-6-4-8,1c0,0,4-1,5,1h0l4,1s1,0,0,2-3,3-4,5,1,5-2,7-14.22-2-14.22-2h0c4.22,5,7.22,10,7.22,9s-9,7-9,7l-6,2H939l-1-4a43.31,43.31,0,0,1-1-5c0-1,0-3,1-4s3-6,3-7,7-10,7-10l4-5,2-3-3-5,1-5,6-2h12l-1.63,2.25" transform="translate(-879.63 -418.19)"/><path class="cls-3" d="M961,627.28c1,6-2,12-2,12l-6.46,2s-6.54-5-6.54-6-3-4-3-4v-3l1-1s2-2,2-4,0-3,1-4,3-2,8,2S961,627.28,961,627.28Z" transform="translate(-879.63 -418.19)"/><path class="cls-4" d="M969,649.28s-5,6-12,8-19,2-19,2-4-11-2-17,3.81-10.41,3.81-10.41l1.19-.59s29,14,29,15a13.19,13.19,0,0,1-.7,3Z" transform="translate(-879.63 -418.19)"/><path class="cls-5" d="M942,627.28l15,10c6,4,13,5,15,6a4.83,4.83,0,0,1,0,4c-1,2-2,2-3,2s-5,0-15-6-13-9-14-11-1-3,0-4,1-1,2-1" transform="translate(-879.63 -418.19)"/><path class="cls-5" d="M953,659.28" transform="translate(-879.63 -418.19)"/><path class="cls-5" d="M938,659.28a29.54,29.54,0,0,1-6,3c-3,1-7,0-8-2s-2-6,1-8,5-2,7,1,2,5,4,5Z" transform="translate(-879.63 -418.19)"/><path class="cls-6" d="M975.72,624.56a11.13,11.13,0,0,0,5.28-5.28c2-4,2-5,6-7s4-2,5-1" transform="translate(-879.63 -418.19)"/><path class="cls-7" d="M994,643.28a10.57,10.57,0,0,1-12-8c-1-4,7-11,7-11l1.78-1.78s11.22,7.78,11.22,12.78S994,643.28,994,643.28Z" transform="translate(-879.63 -418.19)"/><path class="cls-3" d="M987.5,612.78s-3,4-2,7,5,5,5,5,4-5,3-8S987.5,612.78,987.5,612.78Z" transform="translate(-879.63 -418.19)"/><text class="cls-8" transform="translate(152.94 227.77) rotate(180)">UNDER</text><path class="cls-4" d="M1013,562.28a64.16,64.16,0,0,1-5,11c-3,5-6,6-10,11s-8,12-11,15-11.28,9-11.28,9l6.28-32,8-6,2-1a28.77,28.77,0,0,1,4-6,17.27,17.27,0,0,0,3-4l2-3,8-2,4,3Z" transform="translate(-879.63 -418.19)"/><path class="cls-9" d="M996.5,557.78s-2-7,0-10,12-15,13-18,5-9,5-17v-6" transform="translate(-879.63 -418.19)"/><path class="cls-10" d="M1014,551.28l2-6s1.5-1.5.5-5.5a55.49,55.49,0,0,0-2.5-6.5h-2l2,5-2-5h-1l1.5,5.5s-1.5-6.5-2.5-6.5-1.44,5.81-1,8c.5,2.5-1-7-2-7s-1,8-1,8-1-6-3-6-3,8-2,9,3,6,3,6l4,2Z" transform="translate(-879.63 -418.19)"/><ellipse class="cls-11" cx="1021" cy="519.28" rx="16.97" ry="4" transform="translate(-947.77 455.86) rotate(-45)"/><ellipse class="cls-11" cx="1021" cy="519.28" rx="16.97" ry="4" transform="translate(-947.77 455.86) rotate(-45)"/><ellipse class="cls-11" cx="1004.78" cy="517.32" rx="4" ry="12.55" transform="translate(-1002.84 29.59) rotate(-23.71)"/><path class="cls-11" d="M1009.83,528.81l-.28-.08c-2.82-.91-6.18-4.67-8.43-9.8-2.33-5.3-2.79-10.48-1.39-13.09,2.88.74,6.38,4.58,8.71,9.87S1011.23,526.19,1009.83,528.81Z" transform="translate(-879.63 -418.19)"/><line class="cls-12" x1="130.12" y1="110.18" x2="120.37" y2="88.09"/><line class="cls-12" x1="128.87" y1="113.59" x2="153.36" y2="89.24"/><path class="cls-13" d="M1017.43,507.47c2.43-.81,6.49,1.62,6.49,1.62s-1.62-4.86,0-5.67l-2.44-3.25-.81-1.62-4.86,1.62.4,1.83,1.22,5.47" transform="translate(-879.63 -418.19)"/><path class="cls-13" d="M1005,503.21c1.79,1.84,1.36,6.55,1.36,6.55s3.68-3.57,5.11-2.46l1.87-3.6,1.11-1.43-3.57-3.69-1.47,1.16-4.41,3.47" transform="translate(-879.63 -418.19)"/><path class="cls-13" d="M1002.48,489.86c-1,2.37-5.48,3.83-5.48,3.83s4.74,2,4.29,3.73l4,.29,1.76.45,2-4.74-1.65-.89-4.93-2.67" transform="translate(-879.63 -418.19)"/><path class="cls-13" d="M1012.56,481.4c-2.56.2-5.9-3.14-5.9-3.14s.4,5.12-1.37,5.51l1.57,3.74.4,1.77,5.11-.4,0-1.87.14-5.61" transform="translate(-879.63 -418.19)"/><path class="cls-13" d="M1024.17,485.21c-1.69-1.94-1-6.62-1-6.62s-3.88,3.36-5.25,2.18l-2.06,3.49-1.19,1.37,3.36,3.87,1.53-1.07,4.6-3.22" transform="translate(-879.63 -418.19)"/><path class="cls-13" d="M1027.48,498c.52-2.51,4.65-4.81,4.65-4.81s-5-1-4.91-2.83l-4,.48-1.81-.11-1,5,1.78.56,5.35,1.68" transform="translate(-879.63 -418.19)"/><path class="cls-3" d="M1017.43,501s0,.81,1.62,3.25a4.33,4.33,0,0,1-4,6.49c-4.87,0-7.43-1.36-4.87-6.49a18,18,0,0,1,2.43-4.06" transform="translate(-879.63 -418.19)"/><path class="cls-3" d="M1010.87,499.71s-.67.46-1.74,3.18a4.33,4.33,0,0,1-7.64.38c-2.78-4-3.13-6.87,2.54-7.7a18.25,18.25,0,0,1,4.72-.32" transform="translate(-879.63 -418.19)"/><path class="cls-3" d="M1007.09,493.56s-.64-.5-3.55-.74a4.33,4.33,0,0,1-2.57-7.21c3-3.81,5.67-5,8.11.21a18.6,18.6,0,0,1,1.67,4.43" transform="translate(-879.63 -418.19)"/><path class="cls-3" d="M1011.41,488s0-.81-1.66-3.22a4.33,4.33,0,0,1,4-6.54c4.87,0,7.45,1.28,4.94,6.43a18,18,0,0,1-2.38,4.09" transform="translate(-879.63 -418.19)"/><path class="cls-3" d="M1017.92,488.56s.66-.48,1.69-3.22a4.32,4.32,0,0,1,7.63-.49c2.85,3.95,3.24,6.82-2.42,7.74a18.42,18.42,0,0,1-4.71.39" transform="translate(-879.63 -418.19)"/><path class="cls-3" d="M1022.43,494.65s.65.49,3.56.68a4.33,4.33,0,0,1,2.69,7.17c-3,3.86-5.6,5.07-8.11-.09a18.09,18.09,0,0,1-1.74-4.39" transform="translate(-879.63 -418.19)"/><circle class="cls-1" cx="134.96" cy="75.9" r="7.7"/><polygon class="cls-14" points="113.59 58.19 115.39 59.06 50.15 190.99 48.35 190.12 113.59 58.19"/><path class="cls-5" d="M984,570.28s1,18-1,28-12,12-12,12l-7-2s-9,6-16,6-17.58-6.39-17.58-6.39l22.25-45L981,567.28Z" transform="translate(-879.63 -418.19)"/><path class="cls-4" d="M980,569.28a106.86,106.86,0,0,0-1,13c0,7-1,11-1,13s-1,2-1,6a37.47,37.47,0,0,1-.49,6.51L969,612.28s2-1-5-1-13,5-13,5l-4-2s5-4,5-7v-12c0-3,2-5,2-8s3-1,4-3,5-13,5-16Z" transform="translate(-879.63 -418.19)"/><path class="cls-4" d="M992.55,482.26s.45,20-1.55,23c-1.81,2.71-.34,11.16,2.92,12.74a2.39,2.39,0,0,0,1.08.26s-3,31-11,39-32,7-32,7L992.69,482Z" transform="translate(-879.63 -418.19)"/><path class="cls-3" d="M978,569.28s0,23-2,26-2,11-2,11,1-2-9-2-11,1-11,1-1-8,0-10a40.76,40.76,0,0,0,2-7s3,0,5-5,5.12-14.82,5.12-14.82l-15.89-.63,3-6,9.79-3.52-2.09-12,14.7-29.73s1.39,16.78-.61,22.78-3,17-4,19,13,0,13,0-3,3-3,6,3,6,3,6" transform="translate(-879.63 -418.19)"/><path class="cls-15" d="M992,504.28l-10-1L974.89,518s2.11-3.69,10.11-2.69,9,3,9,3S995,506.28,992,504.28Z" transform="translate(-879.63 -418.19)"/><path class="cls-3" d="M1013,562.28s-1-2-6-3a16.94,16.94,0,0,0-8,0s1-6,2-7a21.2,21.2,0,0,1,2.92-2.21l10.08,1.21s2,4,1,7A11,11,0,0,1,1013,562.28Z" transform="translate(-879.63 -418.19)"/></g></svg>