<svg xmlns="http://www.w3.org/2000/svg" viewBox="0 0 158.74 246.62"><defs><style>.cls-1{fill:#e0c710;}.cls-2{fill:#c1272d;}.cls-3{fill:none;stroke:#000;stroke-miterlimit:10;stroke-width:2px;}.cls-4{fill:red;}</style></defs><title>6</title><g id="Ebene_2" data-name="Ebene 2"><path class="cls-1" d="M760.64,385l-.53-.72a23,23,0,0,1-.23-26.28,21.16,21.16,0,0,1,1.72-2.21h0c.39-.44.8-.88,1.23-1.29a22,22,0,0,1,2-1.77,24.81,24.81,0,0,1,2.22-1.51c.52-.31,1-.59,1.57-.86h0a24,24,0,0,1,2.58-1.09,23,23,0,0,1,25.33,7c.19.23.38.46.56.7A23,23,0,0,1,796,386.42l-.05.05c-.15.17-.31.34-.47.5l-.46.47-.77.71c-.42.37-.85.73-1.29,1.07A23,23,0,0,1,760.64,385Z" transform="translate(-739.63 -323.19)"/><path class="cls-2" d="M760.42,384.67a23.37,23.37,0,0,1-2.57-4.69A97,97,0,0,0,793,353a23.21,23.21,0,0,1,3.87,3.69,96.39,96.39,0,0,1-36.49,28Z" transform="translate(-739.63 -323.19)"/><path class="cls-3" d="M794.88,354.68c-6.41,10.55-26.24,24.59-36,27.62" transform="translate(-739.63 -323.19)"/><path class="cls-2" d="M761,356.43c-2.28-3-2.24-6.84.09-8.63s6.07-.83,8.36,2.14h0c-.62.33-1.24.68-1.84,1.06-1.87-1.63-3.92-2.24-5.08-1.35s-1.1,3,0,5.26c-.52.48-1,1-1.5,1.5Z" transform="translate(-739.63 -323.19)"/><path d="M785.49,380.67a2.68,2.68,0,0,1,.28-.3,3.64,3.64,0,0,1,1.18-.72h0a6.23,6.23,0,0,1,1.11-.22h0a6.69,6.69,0,0,1,7.37,7.55l-.46.47-.77.71a6.17,6.17,0,0,0-3.25-7.53l-.47-.19a6.35,6.35,0,0,0-4.2-.09A5.16,5.16,0,0,0,785.49,380.67Z" transform="translate(-739.63 -323.19)"/><path d="M784.77,384.19a3.64,3.64,0,0,1,.41-3.11,2.45,2.45,0,0,1,.31-.41,2.68,2.68,0,0,1,.28-.3,3.64,3.64,0,0,1,1.18-.72h0l.15-.05.11,0a3.59,3.59,0,0,1,.85-.14h0a3.59,3.59,0,0,1,2.26.65,3.66,3.66,0,0,1,.63.55,3.65,3.65,0,1,1-6.19,3.57Z" transform="translate(-739.63 -323.19)"/><path class="cls-1" d="M876.15,386c.19-.24.36-.48.54-.72a23.32,23.32,0,0,0,2.56-4.69A23.06,23.06,0,0,0,876.91,359a21.16,21.16,0,0,0-1.72-2.21h0c-.39-.44-.8-.88-1.24-1.29a23.18,23.18,0,0,0-2-1.77,26.48,26.48,0,0,0-2.23-1.51c-.52-.31-1-.59-1.57-.86h0a23,23,0,0,0-24,2.22,23.62,23.62,0,0,0-3.87,3.69c-.19.23-.38.46-.56.7a23,23,0,0,0,1.2,29.48l0,.05c.15.17.31.34.47.5s.31.32.47.47.5.48.76.71c.42.37.85.73,1.3,1.07A23,23,0,0,0,876.15,386Z" transform="translate(-739.63 -323.19)"/><path class="cls-2" d="M876.37,385.67a22.88,22.88,0,0,0,2.57-4.69,97,97,0,0,1-35.19-27,22.77,22.77,0,0,0-3.86,3.69,96.25,96.25,0,0,0,36.48,28Z" transform="translate(-739.63 -323.19)"/><path class="cls-3" d="M841.92,355.68c6.4,10.55,26.23,24.59,36,27.62" transform="translate(-739.63 -323.19)"/><path class="cls-2" d="M875.77,357.43c2.28-3,2.24-6.84-.09-8.63s-6.07-.83-8.36,2.14h0c.63.33,1.24.68,1.84,1.06,1.87-1.63,3.92-2.24,5.08-1.35s1.1,3,0,5.26c.52.48,1,1,1.5,1.5Z" transform="translate(-739.63 -323.19)"/><path d="M851.3,381.67a2,2,0,0,0-.28-.3,3.59,3.59,0,0,0-1.17-.72h0a6.16,6.16,0,0,0-1.12-.22h0a6.67,6.67,0,0,0-7.1,4.57,6.77,6.77,0,0,0-.27,3c.16.16.31.32.47.47s.5.48.76.71a6.17,6.17,0,0,1,3.25-7.53l.47-.19a6.35,6.35,0,0,1,4.2-.09A5.16,5.16,0,0,1,851.3,381.67Z" transform="translate(-739.63 -323.19)"/><path d="M852,385.19a3.64,3.64,0,0,0-.4-3.11,3.22,3.22,0,0,0-.32-.41,2,2,0,0,0-.28-.3,3.59,3.59,0,0,0-1.17-.72h0l-.16-.05-.11,0a3.51,3.51,0,0,0-.85-.14h0a3.56,3.56,0,0,0-2.25.65,3.72,3.72,0,0,0-.64.55,3.93,3.93,0,0,0-.75,1.31,3.65,3.65,0,1,0,6.94,2.26Z" transform="translate(-739.63 -323.19)"/><path class="cls-1" d="M760.64,432.9l-.53.72a23,23,0,0,0-.23,26.28,21.16,21.16,0,0,0,1.72,2.21h0c.39.44.8.88,1.23,1.29a22,22,0,0,0,2,1.77,24.81,24.81,0,0,0,2.22,1.51c.52.31,1,.59,1.57.86h0a22.12,22.12,0,0,0,2.58,1.09,23.06,23.06,0,0,0,21.46-3.31,22.46,22.46,0,0,0,3.87-3.69c.19-.23.38-.46.56-.7A23,23,0,0,0,796,431.46l-.05,0c-.15-.17-.31-.34-.47-.5l-.46-.47-.77-.71c-.42-.37-.85-.72-1.29-1.07A23,23,0,0,0,760.64,432.9Z" transform="translate(-739.63 -323.19)"/><path class="cls-2" d="M760.42,433.21a23.37,23.37,0,0,0-2.57,4.69,97,97,0,0,1,35.19,27,23.21,23.21,0,0,0,3.87-3.69,96.39,96.39,0,0,0-36.49-28Z" transform="translate(-739.63 -323.19)"/><path class="cls-3" d="M794.88,463.2c-6.41-10.55-26.24-24.59-36-27.62" transform="translate(-739.63 -323.19)"/><path class="cls-2" d="M761,461.45c-2.28,3-2.24,6.84.09,8.63s6.07.83,8.36-2.14h0c-.62-.33-1.24-.68-1.84-1.06-1.87,1.63-3.92,2.24-5.08,1.35s-1.1-3,0-5.26c-.52-.48-1-1-1.5-1.5Z" transform="translate(-739.63 -323.19)"/><path d="M785.49,437.21a2.68,2.68,0,0,0,.28.3,3.64,3.64,0,0,0,1.18.72h0a6.23,6.23,0,0,0,1.11.22h0a6.69,6.69,0,0,0,7.37-7.55l-.46-.47-.77-.71a6.17,6.17,0,0,1-3.25,7.53l-.47.19a6.35,6.35,0,0,1-4.2.09A5.16,5.16,0,0,1,785.49,437.21Z" transform="translate(-739.63 -323.19)"/><path d="M784.77,433.69a3.64,3.64,0,0,0,.41,3.11,2.45,2.45,0,0,0,.31.41,2.68,2.68,0,0,0,.28.3,3.64,3.64,0,0,0,1.18.72h0l.15.05.11,0a3.59,3.59,0,0,0,.85.14h0a3.59,3.59,0,0,0,2.26-.65,3.66,3.66,0,0,0,.63-.55,3.65,3.65,0,1,0-6.19-3.57Z" transform="translate(-739.63 -323.19)"/><path class="cls-1" d="M876.15,431.9c.19.24.36.48.54.72a23.32,23.32,0,0,1,2.56,4.69,23.06,23.06,0,0,1-2.34,21.59,21.16,21.16,0,0,1-1.72,2.21h0c-.39.44-.8.88-1.24,1.29a23.18,23.18,0,0,1-2,1.77,26.48,26.48,0,0,1-2.23,1.51c-.52.31-1,.59-1.57.86h0a21.42,21.42,0,0,1-2.58,1.09,23,23,0,0,1-25.33-7c-.19-.23-.38-.46-.56-.7a23,23,0,0,1,1.2-29.48l0,0c.15-.17.31-.34.47-.5s.31-.32.47-.47.5-.48.76-.71c.42-.37.85-.72,1.3-1.07A23,23,0,0,1,876.15,431.9Z" transform="translate(-739.63 -323.19)"/><path class="cls-2" d="M876.37,432.21a22.88,22.88,0,0,1,2.57,4.69,97,97,0,0,0-35.19,27,22.77,22.77,0,0,1-3.86-3.69,96.25,96.25,0,0,1,36.48-28Z" transform="translate(-739.63 -323.19)"/><path class="cls-3" d="M841.92,462.2c6.4-10.55,26.23-24.59,36-27.62" transform="translate(-739.63 -323.19)"/><path class="cls-2" d="M875.77,460.45c2.28,3,2.24,6.84-.09,8.63s-6.07.83-8.36-2.14h0c.63-.33,1.24-.68,1.84-1.06,1.87,1.63,3.92,2.24,5.08,1.35s1.1-3,0-5.26c.52-.48,1-1,1.5-1.5Z" transform="translate(-739.63 -323.19)"/><path d="M851.3,436.21a2,2,0,0,1-.28.3,3.59,3.59,0,0,1-1.17.72h0a6.16,6.16,0,0,1-1.12.22h0a6.67,6.67,0,0,1-7.1-4.57,6.77,6.77,0,0,1-.27-3c.16-.16.31-.32.47-.47s.5-.48.76-.71a6.17,6.17,0,0,0,3.25,7.53l.47.19a6.35,6.35,0,0,0,4.2.09A5.16,5.16,0,0,0,851.3,436.21Z" transform="translate(-739.63 -323.19)"/><path d="M852,432.69a3.63,3.63,0,0,1-.4,3.11,3.22,3.22,0,0,1-.32.41,2,2,0,0,1-.28.3,3.59,3.59,0,0,1-1.17.72h0l-.16.05-.11,0a3.51,3.51,0,0,1-.85.14h0a3.56,3.56,0,0,1-2.25-.65,3.72,3.72,0,0,1-.64-.55,3.93,3.93,0,0,1-.75-1.31,3.65,3.65,0,1,1,6.94-2.26Z" transform="translate(-739.63 -323.19)"/><path class="cls-1" d="M760.64,503.9l-.53.72a23,23,0,0,0-.23,26.28,21.16,21.16,0,0,0,1.72,2.21h0c.39.44.8.88,1.23,1.29a22,22,0,0,0,2,1.77,24.81,24.81,0,0,0,2.22,1.51c.52.31,1,.59,1.57.86h0a22.12,22.12,0,0,0,2.58,1.09,23.06,23.06,0,0,0,21.46-3.31,22.46,22.46,0,0,0,3.87-3.69c.19-.23.38-.46.56-.7A23,23,0,0,0,796,502.46l-.05,0c-.15-.17-.31-.34-.47-.5l-.46-.47-.77-.71c-.42-.37-.85-.72-1.29-1.07A23,23,0,0,0,760.64,503.9Z" transform="translate(-739.63 -323.19)"/><path class="cls-2" d="M760.42,504.21a23.37,23.37,0,0,0-2.57,4.69,97,97,0,0,1,35.19,27,23.21,23.21,0,0,0,3.87-3.69,96.39,96.39,0,0,0-36.49-28Z" transform="translate(-739.63 -323.19)"/><path class="cls-3" d="M794.88,534.2c-6.41-10.55-26.24-24.59-36-27.62" transform="translate(-739.63 -323.19)"/><path class="cls-2" d="M761,532.45c-2.28,3-2.24,6.84.09,8.63s6.07.83,8.36-2.14h0c-.62-.33-1.24-.68-1.84-1.06-1.87,1.63-3.92,2.24-5.08,1.35s-1.1-3,0-5.26c-.52-.48-1-1-1.5-1.5Z" transform="translate(-739.63 -323.19)"/><path d="M785.49,508.21a2.68,2.68,0,0,0,.28.3,3.64,3.64,0,0,0,1.18.72h0a6.23,6.23,0,0,0,1.11.22h0a6.69,6.69,0,0,0,7.37-7.55l-.46-.47-.77-.71a6.17,6.17,0,0,1-3.25,7.53l-.47.19a6.35,6.35,0,0,1-4.2.09A5.16,5.16,0,0,1,785.49,508.21Z" transform="translate(-739.63 -323.19)"/><path d="M784.77,504.69a3.64,3.64,0,0,0,.41,3.11,2.45,2.45,0,0,0,.31.41,2.68,2.68,0,0,0,.28.3,3.64,3.64,0,0,0,1.18.72h0l.15.05.11,0a3.59,3.59,0,0,0,.85.14h0a3.59,3.59,0,0,0,2.26-.65,3.66,3.66,0,0,0,.63-.55,3.65,3.65,0,1,0-6.19-3.57Z" transform="translate(-739.63 -323.19)"/><path class="cls-1" d="M876.15,502.9c.19.24.36.48.54.72a23.32,23.32,0,0,1,2.56,4.69,23.06,23.06,0,0,1-2.34,21.59,21.16,21.16,0,0,1-1.72,2.21h0c-.39.44-.8.88-1.24,1.29a23.18,23.18,0,0,1-2,1.77,26.48,26.48,0,0,1-2.23,1.51c-.52.31-1,.59-1.57.86h0a21.42,21.42,0,0,1-2.58,1.09,23,23,0,0,1-25.33-7c-.19-.23-.38-.46-.56-.7a23,23,0,0,1,1.2-29.48l0,0c.15-.17.31-.34.47-.5s.31-.32.47-.47.5-.48.76-.71c.42-.37.85-.72,1.3-1.07A23,23,0,0,1,876.15,502.9Z" transform="translate(-739.63 -323.19)"/><path class="cls-2" d="M876.37,503.21a22.88,22.88,0,0,1,2.57,4.69,97,97,0,0,0-35.19,27,22.77,22.77,0,0,1-3.86-3.69,96.25,96.25,0,0,1,36.48-28Z" transform="translate(-739.63 -323.19)"/><path class="cls-3" d="M841.92,533.2c6.4-10.55,26.23-24.59,36-27.62" transform="translate(-739.63 -323.19)"/><path class="cls-2" d="M875.77,531.45c2.28,3,2.24,6.84-.09,8.63s-6.07.83-8.36-2.14h0c.63-.33,1.24-.68,1.84-1.06,1.87,1.63,3.92,2.24,5.08,1.35s1.1-3,0-5.26c.52-.48,1-1,1.5-1.5Z" transform="translate(-739.63 -323.19)"/><path d="M851.3,507.21a2,2,0,0,1-.28.3,3.59,3.59,0,0,1-1.17.72h0a6.16,6.16,0,0,1-1.12.22h0a6.67,6.67,0,0,1-7.1-4.57,6.77,6.77,0,0,1-.27-3c.16-.16.31-.32.47-.47s.5-.48.76-.71a6.17,6.17,0,0,0,3.25,7.53l.47.19a6.35,6.35,0,0,0,4.2.09A5.16,5.16,0,0,0,851.3,507.21Z" transform="translate(-739.63 -323.19)"/><path d="M852,503.69a3.63,3.63,0,0,1-.4,3.11,3.22,3.22,0,0,1-.32.41,2,2,0,0,1-.28.3,3.59,3.59,0,0,1-1.17.72h0l-.16.05-.11,0a3.51,3.51,0,0,1-.85.14h0a3.56,3.56,0,0,1-2.25-.65,3.72,3.72,0,0,1-.64-.55,3.93,3.93,0,0,1-.75-1.31,3.65,3.65,0,1,1,6.94-2.26Z" transform="translate(-739.63 -323.19)"/><path d="M752.18,552.79a3.38,3.38,0,0,1-1.54.41,4.27,4.27,0,0,1-4.3-4.44,5.07,5.07,0,0,1,4.95-5.3c2.83,0,5,2.32,5,6a9.82,9.82,0,0,1-6.65,9,21.22,21.22,0,0,1-2.71.62l-.14-.79a14.36,14.36,0,0,0,2.61-.82,7.6,7.6,0,0,0,4.4-5.54Zm-.58-1a4.8,4.8,0,0,0,2.33-.67,7.79,7.79,0,0,0,.14-1.63c0-3-1.12-5.21-3.17-5.21-1.87,0-2.44,2-2.44,3.58C748.46,549.89,749.42,551.83,751.6,551.83Z" transform="translate(-739.63 -323.19)"/><path d="M884,324.19a13.35,13.35,0,0,1,13.34,13.34V555.47A13.35,13.35,0,0,1,884,568.81H754a13.35,13.35,0,0,1-13.34-13.34V337.53A13.35,13.35,0,0,1,754,324.19H884m0-1H754a14.34,14.34,0,0,0-14.34,14.34V555.47A14.34,14.34,0,0,0,754,569.81H884a14.34,14.34,0,0,0,14.34-14.34V337.53A14.34,14.34,0,0,0,884,323.19Z" transform="translate(-739.63 -323.19)"/><path d="M749.49,337.89a3.5,3.5,0,0,1,1.54-.4,4.26,4.26,0,0,1,4.29,4.44,5.06,5.06,0,0,1-4.94,5.3c-2.83,0-5-2.33-5-6a9.82,9.82,0,0,1,6.65-9.05,20.44,20.44,0,0,1,2.71-.62l.14.79a14.36,14.36,0,0,0-2.61.82,7.6,7.6,0,0,0-4.4,5.54Zm.58,1a4.69,4.69,0,0,0-2.33.68,7.79,7.79,0,0,0-.14,1.63c0,3,1.12,5.21,3.16,5.21,1.88,0,2.45-2,2.45-3.58C753.21,340.8,752.25,338.85,750.07,338.85Z" transform="translate(-739.63 -323.19)"/><path d="M886.32,337.89a3.5,3.5,0,0,1,1.54-.4,4.27,4.27,0,0,1,4.3,4.44,5.07,5.07,0,0,1-4.95,5.3c-2.83,0-5-2.33-5-6a9.82,9.82,0,0,1,6.65-9.05,21.22,21.22,0,0,1,2.71-.62l.14.79a14.36,14.36,0,0,0-2.61.82,7.6,7.6,0,0,0-4.4,5.54Zm.58,1a4.69,4.69,0,0,0-2.33.68,7.79,7.79,0,0,0-.14,1.63c0,3,1.12,5.21,3.17,5.21,1.87,0,2.44-2,2.44-3.58C890,340.8,889.08,338.85,886.9,338.85Z" transform="translate(-739.63 -323.19)"/><path d="M889,552.79a3.38,3.38,0,0,1-1.54.41,4.26,4.26,0,0,1-4.29-4.44,5.06,5.06,0,0,1,4.94-5.3c2.83,0,5,2.32,5,6a9.82,9.82,0,0,1-6.65,9,20.44,20.44,0,0,1-2.71.62l-.14-.79a14.11,14.11,0,0,0,2.61-.82,7.6,7.6,0,0,0,4.4-5.54Zm-.58-1a4.8,4.8,0,0,0,2.33-.67,7.79,7.79,0,0,0,.14-1.63c0-3-1.12-5.21-3.16-5.21-1.88,0-2.45,2-2.45,3.58C885.29,549.89,886.25,551.83,888.43,551.83Z" transform="translate(-739.63 -323.19)"/><path class="cls-4" d="M821,455" transform="translate(-739.63 -323.19)"/></g></svg>