<svg id="Ebene_1" data-name="Ebene 1" xmlns="http://www.w3.org/2000/svg" viewBox="0 0 158.74 246.62"><defs><style>.cls-1{fill:#e0c710;}.cls-2{fill:#c1272d;}.cls-3{fill:none;stroke:#000;stroke-miterlimit:10;stroke-width:2px;}.cls-4{fill:red;}</style></defs><title>8</title><path class="cls-1" d="M900.64,472l-.53-.72a23,23,0,0,1-.23-26.28,21.16,21.16,0,0,1,1.72-2.21h0c.39-.44.8-.88,1.23-1.29a22,22,0,0,1,2-1.77,24.81,24.81,0,0,1,2.22-1.51c.52-.31,1-.59,1.57-.86h0a24,24,0,0,1,2.58-1.09,23,23,0,0,1,25.33,7c.19.23.38.46.56.7A23,23,0,0,1,936,473.42l-.05.05c-.15.17-.31.34-.47.5l-.46.47-.77.71c-.42.37-.85.73-1.29,1.07A23,23,0,0,1,900.64,472Z" transform="translate(-879.63 -418.19)"/><path class="cls-2" d="M900.42,471.67a23.37,23.37,0,0,1-2.57-4.69A97,97,0,0,0,933,440a23.21,23.21,0,0,1,3.87,3.69,96.39,96.39,0,0,1-36.49,28Z" transform="translate(-879.63 -418.19)"/><path class="cls-3" d="M934.88,441.68c-6.41,10.55-26.24,24.59-36,27.62" transform="translate(-879.63 -418.19)"/><path class="cls-2" d="M901,443.43c-2.28-3-2.24-6.84.09-8.63s6.07-.83,8.36,2.14h0c-.62.33-1.24.68-1.84,1.06-1.87-1.63-3.92-2.24-5.08-1.35s-1.1,3,0,5.26c-.52.48-1,1-1.5,1.5Z" transform="translate(-879.63 -418.19)"/><path d="M925.49,467.67a2.68,2.68,0,0,1,.28-.3,3.64,3.64,0,0,1,1.18-.72h0a6.23,6.23,0,0,1,1.11-.22h0a6.69,6.69,0,0,1,7.37,7.55l-.46.47-.77.71a6.17,6.17,0,0,0-3.25-7.53l-.47-.19a6.35,6.35,0,0,0-4.2-.09A5.16,5.16,0,0,0,925.49,467.67Z" transform="translate(-879.63 -418.19)"/><path d="M924.77,471.19a3.64,3.64,0,0,1,.41-3.11,2.45,2.45,0,0,1,.31-.41,2.68,2.68,0,0,1,.28-.3,3.64,3.64,0,0,1,1.18-.72h0l.15-.05.11,0a3.59,3.59,0,0,1,.85-.14h0a3.59,3.59,0,0,1,2.26.65,3.66,3.66,0,0,1,.63.55,3.65,3.65,0,1,1-6.19,3.57Z" transform="translate(-879.63 -418.19)"/><path class="cls-1" d="M1016.15,472c.19-.24.36-.48.54-.72a23.32,23.32,0,0,0,2.56-4.69,23.06,23.06,0,0,0-2.34-21.59,21.16,21.16,0,0,0-1.72-2.21h0c-.39-.44-.8-.88-1.24-1.29a23.18,23.18,0,0,0-2-1.77,26.48,26.48,0,0,0-2.23-1.51c-.52-.31-1-.59-1.57-.86h0a23,23,0,0,0-24,2.22,23.62,23.62,0,0,0-3.87,3.69c-.19.23-.38.46-.56.7a23,23,0,0,0,1.2,29.48l0,.05c.15.17.31.34.47.5s.31.32.47.47.5.48.76.71c.42.37.85.73,1.3,1.07A23,23,0,0,0,1016.15,472Z" transform="translate(-879.63 -418.19)"/><path class="cls-2" d="M1016.37,471.67a22.88,22.88,0,0,0,2.57-4.69,97,97,0,0,1-35.19-27,22.77,22.77,0,0,0-3.86,3.69,96.25,96.25,0,0,0,36.48,28Z" transform="translate(-879.63 -418.19)"/><path class="cls-3" d="M981.92,441.68c6.4,10.55,26.23,24.59,36,27.62" transform="translate(-879.63 -418.19)"/><path class="cls-2" d="M1015.77,443.43c2.28-3,2.24-6.84-.09-8.63s-6.07-.83-8.36,2.14h0c.63.33,1.24.68,1.84,1.06,1.87-1.63,3.92-2.24,5.08-1.35s1.1,3,0,5.26c.52.48,1,1,1.5,1.5Z" transform="translate(-879.63 -418.19)"/><path d="M991.3,467.67a2,2,0,0,0-.28-.3,3.59,3.59,0,0,0-1.17-.72h0a6.16,6.16,0,0,0-1.12-.22h0a6.67,6.67,0,0,0-7.1,4.57,6.77,6.77,0,0,0-.27,3c.16.16.31.32.47.47s.5.48.76.71a6.17,6.17,0,0,1,3.25-7.53l.47-.19a6.35,6.35,0,0,1,4.2-.09A5.16,5.16,0,0,1,991.3,467.67Z" transform="translate(-879.63 -418.19)"/><path d="M992,471.19a3.64,3.64,0,0,0-.4-3.11,3.22,3.22,0,0,0-.32-.41,2,2,0,0,0-.28-.3,3.59,3.59,0,0,0-1.17-.72h0l-.16-.05-.11,0a3.51,3.51,0,0,0-.85-.14h0a3.56,3.56,0,0,0-2.25.65,3.72,3.72,0,0,0-.64.55,3.93,3.93,0,0,0-.75,1.31,3.65,3.65,0,1,0,6.94,2.26Z" transform="translate(-879.63 -418.19)"/><path class="cls-1" d="M900.64,524l-.53-.72a23,23,0,0,1-.23-26.28,21.16,21.16,0,0,1,1.72-2.21h0c.39-.44.8-.88,1.23-1.29a22,22,0,0,1,2-1.77,24.81,24.81,0,0,1,2.22-1.51c.52-.31,1-.59,1.57-.86h0a24,24,0,0,1,2.58-1.09,23,23,0,0,1,25.33,7c.19.23.38.46.56.7A23,23,0,0,1,936,525.42l-.05.05c-.15.17-.31.34-.47.5l-.46.47-.77.71c-.42.37-.85.73-1.29,1.07A23,23,0,0,1,900.64,524Z" transform="translate(-879.63 -418.19)"/><path class="cls-2" d="M900.42,523.67a23.37,23.37,0,0,1-2.57-4.69A97,97,0,0,0,933,492a23.21,23.21,0,0,1,3.87,3.69,96.39,96.39,0,0,1-36.49,28Z" transform="translate(-879.63 -418.19)"/><path class="cls-3" d="M934.88,493.68c-6.41,10.55-26.24,24.59-36,27.62" transform="translate(-879.63 -418.19)"/><path class="cls-2" d="M901,495.43c-2.28-3-2.24-6.84.09-8.63s6.07-.83,8.36,2.14h0c-.62.33-1.24.68-1.84,1.06-1.87-1.63-3.92-2.24-5.08-1.35s-1.1,3,0,5.26c-.52.48-1,1-1.5,1.5Z" transform="translate(-879.63 -418.19)"/><path d="M925.49,519.67a2.68,2.68,0,0,1,.28-.3,3.64,3.64,0,0,1,1.18-.72h0a6.23,6.23,0,0,1,1.11-.22h0a6.69,6.69,0,0,1,7.37,7.55l-.46.47-.77.71a6.17,6.17,0,0,0-3.25-7.53l-.47-.19a6.35,6.35,0,0,0-4.2-.09A5.16,5.16,0,0,0,925.49,519.67Z" transform="translate(-879.63 -418.19)"/><path d="M924.77,523.19a3.64,3.64,0,0,1,.41-3.11,2.45,2.45,0,0,1,.31-.41,2.68,2.68,0,0,1,.28-.3,3.64,3.64,0,0,1,1.18-.72h0l.15,0,.11,0a3.59,3.59,0,0,1,.85-.14h0a3.59,3.59,0,0,1,2.26.65,3.66,3.66,0,0,1,.63.55,3.65,3.65,0,1,1-6.19,3.57Z" transform="translate(-879.63 -418.19)"/><path class="cls-1" d="M1016.15,524c.19-.24.36-.48.54-.72a23.32,23.32,0,0,0,2.56-4.69,23.06,23.06,0,0,0-2.34-21.59,21.16,21.16,0,0,0-1.72-2.21h0c-.39-.44-.8-.88-1.24-1.29a23.18,23.18,0,0,0-2-1.77,26.48,26.48,0,0,0-2.23-1.51c-.52-.31-1-.59-1.57-.86h0a23,23,0,0,0-24,2.22,23.62,23.62,0,0,0-3.87,3.69c-.19.23-.38.46-.56.7a23,23,0,0,0,1.2,29.48l0,.05c.15.17.31.34.47.5l.47.47c.25.24.5.48.76.71.42.37.85.73,1.3,1.07A23,23,0,0,0,1016.15,524Z" transform="translate(-879.63 -418.19)"/><path class="cls-2" d="M1016.37,523.67a22.88,22.88,0,0,0,2.57-4.69,97,97,0,0,1-35.19-27,22.77,22.77,0,0,0-3.86,3.69,96.25,96.25,0,0,0,36.48,28Z" transform="translate(-879.63 -418.19)"/><path class="cls-3" d="M981.92,493.68c6.4,10.55,26.23,24.59,36,27.62" transform="translate(-879.63 -418.19)"/><path class="cls-2" d="M1015.77,495.43c2.28-3,2.24-6.84-.09-8.63s-6.07-.83-8.36,2.14h0c.63.33,1.24.68,1.84,1.06,1.87-1.63,3.92-2.24,5.08-1.35s1.1,3,0,5.26c.52.48,1,1,1.5,1.5Z" transform="translate(-879.63 -418.19)"/><path d="M991.3,519.67a2,2,0,0,0-.28-.3,3.59,3.59,0,0,0-1.17-.72h0a6.16,6.16,0,0,0-1.12-.22h0a6.67,6.67,0,0,0-7.1,4.57,6.77,6.77,0,0,0-.27,3l.47.47c.25.24.5.48.76.71a6.17,6.17,0,0,1,3.25-7.53l.47-.19a6.35,6.35,0,0,1,4.2-.09A5.16,5.16,0,0,1,991.3,519.67Z" transform="translate(-879.63 -418.19)"/><path d="M992,523.19a3.64,3.64,0,0,0-.4-3.11,3.22,3.22,0,0,0-.32-.41,2,2,0,0,0-.28-.3,3.59,3.59,0,0,0-1.17-.72h0l-.16,0-.11,0a3.51,3.51,0,0,0-.85-.14h0a3.56,3.56,0,0,0-2.25.65,3.72,3.72,0,0,0-.64.55,3.93,3.93,0,0,0-.75,1.31,3.65,3.65,0,1,0,6.94,2.26Z" transform="translate(-879.63 -418.19)"/><path class="cls-1" d="M900.64,551.9l-.53.72a23,23,0,0,0-.23,26.28,21.16,21.16,0,0,0,1.72,2.21h0c.39.44.8.88,1.23,1.29a22,22,0,0,0,2,1.77,24.81,24.81,0,0,0,2.22,1.51c.52.31,1,.59,1.57.86h0a22.12,22.12,0,0,0,2.58,1.09,23.06,23.06,0,0,0,21.46-3.31,22.46,22.46,0,0,0,3.87-3.69c.19-.23.38-.46.56-.7A23,23,0,0,0,936,550.46l-.05-.05c-.15-.17-.31-.34-.47-.5l-.46-.47-.77-.71c-.42-.37-.85-.72-1.29-1.07A23,23,0,0,0,900.64,551.9Z" transform="translate(-879.63 -418.19)"/><path class="cls-2" d="M900.42,552.21a23.37,23.37,0,0,0-2.57,4.69,97,97,0,0,1,35.19,27,23.21,23.21,0,0,0,3.87-3.69,96.39,96.39,0,0,0-36.49-28Z" transform="translate(-879.63 -418.19)"/><path class="cls-3" d="M934.88,582.2c-6.41-10.55-26.24-24.59-36-27.62" transform="translate(-879.63 -418.19)"/><path class="cls-2" d="M901,580.45c-2.28,3-2.24,6.84.09,8.63s6.07.83,8.36-2.14h0c-.62-.33-1.24-.68-1.84-1.06-1.87,1.63-3.92,2.24-5.08,1.35s-1.1-3,0-5.26c-.52-.48-1-1-1.5-1.5Z" transform="translate(-879.63 -418.19)"/><path d="M925.49,556.21a2.68,2.68,0,0,0,.28.3,3.64,3.64,0,0,0,1.18.72h0a6.23,6.23,0,0,0,1.11.22h0a6.69,6.69,0,0,0,7.37-7.55l-.46-.47-.77-.71a6.17,6.17,0,0,1-3.25,7.53l-.47.19a6.35,6.35,0,0,1-4.2.09A5.16,5.16,0,0,1,925.49,556.21Z" transform="translate(-879.63 -418.19)"/><path d="M924.77,552.69a3.64,3.64,0,0,0,.41,3.11,2.45,2.45,0,0,0,.31.41,2.68,2.68,0,0,0,.28.3,3.64,3.64,0,0,0,1.18.72h0l.15,0,.11,0a3.59,3.59,0,0,0,.85.14h0a3.59,3.59,0,0,0,2.26-.65,3.66,3.66,0,0,0,.63-.55,3.65,3.65,0,1,0-6.19-3.57Z" transform="translate(-879.63 -418.19)"/><path class="cls-1" d="M1016.15,551.9c.19.24.36.48.54.72a23.32,23.32,0,0,1,2.56,4.69,23.06,23.06,0,0,1-2.34,21.59,21.16,21.16,0,0,1-1.72,2.21h0c-.39.44-.8.88-1.24,1.29a23.18,23.18,0,0,1-2,1.77,26.48,26.48,0,0,1-2.23,1.51c-.52.31-1,.59-1.57.86h0a21.42,21.42,0,0,1-2.58,1.09,23,23,0,0,1-25.33-7c-.19-.23-.38-.46-.56-.7a23,23,0,0,1,1.2-29.48l0-.05c.15-.17.31-.34.47-.5s.31-.32.47-.47.5-.48.76-.71c.42-.37.85-.72,1.3-1.07A23,23,0,0,1,1016.15,551.9Z" transform="translate(-879.63 -418.19)"/><path class="cls-2" d="M1016.37,552.21a22.88,22.88,0,0,1,2.57,4.69,97,97,0,0,0-35.19,27,22.77,22.77,0,0,1-3.86-3.69,96.25,96.25,0,0,1,36.48-28Z" transform="translate(-879.63 -418.19)"/><path class="cls-3" d="M981.92,582.2c6.4-10.55,26.23-24.59,36-27.62" transform="translate(-879.63 -418.19)"/><path class="cls-2" d="M1015.77,580.45c2.28,3,2.24,6.84-.09,8.63s-6.07.83-8.36-2.14h0c.63-.33,1.24-.68,1.84-1.06,1.87,1.63,3.92,2.24,5.08,1.35s1.1-3,0-5.26c.52-.48,1-1,1.5-1.5Z" transform="translate(-879.63 -418.19)"/><path d="M991.3,556.21a2,2,0,0,1-.28.3,3.59,3.59,0,0,1-1.17.72h0a6.16,6.16,0,0,1-1.12.22h0a6.67,6.67,0,0,1-7.1-4.57,6.77,6.77,0,0,1-.27-3c.16-.16.31-.32.47-.47s.5-.48.76-.71a6.17,6.17,0,0,0,3.25,7.53l.47.19a6.35,6.35,0,0,0,4.2.09A5.16,5.16,0,0,0,991.3,556.21Z" transform="translate(-879.63 -418.19)"/><path d="M992,552.69a3.63,3.63,0,0,1-.4,3.11,3.22,3.22,0,0,1-.32.41,2,2,0,0,1-.28.3,3.59,3.59,0,0,1-1.17.72h0l-.16,0-.11,0a3.51,3.51,0,0,1-.85.14h0a3.56,3.56,0,0,1-2.25-.65,3.72,3.72,0,0,1-.64-.55,3.93,3.93,0,0,1-.75-1.31,3.65,3.65,0,1,1,6.94-2.26Z" transform="translate(-879.63 -418.19)"/><path class="cls-1" d="M900.64,606.9l-.53.72a23,23,0,0,0-.23,26.28,21.16,21.16,0,0,0,1.72,2.21h0c.39.44.8.88,1.23,1.29a22,22,0,0,0,2,1.77,24.81,24.81,0,0,0,2.22,1.51c.52.31,1,.59,1.57.86h0a22.12,22.12,0,0,0,2.58,1.09,23.06,23.06,0,0,0,21.46-3.31,22.46,22.46,0,0,0,3.87-3.69c.19-.23.38-.46.56-.7A23,23,0,0,0,936,605.46l-.05-.05c-.15-.17-.31-.34-.47-.5l-.46-.47-.77-.71c-.42-.37-.85-.72-1.29-1.07A23,23,0,0,0,900.64,606.9Z" transform="translate(-879.63 -418.19)"/><path class="cls-2" d="M900.42,607.21a23.37,23.37,0,0,0-2.57,4.69,97,97,0,0,1,35.19,27,23.21,23.21,0,0,0,3.87-3.69,96.39,96.39,0,0,0-36.49-28Z" transform="translate(-879.63 -418.19)"/><path class="cls-3" d="M934.88,637.2c-6.41-10.55-26.24-24.59-36-27.62" transform="translate(-879.63 -418.19)"/><path class="cls-2" d="M901,635.45c-2.28,3-2.24,6.84.09,8.63s6.07.83,8.36-2.14h0c-.62-.33-1.24-.68-1.84-1.06-1.87,1.63-3.92,2.24-5.08,1.35s-1.1-3,0-5.26c-.52-.48-1-1-1.5-1.5Z" transform="translate(-879.63 -418.19)"/><path d="M925.49,611.21a2.68,2.68,0,0,0,.28.3,3.64,3.64,0,0,0,1.18.72h0a6.23,6.23,0,0,0,1.11.22h0a6.69,6.69,0,0,0,7.37-7.55l-.46-.47-.77-.71a6.17,6.17,0,0,1-3.25,7.53l-.47.19a6.35,6.35,0,0,1-4.2.09A5.16,5.16,0,0,1,925.49,611.21Z" transform="translate(-879.63 -418.19)"/><path d="M924.77,607.69a3.64,3.64,0,0,0,.41,3.11,2.45,2.45,0,0,0,.31.41,2.68,2.68,0,0,0,.28.3,3.64,3.64,0,0,0,1.18.72h0l.15,0,.11,0a3.59,3.59,0,0,0,.85.14h0a3.59,3.59,0,0,0,2.26-.65,3.66,3.66,0,0,0,.63-.55,3.65,3.65,0,1,0-6.19-3.57Z" transform="translate(-879.63 -418.19)"/><path class="cls-1" d="M1016.15,606.9c.19.24.36.48.54.72a23.32,23.32,0,0,1,2.56,4.69,23.06,23.06,0,0,1-2.34,21.59,21.16,21.16,0,0,1-1.72,2.21h0c-.39.44-.8.88-1.24,1.29a23.18,23.18,0,0,1-2,1.77,26.48,26.48,0,0,1-2.23,1.51c-.52.31-1,.59-1.57.86h0a21.42,21.42,0,0,1-2.58,1.09,23,23,0,0,1-25.33-7c-.19-.23-.38-.46-.56-.7a23,23,0,0,1,1.2-29.48l0-.05c.15-.17.31-.34.47-.5s.31-.32.47-.47.5-.48.76-.71c.42-.37.85-.72,1.3-1.07A23,23,0,0,1,1016.15,606.9Z" transform="translate(-879.63 -418.19)"/><path class="cls-2" d="M1016.37,607.21a22.88,22.88,0,0,1,2.57,4.69,97,97,0,0,0-35.19,27,22.77,22.77,0,0,1-3.86-3.69,96.25,96.25,0,0,1,36.48-28Z" transform="translate(-879.63 -418.19)"/><path class="cls-3" d="M981.92,637.2c6.4-10.55,26.23-24.59,36-27.62" transform="translate(-879.63 -418.19)"/><path class="cls-2" d="M1015.77,635.45c2.28,3,2.24,6.84-.09,8.63s-6.07.83-8.36-2.14h0c.63-.33,1.24-.68,1.84-1.06,1.87,1.63,3.92,2.24,5.08,1.35s1.1-3,0-5.26c.52-.48,1-1,1.5-1.5Z" transform="translate(-879.63 -418.19)"/><path d="M991.3,611.21a2,2,0,0,1-.28.3,3.59,3.59,0,0,1-1.17.72h0a6.16,6.16,0,0,1-1.12.22h0a6.67,6.67,0,0,1-7.1-4.57,6.77,6.77,0,0,1-.27-3c.16-.16.31-.32.47-.47s.5-.48.76-.71a6.17,6.17,0,0,0,3.25,7.53l.47.19a6.35,6.35,0,0,0,4.2.09A5.16,5.16,0,0,0,991.3,611.21Z" transform="translate(-879.63 -418.19)"/><path d="M992,607.69a3.63,3.63,0,0,1-.4,3.11,3.22,3.22,0,0,1-.32.41,2,2,0,0,1-.28.3,3.59,3.59,0,0,1-1.17.72h0l-.16,0-.11,0a3.51,3.51,0,0,1-.85.14h0a3.56,3.56,0,0,1-2.25-.65,3.72,3.72,0,0,1-.64-.55,3.93,3.93,0,0,1-.75-1.31,3.65,3.65,0,1,1,6.94-2.26Z" transform="translate(-879.63 -418.19)"/><path d="M891.15,654a3.67,3.67,0,0,1-3.92-3.56,3,3,0,0,1,.67-1.94,21,21,0,0,1,2-1.54c-1.66-.91-3.29-2.06-3.29-4.15,0-2.81,2.54-4.34,4.82-4.34,2.67,0,4.64,1.53,4.64,4a2.84,2.84,0,0,1-1.11,2.37,21.5,21.5,0,0,1-2.16,1.49c1.56.91,2.67,2.06,2.67,3.77A4.06,4.06,0,0,1,891.15,654Zm0-14.74a2.52,2.52,0,0,0-2.6,2.83c0,1.92,1.61,2.86,3.55,3.79a3.67,3.67,0,0,0,2-3.29C894.12,640.38,892.73,639.25,891.15,639.25Zm.28,13.92a2.21,2.21,0,0,0,2.21-2.45c0-1.75-1.18-2.4-3-3.38a3.5,3.5,0,0,0-1.58,3C889,652.33,890.19,653.17,891.43,653.17Z" transform="translate(-879.63 -418.19)"/><path d="M1024,419.19a13.35,13.35,0,0,1,13.34,13.34V650.47A13.35,13.35,0,0,1,1024,663.81H894a13.35,13.35,0,0,1-13.34-13.34V432.53A13.35,13.35,0,0,1,894,419.19H1024m0-1H894a14.34,14.34,0,0,0-14.34,14.34V650.47A14.34,14.34,0,0,0,894,664.81H1024a14.34,14.34,0,0,0,14.34-14.34V432.53A14.34,14.34,0,0,0,1024,418.19Z" transform="translate(-879.63 -418.19)"/><path d="M890.52,426.7a3.67,3.67,0,0,1,3.92,3.55,3,3,0,0,1-.68,1.95,18.13,18.13,0,0,1-2,1.53c1.66.92,3.29,2.07,3.29,4.16,0,2.81-2.54,4.34-4.82,4.34-2.67,0-4.64-1.53-4.64-4a2.84,2.84,0,0,1,1.11-2.37,19.94,19.94,0,0,1,2.16-1.49c-1.56-.92-2.67-2.07-2.67-3.77A4.06,4.06,0,0,1,890.52,426.7Zm0,14.74a2.52,2.52,0,0,0,2.6-2.83c0-1.92-1.61-2.86-3.56-3.8a3.7,3.7,0,0,0-2,3.29C887.55,440.31,888.94,441.44,890.52,441.44Zm-.28-13.92A2.21,2.21,0,0,0,888,430c0,1.75,1.17,2.4,3.05,3.38a3.51,3.51,0,0,0,1.58-3C892.66,428.36,891.48,427.52,890.24,427.52Z" transform="translate(-879.63 -418.19)"/><path d="M1027.36,426.7a3.67,3.67,0,0,1,3.91,3.55,3,3,0,0,1-.67,1.95,19.87,19.87,0,0,1-2,1.53c1.66.92,3.29,2.07,3.29,4.16,0,2.81-2.54,4.34-4.82,4.34-2.67,0-4.64-1.53-4.64-4a2.84,2.84,0,0,1,1.11-2.37,19.94,19.94,0,0,1,2.16-1.49c-1.56-.92-2.66-2.07-2.66-3.77A4.05,4.05,0,0,1,1027.36,426.7Zm0,14.74a2.52,2.52,0,0,0,2.59-2.83c0-1.92-1.61-2.86-3.56-3.8a3.7,3.7,0,0,0-2,3.29C1024.38,440.31,1025.77,441.44,1027.36,441.44Zm-.29-13.92a2.21,2.21,0,0,0-2.21,2.45c0,1.75,1.18,2.4,3.05,3.38a3.51,3.51,0,0,0,1.58-3C1029.49,428.36,1028.31,427.52,1027.07,427.52Z" transform="translate(-879.63 -418.19)"/><path d="M1028,654a3.67,3.67,0,0,1-3.92-3.56,2.93,2.93,0,0,1,.68-1.94,19.06,19.06,0,0,1,2-1.54c-1.66-.91-3.29-2.06-3.29-4.15,0-2.81,2.54-4.34,4.82-4.34,2.67,0,4.64,1.53,4.64,4a2.84,2.84,0,0,1-1.11,2.37,21.5,21.5,0,0,1-2.16,1.49c1.56.91,2.67,2.06,2.67,3.77A4.06,4.06,0,0,1,1028,654Zm0-14.74a2.52,2.52,0,0,0-2.6,2.83c0,1.92,1.61,2.86,3.56,3.79a3.68,3.68,0,0,0,2-3.29C1031,640.38,1029.56,639.25,1028,639.25Zm.28,13.92a2.21,2.21,0,0,0,2.21-2.45c0-1.75-1.18-2.4-3-3.38a3.5,3.5,0,0,0-1.58,3C1025.84,652.33,1027,653.17,1028.26,653.17Z" transform="translate(-879.63 -418.19)"/><path class="cls-4" d="M961,550" transform="translate(-879.63 -418.19)"/></svg>