<svg id="Ebene_1" data-name="Ebene 1" xmlns="http://www.w3.org/2000/svg" viewBox="0 0 158.74 246.62"><defs><style>.cls-1{fill:#e0c710;}.cls-2{fill:#c1272d;}.cls-3{fill:none;stroke:#000;stroke-miterlimit:10;stroke-width:2px;}.cls-4{fill:red;}</style></defs><title>9</title><path class="cls-1" d="M900.64,472l-.53-.72a23,23,0,0,1-.23-26.28,21.16,21.16,0,0,1,1.72-2.21h0c.39-.44.8-.88,1.23-1.29a22,22,0,0,1,2-1.77,24.81,24.81,0,0,1,2.22-1.51c.52-.31,1-.59,1.57-.86h0a24,24,0,0,1,2.58-1.09,23,23,0,0,1,25.33,7c.19.23.38.46.56.7A23,23,0,0,1,936,473.42l-.05.05c-.15.17-.31.34-.47.5l-.46.47-.77.71c-.42.37-.85.73-1.29,1.07A23,23,0,0,1,900.64,472Z" transform="translate(-879.63 -418.19)"/><path class="cls-2" d="M900.42,471.67a23.37,23.37,0,0,1-2.57-4.69A97,97,0,0,0,933,440a23.21,23.21,0,0,1,3.87,3.69,96.39,96.39,0,0,1-36.49,28Z" transform="translate(-879.63 -418.19)"/><path class="cls-3" d="M934.88,441.68c-6.41,10.55-26.24,24.59-36,27.62" transform="translate(-879.63 -418.19)"/><path class="cls-2" d="M901,443.43c-2.28-3-2.24-6.84.09-8.63s6.07-.83,8.36,2.14h0c-.62.33-1.24.68-1.84,1.06-1.87-1.63-3.92-2.24-5.08-1.35s-1.1,3,0,5.26c-.52.48-1,1-1.5,1.5Z" transform="translate(-879.63 -418.19)"/><path d="M925.49,467.67a2.68,2.68,0,0,1,.28-.3,3.64,3.64,0,0,1,1.18-.72h0a6.23,6.23,0,0,1,1.11-.22h0a6.69,6.69,0,0,1,7.37,7.55l-.46.47-.77.71a6.17,6.17,0,0,0-3.25-7.53l-.47-.19a6.35,6.35,0,0,0-4.2-.09A5.16,5.16,0,0,0,925.49,467.67Z" transform="translate(-879.63 -418.19)"/><path d="M924.77,471.19a3.64,3.64,0,0,1,.41-3.11,2.45,2.45,0,0,1,.31-.41,2.68,2.68,0,0,1,.28-.3,3.64,3.64,0,0,1,1.18-.72h0l.15-.05.11,0a3.59,3.59,0,0,1,.85-.14h0a3.59,3.59,0,0,1,2.26.65,3.66,3.66,0,0,1,.63.55,3.65,3.65,0,1,1-6.19,3.57Z" transform="translate(-879.63 -418.19)"/><path class="cls-1" d="M1016.15,472c.19-.24.36-.48.54-.72a23.32,23.32,0,0,0,2.56-4.69,23.06,23.06,0,0,0-2.34-21.59,21.16,21.16,0,0,0-1.72-2.21h0c-.39-.44-.8-.88-1.24-1.29a23.18,23.18,0,0,0-2-1.77,26.48,26.48,0,0,0-2.23-1.51c-.52-.31-1-.59-1.57-.86h0a23,23,0,0,0-24,2.22,23.62,23.62,0,0,0-3.87,3.69c-.19.23-.38.46-.56.7a23,23,0,0,0,1.2,29.48l0,.05c.15.17.31.34.47.5s.31.32.47.47.5.48.76.71c.42.37.85.73,1.3,1.07A23,23,0,0,0,1016.15,472Z" transform="translate(-879.63 -418.19)"/><path class="cls-2" d="M1016.37,471.67a22.88,22.88,0,0,0,2.57-4.69,97,97,0,0,1-35.19-27,22.77,22.77,0,0,0-3.86,3.69,96.25,96.25,0,0,0,36.48,28Z" transform="translate(-879.63 -418.19)"/><path class="cls-3" d="M981.92,441.68c6.4,10.55,26.23,24.59,36,27.62" transform="translate(-879.63 -418.19)"/><path class="cls-2" d="M1015.77,443.43c2.28-3,2.24-6.84-.09-8.63s-6.07-.83-8.36,2.14h0c.63.33,1.24.68,1.84,1.06,1.87-1.63,3.92-2.24,5.08-1.35s1.1,3,0,5.26c.52.48,1,1,1.5,1.5Z" transform="translate(-879.63 -418.19)"/><path d="M991.3,467.67a2,2,0,0,0-.28-.3,3.59,3.59,0,0,0-1.17-.72h0a6.16,6.16,0,0,0-1.12-.22h0a6.67,6.67,0,0,0-7.1,4.57,6.77,6.77,0,0,0-.27,3c.16.16.31.32.47.47s.5.48.76.71a6.17,6.17,0,0,1,3.25-7.53l.47-.19a6.35,6.35,0,0,1,4.2-.09A5.16,5.16,0,0,1,991.3,467.67Z" transform="translate(-879.63 -418.19)"/><path d="M992,471.19a3.64,3.64,0,0,0-.4-3.11,3.22,3.22,0,0,0-.32-.41,2,2,0,0,0-.28-.3,3.59,3.59,0,0,0-1.17-.72h0l-.16-.05-.11,0a3.51,3.51,0,0,0-.85-.14h0a3.56,3.56,0,0,0-2.25.65,3.72,3.72,0,0,0-.64.55,3.93,3.93,0,0,0-.75,1.31,3.65,3.65,0,1,0,6.94,2.26Z" transform="translate(-879.63 -418.19)"/><path class="cls-1" d="M900.64,524l-.53-.72a23,23,0,0,1-.23-26.28,21.16,21.16,0,0,1,1.72-2.21h0c.39-.44.8-.88,1.23-1.29a22,22,0,0,1,2-1.77,24.81,24.81,0,0,1,2.22-1.51c.52-.31,1-.59,1.57-.86h0a24,24,0,0,1,2.58-1.09,23,23,0,0,1,25.33,7c.19.23.38.46.56.7A23,23,0,0,1,936,525.42l-.05.05c-.15.17-.31.34-.47.5l-.46.47-.77.71c-.42.37-.85.73-1.29,1.07A23,23,0,0,1,900.64,524Z" transform="translate(-879.63 -418.19)"/><path class="cls-2" d="M900.42,523.67a23.37,23.37,0,0,1-2.57-4.69A97,97,0,0,0,933,492a23.21,23.21,0,0,1,3.87,3.69,96.39,96.39,0,0,1-36.49,28Z" transform="translate(-879.63 -418.19)"/><path class="cls-3" d="M934.88,493.68c-6.41,10.55-26.24,24.59-36,27.62" transform="translate(-879.63 -418.19)"/><path class="cls-2" d="M901,495.43c-2.28-3-2.24-6.84.09-8.63s6.07-.83,8.36,2.14h0c-.62.33-1.24.68-1.84,1.06-1.87-1.63-3.92-2.24-5.08-1.35s-1.1,3,0,5.26c-.52.48-1,1-1.5,1.5Z" transform="translate(-879.63 -418.19)"/><path d="M925.49,519.67a2.68,2.68,0,0,1,.28-.3,3.64,3.64,0,0,1,1.18-.72h0a6.23,6.23,0,0,1,1.11-.22h0a6.69,6.69,0,0,1,7.37,7.55l-.46.47-.77.71a6.17,6.17,0,0,0-3.25-7.53l-.47-.19a6.35,6.35,0,0,0-4.2-.09A5.16,5.16,0,0,0,925.49,519.67Z" transform="translate(-879.63 -418.19)"/><path d="M924.77,523.19a3.64,3.64,0,0,1,.41-3.11,2.45,2.45,0,0,1,.31-.41,2.68,2.68,0,0,1,.28-.3,3.64,3.64,0,0,1,1.18-.72h0l.15,0,.11,0a3.59,3.59,0,0,1,.85-.14h0a3.59,3.59,0,0,1,2.26.65,3.66,3.66,0,0,1,.63.55,3.65,3.65,0,1,1-6.19,3.57Z" transform="translate(-879.63 -418.19)"/><path class="cls-1" d="M1016.15,524c.19-.24.36-.48.54-.72a23.32,23.32,0,0,0,2.56-4.69,23.06,23.06,0,0,0-2.34-21.59,21.16,21.16,0,0,0-1.72-2.21h0c-.39-.44-.8-.88-1.24-1.29a23.18,23.18,0,0,0-2-1.77,26.48,26.48,0,0,0-2.23-1.51c-.52-.31-1-.59-1.57-.86h0a23,23,0,0,0-24,2.22,23.62,23.62,0,0,0-3.87,3.69c-.19.23-.38.46-.56.7a23,23,0,0,0,1.2,29.48l0,.05c.15.17.31.34.47.5l.47.47c.25.24.5.48.76.71.42.37.85.73,1.3,1.07A23,23,0,0,0,1016.15,524Z" transform="translate(-879.63 -418.19)"/><path class="cls-2" d="M1016.37,523.67a22.88,22.88,0,0,0,2.57-4.69,97,97,0,0,1-35.19-27,22.77,22.77,0,0,0-3.86,3.69,96.25,96.25,0,0,0,36.48,28Z" transform="translate(-879.63 -418.19)"/><path class="cls-3" d="M981.92,493.68c6.4,10.55,26.23,24.59,36,27.62" transform="translate(-879.63 -418.19)"/><path class="cls-2" d="M1015.77,495.43c2.28-3,2.24-6.84-.09-8.63s-6.07-.83-8.36,2.14h0c.63.33,1.24.68,1.84,1.06,1.87-1.63,3.92-2.24,5.08-1.35s1.1,3,0,5.26c.52.48,1,1,1.5,1.5Z" transform="translate(-879.63 -418.19)"/><path d="M991.3,519.67a2,2,0,0,0-.28-.3,3.59,3.59,0,0,0-1.17-.72h0a6.16,6.16,0,0,0-1.12-.22h0a6.67,6.67,0,0,0-7.1,4.57,6.77,6.77,0,0,0-.27,3l.47.47c.25.24.5.48.76.71a6.17,6.17,0,0,1,3.25-7.53l.47-.19a6.35,6.35,0,0,1,4.2-.09A5.16,5.16,0,0,1,991.3,519.67Z" transform="translate(-879.63 -418.19)"/><path d="M992,523.19a3.64,3.64,0,0,0-.4-3.11,3.22,3.22,0,0,0-.32-.41,2,2,0,0,0-.28-.3,3.59,3.59,0,0,0-1.17-.72h0l-.16,0-.11,0a3.51,3.51,0,0,0-.85-.14h0a3.56,3.56,0,0,0-2.25.65,3.72,3.72,0,0,0-.64.55,3.93,3.93,0,0,0-.75,1.31,3.65,3.65,0,1,0,6.94,2.26Z" transform="translate(-879.63 -418.19)"/><path class="cls-1" d="M981.81,537.5c0-.3,0-.6,0-.9a23.57,23.57,0,0,0-.84-5.28,23.09,23.09,0,0,0-15.08-15.63,22.4,22.4,0,0,0-2.71-.69h0c-.58-.11-1.17-.2-1.77-.26a22.69,22.69,0,0,0-5.38,0c-.59.07-1.18.17-1.76.28h0a20.37,20.37,0,0,0-2.71.72,22.92,22.92,0,0,0-15.73,21c0,.29,0,.59,0,.89a23,23,0,0,0,19,22.57h.06l.68.11.66.08c.34,0,.69.08,1,.1.55,0,1.11,0,1.68,0A23,23,0,0,0,981.81,537.5Z" transform="translate(-879.63 -418.19)"/><path class="cls-2" d="M981.79,537.12a22.48,22.48,0,0,0-.84-5.28,97,97,0,0,1-44.36.2,23,23,0,0,0-.8,5.28,96.2,96.2,0,0,0,46-.2Z" transform="translate(-879.63 -418.19)"/><path class="cls-3" d="M936.19,534.52c11.53,4.42,35.8,3.37,45.35-.2" transform="translate(-879.63 -418.19)"/><path class="cls-2" d="M964,515.16c0-3.75-2.42-6.78-5.36-6.76s-5.3,3.06-5.29,6.81h0c.69-.12,1.4-.21,2.11-.29.48-2.43,1.72-4.17,3.18-4.17s2.73,1.72,3.23,4.15c.71.06,1.41.15,2.11.26Z" transform="translate(-879.63 -418.19)"/><path d="M959.53,549.31a2.9,2.9,0,0,0-.41-.06,3.59,3.59,0,0,0-1.37.15h0a6.89,6.89,0,0,0-1,.5h0a6.69,6.69,0,0,0-1.2,10.48l.66.08c.34,0,.69.08,1,.1a6.15,6.15,0,0,1-2-7.94c.08-.15.16-.3.25-.44a6.29,6.29,0,0,1,3.27-2.64A6,6,0,0,1,959.53,549.31Z" transform="translate(-879.63 -418.19)"/><path d="M962.25,551.66a3.6,3.6,0,0,0-2.22-2.21,2.85,2.85,0,0,0-.5-.14,2.9,2.9,0,0,0-.41-.06,3.59,3.59,0,0,0-1.37.15h0l-.15.05-.11,0a3.44,3.44,0,0,0-.76.4h0a3.53,3.53,0,0,0-1.38,1.89,3.3,3.3,0,0,0-.16.83,3.64,3.64,0,0,0,4.87,3.69A3.64,3.64,0,0,0,962.25,551.66Z" transform="translate(-879.63 -418.19)"/><path class="cls-1" d="M900.64,551.9l-.53.72a23,23,0,0,0-.23,26.28,21.16,21.16,0,0,0,1.72,2.21h0c.39.44.8.88,1.23,1.29a22,22,0,0,0,2,1.77,24.81,24.81,0,0,0,2.22,1.51c.52.31,1,.59,1.57.86h0a22.12,22.12,0,0,0,2.58,1.09,23.06,23.06,0,0,0,21.46-3.31,22.46,22.46,0,0,0,3.87-3.69c.19-.23.38-.46.56-.7A23,23,0,0,0,936,550.46l-.05-.05c-.15-.17-.31-.34-.47-.5l-.46-.47-.77-.71c-.42-.37-.85-.72-1.29-1.07A23,23,0,0,0,900.64,551.9Z" transform="translate(-879.63 -418.19)"/><path class="cls-2" d="M900.42,552.21a23.37,23.37,0,0,0-2.57,4.69,97,97,0,0,1,35.19,27,23.21,23.21,0,0,0,3.87-3.69,96.39,96.39,0,0,0-36.49-28Z" transform="translate(-879.63 -418.19)"/><path class="cls-3" d="M934.88,582.2c-6.41-10.55-26.24-24.59-36-27.62" transform="translate(-879.63 -418.19)"/><path class="cls-2" d="M901,580.45c-2.28,3-2.24,6.84.09,8.63s6.07.83,8.36-2.14h0c-.62-.33-1.24-.68-1.84-1.06-1.87,1.63-3.92,2.24-5.08,1.35s-1.1-3,0-5.26c-.52-.48-1-1-1.5-1.5Z" transform="translate(-879.63 -418.19)"/><path d="M925.49,556.21a2.68,2.68,0,0,0,.28.3,3.64,3.64,0,0,0,1.18.72h0a6.23,6.23,0,0,0,1.11.22h0a6.69,6.69,0,0,0,7.37-7.55l-.46-.47-.77-.71a6.17,6.17,0,0,1-3.25,7.53l-.47.19a6.35,6.35,0,0,1-4.2.09A5.16,5.16,0,0,1,925.49,556.21Z" transform="translate(-879.63 -418.19)"/><path d="M924.77,552.69a3.64,3.64,0,0,0,.41,3.11,2.45,2.45,0,0,0,.31.41,2.68,2.68,0,0,0,.28.3,3.64,3.64,0,0,0,1.18.72h0l.15,0,.11,0a3.59,3.59,0,0,0,.85.14h0a3.59,3.59,0,0,0,2.26-.65,3.66,3.66,0,0,0,.63-.55,3.65,3.65,0,1,0-6.19-3.57Z" transform="translate(-879.63 -418.19)"/><path class="cls-1" d="M1016.15,551.9c.19.24.36.48.54.72a23.32,23.32,0,0,1,2.56,4.69,23.06,23.06,0,0,1-2.34,21.59,21.16,21.16,0,0,1-1.72,2.21h0c-.39.44-.8.88-1.24,1.29a23.18,23.18,0,0,1-2,1.77,26.48,26.48,0,0,1-2.23,1.51c-.52.31-1,.59-1.57.86h0a21.42,21.42,0,0,1-2.58,1.09,23,23,0,0,1-25.33-7c-.19-.23-.38-.46-.56-.7a23,23,0,0,1,1.2-29.48l0-.05c.15-.17.31-.34.47-.5s.31-.32.47-.47.5-.48.76-.71c.42-.37.85-.72,1.3-1.07A23,23,0,0,1,1016.15,551.9Z" transform="translate(-879.63 -418.19)"/><path class="cls-2" d="M1016.37,552.21a22.88,22.88,0,0,1,2.57,4.69,97,97,0,0,0-35.19,27,22.77,22.77,0,0,1-3.86-3.69,96.25,96.25,0,0,1,36.48-28Z" transform="translate(-879.63 -418.19)"/><path class="cls-3" d="M981.92,582.2c6.4-10.55,26.23-24.59,36-27.62" transform="translate(-879.63 -418.19)"/><path class="cls-2" d="M1015.77,580.45c2.28,3,2.24,6.84-.09,8.63s-6.07.83-8.36-2.14h0c.63-.33,1.24-.68,1.84-1.06,1.87,1.63,3.92,2.24,5.08,1.35s1.1-3,0-5.26c.52-.48,1-1,1.5-1.5Z" transform="translate(-879.63 -418.19)"/><path d="M991.3,556.21a2,2,0,0,1-.28.3,3.59,3.59,0,0,1-1.17.72h0a6.16,6.16,0,0,1-1.12.22h0a6.67,6.67,0,0,1-7.1-4.57,6.77,6.77,0,0,1-.27-3c.16-.16.31-.32.47-.47s.5-.48.76-.71a6.17,6.17,0,0,0,3.25,7.53l.47.19a6.35,6.35,0,0,0,4.2.09A5.16,5.16,0,0,0,991.3,556.21Z" transform="translate(-879.63 -418.19)"/><path d="M992,552.69a3.63,3.63,0,0,1-.4,3.11,3.22,3.22,0,0,1-.32.41,2,2,0,0,1-.28.3,3.59,3.59,0,0,1-1.17.72h0l-.16,0-.11,0a3.51,3.51,0,0,1-.85.14h0a3.56,3.56,0,0,1-2.25-.65,3.72,3.72,0,0,1-.64-.55,3.93,3.93,0,0,1-.75-1.31,3.65,3.65,0,1,1,6.94-2.26Z" transform="translate(-879.63 -418.19)"/><path class="cls-1" d="M900.64,606.9l-.53.72a23,23,0,0,0-.23,26.28,21.16,21.16,0,0,0,1.72,2.21h0c.39.44.8.88,1.23,1.29a22,22,0,0,0,2,1.77,24.81,24.81,0,0,0,2.22,1.51c.52.31,1,.59,1.57.86h0a22.12,22.12,0,0,0,2.58,1.09,23.06,23.06,0,0,0,21.46-3.31,22.46,22.46,0,0,0,3.87-3.69c.19-.23.38-.46.56-.7A23,23,0,0,0,936,605.46l-.05-.05c-.15-.17-.31-.34-.47-.5l-.46-.47-.77-.71c-.42-.37-.85-.72-1.29-1.07A23,23,0,0,0,900.64,606.9Z" transform="translate(-879.63 -418.19)"/><path class="cls-2" d="M900.42,607.21a23.37,23.37,0,0,0-2.57,4.69,97,97,0,0,1,35.19,27,23.21,23.21,0,0,0,3.87-3.69,96.39,96.39,0,0,0-36.49-28Z" transform="translate(-879.63 -418.19)"/><path class="cls-3" d="M934.88,637.2c-6.41-10.55-26.24-24.59-36-27.62" transform="translate(-879.63 -418.19)"/><path class="cls-2" d="M901,635.45c-2.28,3-2.24,6.84.09,8.63s6.07.83,8.36-2.14h0c-.62-.33-1.24-.68-1.84-1.06-1.87,1.63-3.92,2.24-5.08,1.35s-1.1-3,0-5.26c-.52-.48-1-1-1.5-1.5Z" transform="translate(-879.63 -418.19)"/><path d="M925.49,611.21a2.68,2.68,0,0,0,.28.3,3.64,3.64,0,0,0,1.18.72h0a6.23,6.23,0,0,0,1.11.22h0a6.69,6.69,0,0,0,7.37-7.55l-.46-.47-.77-.71a6.17,6.17,0,0,1-3.25,7.53l-.47.19a6.35,6.35,0,0,1-4.2.09A5.16,5.16,0,0,1,925.49,611.21Z" transform="translate(-879.63 -418.19)"/><path d="M924.77,607.69a3.64,3.64,0,0,0,.41,3.11,2.45,2.45,0,0,0,.31.41,2.68,2.68,0,0,0,.28.3,3.64,3.64,0,0,0,1.18.72h0l.15,0,.11,0a3.59,3.59,0,0,0,.85.14h0a3.59,3.59,0,0,0,2.26-.65,3.66,3.66,0,0,0,.63-.55,3.65,3.65,0,1,0-6.19-3.57Z" transform="translate(-879.63 -418.19)"/><path class="cls-1" d="M1016.15,606.9c.19.24.36.48.54.72a23.32,23.32,0,0,1,2.56,4.69,23.06,23.06,0,0,1-2.34,21.59,21.16,21.16,0,0,1-1.72,2.21h0c-.39.44-.8.88-1.24,1.29a23.18,23.18,0,0,1-2,1.77,26.48,26.48,0,0,1-2.23,1.51c-.52.31-1,.59-1.57.86h0a21.42,21.42,0,0,1-2.58,1.09,23,23,0,0,1-25.33-7c-.19-.23-.38-.46-.56-.7a23,23,0,0,1,1.2-29.48l0-.05c.15-.17.31-.34.47-.5s.31-.32.47-.47.5-.48.76-.71c.42-.37.85-.72,1.3-1.07A23,23,0,0,1,1016.15,606.9Z" transform="translate(-879.63 -418.19)"/><path class="cls-2" d="M1016.37,607.21a22.88,22.88,0,0,1,2.57,4.69,97,97,0,0,0-35.19,27,22.77,22.77,0,0,1-3.86-3.69,96.25,96.25,0,0,1,36.48-28Z" transform="translate(-879.63 -418.19)"/><path class="cls-3" d="M981.92,637.2c6.4-10.55,26.23-24.59,36-27.62" transform="translate(-879.63 -418.19)"/><path class="cls-2" d="M1015.77,635.45c2.28,3,2.24,6.84-.09,8.63s-6.07.83-8.36-2.14h0c.63-.33,1.24-.68,1.84-1.06,1.87,1.63,3.92,2.24,5.08,1.35s1.1-3,0-5.26c.52-.48,1-1,1.5-1.5Z" transform="translate(-879.63 -418.19)"/><path d="M991.3,611.21a2,2,0,0,1-.28.3,3.59,3.59,0,0,1-1.17.72h0a6.16,6.16,0,0,1-1.12.22h0a6.67,6.67,0,0,1-7.1-4.57,6.77,6.77,0,0,1-.27-3c.16-.16.31-.32.47-.47s.5-.48.76-.71a6.17,6.17,0,0,0,3.25,7.53l.47.19a6.35,6.35,0,0,0,4.2.09A5.16,5.16,0,0,0,991.3,611.21Z" transform="translate(-879.63 -418.19)"/><path d="M992,607.69a3.63,3.63,0,0,1-.4,3.11,3.22,3.22,0,0,1-.32.41,2,2,0,0,1-.28.3,3.59,3.59,0,0,1-1.17.72h0l-.16,0-.11,0a3.51,3.51,0,0,1-.85.14h0a3.56,3.56,0,0,1-2.25-.65,3.72,3.72,0,0,1-.64-.55,3.93,3.93,0,0,1-.75-1.31,3.65,3.65,0,1,1,6.94-2.26Z" transform="translate(-879.63 -418.19)"/><path d="M888.86,645.71l1.61-.82a3.18,3.18,0,0,1,1.44-.36,4.27,4.27,0,0,1,4.32,4.49,4.94,4.94,0,0,1-4.92,5c-3.09,0-4.82-2.74-4.82-6a9.54,9.54,0,0,1,6.07-9,10.11,10.11,0,0,1,2.86-.63l.12.75A8,8,0,0,0,888.86,645.71Zm2.74,7.44c1.87,0,2.52-1.78,2.52-3.46,0-2.11-1.17-3.87-3.19-3.87a3.68,3.68,0,0,0-2.16.7,12.57,12.57,0,0,0-.1,1.56C888.67,650.22,889.27,653.15,891.6,653.15Z" transform="translate(-879.63 -418.19)"/><path d="M1024,419.19a13.35,13.35,0,0,1,13.34,13.34V650.47A13.35,13.35,0,0,1,1024,663.81H894a13.35,13.35,0,0,1-13.34-13.34V432.53A13.35,13.35,0,0,1,894,419.19H1024m0-1H894a14.34,14.34,0,0,0-14.34,14.34V650.47A14.34,14.34,0,0,0,894,664.81H1024a14.34,14.34,0,0,0,14.34-14.34V432.53A14.34,14.34,0,0,0,1024,418.19Z" transform="translate(-879.63 -418.19)"/><path d="M892.8,435l-1.6.82a3.18,3.18,0,0,1-1.44.36,4.27,4.27,0,0,1-4.32-4.49,4.94,4.94,0,0,1,4.92-5c3.09,0,4.82,2.74,4.82,6a9.54,9.54,0,0,1-6.07,9,10.13,10.13,0,0,1-2.86.62l-.12-.74A8,8,0,0,0,892.8,435Zm-2.73-7.44c-1.87,0-2.52,1.78-2.52,3.46,0,2.11,1.17,3.86,3.19,3.86a3.7,3.7,0,0,0,2.16-.69,12.57,12.57,0,0,0,.1-1.56C893,430.47,892.4,427.54,890.07,427.54Z" transform="translate(-879.63 -418.19)"/><path d="M1029.63,435l-1.6.82a3.18,3.18,0,0,1-1.44.36,4.27,4.27,0,0,1-4.32-4.49,4.94,4.94,0,0,1,4.92-5c3.09,0,4.82,2.74,4.82,6a9.54,9.54,0,0,1-6.07,9,10.06,10.06,0,0,1-2.86.62l-.12-.74A8,8,0,0,0,1029.63,435Zm-2.73-7.44c-1.87,0-2.52,1.78-2.52,3.46,0,2.11,1.17,3.86,3.19,3.86a3.68,3.68,0,0,0,2.16-.69,12.57,12.57,0,0,0,.1-1.56C1029.83,430.47,1029.23,427.54,1026.9,427.54Z" transform="translate(-879.63 -418.19)"/><path d="M1025.7,645.71l1.6-.82a3.18,3.18,0,0,1,1.44-.36,4.27,4.27,0,0,1,4.32,4.49,4.94,4.94,0,0,1-4.92,5c-3.09,0-4.82-2.74-4.82-6a9.54,9.54,0,0,1,6.07-9,10.19,10.19,0,0,1,2.86-.63l.12.75A8,8,0,0,0,1025.7,645.71Zm2.73,7.44c1.87,0,2.52-1.78,2.52-3.46,0-2.11-1.17-3.87-3.19-3.87a3.71,3.71,0,0,0-2.16.7,12.57,12.57,0,0,0-.1,1.56C1025.5,650.22,1026.1,653.15,1028.43,653.15Z" transform="translate(-879.63 -418.19)"/><path class="cls-4" d="M961,550" transform="translate(-879.63 -418.19)"/></svg>