<svg xmlns="http://www.w3.org/2000/svg" viewBox="0 0 158.74 246.62"><defs><style>.cls-1{fill:#fcee21;}.cls-2{fill:#c1272d;}.cls-3{fill:none;stroke:#000;stroke-miterlimit:10;stroke-width:2px;}.cls-4{fill:#0071bc;}.cls-5{fill:#d9e021;}.cls-6{fill:#fff;}</style></defs><title>ass</title><g id="Ebene_1" data-name="Ebene 1"><path d="M1025,384.19a13.35,13.35,0,0,1,13.34,13.34V615.47A13.35,13.35,0,0,1,1025,628.81H895a13.35,13.35,0,0,1-13.34-13.34V397.53A13.35,13.35,0,0,1,895,384.19H1025m0-1H895a14.34,14.34,0,0,0-14.34,14.34V615.47A14.34,14.34,0,0,0,895,629.81H1025a14.34,14.34,0,0,0,14.34-14.34V397.53A14.34,14.34,0,0,0,1025,383.19Z" transform="translate(-880.63 -383.19)"/></g><g id="Ebene_3" data-name="Ebene 3"><path class="cls-1" d="M935.73,404.82c.34-.32.68-.62,1-.92a35.94,35.94,0,0,1,6.8-4.59,35.41,35.41,0,0,1,33.33.52,34.71,34.71,0,0,1,3.63,2.31h0c.74.54,1.46,1.1,2.16,1.7a36.52,36.52,0,0,1,3,2.87,35.88,35.88,0,0,1,2.63,3.19q.81,1.11,1.53,2.28h0a34.61,34.61,0,0,1,2,3.79,35.3,35.3,0,0,1-7.11,39.71c-.32.32-.66.64-1,.95A35.35,35.35,0,0,1,938.54,459l-.08-.06c-.29-.21-.56-.43-.84-.65l-.78-.65c-.4-.34-.8-.7-1.19-1.07-.63-.58-1.23-1.18-1.82-1.82A35.34,35.34,0,0,1,935.73,404.82Z" transform="translate(-880.63 -383.19)"/><path class="cls-2" d="M936.18,404.44a35.63,35.63,0,0,1,6.8-4.59,148.8,148.8,0,0,0,46.29,49.95,36,36,0,0,1-5.09,6.44,148,148,0,0,1-48-51.8Z" transform="translate(-880.63 -383.19)"/><path class="cls-3" d="M986.9,452.85c-17-8.3-41.31-36.61-47.32-51.06" transform="translate(-880.63 -383.19)"/><path class="cls-2" d="M979.43,401.35c4.23-3.91,10.13-4.39,13.2-1.08s2.13,9.16-2.09,13.08v0c-.6-.9-1.22-1.79-1.89-2.66,2.23-3.09,2.87-6.31,1.35-7.95s-4.79-1.26-8,.73c-.82-.73-1.65-1.42-2.51-2.08Z" transform="translate(-880.63 -383.19)"/><path d="M945.85,442.18l.49.4a5.37,5.37,0,0,1,1.27,1.69v0a9,9,0,0,1,.5,1.66h0a10.28,10.28,0,0,1-10.51,12.33l-.78-.65c-.4-.34-.8-.7-1.19-1.07a9.42,9.42,0,0,0,11-6,6.34,6.34,0,0,0,.23-.74,9.72,9.72,0,0,0-.47-6.44A10.05,10.05,0,0,0,945.85,442.18Z" transform="translate(-880.63 -383.19)"/><path d="M940.36,441.59a5.54,5.54,0,0,1,4.81.18,5.84,5.84,0,0,1,.68.41l.49.4a5.37,5.37,0,0,1,1.27,1.69v0a1.47,1.47,0,0,1,.1.22c0,.05,0,.11.07.17a5.29,5.29,0,0,1,.33,1.27h0a5.64,5.64,0,0,1-.68,3.54,5.9,5.9,0,0,1-.76,1,5.6,5.6,0,1,1-6.33-9Z" transform="translate(-880.63 -383.19)"/><rect class="cls-4" x="0.37" y="84.81" width="158" height="77"/><polygon class="cls-5" points="25.37 103.81 0.37 84.81 0.37 161.81 25.37 145.81 25.37 103.81"/><polygon class="cls-5" points="133.37 103.81 158.37 84.81 158.37 161.81 133.37 145.81 133.37 103.81"/><ellipse class="cls-6" cx="79.37" cy="123.31" rx="61.35" ry="29"/><path class="cls-1" d="M984.27,608.58c-.34.32-.68.62-1,.92a35.94,35.94,0,0,1-6.8,4.59,35.41,35.41,0,0,1-33.33-.52,34.71,34.71,0,0,1-3.63-2.31h0q-1.11-.81-2.16-1.71a34.78,34.78,0,0,1-3-2.86,35.88,35.88,0,0,1-2.63-3.19q-.81-1.11-1.53-2.28h0a34.61,34.61,0,0,1-2-3.79,35.3,35.3,0,0,1,7.11-39.71c.32-.32.66-.64,1-1a35.33,35.33,0,0,1,45.23-2.35l.08.06c.29.21.56.43.84.65l.78.64,1.19,1.07c.63.59,1.23,1.19,1.82,1.83A35.34,35.34,0,0,1,984.27,608.58Z" transform="translate(-880.63 -383.19)"/><path class="cls-2" d="M983.82,609a35.63,35.63,0,0,1-6.8,4.59,148.8,148.8,0,0,0-46.29-49.95,35.68,35.68,0,0,1,5.09-6.44,147.76,147.76,0,0,1,48,51.8Z" transform="translate(-880.63 -383.19)"/><path class="cls-3" d="M933.1,560.54c17,8.3,41.31,36.62,47.32,51.07" transform="translate(-880.63 -383.19)"/><path class="cls-2" d="M940.57,612c-4.23,3.91-10.13,4.4-13.2,1.09s-2.13-9.16,2.09-13.08v0c.6.9,1.22,1.79,1.89,2.66-2.23,3.09-2.87,6.3-1.35,7.95s4.79,1.25,8-.73c.82.73,1.65,1.42,2.51,2.08Z" transform="translate(-880.63 -383.19)"/><path d="M974.15,571.21a6,6,0,0,1-.49-.39,5.49,5.49,0,0,1-1.27-1.69v0a9.28,9.28,0,0,1-.5-1.66h0a10.26,10.26,0,0,1,10.51-12.33l.78.64,1.19,1.07a9.44,9.44,0,0,0-11,6,6.34,6.34,0,0,0-.23.74,9.72,9.72,0,0,0,.47,6.44A9.2,9.2,0,0,0,974.15,571.21Z" transform="translate(-880.63 -383.19)"/><path d="M979.64,571.81a5.54,5.54,0,0,1-4.81-.18,4.79,4.79,0,0,1-.68-.42,6,6,0,0,1-.49-.39,5.49,5.49,0,0,1-1.27-1.69v0a2.14,2.14,0,0,1-.1-.22s0-.11-.07-.17a5.29,5.29,0,0,1-.33-1.27h0a5.63,5.63,0,0,1,.68-3.54,5.9,5.9,0,0,1,.76-1,5.6,5.6,0,1,1,6.33,8.95Z" transform="translate(-880.63 -383.19)"/></g></svg>