<svg id="Ebene_1" data-name="Ebene 1" xmlns="http://www.w3.org/2000/svg" viewBox="0 0 158.74 246.62"><defs><style>.cls-1{fill:#0071bc;}.cls-2{fill:#ed1c24;}.cls-3{fill:#d9e021;}.cls-4{fill:#ccc;}.cls-5{fill:#fff;}.cls-11,.cls-5{stroke:#000;stroke-miterlimit:10;}.cls-6{fill:#999;}.cls-7{font-size:18px;font-family:MyriadPro-Regular, Myriad Pro;}.cls-8{letter-spacing:-0.02em;}.cls-9{fill:#fcee21;}.cls-10{fill:#c1272d;}.cls-11{fill:none;stroke-width:2px;}</style></defs><title>könig</title><path d="M1025,418.19a13.35,13.35,0,0,1,13.34,13.34V649.47A13.35,13.35,0,0,1,1025,662.81H895a13.35,13.35,0,0,1-13.34-13.34V431.53A13.35,13.35,0,0,1,895,418.19H1025m0-1H895a14.34,14.34,0,0,0-14.34,14.34V649.47A14.34,14.34,0,0,0,895,663.81H1025a14.34,14.34,0,0,0,14.34-14.34V431.53A14.34,14.34,0,0,0,1025,417.19Z" transform="translate(-880.63 -417.19)"/><path class="cls-1" d="M936.5,510.5s7,3,8,4,23-28,28-26c0,0,4,3,11,3S993,489,993,489s17.5,8.5,20.5,13.5l12,20s2,3,2,5-2,4-4,8a94.17,94.17,0,0,0-4,10l-4,4-12-2-2-2v-7s1-7,3-9,2-3,2-3l-4-4-11,15,6,8,2,6,5,8,3,5,3,7,3,7,2,4,1,2-56-46-1-8-4,3-21-17Z" transform="translate(-880.63 -417.19)"/><path class="cls-2" d="M1001.17,571.67S1000,566,999,562s-6-8-5-11,7-14,7-21,0-19,2-23,4.36-10.26,4.36-10.26S999,488,996,488l-3,1s2,2,1,8-5,20-6,27-1,21-1,21l.5,1.5h-7a114.83,114.83,0,0,1,0-20c1-10,3-24,5-28a23.83,23.83,0,0,0,2.35-7.41l-4.35.41-7.69-1.33s-8.31,12.33-9.31,25.33-.89,27.2-.89,27.2l-2.86-2.7s-1.25-27.5,1.75-33.5,9.87-16.94,9.87-16.94l-1.87-1.06S962,502,961,509s-2.5,27.5-2.5,27.5Z" transform="translate(-880.63 -417.19)"/><path class="cls-3" d="M978.42,553.08,999,549.9l-2-5.9-19,2s-1-26,1-36a83.73,83.73,0,0,1,6-18l-8.08-1.46S971,505.07,970,512s-2.42,32-2.42,32Z" transform="translate(-880.63 -417.19)"/><path class="cls-4" d="M1000.8,550.62l-5,5.61A3.25,3.25,0,0,0,995,561c2,3,5,6,6,6s3,0,5-3,4-4,4-7a4.33,4.33,0,0,0-2-4Z" transform="translate(-880.63 -417.19)"/><path class="cls-2" d="M1000,549a10.76,10.76,0,0,0,4,5c3,2,9,2,9,2l6.76-11.25S1012,547,1009,545a59.86,59.86,0,0,1-7-6S998,545,1000,549Z" transform="translate(-880.63 -417.19)"/><path class="cls-4" d="M928.84,504,926,500v-4a13.23,13.23,0,0,0-6-8c-5-3-9-4-12,1l-3,5,18,15,4-1Z" transform="translate(-880.63 -417.19)"/><path class="cls-2" d="M935,516s2.29-3.44,2.15-5.22S932,501,930,501c0,0-1,4-3,5a12.38,12.38,0,0,0-3,2l10,8Z" transform="translate(-880.63 -417.19)"/><polygon class="cls-5" points="138.5 169.5 136.63 171.84 22.24 77.13 24.11 74.78 138.5 169.5"/><path class="cls-3" d="M974,461s-6,13-5,17,3,5,6,4,15,0,15,0l7,5s3,2,4,0,.58-17.4.58-17.4L997,462l-16-2-7-1Z" transform="translate(-880.63 -417.19)"/><path class="cls-4" d="M975,483c-2-1-2-8-2-8V463s2-4,10-1,8,3,8,4-1,16-1,16v3l-10,1-4-1Z" transform="translate(-880.63 -417.19)"/><path class="cls-6" d="M972,488s6,4.63,12,3.81S997,487,997,487l-7-5s-2,3-7,3a15.39,15.39,0,0,1-8-2S974,488,972,488Z" transform="translate(-880.63 -417.19)"/><path class="cls-2" d="M974,461s2-1.74,12,2.13,16,6.87,16,6.87-1-5,1-8c0,0-4-4-12-7s-17-2-17-2Z" transform="translate(-880.63 -417.19)"/><path class="cls-1" d="M974,453s12,0,15.49,1.48S1002,461,1003,462a61.25,61.25,0,0,1,4-6s-7-6-13-8-21-2-21-2Z" transform="translate(-880.63 -417.19)"/><path class="cls-3" d="M973,446s15.28.23,19.64,1.61S1007,456,1007,456l4-4s-11-8-17-9-21-1-21-1Z" transform="translate(-880.63 -417.19)"/><circle class="cls-3" cx="93.62" cy="20.81" r="1.75"/><rect class="cls-3" x="93.12" y="20.81" width="1" height="4"/><circle class="cls-3" cx="97.62" cy="20.81" r="1.75"/><rect class="cls-3" x="97.12" y="20.81" width="1" height="6"/><circle class="cls-3" cx="102.62" cy="20.81" r="1.75"/><rect class="cls-3" x="102.12" y="20.81" width="1" height="6"/><circle class="cls-3" cx="109.62" cy="21.81" r="1.75"/><rect class="cls-3" x="109.12" y="21.81" width="1" height="6"/><circle class="cls-3" cx="117.2" cy="22.89" r="1.75"/><rect class="cls-3" x="996.51" y="439.97" width="1" height="6" transform="translate(-722.3 -671.98) rotate(15.8)"/><circle class="cls-3" cx="123.69" cy="26.1" r="1.75"/><rect class="cls-3" x="1002.31" y="442.88" width="1" height="6" transform="translate(-519.76 -861.45) rotate(30.23)"/><circle class="cls-3" cx="128.89" cy="29.23" r="1.75"/><rect class="cls-3" x="1007.23" y="445.83" width="1" height="6" transform="translate(-412.87 -930.34) rotate(36.69)"/><text class="cls-7" transform="translate(12.7 17.92)"><tspan class="cls-8">K</tspan><tspan x="9.45" y="0">ÖNIG</tspan></text><path class="cls-9" d="M937.2,465.76c0,.28,0,.56,0,.84a21.61,21.61,0,0,1-14.69,19.84,21.09,21.09,0,0,1-2.54.69h0q-.81.17-1.65.27a19.2,19.2,0,0,1-2.53.17,21,21,0,0,1-2.52-.12c-.56-.06-1.12-.14-1.67-.24h0a19.81,19.81,0,0,1-2.55-.64A21.6,21.6,0,0,1,894,467c0-.28,0-.56,0-.84a21.64,21.64,0,0,1,17.57-21.44h.06l.64-.11.61-.09,1-.1c.52,0,1-.06,1.57-.07A21.62,21.62,0,0,1,937.2,465.76Z" transform="translate(-880.63 -417.19)"/><path class="cls-10" d="M937.18,466.11a21.91,21.91,0,0,1-.72,5,91.27,91.27,0,0,0-41.67.38,22.36,22.36,0,0,1-.82-4.95,90.4,90.4,0,0,1,43.21-.4Z" transform="translate(-880.63 -417.19)"/><path class="cls-11" d="M894.39,469.13c10.77-4.29,33.58-3.62,42.59-.39" transform="translate(-880.63 -417.19)"/><path class="cls-10" d="M920.77,487c0,3.52-2.18,6.4-4.94,6.42s-5-2.81-5.06-6.33h0q1,.15,2,.24c.48,2.28,1.67,3.9,3,3.89s2.53-1.65,3-3.94c.67-.07,1.33-.17,2-.28Z" transform="translate(-880.63 -417.19)"/><path d="M916.12,455l-.38.06a3.34,3.34,0,0,1-1.29-.13h0a5.3,5.3,0,0,1-1-.46h0a6.27,6.27,0,0,1-1.25-9.83l.61-.09,1-.1a5.72,5.72,0,0,0-2.19,2.88,5.8,5.8,0,0,0,.37,4.61,4.36,4.36,0,0,0,.24.41,6,6,0,0,0,3.11,2.43A6.94,6.94,0,0,0,916.12,455Z" transform="translate(-880.63 -417.19)"/><path d="M918.65,452.71a3.43,3.43,0,0,1-2.06,2.1,4.19,4.19,0,0,1-.47.14l-.38.06a3.34,3.34,0,0,1-1.29-.13h0l-.14,0-.11,0a2.84,2.84,0,0,1-.71-.38h0a3.45,3.45,0,0,1-1.48-2.53,3.43,3.43,0,1,1,6.66.82Z" transform="translate(-880.63 -417.19)"/><path class="cls-1" d="M984.33,570.87s-7-3-8-4-23,28-28,26c0,0-4-3-11-3s-9.5,2.5-9.5,2.5-17.5-8.5-20.5-13.5l-12-20s-2-3-2-5,2-4,4-8a94.17,94.17,0,0,0,4-10l4-4,12,2,2,2v7s-1,7-3,9-2,3-2,3l4,4,11-15-6-8-2-6-5-8-3-5-3-7-3-7-2-4-1-2,56,46,1,8,4-3,21,17Z" transform="translate(-880.63 -417.19)"/><path class="cls-2" d="M919.67,509.7s1.16,5.67,2.16,9.67,6,8,5,11-7,14-7,21,0,19-2,23-4.36,10.25-4.36,10.25,8.36,8.75,11.36,8.75l3-1s-2-2-1-8,5-20,6-27,1-21,1-21l-.5-1.5h7a114.83,114.83,0,0,1,0,20c-1,10-3,24-5,28a23.82,23.82,0,0,0-2.35,7.4l4.35-.4,7.7,1.33s8.3-12.33,9.3-25.33.89-27.2.89-27.2l2.87,2.7s1.24,27.5-1.76,33.5-9.87,16.93-9.87,16.93l1.87,1.07s10.5-13.5,11.5-20.5,2.5-27.5,2.5-27.5Z" transform="translate(-880.63 -417.19)"/><path class="cls-3" d="M942.42,528.28l-20.55,3.19,2,5.9,19-2s1,26-1,36a84,84,0,0,1-6,18l8.08,1.45s5.93-14.53,6.92-21.45,2.42-32,2.42-32Z" transform="translate(-880.63 -417.19)"/><path class="cls-4" d="M920,530.74l5-5.6a3.25,3.25,0,0,0,.81-4.77c-2-3-5-6-6-6s-3,0-5,3-4,4-4,7a4.33,4.33,0,0,0,2,4Z" transform="translate(-880.63 -417.19)"/><path class="cls-2" d="M920.83,532.37a10.76,10.76,0,0,0-4-5c-3-2-9-2-9-2l-6.75,11.25s7.75-2.25,10.75-.25a59.86,59.86,0,0,1,7,6S922.83,536.37,920.83,532.37Z" transform="translate(-880.63 -417.19)"/><path class="cls-4" d="M992,577.41l2.84,4v4a13.23,13.23,0,0,0,6,8c5,3,9,4,12-1l3-5-18-15-4,1Z" transform="translate(-880.63 -417.19)"/><path class="cls-2" d="M985.83,565.37s-2.29,3.43-2.14,5.21,5.14,9.79,7.14,9.79c0,0,1-4,3-5a12.38,12.38,0,0,0,3-2l-10-8Z" transform="translate(-880.63 -417.19)"/><polygon class="cls-5" points="21.07 77.49 22.94 75.14 137.33 169.86 135.47 172.21 21.07 77.49"/><path class="cls-3" d="M946.83,620.37s6-13,5-17-3-5-6-4-15,0-15,0l-7-5s-3-2-4,0-.58,17.4-.58,17.4l4.58,7.6,16,2,7,1Z" transform="translate(-880.63 -417.19)"/><path class="cls-4" d="M945.83,598.37c2,1,2,8,2,8v12s-2,4-10,1-8-3-8-4,1-16,1-16v-3l10-1,4,1Z" transform="translate(-880.63 -417.19)"/><path class="cls-6" d="M948.83,593.37s-5.94-4.63-12-3.82-13,4.82-13,4.82l7,5s2-3,7-3a15.39,15.39,0,0,1,8,2S946.83,593.37,948.83,593.37Z" transform="translate(-880.63 -417.19)"/><path class="cls-2" d="M946.83,620.37s-2,1.74-12-2.13-16-6.87-16-6.87,1,5-1,8c0,0,4,4,12,7s17,2,17,2Z" transform="translate(-880.63 -417.19)"/><path class="cls-1" d="M946.83,628.37s-12,0-15.48-1.49-12.52-6.51-13.52-7.51a61.25,61.25,0,0,1-4,6s7,6,13,8,21,2,21,2Z" transform="translate(-880.63 -417.19)"/><path class="cls-3" d="M947.83,635.37s-15.27-.23-19.63-1.62-14.37-8.38-14.37-8.38l-4,4s11,8,17,9,21,1,21,1Z" transform="translate(-880.63 -417.19)"/><circle class="cls-3" cx="65.95" cy="226.18" r="1.75"/><rect class="cls-3" x="946.08" y="639.37" width="1" height="4" transform="translate(1012.54 865.54) rotate(-180)"/><circle class="cls-3" cx="61.95" cy="226.18" r="1.75"/><rect class="cls-3" x="942.08" y="637.37" width="1" height="6" transform="translate(1004.54 863.54) rotate(-180)"/><circle class="cls-3" cx="56.95" cy="226.18" r="1.75"/><rect class="cls-3" x="937.08" y="637.37" width="1" height="6" transform="translate(994.54 863.54) rotate(-180)"/><circle class="cls-3" cx="49.95" cy="225.18" r="1.75"/><rect class="cls-3" x="930.08" y="636.37" width="1" height="6" transform="translate(980.54 861.54) rotate(-180)"/><circle class="cls-3" cx="42.37" cy="224.09" r="1.75"/><rect class="cls-3" x="923.32" y="635.4" width="1" height="6" transform="translate(758.22 1087.08) rotate(-164.2)"/><circle class="cls-3" cx="35.88" cy="220.89" r="1.75"/><rect class="cls-3" x="917.52" y="632.48" width="1" height="6" transform="translate(510.62 1229.56) rotate(-149.77)"/><circle class="cls-3" cx="30.68" cy="217.75" r="1.75"/><rect class="cls-3" x="912.61" y="629.54" width="1" height="6" transform="translate(386.81 1268.11) rotate(-143.31)"/><text class="cls-7" transform="translate(146.87 229.06) rotate(180)"><tspan class="cls-8">K</tspan><tspan x="9.45" y="0">ÖNIG</tspan></text><path class="cls-9" d="M983.64,615.61c0-.28,0-.56,0-.84a21.37,21.37,0,0,1,.73-5,21.63,21.63,0,0,1,14-14.87,21.09,21.09,0,0,1,2.54-.69h0c.54-.12,1.1-.21,1.66-.28a23.18,23.18,0,0,1,2.52-.17,21.11,21.11,0,0,1,2.53.13c.56.05,1.11.14,1.66.24h0a21.56,21.56,0,0,1,17.59,20.21c0,.28,0,.56,0,.85a21.62,21.62,0,0,1-17.57,21.43l-.06,0-.63.1c-.21,0-.41.07-.62.09s-.65.08-1,.1c-.52,0-1,.07-1.58.07A21.61,21.61,0,0,1,983.64,615.61Z" transform="translate(-880.63 -417.19)"/><path class="cls-10" d="M983.65,615.25a22,22,0,0,1,.72-5,90.9,90.9,0,0,0,41.67-.38,21.43,21.43,0,0,1,.82,5,90.56,90.56,0,0,1-43.21.39Z" transform="translate(-880.63 -417.19)"/><path class="cls-11" d="M1026.45,612.23c-10.77,4.3-33.58,3.62-42.6.39" transform="translate(-880.63 -417.19)"/><path class="cls-10" d="M1000.06,594.41c0-3.53,2.19-6.4,5-6.43s5,2.81,5.06,6.34h0c-.66-.1-1.32-.18-2-.24-.48-2.28-1.67-3.89-3-3.88s-2.54,1.65-3,3.94c-.66.07-1.32.16-2,.27Z" transform="translate(-880.63 -417.19)"/><path d="M1004.71,626.42l.39-.06a3.56,3.56,0,0,1,1.29.12h0a7,7,0,0,1,1,.46h0a6.29,6.29,0,0,1,1.26,9.83c-.21,0-.41.07-.62.09s-.65.08-1,.1a5.75,5.75,0,0,0,1.81-7.48c-.07-.14-.15-.28-.23-.41a6,6,0,0,0-3.11-2.44A5.41,5.41,0,0,0,1004.71,626.42Z" transform="translate(-880.63 -417.19)"/><path d="M1002.19,628.66a3.4,3.4,0,0,1,2.06-2.11,4,4,0,0,1,.46-.13l.39-.06a3.56,3.56,0,0,1,1.29.12h0l.14,0,.1,0a3.49,3.49,0,0,1,.72.37h0a3.44,3.44,0,0,1,1.32,1.76,2.92,2.92,0,0,1,.16.78,3.42,3.42,0,1,1-6.65-.82Z" transform="translate(-880.63 -417.19)"/></svg>