<svg xmlns="http://www.w3.org/2000/svg" viewBox="0 0 158.74 246.62"><defs><style>.cls-1{font-size:18px;font-family:MyriadPro-Regular, Myriad Pro;}.cls-2{fill:#fcee21;}.cls-3{fill:#c1272d;}.cls-10,.cls-4,.cls-9{fill:none;}.cls-10,.cls-11,.cls-13,.cls-14,.cls-4,.cls-9{stroke:#000;stroke-miterlimit:10;}.cls-4{stroke-width:2px;}.cls-5{fill:#0071bc;}.cls-6{fill:#d9e021;}.cls-7{fill:#cc051d;}.cls-8{fill:#a00822;}.cls-10,.cls-9{stroke-linecap:round;}.cls-10{stroke-width:0.5px;}.cls-11,.cls-12{fill:#b3b3b3;}.cls-11,.cls-13{stroke-width:0.3px;}.cls-14{fill:#fff;}</style></defs><title>ober</title><g id="Ebene_1" data-name="Ebene 1"><path d="M1023,419.19a13.35,13.35,0,0,1,13.34,13.34V650.47A13.35,13.35,0,0,1,1023,663.81H893a13.35,13.35,0,0,1-13.34-13.34V432.53A13.35,13.35,0,0,1,893,419.19H1023m0-1H893a14.34,14.34,0,0,0-14.34,14.34V650.47A14.34,14.34,0,0,0,893,664.81H1023a14.34,14.34,0,0,0,14.34-14.34V432.53A14.34,14.34,0,0,0,1023,418.19Z" transform="translate(-878.63 -418.19)"/></g><g id="Ebene_4" data-name="Ebene 4"><text class="cls-1" transform="translate(4.87 19.28)">OBER</text><path class="cls-2" d="M943.2,462.76c0,.28,0,.56,0,.84a21.61,21.61,0,0,1-14.69,19.84,21.09,21.09,0,0,1-2.54.69h0q-.81.17-1.65.27a19.2,19.2,0,0,1-2.53.17,21,21,0,0,1-2.52-.12c-.56-.06-1.12-.14-1.67-.24h0a19.81,19.81,0,0,1-2.55-.64A21.6,21.6,0,0,1,900,464c0-.28,0-.56,0-.84a21.64,21.64,0,0,1,17.57-21.44h.06l.64-.11.61-.09,1-.1c.52,0,1-.06,1.57-.07A21.62,21.62,0,0,1,943.2,462.76Z" transform="translate(-878.63 -418.19)"/><path class="cls-3" d="M943.18,463.11a21.91,21.91,0,0,1-.72,5,91.27,91.27,0,0,0-41.67.38,22.36,22.36,0,0,1-.82-4.95,90.4,90.4,0,0,1,43.21-.4Z" transform="translate(-878.63 -418.19)"/><path class="cls-4" d="M900.39,466.13c10.77-4.29,33.58-3.62,42.59-.39" transform="translate(-878.63 -418.19)"/><path class="cls-3" d="M926.77,484c0,3.52-2.18,6.4-4.94,6.42s-5-2.81-5.06-6.33h0q1,.15,2,.24c.48,2.28,1.67,3.9,3,3.89s2.53-1.65,3-3.94c.67-.07,1.33-.17,2-.28Z" transform="translate(-878.63 -418.19)"/><path d="M922.12,452l-.38.06a3.34,3.34,0,0,1-1.29-.13h0a5.3,5.3,0,0,1-1-.46h0a6.27,6.27,0,0,1-1.25-9.83l.61-.09,1-.1a5.72,5.72,0,0,0-2.19,2.88,5.8,5.8,0,0,0,.37,4.61,4.36,4.36,0,0,0,.24.41,6,6,0,0,0,3.11,2.43A6.94,6.94,0,0,0,922.12,452Z" transform="translate(-878.63 -418.19)"/><path d="M924.65,449.71a3.43,3.43,0,0,1-2.06,2.1,4.19,4.19,0,0,1-.47.14l-.38.06a3.34,3.34,0,0,1-1.29-.13h0l-.14,0-.11,0a2.84,2.84,0,0,1-.71-.38h0a3.45,3.45,0,0,1-1.48-2.53,3.43,3.43,0,1,1,6.66.82Z" transform="translate(-878.63 -418.19)"/><path class="cls-5" d="M922.5,522.5s7-2,7-3,5-2,5-2h2s2,5,4,4,5-5,5-5l13,5s-1,6-1,7-1,9-1,9Z" transform="translate(-878.63 -418.19)"/><path class="cls-6" d="M949,513s2-4,4-5,5-2,7-5a59.86,59.86,0,0,1,6-7l3-2,3-1h6l4-2,4-1,3-1s11,10,15,19,8,17,11,56l-50-22Z" transform="translate(-878.63 -418.19)"/><path class="cls-7" d="M956,537l11,5s0-10-6-18a145.62,145.62,0,0,0-10.85-13L945,516s3,2,7,11S956,537,956,537Z" transform="translate(-878.63 -418.19)"/><circle class="cls-8" cx="73.37" cy="100.81" r="2"/><circle class="cls-8" cx="77.37" cy="106.81" r="2"/><circle class="cls-8" cx="80.37" cy="113.81" r="2"/><circle class="cls-8" cx="82.37" cy="120.81" r="2"/><path class="cls-9" d="M1002,553s-8-6-10-12-11-26-14-28" transform="translate(-878.63 -418.19)"/><path class="cls-5" d="M978.5,513.5s-4-7-8-8-9,2-9,2,4-1,5,0,1,2,4,3S978.5,513.5,978.5,513.5Z" transform="translate(-878.63 -418.19)"/><path class="cls-10" d="M979.65,514.93S979,508,981,507" transform="translate(-878.63 -418.19)"/><circle class="cls-5" cx="104.87" cy="89.31" r="3"/><path class="cls-10" d="M986.15,527.43s-.65-6.93,1.35-7.93" transform="translate(-878.63 -418.19)"/><circle class="cls-5" cx="111.37" cy="101.81" r="3"/><path class="cls-10" d="M991.15,539.43s-.65-6.93,1.35-7.93" transform="translate(-878.63 -418.19)"/><circle class="cls-5" cx="116.37" cy="113.81" r="3"/><path class="cls-10" d="M992.48,542.75s-3.55-6-5.75-5.62" transform="translate(-878.63 -418.19)"/><circle class="cls-5" cx="106.37" cy="120.81" r="3"/><path class="cls-10" d="M986.23,527.51s-5.08-4.76-7.09-3.79" transform="translate(-878.63 -418.19)"/><circle class="cls-5" cx="99.37" cy="107.81" r="3"/><path class="cls-10" d="M979.74,514.83s-6.84-1.27-8,.64" transform="translate(-878.63 -418.19)"/><circle class="cls-5" cx="93.37" cy="99.81" r="3"/><path class="cls-11" d="M929,506a6.93,6.93,0,0,1,0-5,10.56,10.56,0,0,0,0-6v-8a3.49,3.49,0,0,0-2-1c-1,0-1,6-1,6s-1-7-2-7-11,5-9,13,4,11,4,11h8Z" transform="translate(-878.63 -418.19)"/><path class="cls-7" d="M936,517s-3,4-5,5-6.75,1.59-6.75,1.59L921,522l-3-9a10.07,10.07,0,0,1-1-3c0-1,3-1,3-1a10,10,0,0,0,4-1,47.09,47.09,0,0,1,5-2s4-1,5,1a39.33,39.33,0,0,1,2,6v4Z" transform="translate(-878.63 -418.19)"/><path class="cls-12" d="M972.19,491.33,970,488a4.94,4.94,0,0,1-3-1c-1-1-1-4-1-4l-1-2v-1s0,1-1,0a1.88,1.88,0,0,1,0-3l1-1s-2,2-3,0,0-3,1-5,1,0,2-3,0-3,0-4,2-4,2-4l6-1a66.59,66.59,0,0,0,7,3,14.09,14.09,0,0,1,5,3s4,3,4,4,1,2,1,3v5l-1,1s2,4,2,5-3,3-3,3l-1,2s-3.3,2.08-3.15,2.54S973,494,972,493A1,1,0,0,1,972.19,491.33Z" transform="translate(-878.63 -418.19)"/><path class="cls-13" d="M968,468" transform="translate(-878.63 -418.19)"/><path class="cls-7" d="M968.57,492.3a1.67,1.67,0,0,1,1.76-1.14c2.18.24,6.49.57,8.67-.16a45.82,45.82,0,0,0,7.62-4.11,1.68,1.68,0,0,1,2.3.49L990,489s-6,4-10,5-12,0-12,0Z" transform="translate(-878.63 -418.19)"/><ellipse cx="120.37" cy="34.81" rx="3" ry="1"/><path class="cls-6" d="M971,455a27.33,27.33,0,0,1,12-5c7-1,16,4,16,4s3,4-1,12-5,9-5,9Z" transform="translate(-878.63 -418.19)"/><path class="cls-7" d="M991,478l4-3s-4-9-11-14a35.35,35.35,0,0,0-14-6l-3,5a20,20,0,0,1,13,6C986,472,991,478,991,478Z" transform="translate(-878.63 -418.19)"/><ellipse class="cls-7" cx="1006" cy="454" rx="5" ry="7" transform="translate(-887.08 470.61) rotate(-47.49)"/><line class="cls-9" x1="85.04" y1="61.86" x2="71.37" y2="64.81"/><path d="M949.52,483.28a.65.65,0,0,0,1.15-.34c.24-2.33.55-6.44-.17-6.44-1,0-6,1-5,2C946.18,479.18,948.27,481.74,949.52,483.28Z" transform="translate(-878.63 -418.19)"/><rect class="cls-14" x="957.32" y="476.22" width="2.47" height="127" transform="translate(967.81 -527.94) rotate(114.43)"/><text class="cls-1" transform="translate(155.25 224.14) rotate(180)">OBER</text><path class="cls-2" d="M974.19,617c0-.28,0-.56,0-.84a21.91,21.91,0,0,1,.72-5,21.67,21.67,0,0,1,14-14.88,19.79,19.79,0,0,1,2.54-.68h0c.55-.12,1.1-.21,1.66-.28a22.05,22.05,0,0,1,5,0c.56.06,1.11.15,1.66.25h0a21.59,21.59,0,0,1,16.78,15.26,22.36,22.36,0,0,1,.82,4.95c0,.28,0,.56,0,.85a21.61,21.61,0,0,1-17.57,21.43h-.05c-.22,0-.43.08-.64.11s-.41.07-.62.09-.65.08-1,.1c-.52,0-1.05.07-1.58.07A21.61,21.61,0,0,1,974.19,617Z" transform="translate(-878.63 -418.19)"/><path class="cls-3" d="M974.2,616.68a21.45,21.45,0,0,1,.73-5,90.86,90.86,0,0,0,41.66-.38,21.43,21.43,0,0,1,.82,5,90.56,90.56,0,0,1-43.21.39Z" transform="translate(-878.63 -418.19)"/><path class="cls-4" d="M1017,613.66c-10.77,4.3-33.58,3.62-42.6.39" transform="translate(-878.63 -418.19)"/><path class="cls-3" d="M990.62,595.84c0-3.53,2.18-6.4,4.94-6.43s5,2.81,5.06,6.33h0q-1-.15-2-.24c-.48-2.28-1.68-3.89-3-3.88s-2.54,1.65-3,3.94c-.66.07-1.32.16-2,.27Z" transform="translate(-878.63 -418.19)"/><path d="M995.27,627.85a2.32,2.32,0,0,1,.38-.06,3.35,3.35,0,0,1,1.29.12h0a6.07,6.07,0,0,1,1,.46h0a6.29,6.29,0,0,1,1.26,9.83c-.21,0-.41.07-.62.09s-.65.08-1,.1a5.75,5.75,0,0,0,1.81-7.48c-.07-.14-.15-.28-.23-.41a6,6,0,0,0-3.11-2.44A5.64,5.64,0,0,0,995.27,627.85Z" transform="translate(-878.63 -418.19)"/><path d="M992.74,630.09A3.4,3.4,0,0,1,994.8,628a3.62,3.62,0,0,1,.47-.13,2.32,2.32,0,0,1,.38-.06,3.35,3.35,0,0,1,1.29.12h0l.14.05.1,0a3.49,3.49,0,0,1,.72.37h0a3.51,3.51,0,0,1,1.33,1.76,3.56,3.56,0,0,1,0,2.18,3.42,3.42,0,1,1-6.48-2.22Z" transform="translate(-878.63 -418.19)"/><path class="cls-5" d="M994.88,557.29s-7,2-7,3-5,2-5,2h-2s-2-5-4-4-5,5-5,5l-13-5s1-6,1-7,1-9,1-9Z" transform="translate(-878.63 -418.19)"/><path class="cls-6" d="M968.38,566.79s-2,4-4,5-5,2-7,5a59.86,59.86,0,0,1-6,7l-3,2-3,1h-6l-4,2-4,1-3,1s-11-10-15-19-8-17-11-56l50,22Z" transform="translate(-878.63 -418.19)"/><path class="cls-7" d="M961.38,542.79l-11-5s0,10,6,18a145.62,145.62,0,0,0,10.85,13l5.15-5s-3-2-7-11S961.38,542.79,961.38,542.79Z" transform="translate(-878.63 -418.19)"/><circle class="cls-8" cx="86.75" cy="142.6" r="2"/><circle class="cls-8" cx="82.75" cy="136.6" r="2"/><circle class="cls-8" cx="79.75" cy="129.6" r="2"/><circle class="cls-8" cx="77.75" cy="122.6" r="2"/><path class="cls-9" d="M915.38,526.79s8,6,10,12,11,26,14,28" transform="translate(-878.63 -418.19)"/><path class="cls-5" d="M938.88,566.29s4,7,8,8,9-2,9-2-4,1-5,0-1-2-4-3S938.88,566.29,938.88,566.29Z" transform="translate(-878.63 -418.19)"/><path class="cls-10" d="M937.73,564.87s.65,6.92-1.35,7.92" transform="translate(-878.63 -418.19)"/><circle class="cls-5" cx="55.25" cy="154.1" r="3"/><path class="cls-10" d="M931.23,552.37s.65,6.92-1.35,7.92" transform="translate(-878.63 -418.19)"/><circle class="cls-5" cx="48.75" cy="141.6" r="3"/><path class="cls-10" d="M926.23,540.37s.65,6.92-1.35,7.92" transform="translate(-878.63 -418.19)"/><circle class="cls-5" cx="43.75" cy="129.6" r="3"/><path class="cls-10" d="M924.91,537.05s3.54,6,5.75,5.62" transform="translate(-878.63 -418.19)"/><circle class="cls-5" cx="53.75" cy="122.6" r="3"/><path class="cls-10" d="M931.16,552.28s5.07,4.76,7.09,3.8" transform="translate(-878.63 -418.19)"/><circle class="cls-5" cx="60.75" cy="135.6" r="3"/><path class="cls-10" d="M937.65,565s6.84,1.27,8-.63" transform="translate(-878.63 -418.19)"/><circle class="cls-5" cx="66.75" cy="143.6" r="3"/><path class="cls-11" d="M988.38,573.79a6.93,6.93,0,0,1,0,5,10.56,10.56,0,0,0,0,6v8a3.49,3.49,0,0,0,2,1c1,0,1-6,1-6s1,7,2,7,11-5,9-13-4-11-4-11h-8Z" transform="translate(-878.63 -418.19)"/><path class="cls-7" d="M981.38,562.79s3-4,5-5,6.75-1.58,6.75-1.58l3.25,1.58,3,9a10.07,10.07,0,0,1,1,3c0,1-3,1-3,1a10,10,0,0,0-4,1,47.09,47.09,0,0,1-5,2s-4,1-5-1a39.33,39.33,0,0,1-2-6v-4Z" transform="translate(-878.63 -418.19)"/><path class="cls-12" d="M945.2,588.47l2.18,3.32a4.94,4.94,0,0,1,3,1c1,1,1,4,1,4l1,2v1s0-1,1,0a1.87,1.87,0,0,1,0,3l-1,1s2-2,3,0,0,3-1,5-1,0-2,3,0,3,0,4-2,4-2,4l-6,1a66.59,66.59,0,0,0-7-3,14.09,14.09,0,0,1-5-3s-4-3-4-4-1-2-1-3v-5l1-1s-2-4-2-5,3-3,3-3l1-2s3.31-2.07,3.16-2.53,10.84-3.47,11.84-2.47A1,1,0,0,1,945.2,588.47Z" transform="translate(-878.63 -418.19)"/><path class="cls-13" d="M949.38,611.79" transform="translate(-878.63 -418.19)"/><path class="cls-7" d="M948.82,587.49a1.67,1.67,0,0,1-1.77,1.14c-2.18-.23-6.48-.56-8.67.16a46.62,46.62,0,0,0-7.62,4.11,1.68,1.68,0,0,1-2.3-.49l-1.08-1.62s6-4,10-5,12,0,12,0Z" transform="translate(-878.63 -418.19)"/><ellipse cx="39.75" cy="208.6" rx="3" ry="1"/><path class="cls-6" d="M946.38,624.79a27.33,27.33,0,0,1-12,5c-7,1-16-4-16-4s-3-4,1-12,5-9,5-9Z" transform="translate(-878.63 -418.19)"/><path class="cls-7" d="M926.38,601.79l-4,3s4,9,11,14a35.35,35.35,0,0,0,14,6l3-5a20,20,0,0,1-13-6C931.38,607.79,926.38,601.79,926.38,601.79Z" transform="translate(-878.63 -418.19)"/><ellipse class="cls-7" cx="911.38" cy="625.79" rx="5" ry="7" transform="translate(-1044.4 456.57) rotate(-47.49)"/><line class="cls-9" x1="75.09" y1="181.56" x2="88.75" y2="178.6"/><path d="M967.86,596.51a.65.65,0,0,0-1.15.34c-.23,2.33-.54,6.44.17,6.44,1,0,6-1,5-2C971.2,600.61,969.12,598.06,967.86,596.51Z" transform="translate(-878.63 -418.19)"/><rect class="cls-14" x="957.59" y="476.58" width="2.47" height="127" transform="translate(-808.13 771.44) rotate(-65.57)"/></g></svg>