<svg xmlns="http://www.w3.org/2000/svg" viewBox="0 0 158.74 246.62"><defs><style>.cls-1{font-size:18px;font-family:MyriadPro-Regular, Myriad Pro;}.cls-2,.cls-7{fill:#b3b3b3;}.cls-14,.cls-15,.cls-2{stroke:#000;}.cls-14,.cls-15,.cls-2,.cls-5,.cls-6,.cls-7,.cls-8{stroke-miterlimit:10;}.cls-2,.cls-6,.cls-7,.cls-8{stroke-width:0.3px;}.cls-3{fill:#0071bc;}.cls-4,.cls-6{fill:#d9e021;}.cls-14,.cls-5{fill:none;}.cls-5{stroke:#cc051d;stroke-linecap:round;stroke-width:3px;}.cls-6,.cls-7,.cls-8{stroke:#1a1a1a;}.cls-10,.cls-8{fill:#cc051d;}.cls-9{fill:#1a1a1a;}.cls-11{fill:#ccc;}.cls-12{fill:#fcee21;}.cls-13{fill:#c1272d;}.cls-14{stroke-width:2px;}.cls-15{fill:#fff;}</style></defs><title>under</title><g id="Ebene_1" data-name="Ebene 1"><path d="M920.12,493.94a13.35,13.35,0,0,1,13.34,13.34V725.22a13.35,13.35,0,0,1-13.34,13.34H790.06a13.35,13.35,0,0,1-13.34-13.34V507.28a13.35,13.35,0,0,1,13.34-13.34H920.12m0-1H790.06a14.34,14.34,0,0,0-14.34,14.34V725.22a14.34,14.34,0,0,0,14.34,14.34H920.12a14.34,14.34,0,0,0,14.34-14.34V507.28a14.34,14.34,0,0,0-14.34-14.34Z" transform="translate(-775.72 -492.94)"/><text class="cls-1" transform="translate(4.87 19.28)">UNDER</text><text class="cls-1" transform="translate(152.37 229.03) rotate(180)">UNDER</text></g><g id="Ebene_3" data-name="Ebene 3"><path class="cls-2" d="M801.74,540.62a6.06,6.06,0,0,1-.48-2.79Z" transform="translate(-775.72 -492.94)"/><path class="cls-3" d="M842.5,643.5l-12,28-7,2-5-7,3-12,6-9,7-10,4-12A17.1,17.1,0,0,0,837,615c-2-4-2-5-2-5s-8,8-14,10a164.69,164.69,0,0,1-17,4s-8-6-8-16-3-25-3-25l3-8,14,4s5,8,5,12v8l8-12,19-14,17-9,10-3h7l11-1-11,3Z" transform="translate(-775.72 -492.94)"/><path class="cls-4" d="M791.5,581.5l-3-9a3.08,3.08,0,0,1,4-4c2,1,5,1,8,0s5-2,6-3,3-1,3,5-.38,7.55-.38,7.55L795.5,582.5Z" transform="translate(-775.72 -492.94)"/><path class="cls-5" d="M793,582a44,44,0,0,0,9-1,41.3,41.3,0,0,0,9-4" transform="translate(-775.72 -492.94)"/><path class="cls-2" d="M803,548l-6,8-3.69-4.92A26.9,26.9,0,0,0,797,553c2,1,3-2,4-4a5.72,5.72,0,0,1,1.83-2Z" transform="translate(-775.72 -492.94)"/><polygon class="cls-6" points="27.28 55.06 21.28 63.06 21.28 20.06 25.54 44.89 26.02 47.68 27.11 54.1 27.28 55.06"/><path class="cls-7" d="M806,565l1,2-1,2-1,1-4,1h-7a10.07,10.07,0,0,1-1-3c0-1-3-6-5-8s-2-7-2-14,3-11,5-12c.92-.46,1.63.14,2.23,1a32.66,32.66,0,0,0,1.77,3c1,1,1,7,1,8s-4,2-4,3a1.58,1.58,0,0,0,0,.38,2.92,2.92,0,0,0,1.27,1.7L797,556l6-8-.17-1a2.41,2.41,0,0,0,1.17-2,5.2,5.2,0,0,0-2-4,1.34,1.34,0,0,1-.26-.38l-.48-2.79c0-1,.28-1.83.74-1.83,1,0,6,6,6,10s-1,11-2,13S806,565,806,565Z" transform="translate(-775.72 -492.94)"/><path class="cls-8" d="M797,513v43l-3.69-4.92-1.27-1.7a1.58,1.58,0,0,1,0-.38c0-1,4-2,4-3s0-7-1-8a32.66,32.66,0,0,1-1.77-3Z" transform="translate(-775.72 -492.94)"/><path class="cls-4" d="M823,585s4-12,9-14,8-1,12-3a37.32,37.32,0,0,0,8-6l6-2,5,1,.85,1.54L863,576s-4,19-4,20-16-1-19-4S823,585,823,585Z" transform="translate(-775.72 -492.94)"/><path class="cls-5" d="M823,586s9,2,11,4,14,7,17,7h8" transform="translate(-775.72 -492.94)"/><path class="cls-9" d="M845.76,537s-4.76-2-6.76-4-2-13-2-13,14,1,15,5,0,6,0,6Z" transform="translate(-775.72 -492.94)"/><path class="cls-9" d="M866.22,528.54s2-4.76,4-6.76,13-2,13-2-1,14-5,15-6,0-6,0Z" transform="translate(-775.72 -492.94)"/><path class="cls-9" d="M880.69,551s4.75,2,6.75,4,2,13,2,13-14-1-15-5,0-6,0-6Z" transform="translate(-775.72 -492.94)"/><path class="cls-9" d="M853.23,555.47s-2,4.76-4,6.76-13,2-13,2,1-14,5-15,6,0,6,0Z" transform="translate(-775.72 -492.94)"/><path class="cls-10" d="M868.5,528.5s4-4,4-9-3-8-5-10-3-2-4-4a10,10,0,0,1-1-4s-14,6-14,16,6,15,6,15l12-3Z" transform="translate(-775.72 -492.94)"/><path class="cls-3" d="M865,529s3-5,3-8,0-6-3-8-4-2-4-4v-4s-8,3-8,14,6,11,6,11Z" transform="translate(-775.72 -492.94)"/><path class="cls-9" d="M862,528s2-4,2-7-1-5-3-6-1-4-1-4-5,6-4,10,5.25,8.63,5.25,8.63Z" transform="translate(-775.72 -492.94)"/><path class="cls-10" d="M846,535.5s-4-4-9-4-8,3-10,5-2,3-4,4a10,10,0,0,1-4,1s6,14,16,14,15-6,15-6l-3-12Z" transform="translate(-775.72 -492.94)"/><path class="cls-3" d="M846.5,539s-5-3-8-3-6,0-8,3-2,4-4,4h-4s3,8,14,8,11-6,11-6Z" transform="translate(-775.72 -492.94)"/><path class="cls-9" d="M845.5,542s-4-2-7-2-5,1-6,3-4,1-4,1,6,5,10,4,8.63-5.25,8.63-5.25Z" transform="translate(-775.72 -492.94)"/><path class="cls-10" d="M880,550.5s4,4,9,4,8-3,10-5,2-3,4-4a10,10,0,0,1,4-1s-6-14-16-14-15,6-15,6l3,12Z" transform="translate(-775.72 -492.94)"/><path class="cls-3" d="M879.5,547s5,3,8,3,6,0,8-3,2-4,4-4h4s-3-8-14-8-11,6-11,6Z" transform="translate(-775.72 -492.94)"/><path class="cls-9" d="M880.5,544s4,2,7,2,5-1,6-3,4-1,4-1-6-5-10-4-8.62,5.25-8.62,5.25Z" transform="translate(-775.72 -492.94)"/><circle class="cls-10" cx="61.78" cy="88.56" r="5"/><circle class="cls-10" cx="85.78" cy="93.56" r="4"/><circle class="cls-10" cx="87.28" cy="52.06" r="19"/><circle class="cls-11" cx="87.28" cy="52.06" r="16"/><path class="cls-4" d="M847.58,631.17,846,625s1-4,3-4a4.38,4.38,0,0,1,3,1Z" transform="translate(-775.72 -492.94)"/><path class="cls-2" d="M848,627v4s-3,6-6,8c-2.63,1.76-6.81,2-7.79,2a23.31,23.31,0,0,0-1.51-3.44,20.6,20.6,0,0,0-1.19-1.94,5.8,5.8,0,0,0-.34-.52h0c-.25-.36-.52-.71-.81-1.06-.1-.14-.21-.28-.32-.41a22.85,22.85,0,0,0-1.91-2,23.26,23.26,0,0,0-2-1.72,4.48,4.48,0,0,1-.15-.64,2.07,2.07,0,0,1,0-1.22,7,7,0,0,1,2.58-2.29A18.36,18.36,0,0,1,837,623a29.56,29.56,0,0,1,9,2Z" transform="translate(-775.72 -492.94)"/><path class="cls-2" d="M834.21,641H834l-3-1s-4-6.6-4.9-10.14a23.26,23.26,0,0,1,2,1.72,22.85,22.85,0,0,1,1.91,2c.11.13.22.27.32.41.29.35.56.7.81,1.06h0a5.8,5.8,0,0,1,.34.52,20.6,20.6,0,0,1,1.19,1.94A23.31,23.31,0,0,1,834.21,641Z" transform="translate(-775.72 -492.94)"/><path class="cls-12" d="M832.75,660.06a23.74,23.74,0,0,1-3.15,4.55l-.63.69a23.85,23.85,0,0,1-30.37,3.5l-.05,0-.59-.4-.56-.41c-.28-.21-.57-.43-.85-.67-.44-.36-.87-.74-1.3-1.15a23.84,23.84,0,0,1-.84-33.71l.28-.28a4.4,4.4,0,0,1,.37-.38,23.49,23.49,0,0,1,4.39-3.38,23.88,23.88,0,0,1,22.47-1.08c.65.31,1.29.65,1.92,1h0l.6.37h0c.38.24.75.49,1.11.76.14.09.28.2.41.3l.11.08a23.26,23.26,0,0,1,2,1.72,22.85,22.85,0,0,1,1.91,2c.11.13.22.27.32.41.29.35.56.7.81,1.06h0a5.8,5.8,0,0,1,.34.52,20.6,20.6,0,0,1,1.19,1.94,23.31,23.31,0,0,1,1.51,3.44A23.9,23.9,0,0,1,832.75,660.06Z" transform="translate(-775.72 -492.94)"/><path class="cls-13" d="M794.69,632.15a24.26,24.26,0,0,1,4.39-3.38,100.61,100.61,0,0,0,33.3,31.68,23.74,23.74,0,0,1-3.15,4.55,99.74,99.74,0,0,1-34.54-32.85Z" transform="translate(-775.72 -492.94)"/><path class="cls-14" d="M830.92,662.61c-11.83-4.87-29.39-22.91-34-32.39" transform="translate(-775.72 -492.94)"/><path class="cls-13" d="M823.69,628.23a8,8,0,0,1,4.89-2.52A7,7,0,0,0,826,628a2.07,2.07,0,0,0,0,1.22l-.37.26-.1.06c-.53-.42-1.07-.81-1.62-1.19h0l-.14-.1Z" transform="translate(-775.72 -492.94)"/><path class="cls-13" d="M831.51,635.62c-.38-.51-.79-1-1.21-1.5a.41.41,0,0,0,.05-.09c.29.35.56.7.81,1.06h0A5.8,5.8,0,0,1,831.51,635.62Z" transform="translate(-775.72 -492.94)"/><path d="M802.81,657.17a2.71,2.71,0,0,1,.35.24,3.79,3.79,0,0,1,.93,1.09h0a5.62,5.62,0,0,1,.41,1.1h0a6.94,6.94,0,0,1-6.55,8.76l-.56-.41c-.28-.21-.57-.43-.85-.67a6.37,6.37,0,0,0,7.19-4.53c0-.17.09-.34.12-.51a6.56,6.56,0,0,0-.59-4.32A6.39,6.39,0,0,0,802.81,657.17Z" transform="translate(-775.72 -492.94)"/><path d="M799.09,657a3.78,3.78,0,0,1,3.25-.09,4.31,4.31,0,0,1,.47.26,2.71,2.71,0,0,1,.35.24,3.79,3.79,0,0,1,.93,1.09h0a1,1,0,0,1,.08.14l.05.11a3.39,3.39,0,0,1,.28.85h0a3.76,3.76,0,0,1-.31,2.41,3.8,3.8,0,0,1-.46.74,3.94,3.94,0,0,1-1.22,1,3.78,3.78,0,0,1-3.43-6.74Z" transform="translate(-775.72 -492.94)"/><path class="cls-3" d="M867.5,590.5l12-28,7-2,5,7-3,12-6,9-7,10-4,12A17.1,17.1,0,0,0,873,619c2,4,2,5,2,5s8-8,14-10a164.69,164.69,0,0,1,17-4s8,6,8,16,3,25,3,25l-3,8-14-4s-5-8-5-12v-8l-8,12-19,14-17,9-10,3h-7l-11,1,11-3Z" transform="translate(-775.72 -492.94)"/><path class="cls-4" d="M918.5,652.5l3,9a3.08,3.08,0,0,1-4,4c-2-1-5-1-8,0s-5,2-6,3-3,1-3-5,.38-7.55.38-7.55l13.62-4.45Z" transform="translate(-775.72 -492.94)"/><path class="cls-5" d="M917,652a44,44,0,0,0-9,1,41.3,41.3,0,0,0-9,4" transform="translate(-775.72 -492.94)"/><path class="cls-2" d="M907,686l6-8,3.69,4.92A26.9,26.9,0,0,0,913,681c-2-1-3,2-4,4a5.72,5.72,0,0,1-1.83,2Z" transform="translate(-775.72 -492.94)"/><polygon class="cls-6" points="131.28 193.06 137.28 185.06 137.28 228.06 133.02 203.23 132.54 200.44 131.45 194.02 131.28 193.06"/><path class="cls-7" d="M904,669l-1-2,1-2,1-1,4-1h7a10.07,10.07,0,0,1,1,3c0,1,3,6,5,8s2,7,2,14-3,11-5,12c-.92.46-1.63-.14-2.23-1a32.66,32.66,0,0,0-1.77-3c-1-1-1-7-1-8s4-2,4-3a1.58,1.58,0,0,0,0-.38,2.92,2.92,0,0,0-1.27-1.7L913,678l-6,8,.17,1a2.41,2.41,0,0,0-1.17,2,5.2,5.2,0,0,0,2,4,1.34,1.34,0,0,1,.26.38l.48,2.79c0,1-.28,1.83-.74,1.83-1,0-6-6-6-10s1-11,2-13S904,669,904,669Z" transform="translate(-775.72 -492.94)"/><path class="cls-8" d="M913,721V678l3.69,4.92,1.27,1.7a1.58,1.58,0,0,1,0,.38c0,1-4,2-4,3s0,7,1,8a32.66,32.66,0,0,1,1.77,3Z" transform="translate(-775.72 -492.94)"/><path class="cls-4" d="M887,649s-4,12-9,14-8,1-12,3a37.32,37.32,0,0,0-8,6l-6,2-5-1-.85-1.54L847,658s4-19,4-20,16,1,19,4S887,649,887,649Z" transform="translate(-775.72 -492.94)"/><path class="cls-5" d="M887,648s-9-2-11-4-14-7-17-7h-8" transform="translate(-775.72 -492.94)"/><path class="cls-9" d="M864.24,697s4.76,2,6.76,4,2,13,2,13-14-1-15-5,0-6,0-6Z" transform="translate(-775.72 -492.94)"/><path class="cls-9" d="M843.78,705.46s-2,4.76-4,6.76-13,2-13,2,1-14,5-15,6,0,6,0Z" transform="translate(-775.72 -492.94)"/><path class="cls-9" d="M829.31,683s-4.75-2-6.75-4-2-13-2-13,14,1,15,5,0,6,0,6Z" transform="translate(-775.72 -492.94)"/><path class="cls-9" d="M856.77,678.53s2-4.76,4-6.76,13-2,13-2-1,14-5,15-6,0-6,0Z" transform="translate(-775.72 -492.94)"/><path class="cls-10" d="M841.5,705.5s-4,4-4,9,3,8,5,10,3,2,4,4a10,10,0,0,1,1,4s14-6,14-16-6-15-6-15l-12,3Z" transform="translate(-775.72 -492.94)"/><path class="cls-3" d="M845,705s-3,5-3,8,0,6,3,8,4,2,4,4v4s8-3,8-14-6-11-6-11Z" transform="translate(-775.72 -492.94)"/><path class="cls-9" d="M848,706s-2,4-2,7,1,5,3,6,1,4,1,4,5-6,4-10-5.25-8.63-5.25-8.63Z" transform="translate(-775.72 -492.94)"/><path class="cls-10" d="M864,698.5s4,4,9,4,8-3,10-5,2-3,4-4a10,10,0,0,1,4-1s-6-14-16-14-15,6-15,6l3,12Z" transform="translate(-775.72 -492.94)"/><path class="cls-3" d="M863.5,695s5,3,8,3,6,0,8-3,2-4,4-4h4s-3-8-14-8-11,6-11,6Z" transform="translate(-775.72 -492.94)"/><path class="cls-9" d="M864.5,692s4,2,7,2,5-1,6-3,4-1,4-1-6-5-10-4-8.62,5.25-8.62,5.25Z" transform="translate(-775.72 -492.94)"/><path class="cls-10" d="M830,683.5s-4-4-9-4-8,3-10,5-2,3-4,4a10,10,0,0,1-4,1s6,14,16,14,15-6,15-6l-3-12Z" transform="translate(-775.72 -492.94)"/><path class="cls-3" d="M830.5,687s-5-3-8-3-6,0-8,3-2,4-4,4h-4s3,8,14,8,11-6,11-6Z" transform="translate(-775.72 -492.94)"/><path class="cls-9" d="M829.5,690s-4-2-7-2-5,1-6,3-4,1-4,1,6,5,10,4,8.62-5.25,8.62-5.25Z" transform="translate(-775.72 -492.94)"/><circle class="cls-10" cx="96.78" cy="159.56" r="5"/><circle class="cls-10" cx="72.78" cy="154.56" r="4"/><circle class="cls-10" cx="71.28" cy="196.06" r="19"/><circle class="cls-11" cx="71.28" cy="196.06" r="16"/><path class="cls-4" d="M862.42,602.83,864,609s-1,4-3,4a4.38,4.38,0,0,1-3-1Z" transform="translate(-775.72 -492.94)"/><path class="cls-2" d="M862,607v-4s3-6,6-8c2.63-1.76,6.81-2,7.79-2a23.31,23.31,0,0,0,1.51,3.44,20.6,20.6,0,0,0,1.19,1.94,5.8,5.8,0,0,0,.34.52h0c.25.36.52.71.81,1.06.1.14.21.28.32.41a22.85,22.85,0,0,0,1.91,2,23.26,23.26,0,0,0,2,1.72,4.48,4.48,0,0,1,.15.64,2.07,2.07,0,0,1,0,1.22,7,7,0,0,1-2.58,2.29A18.36,18.36,0,0,1,873,611a29.56,29.56,0,0,1-9-2Z" transform="translate(-775.72 -492.94)"/><path class="cls-2" d="M875.79,593H876l3,1s4,6.6,4.9,10.14a23.26,23.26,0,0,1-2-1.72,22.85,22.85,0,0,1-1.91-2c-.11-.13-.22-.27-.32-.41-.29-.35-.56-.7-.81-1.06h0a5.8,5.8,0,0,1-.34-.52,20.6,20.6,0,0,1-1.19-1.94A23.31,23.31,0,0,1,875.79,593Z" transform="translate(-775.72 -492.94)"/><path class="cls-12" d="M877.25,573.94a23.74,23.74,0,0,1,3.15-4.55l.63-.69a23.85,23.85,0,0,1,30.37-3.5l.05,0,.59.4.56.41c.28.21.57.43.85.67.44.36.87.74,1.3,1.15a23.84,23.84,0,0,1,.84,33.71l-.28.28a4.4,4.4,0,0,1-.37.38,23.49,23.49,0,0,1-4.39,3.38,23.88,23.88,0,0,1-22.47,1.08c-.65-.31-1.29-.65-1.92-1h0l-.6-.37h0c-.38-.24-.75-.49-1.11-.76-.14-.09-.28-.2-.41-.3l-.11-.08a23.26,23.26,0,0,1-2-1.72,22.85,22.85,0,0,1-1.91-2c-.11-.13-.22-.27-.32-.41-.29-.35-.56-.7-.81-1.06h0a5.8,5.8,0,0,1-.34-.52,20.6,20.6,0,0,1-1.19-1.94,23.31,23.31,0,0,1-1.51-3.44A23.9,23.9,0,0,1,877.25,573.94Z" transform="translate(-775.72 -492.94)"/><path class="cls-13" d="M915.31,601.85a24.26,24.26,0,0,1-4.39,3.38,100.61,100.61,0,0,0-33.3-31.68,23.74,23.74,0,0,1,3.15-4.55,99.74,99.74,0,0,1,34.54,32.85Z" transform="translate(-775.72 -492.94)"/><path class="cls-14" d="M879.08,571.39c11.83,4.87,29.39,22.91,34,32.39" transform="translate(-775.72 -492.94)"/><path class="cls-13" d="M886.31,605.77a8,8,0,0,1-4.89,2.52A7,7,0,0,0,884,606a2.07,2.07,0,0,0,0-1.22l.37-.26.1-.06c.53.42,1.07.81,1.62,1.19h0l.14.1Z" transform="translate(-775.72 -492.94)"/><path class="cls-13" d="M878.49,598.38c.38.51.79,1,1.21,1.5a.41.41,0,0,0-.05.09c-.29-.35-.56-.7-.81-1.06h0A5.8,5.8,0,0,1,878.49,598.38Z" transform="translate(-775.72 -492.94)"/><path d="M907.19,576.83a2.71,2.71,0,0,1-.35-.24,3.79,3.79,0,0,1-.93-1.09h0a5.62,5.62,0,0,1-.41-1.1h0a6.94,6.94,0,0,1,6.55-8.76l.56.41c.28.21.57.43.85.67a6.37,6.37,0,0,0-7.19,4.53c0,.17-.09.34-.12.51a6.56,6.56,0,0,0,.59,4.32A6.39,6.39,0,0,0,907.19,576.83Z" transform="translate(-775.72 -492.94)"/><path d="M910.91,577a3.78,3.78,0,0,1-3.25.09,4.31,4.31,0,0,1-.47-.26,2.71,2.71,0,0,1-.35-.24,3.79,3.79,0,0,1-.93-1.09h0a1,1,0,0,1-.08-.14l-.05-.11a3.39,3.39,0,0,1-.28-.85h0a3.76,3.76,0,0,1,.31-2.41,3.8,3.8,0,0,1,.46-.74,3.94,3.94,0,0,1,1.22-1,3.78,3.78,0,0,1,3.43,6.74Z" transform="translate(-775.72 -492.94)"/></g><g id="Ebene_4" data-name="Ebene 4"><path class="cls-9" d="M880.69,551s4.75,2,6.75,4,2,13,2,13-14-1-15-5,0-6,0-6Z" transform="translate(-775.72 -492.94)"/><rect class="cls-15" x="853.56" y="557.9" width="2.65" height="118.82" transform="translate(-467.42 -777.38) rotate(22.95)"/><rect class="cls-15" x="853.79" y="557.28" width="2.65" height="118.82" transform="translate(626.44 1025.02) rotate(-157.05)"/></g></svg>