<svg id="Ebene_1" data-name="Ebene 1" xmlns="http://www.w3.org/2000/svg" xmlns:xlink="http://www.w3.org/1999/xlink" viewBox="0 0 158.74 246.62"><defs><style>.cls-1{stroke:#000;stroke-miterlimit:10;fill:url(#Unbenannter_Verlauf_41);}.cls-2{fill:#e8de2d;}.cls-3{fill:#cc051d;}.cls-4{fill:#19bab6;}.cls-5{fill:#0071bc;}.cls-6{fill:#ccc;}.cls-7{fill:#d8c623;}.cls-8{fill:#efe63c;}.cls-9{fill:#006837;}</style><linearGradient id="Unbenannter_Verlauf_41" x1="963.17" y1="652.13" x2="963.17" y2="433.13" gradientTransform="translate(-4.17 166.2) scale(1 0.69)" gradientUnits="userSpaceOnUse"><stop offset="0" stop-color="#c1272d"/><stop offset="0" stop-color="#c22a2d"/><stop offset="0" stop-color="#ce532a"/><stop offset="0.01" stop-color="#d97728"/><stop offset="0.01" stop-color="#e29726"/><stop offset="0.01" stop-color="#eab325"/><stop offset="0.02" stop-color="#f1c923"/><stop offset="0.03" stop-color="#f6da22"/><stop offset="0.03" stop-color="#f9e522"/><stop offset="0.04" stop-color="#fbec21"/><stop offset="0.07" stop-color="#fcee21"/><stop offset="0.07" stop-color="#fbeb21"/><stop offset="0.07" stop-color="#efc224"/><stop offset="0.08" stop-color="#e49e26"/><stop offset="0.08" stop-color="#db7e28"/><stop offset="0.08" stop-color="#d36229"/><stop offset="0.09" stop-color="#cc4c2b"/><stop offset="0.09" stop-color="#c73b2c"/><stop offset="0.1" stop-color="#c4302c"/><stop offset="0.11" stop-color="#c2292d"/><stop offset="0.14" stop-color="#c1272d"/><stop offset="0.14" stop-color="#c22a2d"/><stop offset="0.14" stop-color="#ce532a"/><stop offset="0.14" stop-color="#d97728"/><stop offset="0.15" stop-color="#e29726"/><stop offset="0.15" stop-color="#eab325"/><stop offset="0.16" stop-color="#f1c923"/><stop offset="0.16" stop-color="#f6da22"/><stop offset="0.17" stop-color="#f9e522"/><stop offset="0.18" stop-color="#fbec21"/><stop offset="0.21" stop-color="#fcee21"/><stop offset="0.21" stop-color="#fbeb21"/><stop offset="0.21" stop-color="#efc224"/><stop offset="0.21" stop-color="#e49e26"/><stop offset="0.22" stop-color="#db7e28"/><stop offset="0.22" stop-color="#d36229"/><stop offset="0.23" stop-color="#cc4c2b"/><stop offset="0.23" stop-color="#c73b2c"/><stop offset="0.24" stop-color="#c4302c"/><stop offset="0.25" stop-color="#c2292d"/><stop offset="0.29" stop-color="#c1272d"/><stop offset="0.29" stop-color="#c22a2d"/><stop offset="0.29" stop-color="#ce532a"/><stop offset="0.29" stop-color="#d97728"/><stop offset="0.3" stop-color="#e29726"/><stop offset="0.3" stop-color="#eab325"/><stop offset="0.31" stop-color="#f1c923"/><stop offset="0.32" stop-color="#f6da22"/><stop offset="0.33" stop-color="#f9e522"/><stop offset="0.34" stop-color="#fbec21"/><stop offset="0.38" stop-color="#fcee21"/><stop offset="0.38" stop-color="#fbeb21"/><stop offset="0.38" stop-color="#efc224"/><stop offset="0.39" stop-color="#e49e26"/><stop offset="0.4" stop-color="#db7e28"/><stop offset="0.4" stop-color="#d36229"/><stop offset="0.41" stop-color="#cc4c2b"/><stop offset="0.42" stop-color="#c73b2c"/><stop offset="0.43" stop-color="#c4302c"/><stop offset="0.45" stop-color="#c2292d"/><stop offset="0.5" stop-color="#c1272d"/><stop offset="0.5" stop-color="#c22a2d"/><stop offset="0.5" stop-color="#ce532a"/><stop offset="0.51" stop-color="#d97728"/><stop offset="0.51" stop-color="#e29726"/><stop offset="0.52" stop-color="#eab325"/><stop offset="0.53" stop-color="#f1c923"/><stop offset="0.53" stop-color="#f6da22"/><stop offset="0.54" stop-color="#f9e522"/><stop offset="0.56" stop-color="#fbec21"/><stop offset="0.59" stop-color="#fcee21"/><stop offset="0.59" stop-color="#fbeb21"/><stop offset="0.6" stop-color="#efc224"/><stop offset="0.6" stop-color="#e49e26"/><stop offset="0.61" stop-color="#db7e28"/><stop offset="0.61" stop-color="#d36229"/><stop offset="0.62" stop-color="#cc4c2b"/><stop offset="0.62" stop-color="#c73b2c"/><stop offset="0.63" stop-color="#c4302c"/><stop offset="0.64" stop-color="#c2292d"/><stop offset="0.68" stop-color="#c1272d"/><stop offset="0.68" stop-color="#c22a2d"/><stop offset="0.68" stop-color="#ce532a"/><stop offset="0.68" stop-color="#d97728"/><stop offset="0.69" stop-color="#e29726"/><stop offset="0.69" stop-color="#eab325"/><stop offset="0.7" stop-color="#f1c923"/><stop offset="0.71" stop-color="#f6da22"/><stop offset="0.72" stop-color="#f9e522"/><stop offset="0.73" stop-color="#fbec21"/><stop offset="0.76" stop-color="#fcee21"/><stop offset="0.76" stop-color="#fbeb21"/><stop offset="0.76" stop-color="#efc224"/><stop offset="0.77" stop-color="#e49e26"/><stop offset="0.77" stop-color="#db7e28"/><stop offset="0.78" stop-color="#d36229"/><stop offset="0.78" stop-color="#cc4c2b"/><stop offset="0.79" stop-color="#c73b2c"/><stop offset="0.8" stop-color="#c4302c"/><stop offset="0.81" stop-color="#c2292d"/><stop offset="0.84" stop-color="#c1272d"/><stop offset="0.84" stop-color="#c22a2d"/><stop offset="0.84" stop-color="#ce532a"/><stop offset="0.85" stop-color="#d97728"/><stop offset="0.85" stop-color="#e29726"/><stop offset="0.86" stop-color="#eab325"/><stop offset="0.86" stop-color="#f1c923"/><stop offset="0.87" stop-color="#f6da22"/><stop offset="0.87" stop-color="#f9e522"/><stop offset="0.88" stop-color="#fbec21"/><stop offset="0.91" stop-color="#fcee21"/><stop offset="0.91" stop-color="#fbeb21"/><stop offset="0.91" stop-color="#efc224"/><stop offset="0.92" stop-color="#e49e26"/><stop offset="0.92" stop-color="#db7e28"/><stop offset="0.93" stop-color="#d36229"/><stop offset="0.94" stop-color="#cc4c2b"/><stop offset="0.94" stop-color="#c73b2c"/><stop offset="0.95" stop-color="#c4302c"/><stop offset="0.96" stop-color="#c2292d"/><stop offset="1" stop-color="#c1272d"/></linearGradient></defs><title>10</title><path d="M1024,419.19a13.35,13.35,0,0,1,13.34,13.34V650.47A13.35,13.35,0,0,1,1024,663.81H894a13.35,13.35,0,0,1-13.34-13.34V432.53A13.35,13.35,0,0,1,894,419.19H1024m0-1H894a14.34,14.34,0,0,0-14.34,14.34V650.47A14.34,14.34,0,0,0,894,664.81H1024a14.34,14.34,0,0,0,14.34-14.34V432.53A14.34,14.34,0,0,0,1024,418.19Z" transform="translate(-879.63 -418.19)"/><path d="M886.68,441.94v-.67c2.67-.17,2.81-.29,2.81-2.09V430c0-1.23-.17-1.28-1.22-1.37l-1.18-.12v-.6a19.86,19.86,0,0,0,4.39-1.18v12.48c0,1.83.15,1.92,2.84,2.09v.67Z" transform="translate(-879.63 -418.19)"/><path d="M902,426.7c3.6,0,4.94,4,4.94,7.75,0,3.51-1.34,7.78-4.94,7.78s-5-4-5-7.75C897,431,898.35,426.7,902,426.7Zm0,.84c-2.24,0-2.79,3.53-2.79,6.89s.67,7,2.79,7,2.73-3.58,2.73-6.94S904.13,427.54,902,427.54Z" transform="translate(-879.63 -418.19)"/><path d="M1010.18,441.94v-.67c2.67-.17,2.81-.29,2.81-2.09V430c0-1.23-.17-1.28-1.22-1.37l-1.18-.12v-.6a19.86,19.86,0,0,0,4.39-1.18v12.48c0,1.83.15,1.92,2.84,2.09v.67Z" transform="translate(-879.63 -418.19)"/><path d="M1025.5,426.7c3.6,0,4.94,4,4.94,7.75,0,3.51-1.34,7.78-4.94,7.78s-5-4-5-7.75C1020.48,431,1021.85,426.7,1025.5,426.7Zm0,.84c-2.24,0-2.79,3.53-2.79,6.89s.67,7,2.79,7,2.73-3.58,2.73-6.94S1027.63,427.54,1025.5,427.54Z" transform="translate(-879.63 -418.19)"/><path d="M907.82,638.74v.68c-2.67.16-2.81.28-2.81,2.08v9.22c0,1.23.17,1.27,1.22,1.37l1.18.12v.6A19.33,19.33,0,0,0,903,654V641.5c0-1.82-.15-1.92-2.84-2.08v-.68Z" transform="translate(-879.63 -418.19)"/><path d="M892.5,654c-3.6,0-4.94-4-4.94-7.76,0-3.5,1.34-7.77,4.94-7.77s5,4,5,7.75C897.52,649.71,896.15,654,892.5,654Zm0-.84c2.24,0,2.79-3.53,2.79-6.89s-.67-7-2.79-7-2.73,3.57-2.73,6.93S890.37,653.15,892.5,653.15Z" transform="translate(-879.63 -418.19)"/><path d="M1031.82,638.74v.68c-2.67.16-2.81.28-2.81,2.08v9.22c0,1.23.17,1.27,1.22,1.37l1.18.12v.6A19.33,19.33,0,0,0,1027,654V641.5c0-1.82-.15-1.92-2.84-2.08v-.68Z" transform="translate(-879.63 -418.19)"/><path d="M1016.5,654c-3.6,0-4.94-4-4.94-7.76,0-3.5,1.34-7.77,4.94-7.77s5,4,5,7.75C1021.52,649.71,1020.15,654,1016.5,654Zm0-.84c2.24,0,2.79-3.53,2.79-6.89s-.67-7-2.79-7-2.73,3.57-2.73,6.93S1014.37,653.15,1016.5,653.15Z" transform="translate(-879.63 -418.19)"/><rect class="cls-1" x="956.5" y="465.77" width="5" height="151.47" transform="translate(-431.61 -852.3) rotate(32.91)"/><polygon class="cls-2" points="122.85 55.11 132.9 38.56 124.61 45.21 122.85 55.11"/><polygon points="122.89 55.17 132.9 38.56 131.15 48.41 122.89 55.17"/><circle class="cls-3" cx="122.37" cy="56.81" r="3"/><path class="cls-4" d="M1004.08,479.86c-.21.37-.86.44-1.73.25A14,14,0,0,0,999,478a19.41,19.41,0,0,1-2-1c-.66-.7-.69-1.11-.46-1.5.41-.72,2.44-.32,4.52.88S1004.5,479.14,1004.08,479.86Z" transform="translate(-879.63 -418.19)"/><polygon class="cls-2" points="35.76 190.46 24.39 206.14 33.2 200.19 35.76 190.46"/><polygon points="35.72 190.4 24.39 206.14 26.94 196.47 35.72 190.4"/><circle class="cls-3" cx="36.37" cy="188.81" r="3"/><path class="cls-4" d="M914.32,602c.24-.35.9-.37,1.75-.11a14,14,0,0,0,3.16,2.37,20.48,20.48,0,0,1,1.92,1.16c.6.75.59,1.17.33,1.54-.46.68-2.46.12-4.43-1.25S913.85,602.67,914.32,602Z" transform="translate(-879.63 -418.19)"/><path class="cls-3" d="M995,480s-10.5-14.5-25.5-22.5S927,448,918,459c-2.54,3.1-5.48,1.55-7,5-3.86,8.77-10,25,1,36,7.28,7.28,21,17,20,31-.9,12.56-7,18-7,18s13.37,2.63,22-6c4-4,16-20,7-30-.59-.65,7.3-2.56,8-3C984,496,995,480,995,480Z" transform="translate(-879.63 -418.19)"/><path class="cls-5" d="M963,530c-9-6-14-19-4-35,20.67-33.07,18.5,12.5,18.5,12.5Z" transform="translate(-879.63 -418.19)"/><path class="cls-6" d="M956,499c3.39,2.55-2-2,0,0s17,16,17,16l25-39-1,2c-10-9-7.87-5.11-14-12-8-9-19-20-27-25-11.53-7.21-29-6-42,4-9.8,7.54-12,23-8,42,0,0-2-9,6-14,0,0,4.45-2.83,12,0C932,476,944,490,956,499Z" transform="translate(-879.63 -418.19)"/><path class="cls-5" d="M927,516c18,18-1,33-1,33s-5.21-1.09-12,4c-4,3-5,13-5,17-.16-.36-9-8-9-17,0-7,6-12,12-16,5.58-3.72,9-7,12-12C929.25,516.26,927,516,927,516Z" transform="translate(-879.63 -418.19)"/><circle class="cls-3" cx="29.37" cy="152.81" r="1"/><path class="cls-7" d="M914,586H904c.38-4.83,3.18-13.08,5-15C910.82,572.92,913.62,581.17,914,586Z" transform="translate(-879.63 -418.19)"/><path class="cls-8" d="M966.27,451.45l-16.89,21.76-7.55-5.86,11.73-15.11a4.57,4.57,0,0,1,5.32-.72c2.76,1.31,5.54,1.21,6.86.39l.19-.13A1.79,1.79,0,0,0,966.27,451.45Z" transform="translate(-879.63 -418.19)"/><path class="cls-8" d="M966.16,451.36a1.69,1.69,0,0,0-.23.42,1,1,0,0,0-.08.21c-.48,1.49.07,4.21,2,6.53a4.54,4.54,0,0,1,.59,5.29L956.72,478.9l-7.44-5.78Z" transform="translate(-879.63 -418.19)"/><path class="cls-9" d="M949.54,472.79a34.62,34.62,0,0,0,9.3,5.24,7.51,7.51,0,0,1-1.49,5c-3.11,4-9.8,4.22-15.23,0s-7.56-11.26-4.45-15.27a7.51,7.51,0,0,1,4.48-2.68A34.74,34.74,0,0,0,949.54,472.79Z" transform="translate(-879.63 -418.19)"/><path class="cls-3" d="M924,601s10.5,14.5,25.5,22.5S992,633,1001,622c2.54-3.1,5.48-1.55,7-5,3.86-8.77,10-25-1-36-7.28-7.28-21-17-20-31,.9-12.56,7-18,7-18s-13.37-2.63-22,6c-4,4-16,20-7,30,.59.65-7.3,2.56-8,3C935,585,924,601,924,601Z" transform="translate(-879.63 -418.19)"/><path class="cls-5" d="M956,551c9,6,14,19,4,35-20.67,33.07-18.5-12.5-18.5-12.5Z" transform="translate(-879.63 -418.19)"/><path class="cls-6" d="M963,582c-3.39-2.55,2,2,0,0s-17-16-17-16l-25,39,1-2c10,9,7.87,5.11,14,12,8,9,19,20,27,25,11.53,7.21,29,6,42-4,9.8-7.54,12-23,8-42,0,0,2,9-6,14,0,0-4.45,2.83-12,0C987,605,975,591,963,582Z" transform="translate(-879.63 -418.19)"/><path class="cls-5" d="M992,565c-18-18,1-33,1-33s5.21,1.09,12-4c4-3,5-13,5-17,.16.36,9,8,9,17,0,7-6,12-12,16-5.58,3.72-9,7-12,12C989.75,564.74,992,565,992,565Z" transform="translate(-879.63 -418.19)"/><circle class="cls-3" cx="130.37" cy="91.81" r="1"/><path class="cls-7" d="M1005,495h10c-.38,4.83-3.18,13.08-5,15C1008.18,508.08,1005.38,499.83,1005,495Z" transform="translate(-879.63 -418.19)"/><path class="cls-8" d="M948.68,623.69l16.88-21.76,7.56,5.86L961.39,622.9a4.57,4.57,0,0,1-5.32.72c-2.76-1.32-5.54-1.21-6.86-.39l-.19.13A1.53,1.53,0,0,0,948.68,623.69Z" transform="translate(-879.63 -418.19)"/><path class="cls-8" d="M948.79,623.77a1.46,1.46,0,0,0,.23-.41.93.93,0,0,0,.08-.22c.48-1.48-.07-4.21-2-6.52a4.56,4.56,0,0,1-.59-5.3l11.71-15.08,7.44,5.77Z" transform="translate(-879.63 -418.19)"/><path class="cls-9" d="M965.41,602.35a34.35,34.35,0,0,0-9.3-5.24,7.54,7.54,0,0,1,1.49-5c3.11-4,9.8-4.21,15.23,0s7.56,11.26,4.45,15.26a7.52,7.52,0,0,1-4.48,2.69A34.53,34.53,0,0,0,965.41,602.35Z" transform="translate(-879.63 -418.19)"/></svg>