<svg xmlns="http://www.w3.org/2000/svg" viewBox="0 0 158.74 246.62"><defs><style>.cls-1{fill:red;}.cls-2{fill:#ff0;}.cls-3,.cls-7{fill:none;stroke:#000;stroke-miterlimit:10;}.cls-3{stroke-width:0.3px;}.cls-4{fill:#ddd82c;}.cls-5{fill:#006837;}.cls-6{fill:#009245;}.cls-7{stroke-width:0.2px;}</style></defs><title>6</title><g id="Ebene_3" data-name="Ebene 3"><path d="M575.18,579.79a3.38,3.38,0,0,1-1.54.41,4.27,4.27,0,0,1-4.3-4.44,5.07,5.07,0,0,1,4.95-5.3c2.83,0,5,2.32,5,6a9.82,9.82,0,0,1-6.65,9,21.22,21.22,0,0,1-2.71.62l-.14-.79a14.54,14.54,0,0,0,2.61-.87,7.61,7.61,0,0,0,4.4-5.49Zm-.58-1a4.8,4.8,0,0,0,2.33-.67,7.79,7.79,0,0,0,.14-1.63c0-3-1.12-5.21-3.17-5.21-1.87,0-2.44,2-2.44,3.58C571.46,576.89,572.42,578.83,574.6,578.83Z" transform="translate(-562.63 -350.19)"/></g><g id="Ebene_1" data-name="Ebene 1"><path d="M707,351.19a13.35,13.35,0,0,1,13.34,13.34V582.47A13.35,13.35,0,0,1,707,595.81H577a13.35,13.35,0,0,1-13.34-13.34V364.53A13.35,13.35,0,0,1,577,351.19H707m0-1H577a14.34,14.34,0,0,0-14.34,14.34V582.47A14.34,14.34,0,0,0,577,596.81H707a14.34,14.34,0,0,0,14.34-14.34V364.53A14.34,14.34,0,0,0,707,350.19Z" transform="translate(-562.63 -350.19)"/><path d="M572.49,364.89a3.5,3.5,0,0,1,1.54-.4,4.26,4.26,0,0,1,4.29,4.44,5.06,5.06,0,0,1-4.94,5.3c-2.83,0-5-2.33-5-6a9.82,9.82,0,0,1,6.65-9.05,20.44,20.44,0,0,1,2.71-.62l.14.79a15.33,15.33,0,0,0-2.61.86,7.65,7.65,0,0,0-4.4,5.5Zm.58,1a4.69,4.69,0,0,0-2.33.68,7.79,7.79,0,0,0-.14,1.63c0,3,1.12,5.21,3.16,5.21,1.88,0,2.45-2,2.45-3.58C576.21,367.8,575.25,365.85,573.07,365.85Z" transform="translate(-562.63 -350.19)"/><path d="M709.32,364.89a3.5,3.5,0,0,1,1.54-.4,4.27,4.27,0,0,1,4.3,4.44,5.07,5.07,0,0,1-4.95,5.3c-2.83,0-5-2.33-5-6a9.82,9.82,0,0,1,6.65-9.05,21.22,21.22,0,0,1,2.71-.62l.14.79a15.33,15.33,0,0,0-2.61.86,7.65,7.65,0,0,0-4.4,5.5Zm.58,1a4.69,4.69,0,0,0-2.33.68,7.79,7.79,0,0,0-.14,1.63c0,3,1.12,5.21,3.17,5.21,1.87,0,2.44-2,2.44-3.58C713,367.8,712.08,365.85,709.9,365.85Z" transform="translate(-562.63 -350.19)"/><path d="M712,579.79a3.38,3.38,0,0,1-1.54.41,4.26,4.26,0,0,1-4.29-4.44,5.06,5.06,0,0,1,4.94-5.3c2.83,0,5,2.32,5,6a9.82,9.82,0,0,1-6.65,9,20.44,20.44,0,0,1-2.71.62l-.14-.79a14.28,14.28,0,0,0,2.61-.87,7.61,7.61,0,0,0,4.4-5.49Zm-.58-1a4.8,4.8,0,0,0,2.33-.67,7.79,7.79,0,0,0,.14-1.63c0-3-1.12-5.21-3.16-5.21-1.88,0-2.45,2-2.45,3.58C708.29,576.89,709.25,578.83,711.43,578.83Z" transform="translate(-562.63 -350.19)"/><path class="cls-1" d="M644,482" transform="translate(-562.63 -350.19)"/></g><g id="Ebene_2" data-name="Ebene 2"><ellipse class="cls-2" cx="79.37" cy="111.81" rx="2" ry="1"/><ellipse class="cls-2" cx="79.37" cy="132.81" rx="2" ry="1"/><path class="cls-1" d="M640,462l.15.08a4,4,0,0,0,3.7,0L644,462l-.35,7.61c-.1,2.25-.09,4.52,0,6.78L644,483h0a2.59,2.59,0,0,0-4,0h0l.39-7.83c.07-1.44.08-2.9,0-4.34Z" transform="translate(-562.63 -350.19)"/><path class="cls-1" d="M641.5,483h1l2.5,58-.78-.52a3.78,3.78,0,0,0-4.44,0L639,541Z" transform="translate(-562.63 -350.19)"/><polygon points="78.87 131.81 79.87 131.81 81.37 166.81 77.37 166.81 78.87 131.81"/><path d="M641.75,521.2,642,523l.25-1.8h0a9.87,9.87,0,0,1,.89-3.11A3.11,3.11,0,0,1,644,517h-4a3.11,3.11,0,0,1,.86,1.09,9.87,9.87,0,0,1,.89,3.11Z" transform="translate(-562.63 -350.19)"/><circle class="cls-2" cx="79.37" cy="190.81" r="3"/><path class="cls-1" d="M641.5,462h1l2.5-58-.78.52a3.78,3.78,0,0,1-4.44,0L639,404Z" transform="translate(-562.63 -350.19)"/><polygon points="78.87 112.81 79.87 112.81 81.37 77.81 77.37 77.81 78.87 112.81"/><path d="M641.75,424.5,642,423l.25,1.5h0a7.19,7.19,0,0,0,.89,2.59,2.68,2.68,0,0,0,.86.91h-4a2.68,2.68,0,0,0,.86-.91,7.19,7.19,0,0,0,.89-2.59Z" transform="translate(-562.63 -350.19)"/><circle class="cls-2" cx="79.37" cy="53.81" r="3"/><line class="cls-3" x1="80.37" y1="122.81" x2="88.37" y2="122.81"/><line class="cls-3" x1="70.37" y1="122.81" x2="78.37" y2="122.81"/><path class="cls-3" d="M643,480l2,31s0,4,7,4" transform="translate(-562.63 -350.19)"/><path class="cls-3" d="M643,465l2-31s0-4,7-4" transform="translate(-562.63 -350.19)"/><path class="cls-1" d="M640,462l.15.08a4,4,0,0,0,3.7,0L644,462l-.35,7.61c-.1,2.25-.09,4.52,0,6.78L644,483h0a2.59,2.59,0,0,0-4,0h0l.39-7.83c.07-1.44.08-2.9,0-4.34Z" transform="translate(-562.63 -350.19)"/><path class="cls-3" d="M641,480l-2,31s0,4-7,4" transform="translate(-562.63 -350.19)"/><path class="cls-3" d="M641,465l-2-31s0-4-7-4" transform="translate(-562.63 -350.19)"/><path class="cls-4" d="M713,473.66H669.51V462.53h30.2s4.83.32,6,4.38a9.91,9.91,0,0,0,6.16,6.59l.35.08A3.28,3.28,0,0,0,713,473.66Z" transform="translate(-562.63 -350.19)"/><path class="cls-4" d="M713,473.5a3.28,3.28,0,0,0-.74.08,2.49,2.49,0,0,0-.35.08,9.84,9.84,0,0,0-6.21,6.49c-1.2,4-6,4.32-6,4.32H669.51v-11Z" transform="translate(-562.63 -350.19)"/><path class="cls-5" d="M670.18,473.5a30.47,30.47,0,0,0,2.47,12.29,14.5,14.5,0,1,1,0-24.58A30.47,30.47,0,0,0,670.18,473.5Z" transform="translate(-562.63 -350.19)"/><path class="cls-4" d="M571,473.66h43.49V462.53h-30.2s-4.83.32-6,4.38a9.91,9.91,0,0,1-6.16,6.59l-.35.08A3.28,3.28,0,0,1,571,473.66Z" transform="translate(-562.63 -350.19)"/><path class="cls-4" d="M571,473.5a3.28,3.28,0,0,1,.74.08,2.49,2.49,0,0,1,.35.08,9.84,9.84,0,0,1,6.21,6.49c1.2,4,6,4.32,6,4.32h30.15v-11Z" transform="translate(-562.63 -350.19)"/><path class="cls-5" d="M613.82,473.5a30.47,30.47,0,0,1-2.47,12.29,14.5,14.5,0,1,0,0-24.58A30.47,30.47,0,0,1,613.82,473.5Z" transform="translate(-562.63 -350.19)"/><path class="cls-4" d="M713,515.66H669.51V504.53h30.2s4.83.32,6,4.38a9.91,9.91,0,0,0,6.16,6.59l.35.08A3.28,3.28,0,0,0,713,515.66Z" transform="translate(-562.63 -350.19)"/><path class="cls-4" d="M713,515.5a3.28,3.28,0,0,0-.74.08,2.49,2.49,0,0,0-.35.08,9.84,9.84,0,0,0-6.21,6.49c-1.2,4-6,4.32-6,4.32H669.51v-11Z" transform="translate(-562.63 -350.19)"/><path class="cls-5" d="M670.18,515.5a30.47,30.47,0,0,0,2.47,12.29,14.5,14.5,0,1,1,0-24.58A30.47,30.47,0,0,0,670.18,515.5Z" transform="translate(-562.63 -350.19)"/><path class="cls-4" d="M571,515.66h43.49V504.53h-30.2s-4.83.32-6,4.38a9.91,9.91,0,0,1-6.16,6.59l-.35.08A3.28,3.28,0,0,1,571,515.66Z" transform="translate(-562.63 -350.19)"/><path class="cls-4" d="M571,515.5a3.28,3.28,0,0,1,.74.08,2.49,2.49,0,0,1,.35.08,9.84,9.84,0,0,1,6.21,6.49c1.2,4,6,4.32,6,4.32h30.15v-11Z" transform="translate(-562.63 -350.19)"/><path class="cls-5" d="M613.82,515.5a30.47,30.47,0,0,1-2.47,12.29,14.5,14.5,0,1,0,0-24.58A30.47,30.47,0,0,1,613.82,515.5Z" transform="translate(-562.63 -350.19)"/><path class="cls-4" d="M713,431.66H669.51V420.53h30.2s4.83.32,6,4.38a9.91,9.91,0,0,0,6.16,6.59l.35.08A3.28,3.28,0,0,0,713,431.66Z" transform="translate(-562.63 -350.19)"/><path class="cls-4" d="M713,431.5a3.28,3.28,0,0,0-.74.08,2.49,2.49,0,0,0-.35.08,9.84,9.84,0,0,0-6.21,6.49c-1.2,4-6,4.32-6,4.32H669.51v-11Z" transform="translate(-562.63 -350.19)"/><path class="cls-5" d="M670.18,431.5a30.47,30.47,0,0,0,2.47,12.29,14.5,14.5,0,1,1,0-24.58A30.47,30.47,0,0,0,670.18,431.5Z" transform="translate(-562.63 -350.19)"/><path class="cls-4" d="M571,431.66h43.49V420.53h-30.2s-4.83.32-6,4.38a9.91,9.91,0,0,1-6.16,6.59l-.35.08A3.28,3.28,0,0,1,571,431.66Z" transform="translate(-562.63 -350.19)"/><path class="cls-4" d="M571,431.5a3.28,3.28,0,0,1,.74.08,2.49,2.49,0,0,1,.35.08,9.84,9.84,0,0,1,6.21,6.49c1.2,4,6,4.32,6,4.32h30.15v-11Z" transform="translate(-562.63 -350.19)"/><path class="cls-5" d="M613.82,431.5a30.47,30.47,0,0,1-2.47,12.29,14.5,14.5,0,1,0,0-24.58A30.47,30.47,0,0,1,613.82,431.5Z" transform="translate(-562.63 -350.19)"/><path class="cls-1" d="M640,462l.15.08a4,4,0,0,0,3.7,0L644,462l-.35,7.61c-.1,2.25-.09,4.52,0,6.78L644,483h0a3.56,3.56,0,0,0-1-.7l-.12-.05A2.57,2.57,0,0,0,640,483h0l.39-7.83c.07-1.44.08-2.9,0-4.34Z" transform="translate(-562.63 -350.19)"/></g><g id="Ebene_5" data-name="Ebene 5"><line class="cls-3" x1="79.37" y1="56.81" x2="79.37" y2="13.81"/><path class="cls-3" d="M642,407s-1-21,27-21" transform="translate(-562.63 -350.19)"/><line class="cls-3" x1="87.84" y1="40.59" x2="100.37" y2="40.59"/><path class="cls-3" d="M642,407s0-16,10-23" transform="translate(-562.63 -350.19)"/><path class="cls-6" d="M642.14,386.42l-.14-.11V363.74l.14-.11c1.29.94,4,4.1,1.79,5.79-1.64,1.26,2.21,3.28,2.21,5.6,0,.75-2.63,4.9-1.93,5.26C647,381.73,644.14,385,642.14,386.42Z" transform="translate(-562.63 -350.19)"/><path class="cls-6" d="M642,386.42l.14-.11V363.74l-.14-.11c-1.3.94-4,4.1-1.79,5.79,1.64,1.26-2.21,3.28-2.21,5.6,0,.75,2.63,4.9,1.93,5.26C637.17,381.73,640,385,642,386.42Z" transform="translate(-562.63 -350.19)"/><path class="cls-6" d="M662.64,390.76c-.16.35,1.05,1.22,2.09,1.47.75.19.95,1.23,1.8,1.57s2.47.24,3.39.67c1.14.55.73,1,1.52,1.68,1.34,1.19,1.53,1.57,2.36,1.36.55-.38.12-1.3-.31-2.27a6.62,6.62,0,0,0-1.37-2.42c-.7-.71-1.81-.76-2.7-1.19s-1.29-1.21-2.07-1.39a9.74,9.74,0,0,0-2.55-.1C663.62,390.16,662.77,390.28,662.64,390.76Z" transform="translate(-562.63 -350.19)"/><path class="cls-7" d="M673.8,397.51a18.15,18.15,0,0,0-3.71-4.37c-2.94-2.37-7.45-2.38-7.45-2.38" transform="translate(-562.63 -350.19)"/><path class="cls-6" d="M668.75,381.86c0,.54-2,1.07-3.59.89-1.11-.14-1.93,1.13-3.26,1.16-1.5,0-3.46-1-4.94-.84-1.84.14-1.5.93-2.93,1.44-2.45.89-2.9,1.3-3.92.61-.53-.8.52-1.79,1.61-2.87a9.94,9.94,0,0,1,3.13-2.5c1.32-.58,2.85-.09,4.28-.2,1.23-.09,2.39-.94,3.53-.79a14.45,14.45,0,0,1,3.51,1.17C667.76,380.57,668.84,381.15,668.75,381.86Z" transform="translate(-562.63 -350.19)"/><path class="cls-7" d="M650.11,385.12a26.61,26.61,0,0,1,7.32-3.91c5.23-1.64,11.32.65,11.32.65" transform="translate(-562.63 -350.19)"/><path class="cls-6" d="M677.27,390.14c-.14.38-1.74.09-2.73-.52-.72-.44-1.68.17-2.6-.22s-2.07-1.74-3.11-2.12c-1.31-.48-1.32.16-2.46.06-2-.16-2.39,0-2.87-.81-.12-.71.91-1.06,2-1.45a7.25,7.25,0,0,1,2.92-.74c1.09,0,2,.84,3,1.21s1.93.1,2.66.56a11.12,11.12,0,0,1,2,1.9C677,388.94,677.55,389.68,677.27,390.14Z" transform="translate(-562.63 -350.19)"/><path class="cls-7" d="M663.5,386.53a19.83,19.83,0,0,1,6.23-.38c4.09.51,7.54,4,7.54,4" transform="translate(-562.63 -350.19)"/><path class="cls-3" d="M642.34,407s1-21-27-21" transform="translate(-562.63 -350.19)"/><line class="cls-3" x1="71.24" y1="40.59" x2="58.71" y2="40.59"/><path class="cls-3" d="M642.34,407s0-16-10-23" transform="translate(-562.63 -350.19)"/><path class="cls-6" d="M621.69,390.76c.17.35-1,1.22-2.08,1.47-.75.19-1,1.23-1.8,1.57s-2.47.24-3.39.67c-1.15.55-.73,1-1.52,1.68-1.35,1.19-1.53,1.57-2.36,1.36-.55-.38-.13-1.3.3-2.27a6.92,6.92,0,0,1,1.37-2.42c.7-.71,1.81-.76,2.71-1.19s1.29-1.21,2.06-1.39a9.82,9.82,0,0,1,2.56-.1C620.72,390.16,621.57,390.28,621.69,390.76Z" transform="translate(-562.63 -350.19)"/><path class="cls-7" d="M610.54,397.51a18.15,18.15,0,0,1,3.71-4.37c2.94-2.37,7.44-2.38,7.44-2.38" transform="translate(-562.63 -350.19)"/><path class="cls-6" d="M615.58,381.86c0,.54,2,1.07,3.59.89,1.12-.14,1.94,1.13,3.26,1.16,1.5,0,3.47-1,4.94-.84,1.84.14,1.51.93,2.94,1.44,2.45.89,2.9,1.3,3.91.61.54-.8-.51-1.79-1.61-2.87a9.9,9.9,0,0,0-3.12-2.5c-1.32-.58-2.85-.09-4.29-.2-1.23-.09-2.38-.94-3.52-.79a14.16,14.16,0,0,0-3.51,1.17C616.58,380.57,615.5,381.15,615.58,381.86Z" transform="translate(-562.63 -350.19)"/><path class="cls-7" d="M634.22,385.12a26.65,26.65,0,0,0-7.31-3.91c-5.23-1.64-11.33.65-11.33.65" transform="translate(-562.63 -350.19)"/><path class="cls-6" d="M607.07,390.14c.14.38,1.74.09,2.73-.52.72-.44,1.68.17,2.6-.22s2.07-1.74,3.11-2.12c1.3-.48,1.32.16,2.46.06,1.95-.16,2.39,0,2.87-.81.12-.71-.92-1.06-2-1.45a7.29,7.29,0,0,0-2.92-.74c-1.09,0-2,.84-3,1.21s-1.93.1-2.66.56a11.12,11.12,0,0,0-2,1.9C607.35,388.94,606.79,389.68,607.07,390.14Z" transform="translate(-562.63 -350.19)"/><path class="cls-7" d="M620.84,386.53a19.87,19.87,0,0,0-6.23-.38c-4.09.51-7.54,4-7.54,4" transform="translate(-562.63 -350.19)"/><path class="cls-3" d="M642,537.63s-1,21,27,21" transform="translate(-562.63 -350.19)"/><line class="cls-3" x1="87.84" y1="203.66" x2="100.37" y2="203.66"/><path class="cls-3" d="M642,537.63s0,16,10,23" transform="translate(-562.63 -350.19)"/><path class="cls-6" d="M642.14,559.21l-.14.11v22.57l.14.11c1.29-.94,4-4.1,1.79-5.79-1.64-1.26,2.21-3.28,2.21-5.61,0-.74-2.63-4.89-1.93-5.26C647,563.9,644.14,560.66,642.14,559.21Z" transform="translate(-562.63 -350.19)"/><path class="cls-6" d="M641.86,559.21l.14.11v22.57l-.14.11c-1.29-.94-4-4.1-1.79-5.79,1.64-1.26-2.21-3.28-2.21-5.61,0-.74,2.63-4.89,1.93-5.26C637,563.9,639.86,560.66,641.86,559.21Z" transform="translate(-562.63 -350.19)"/><path class="cls-6" d="M662.64,553.86c-.16-.34,1.05-1.21,2.09-1.46.75-.19.95-1.23,1.8-1.57s2.47-.24,3.39-.68c1.14-.54.73-1,1.52-1.67,1.34-1.19,1.53-1.57,2.36-1.36.55.38.12,1.3-.31,2.27a6.7,6.7,0,0,1-1.37,2.42c-.7.71-1.81.76-2.7,1.19s-1.29,1.21-2.07,1.39a9.74,9.74,0,0,1-2.55.1C663.62,554.47,662.77,554.35,662.64,553.86Z" transform="translate(-562.63 -350.19)"/><path class="cls-7" d="M673.8,547.12a18.15,18.15,0,0,1-3.71,4.37c-2.94,2.37-7.45,2.37-7.45,2.37" transform="translate(-562.63 -350.19)"/><path class="cls-6" d="M668.75,562.77c0-.54-2-1.08-3.59-.89-1.11.14-1.93-1.13-3.26-1.16-1.5,0-3.46.95-4.94.84-1.84-.14-1.5-.93-2.93-1.44-2.45-.89-2.9-1.3-3.92-.61-.53.79.52,1.79,1.61,2.87a9.94,9.94,0,0,0,3.13,2.5c1.32.58,2.85.09,4.28.2,1.23.09,2.39.94,3.53.79a14.45,14.45,0,0,0,3.51-1.17C667.76,564.06,668.84,563.48,668.75,562.77Z" transform="translate(-562.63 -350.19)"/><path class="cls-7" d="M650.11,559.51a26.61,26.61,0,0,0,7.32,3.91c5.23,1.64,11.32-.65,11.32-.65" transform="translate(-562.63 -350.19)"/><path class="cls-6" d="M677.27,554.49c-.14-.38-1.74-.09-2.73.52-.72.44-1.68-.17-2.6.22s-2.07,1.74-3.11,2.12c-1.31.48-1.32-.16-2.46-.06-2,.15-2.39,0-2.87.81-.12.71.91,1.06,2,1.45a7.25,7.25,0,0,0,2.92.74c1.09,0,2-.84,3-1.21s1.93-.1,2.66-.56a11.12,11.12,0,0,0,2-1.9C677,555.68,677.55,555,677.27,554.49Z" transform="translate(-562.63 -350.19)"/><path class="cls-7" d="M663.5,558.1a19.83,19.83,0,0,0,6.23.38c4.09-.52,7.54-4,7.54-4" transform="translate(-562.63 -350.19)"/><path class="cls-3" d="M642.34,537.63s1,21-27,21" transform="translate(-562.63 -350.19)"/><line class="cls-3" x1="71.24" y1="203.66" x2="58.71" y2="203.66"/><path class="cls-3" d="M642.34,537.63s0,16-10,23" transform="translate(-562.63 -350.19)"/><path class="cls-6" d="M621.69,553.86c.17-.34-1-1.21-2.08-1.46-.75-.19-1-1.23-1.8-1.57s-2.47-.24-3.39-.68c-1.15-.54-.73-1-1.52-1.67-1.35-1.19-1.53-1.57-2.36-1.36-.55.38-.13,1.3.3,2.27a7,7,0,0,0,1.37,2.42c.7.71,1.81.76,2.71,1.19s1.29,1.21,2.06,1.39a9.82,9.82,0,0,0,2.56.1C620.72,554.47,621.57,554.35,621.69,553.86Z" transform="translate(-562.63 -350.19)"/><path class="cls-7" d="M610.54,547.12a18.15,18.15,0,0,0,3.71,4.37c2.94,2.37,7.44,2.37,7.44,2.37" transform="translate(-562.63 -350.19)"/><path class="cls-6" d="M615.58,562.77c0-.54,2-1.08,3.59-.89,1.12.14,1.94-1.13,3.26-1.16,1.5,0,3.47.95,4.94.84,1.84-.14,1.51-.93,2.94-1.44,2.45-.89,2.9-1.3,3.91-.61.54.79-.51,1.79-1.61,2.87a9.9,9.9,0,0,1-3.12,2.5c-1.32.58-2.85.09-4.29.2-1.23.09-2.38.94-3.52.79a14.16,14.16,0,0,1-3.51-1.17C616.58,564.06,615.5,563.48,615.58,562.77Z" transform="translate(-562.63 -350.19)"/><path class="cls-7" d="M634.22,559.51a26.65,26.65,0,0,1-7.31,3.91c-5.23,1.64-11.33-.65-11.33-.65" transform="translate(-562.63 -350.19)"/><path class="cls-6" d="M607.07,554.49c.14-.38,1.74-.09,2.73.52.72.44,1.68-.17,2.6.22s2.07,1.74,3.11,2.12c1.3.48,1.32-.16,2.46-.06,1.95.15,2.39,0,2.87.81.12.71-.92,1.06-2,1.45a7.29,7.29,0,0,1-2.92.74c-1.09,0-2-.84-3-1.21s-1.93-.1-2.66-.56a11.12,11.12,0,0,1-2-1.9C607.35,555.68,606.79,555,607.07,554.49Z" transform="translate(-562.63 -350.19)"/><path class="cls-7" d="M620.84,558.1a19.87,19.87,0,0,1-6.23.38c-4.09-.52-7.54-4-7.54-4" transform="translate(-562.63 -350.19)"/><line class="cls-3" x1="79.37" y1="56.44" x2="79.37" y2="13.44"/><line class="cls-3" x1="79.37" y1="231.81" x2="79.37" y2="188.81"/></g></svg>