<svg id="Ebene_1" data-name="Ebene 1" xmlns="http://www.w3.org/2000/svg" viewBox="0 0 158.74 246.62"><defs><style>.cls-1{fill:red;}.cls-2{fill:#ff0;}.cls-3,.cls-6{fill:none;stroke:#000;stroke-miterlimit:10;}.cls-3{stroke-width:0.3px;}.cls-4{fill:#ddd82c;}.cls-5{fill:#006837;}.cls-6{stroke-width:0.2px;}.cls-7{fill:#009245;}</style></defs><title>7</title><path d="M1019,419.19a13.35,13.35,0,0,1,13.34,13.34V650.47A13.35,13.35,0,0,1,1019,663.81H889a13.35,13.35,0,0,1-13.34-13.34V432.53A13.35,13.35,0,0,1,889,419.19H1019m0-1H889a14.34,14.34,0,0,0-14.34,14.34V650.47A14.34,14.34,0,0,0,889,664.81H1019a14.34,14.34,0,0,0,14.34-14.34V432.53A14.34,14.34,0,0,0,1019,418.19Z" transform="translate(-874.63 -418.19)"/><path d="M890.54,427.3c-2.3,4.87-4.54,9.72-6.86,14.69l-1.73.17-.17-.26a132.91,132.91,0,0,0,7-13.13h-5.13c-1.56,0-1.66.21-2.31,1.8h-.74c.24-1.35.33-2.55.45-3.58h9.32Z" transform="translate(-874.63 -418.19)"/><path d="M1027.37,427.3c-2.3,4.87-4.54,9.72-6.86,14.69l-1.73.17-.17-.26a132.91,132.91,0,0,0,7-13.13h-5.13c-1.56,0-1.66.21-2.31,1.8h-.74c.24-1.35.33-2.55.45-3.58h9.32Z" transform="translate(-874.63 -418.19)"/><path d="M1018,653.38c2.3-4.87,4.54-9.72,6.86-14.68l1.73-.17.17.26a132.91,132.91,0,0,0-7,13.13h5.13c1.56,0,1.66-.21,2.31-1.8h.74c-.24,1.34-.33,2.55-.45,3.58h-9.32Z" transform="translate(-874.63 -418.19)"/><path d="M881,653.38c2.3-4.87,4.54-9.72,6.86-14.68l1.73-.17.17.26a132.91,132.91,0,0,0-7,13.13h5.13c1.56,0,1.66-.21,2.31-1.8h.74c-.24,1.34-.33,2.55-.45,3.58H881.1Z" transform="translate(-874.63 -418.19)"/><path class="cls-1" d="M956,550" transform="translate(-874.63 -418.19)"/><ellipse class="cls-2" cx="78.37" cy="133.81" rx="2" ry="1"/><ellipse class="cls-2" cx="78.37" cy="154.81" rx="2" ry="1"/><path class="cls-1" d="M951,552l.15.08a4,4,0,0,0,3.7,0L955,552l-.35,7.61c-.1,2.25-.09,4.52,0,6.78L955,573h0a2.59,2.59,0,0,0-4,0h0l.39-7.83c.07-1.44.08-2.9,0-4.34Z" transform="translate(-874.63 -418.19)"/><path class="cls-1" d="M952.5,573h1l2.5,58-.78-.52a3.78,3.78,0,0,0-4.44,0L950,631Z" transform="translate(-874.63 -418.19)"/><polygon points="77.87 153.81 78.87 153.81 80.37 188.81 76.37 188.81 77.87 153.81"/><path d="M952.75,611.2,953,613l.25-1.8h0a9.87,9.87,0,0,1,.89-3.11A3.11,3.11,0,0,1,955,607h-4a3.11,3.11,0,0,1,.86,1.09,9.87,9.87,0,0,1,.89,3.11Z" transform="translate(-874.63 -418.19)"/><circle class="cls-2" cx="78.37" cy="212.81" r="3"/><path class="cls-1" d="M952.5,552h1l2.5-58-.78.52a3.78,3.78,0,0,1-4.44,0L950,494Z" transform="translate(-874.63 -418.19)"/><polygon points="77.87 134.81 78.87 134.81 80.37 99.81 76.37 99.81 77.87 134.81"/><path d="M952.75,514.5,953,513l.25,1.5h0a7.19,7.19,0,0,0,.89,2.59,2.68,2.68,0,0,0,.86.91h-4a2.68,2.68,0,0,0,.86-.91,7.19,7.19,0,0,0,.89-2.59Z" transform="translate(-874.63 -418.19)"/><circle class="cls-2" cx="78.37" cy="75.81" r="3"/><line class="cls-3" x1="79.37" y1="144.81" x2="87.37" y2="144.81"/><line class="cls-3" x1="69.37" y1="144.81" x2="77.37" y2="144.81"/><path class="cls-3" d="M954,570l2,31s0,4,7,4" transform="translate(-874.63 -418.19)"/><path class="cls-3" d="M954,555l2-31s0-4,7-4" transform="translate(-874.63 -418.19)"/><path class="cls-1" d="M951,552l.15.08a4,4,0,0,0,3.7,0L955,552l-.35,7.61c-.1,2.25-.09,4.52,0,6.78L955,573h0a2.59,2.59,0,0,0-4,0h0l.39-7.83c.07-1.44.08-2.9,0-4.34Z" transform="translate(-874.63 -418.19)"/><path class="cls-3" d="M952,570l-2,31s0,4-7,4" transform="translate(-874.63 -418.19)"/><path class="cls-3" d="M952,555l-2-31s0-4-7-4" transform="translate(-874.63 -418.19)"/><path class="cls-4" d="M1024,563.66H980.51V552.53h30.2s4.83.32,6,4.38a9.91,9.91,0,0,0,6.16,6.59l.35.08A3.28,3.28,0,0,0,1024,563.66Z" transform="translate(-874.63 -418.19)"/><path class="cls-4" d="M1024,563.5a3.28,3.28,0,0,0-.74.08,2.49,2.49,0,0,0-.35.08,9.84,9.84,0,0,0-6.21,6.49c-1.2,4-6,4.32-6,4.32H980.51v-11Z" transform="translate(-874.63 -418.19)"/><path class="cls-5" d="M981.18,563.5a30.47,30.47,0,0,0,2.47,12.29,14.5,14.5,0,1,1,0-24.58A30.47,30.47,0,0,0,981.18,563.5Z" transform="translate(-874.63 -418.19)"/><path class="cls-4" d="M882,563.66h43.49V552.53h-30.2s-4.83.32-6,4.38a9.91,9.91,0,0,1-6.16,6.59l-.35.08A3.28,3.28,0,0,1,882,563.66Z" transform="translate(-874.63 -418.19)"/><path class="cls-4" d="M882,563.5a3.28,3.28,0,0,1,.74.08,2.49,2.49,0,0,1,.35.08,9.84,9.84,0,0,1,6.21,6.49c1.2,4,6,4.32,6,4.32h30.15v-11Z" transform="translate(-874.63 -418.19)"/><path class="cls-5" d="M924.82,563.5a30.47,30.47,0,0,1-2.47,12.29,14.5,14.5,0,1,0,0-24.58A30.47,30.47,0,0,1,924.82,563.5Z" transform="translate(-874.63 -418.19)"/><path class="cls-4" d="M1024,605.66H980.51V594.53h30.2s4.83.32,6,4.38a9.91,9.91,0,0,0,6.16,6.59l.35.08A3.28,3.28,0,0,0,1024,605.66Z" transform="translate(-874.63 -418.19)"/><path class="cls-4" d="M1024,605.5a3.28,3.28,0,0,0-.74.08,2.49,2.49,0,0,0-.35.08,9.84,9.84,0,0,0-6.21,6.49c-1.2,4-6,4.32-6,4.32H980.51v-11Z" transform="translate(-874.63 -418.19)"/><path class="cls-5" d="M981.18,605.5a30.47,30.47,0,0,0,2.47,12.29,14.5,14.5,0,1,1,0-24.58A30.47,30.47,0,0,0,981.18,605.5Z" transform="translate(-874.63 -418.19)"/><path class="cls-4" d="M882,605.66h43.49V594.53h-30.2s-4.83.32-6,4.38a9.91,9.91,0,0,1-6.16,6.59l-.35.08A3.28,3.28,0,0,1,882,605.66Z" transform="translate(-874.63 -418.19)"/><path class="cls-4" d="M882,605.5a3.28,3.28,0,0,1,.74.08,2.49,2.49,0,0,1,.35.08,9.84,9.84,0,0,1,6.21,6.49c1.2,4,6,4.32,6,4.32h30.15v-11Z" transform="translate(-874.63 -418.19)"/><path class="cls-5" d="M924.82,605.5a30.47,30.47,0,0,1-2.47,12.29,14.5,14.5,0,1,0,0-24.58A30.47,30.47,0,0,1,924.82,605.5Z" transform="translate(-874.63 -418.19)"/><path class="cls-4" d="M1024,521.66H980.51V510.53h30.2s4.83.32,6,4.38a9.91,9.91,0,0,0,6.16,6.59l.35.08A3.28,3.28,0,0,0,1024,521.66Z" transform="translate(-874.63 -418.19)"/><path class="cls-4" d="M1024,521.5a3.28,3.28,0,0,0-.74.08,2.49,2.49,0,0,0-.35.08,9.84,9.84,0,0,0-6.21,6.49c-1.2,4-6,4.32-6,4.32H980.51v-11Z" transform="translate(-874.63 -418.19)"/><path class="cls-5" d="M981.18,521.5a30.47,30.47,0,0,0,2.47,12.29,14.5,14.5,0,1,1,0-24.58A30.47,30.47,0,0,0,981.18,521.5Z" transform="translate(-874.63 -418.19)"/><path class="cls-4" d="M953,430l-.13,34.43-9.35,0,.08-23.9s.28-3.83,3.7-4.77a8.11,8.11,0,0,0,5.56-4.86c0-.09,0-.19.07-.27A3.06,3.06,0,0,0,953,430Z" transform="translate(-874.63 -418.19)"/><path class="cls-4" d="M952.82,430a2.49,2.49,0,0,0,.07.59,1.47,1.47,0,0,0,.06.27,8.07,8.07,0,0,0,5.44,4.94c3.36,1,3.62,4.79,3.62,4.79l-.09,23.87-9.22,0Z" transform="translate(-874.63 -418.19)"/><path class="cls-5" d="M952.7,463.89A26.93,26.93,0,0,0,963,462a11,11,0,0,1,1.84,6.09,11.64,11.64,0,0,1-11.83,11.62c-6.73,0-12.58-5.37-12.55-11.71a10.83,10.83,0,0,1,1.87-6.07A27,27,0,0,0,952.7,463.89Z" transform="translate(-874.63 -418.19)"/><path class="cls-4" d="M882,521.66h43.49V510.53h-30.2s-4.83.32-6,4.38a9.91,9.91,0,0,1-6.16,6.59l-.35.08A3.28,3.28,0,0,1,882,521.66Z" transform="translate(-874.63 -418.19)"/><path class="cls-4" d="M882,521.5a3.28,3.28,0,0,1,.74.08,2.49,2.49,0,0,1,.35.08,9.84,9.84,0,0,1,6.21,6.49c1.2,4,6,4.32,6,4.32h30.15v-11Z" transform="translate(-874.63 -418.19)"/><path class="cls-5" d="M924.82,521.5a30.47,30.47,0,0,1-2.47,12.29,14.5,14.5,0,1,0,0-24.58A30.47,30.47,0,0,1,924.82,521.5Z" transform="translate(-874.63 -418.19)"/><path class="cls-3" d="M1011,466.78" transform="translate(-874.63 -418.19)"/><path class="cls-3" d="M998.09,463.31" transform="translate(-874.63 -418.19)"/><path class="cls-6" d="M1010.53,466.76" transform="translate(-874.63 -418.19)"/><path class="cls-6" d="M1019.78,469.14" transform="translate(-874.63 -418.19)"/><path class="cls-6" d="M1024.48,473.51" transform="translate(-874.63 -418.19)"/><path class="cls-7" d="M1011,458.64c-.36-.4-2.51,1.15-3.67,2.68-.84,1.11-2.46,1-3.6,2.19-1.28,1.35-2.21,3.81-3.53,5.08-1.65,1.59-2,.75-3.53,1.71-2.71,1.63-3.39,1.77-3.73,3.16.13,1,1.75.75,3.46.47a11.94,11.94,0,0,0,4.47-1.16c1.54-.81,2.46-2.54,3.74-3.78,1.11-1.06,2.7-1.54,3.55-2.69a21.14,21.14,0,0,0,2.09-4C1011.13,460.43,1011.61,459,1011,458.64Z" transform="translate(-874.63 -418.19)"/><path class="cls-3" d="M1011,459a39.14,39.14,0,0,1-7,9c-3.5,3.5-11,6-11,6l-13,4s0-7,5-10" transform="translate(-874.63 -418.19)"/><path class="cls-7" d="M996.85,455.44c-.36-.21-1.82,1.16-2.48,2.37-.48.88-1.8,1.05-2.51,2s-1.12,2.9-2,4c-1,1.32-1.43.81-2.54,1.69-1.9,1.52-2.42,1.72-2.45,2.71.28.67,1.54.22,2.86-.23a11,11,0,0,0,3.4-1.47c1.1-.79,1.53-2.09,2.35-3.12s1.91-1.45,2.39-2.35a13,13,0,0,0,1-3C997.26,456.62,997.4,455.62,996.85,455.44Z" transform="translate(-874.63 -418.19)"/><path class="cls-6" d="M984.91,468.19a30.81,30.81,0,0,0,6.56-4.11,20.21,20.21,0,0,0,5.38-8.64" transform="translate(-874.63 -418.19)"/><path class="cls-7" d="M986,478c-.18.38,1.6,1.77,2.86,2.31.92.39,1.23,1.69,2.27,2.3s3,.81,4.13,1.55c1.42.91,1,1.34,1.94,2.36,1.7,1.73,1.95,2.23,2.94,2.17.63-.35.06-1.55-.52-2.83a10.78,10.78,0,0,0-1.8-3.23c-.89-1-2.23-1.32-3.34-2-1-.61-1.63-1.75-2.58-2.14a12.51,12.51,0,0,0-3.08-.68C987.39,477.56,986.12,477.44,986,478Z" transform="translate(-874.63 -418.19)"/><path class="cls-6" d="M1000.14,488.69a30.63,30.63,0,0,0-4.75-6.12C991.69,479.06,986,478,986,478" transform="translate(-874.63 -418.19)"/><path class="cls-3" d="M952.92,627.63" transform="translate(-874.63 -418.19)"/><path class="cls-3" d="M952.92,627.63" transform="translate(-874.63 -418.19)"/><path class="cls-7" d="M952.92,657.93l.2.07" transform="translate(-874.63 -418.19)"/><path class="cls-7" d="M952.92,657.93l-.2.07" transform="translate(-874.63 -418.19)"/><path class="cls-3" d="M953.42,627.63" transform="translate(-874.63 -418.19)"/><path class="cls-3" d="M953.42,627.63" transform="translate(-874.63 -418.19)"/><path class="cls-3" d="M953,629" transform="translate(-874.63 -418.19)"/><path class="cls-3" d="M953,658" transform="translate(-874.63 -418.19)"/><path class="cls-3" d="M970,479" transform="translate(-874.63 -418.19)"/><path class="cls-3" d="M953,479v17s4-15,22-17l5-1a10.56,10.56,0,0,1,6,0" transform="translate(-874.63 -418.19)"/><path class="cls-3" d="M985.87,646.73" transform="translate(-874.63 -418.19)"/><path class="cls-7" d="M995.29,649.33c-.26.22-1.83-.64-2.67-1.49-.61-.62-1.8-.56-2.62-1.22s-1.62-2.12-2.58-2.83c-1.2-.88-1.42-.42-2.57-.95-2-.91-2.47-1-2.72-1.76.09-.57,1.27-.41,2.52-.26a11.27,11.27,0,0,1,3.26.64c1.12.46,1.79,1.42,2.73,2.11s2,.85,2.58,1.49a10.53,10.53,0,0,1,1.52,2.23C995.37,648.34,995.72,649.11,995.29,649.33Z" transform="translate(-874.63 -418.19)"/><path class="cls-3" d="M995.28,649.13a23.36,23.36,0,0,0-5.1-5c-2.56-2-8-3.34-8-3.34l-9.48-2.22a6.42,6.42,0,0,0,3.65,5.56" transform="translate(-874.63 -418.19)"/><path class="cls-7" d="M985,651.11c-.27.12-1.33-.65-1.81-1.32-.35-.49-1.32-.59-1.83-1.13s-.82-1.61-1.43-2.2c-.77-.73-1-.45-1.85-.94-1.39-.84-1.77-.95-1.79-1.5.21-.38,1.12-.13,2.09.12a9.66,9.66,0,0,1,2.47.82c.8.44,1.12,1.16,1.72,1.74s1.39.8,1.74,1.31a5.7,5.7,0,0,1,.71,1.66C985.26,650.45,985.37,651,985,651.11Z" transform="translate(-874.63 -418.19)"/><path class="cls-6" d="M976.26,644A24.15,24.15,0,0,1,981,646.3a11.09,11.09,0,0,1,3.93,4.81" transform="translate(-874.63 -418.19)"/><path class="cls-7" d="M977.05,638.56c-.12-.22,1.17-1,2.09-1.29.67-.22.9-.94,1.66-1.28s2.18-.45,3-.86c1-.51.69-.75,1.41-1.31,1.24-1,1.42-1.25,2.14-1.21.46.2,0,.86-.37,1.57a5.88,5.88,0,0,1-1.32,1.8,10.61,10.61,0,0,1-2.43,1.13c-.69.34-1.19,1-1.88,1.19a12.29,12.29,0,0,1-2.25.38C978.07,638.8,977.14,638.87,977.05,638.56Z" transform="translate(-874.63 -418.19)"/><path class="cls-6" d="M987.36,632.61a18.42,18.42,0,0,1-3.46,3.4,17.94,17.94,0,0,1-6.85,2.55" transform="translate(-874.63 -418.19)"/><path class="cls-3" d="M953,638v-9.46s2.92,8.35,16,9.46l3.64.56a10.09,10.09,0,0,0,4.37,0" transform="translate(-874.63 -418.19)"/><path class="cls-3" d="M919.62,646.73" transform="translate(-874.63 -418.19)"/><path class="cls-7" d="M910.19,649.33c.27.22,1.86-.64,2.71-1.49.62-.62,1.81-.56,2.65-1.22s1.64-2.12,2.61-2.83c1.22-.88,1.44-.42,2.6-.95,2-.91,2.51-1,2.76-1.76-.1-.57-1.29-.41-2.55-.26a11.45,11.45,0,0,0-3.3.64c-1.14.46-1.82,1.42-2.76,2.11s-2,.85-2.62,1.49a10.69,10.69,0,0,0-1.54,2.23C910.11,648.34,909.76,649.11,910.19,649.33Z" transform="translate(-874.63 -418.19)"/><path class="cls-3" d="M910.21,649.13a23.27,23.27,0,0,1,5.16-5c2.59-2,8.12-3.34,8.12-3.34l9.59-2.22a6.41,6.41,0,0,1-3.69,5.56" transform="translate(-874.63 -418.19)"/><path class="cls-7" d="M920.64,651.11c.27.12,1.35-.65,1.84-1.32.35-.49,1.33-.59,1.85-1.13s.82-1.61,1.44-2.2c.78-.73,1.06-.45,1.88-.94,1.4-.84,1.78-.95,1.81-1.5-.21-.38-1.14-.13-2.12.12a9.84,9.84,0,0,0-2.5.82c-.81.44-1.13,1.16-1.74,1.74s-1.4.8-1.76,1.31a6,6,0,0,0-.72,1.66C920.35,650.45,920.24,651,920.64,651.11Z" transform="translate(-874.63 -418.19)"/><path class="cls-6" d="M929.46,644a24.7,24.7,0,0,0-4.84,2.28,11.16,11.16,0,0,0-4,4.81" transform="translate(-874.63 -418.19)"/><path class="cls-7" d="M928.65,638.56c.13-.22-1.18-1-2.11-1.29-.68-.22-.91-.94-1.67-1.28s-2.21-.45-3-.86c-1.05-.51-.7-.75-1.43-1.31-1.26-1-1.44-1.25-2.17-1.21-.47.2-.05.86.38,1.57a5.93,5.93,0,0,0,1.33,1.8,10.84,10.84,0,0,0,2.46,1.13c.7.34,1.21,1,1.91,1.19a12.48,12.48,0,0,0,2.27.38C927.63,638.8,928.56,638.87,928.65,638.56Z" transform="translate(-874.63 -418.19)"/><path class="cls-6" d="M918.22,632.61a18.5,18.5,0,0,0,3.51,3.4,18.21,18.21,0,0,0,6.92,2.55" transform="translate(-874.63 -418.19)"/><path class="cls-3" d="M953,638v-9.46s-3,8.35-16.23,9.46l-3.69.56a10.35,10.35,0,0,1-4.43,0" transform="translate(-874.63 -418.19)"/><path class="cls-3" d="M908.19,463.31" transform="translate(-874.63 -418.19)"/><path class="cls-7" d="M895.26,458.64c.37-.4,2.52,1.15,3.67,2.68.84,1.11,2.46,1,3.6,2.19,1.28,1.35,2.21,3.81,3.53,5.08,1.65,1.59,2,.75,3.53,1.71,2.71,1.63,3.39,1.77,3.73,3.16-.13,1-1.74.75-3.46.47a12,12,0,0,1-4.47-1.16c-1.54-.81-2.46-2.54-3.74-3.78-1.1-1.06-2.7-1.54-3.55-2.69a21.14,21.14,0,0,1-2.09-4C895.15,460.43,894.67,459,895.26,458.64Z" transform="translate(-874.63 -418.19)"/><path class="cls-3" d="M895.28,459a39.14,39.14,0,0,0,7,9c3.5,3.5,11,6,11,6l13,4s0-7-5-10" transform="translate(-874.63 -418.19)"/><path class="cls-7" d="M909.43,455.44c.36-.21,1.82,1.16,2.48,2.37.48.88,1.8,1.05,2.51,2s1.12,2.9,2,4c1,1.32,1.43.81,2.54,1.69,1.9,1.52,2.42,1.72,2.45,2.71-.28.67-1.53.22-2.86-.23a11,11,0,0,1-3.4-1.47c-1.09-.79-1.53-2.09-2.35-3.12s-1.91-1.45-2.39-2.35a13,13,0,0,1-1-3C909,456.62,908.88,455.62,909.43,455.44Z" transform="translate(-874.63 -418.19)"/><path class="cls-6" d="M921.37,468.19a30.81,30.81,0,0,1-6.56-4.11,20.21,20.21,0,0,1-5.38-8.64" transform="translate(-874.63 -418.19)"/><path class="cls-7" d="M920.28,478c.18.38-1.6,1.77-2.86,2.31-.92.39-1.23,1.69-2.27,2.3s-3,.81-4.13,1.55c-1.42.91-.95,1.34-1.94,2.36-1.7,1.73-2,2.23-2.93,2.17-.64-.35-.07-1.55.51-2.83a11,11,0,0,1,1.8-3.23c.9-1,2.24-1.32,3.34-2s1.63-1.75,2.58-2.14a12.51,12.51,0,0,1,3.08-.68C918.89,477.56,920.16,477.44,920.28,478Z" transform="translate(-874.63 -418.19)"/><path class="cls-6" d="M906.15,488.69a30.81,30.81,0,0,1,4.74-6.12c3.7-3.51,9.39-4.57,9.39-4.57" transform="translate(-874.63 -418.19)"/><path class="cls-3" d="M936.28,479" transform="translate(-874.63 -418.19)"/><path class="cls-3" d="M953.28,480,953,496s-3.72-15-21.72-17l-5-1a10.56,10.56,0,0,0-6,0" transform="translate(-874.63 -418.19)"/><path class="cls-1" d="M951,552l.15.08a4,4,0,0,0,3.7,0L955,552l-.35,7.61c-.1,2.25-.09,4.52,0,6.78L955,573h0a3.56,3.56,0,0,0-1-.7l-.12,0A2.57,2.57,0,0,0,951,573h0l.39-7.83c.07-1.44.08-2.9,0-4.34Z" transform="translate(-874.63 -418.19)"/><line class="cls-3" x1="78.37" y1="234.81" x2="78.37" y2="191.81"/><path class="cls-7" d="M953.14,635.84l-.14.1v22.58l.14.11c1.29-.94,4-4.1,1.79-5.79-1.64-1.26,2.21-3.28,2.21-5.61,0-.74-2.63-4.89-1.93-5.26C958,640.53,955.14,637.29,953.14,635.84Z" transform="translate(-874.63 -418.19)"/><path class="cls-7" d="M953,635.84l.14.1v22.58l-.14.11c-1.3-.94-4-4.1-1.79-5.79,1.64-1.26-2.21-3.28-2.21-5.61,0-.74,2.63-4.89,1.93-5.26C948.17,640.53,951,637.29,953,635.84Z" transform="translate(-874.63 -418.19)"/><line class="cls-3" x1="78.37" y1="210.81" x2="78.37" y2="240.44"/></svg>