<svg id="Ebene_1" data-name="Ebene 1" xmlns="http://www.w3.org/2000/svg" viewBox="0 0 158.74 246.62"><defs><style>.cls-1{fill:red;}.cls-2{fill:#ff0;}.cls-3,.cls-5{fill:none;stroke:#000;stroke-miterlimit:10;}.cls-3{stroke-width:0.3px;}.cls-4{fill:#009245;}.cls-5{stroke-width:0.2px;}.cls-6{fill:#ddd82c;}.cls-7{fill:#006837;}</style></defs><title>8</title><path d="M1024,419.19a13.35,13.35,0,0,1,13.34,13.34V650.47A13.35,13.35,0,0,1,1024,663.81H894a13.35,13.35,0,0,1-13.34-13.34V432.53A13.35,13.35,0,0,1,894,419.19H1024m0-1H894a14.34,14.34,0,0,0-14.34,14.34V650.47A14.34,14.34,0,0,0,894,664.81H1024a14.34,14.34,0,0,0,14.34-14.34V432.53A14.34,14.34,0,0,0,1024,418.19Z" transform="translate(-879.63 -418.19)"/><path d="M890.52,426.7a3.67,3.67,0,0,1,3.92,3.55,3,3,0,0,1-.68,1.95,18.13,18.13,0,0,1-2,1.53c1.66.92,3.29,2.07,3.29,4.16,0,2.81-2.54,4.34-4.82,4.34-2.67,0-4.64-1.53-4.64-4a2.84,2.84,0,0,1,1.11-2.37,19.94,19.94,0,0,1,2.16-1.49c-1.56-.92-2.67-2.07-2.67-3.77A4.06,4.06,0,0,1,890.52,426.7Zm0,14.74a2.52,2.52,0,0,0,2.6-2.83c0-1.92-1.61-2.86-3.56-3.8a3.7,3.7,0,0,0-2,3.29C887.55,440.31,888.94,441.44,890.52,441.44Zm-.28-13.92A2.21,2.21,0,0,0,888,430c0,1.75,1.17,2.4,3.05,3.38a3.51,3.51,0,0,0,1.58-3C892.66,428.36,891.48,427.52,890.24,427.52Z" transform="translate(-879.63 -418.19)"/><path d="M1027.36,426.7a3.67,3.67,0,0,1,3.91,3.55,3,3,0,0,1-.67,1.95,19.87,19.87,0,0,1-2,1.53c1.66.92,3.29,2.07,3.29,4.16,0,2.81-2.54,4.34-4.82,4.34-2.67,0-4.64-1.53-4.64-4a2.84,2.84,0,0,1,1.11-2.37,19.94,19.94,0,0,1,2.16-1.49c-1.56-.92-2.66-2.07-2.66-3.77A4.05,4.05,0,0,1,1027.36,426.7Zm0,14.74a2.52,2.52,0,0,0,2.59-2.83c0-1.92-1.61-2.86-3.56-3.8a3.7,3.7,0,0,0-2,3.29C1024.38,440.31,1025.77,441.44,1027.36,441.44Zm-.29-13.92a2.21,2.21,0,0,0-2.21,2.45c0,1.75,1.18,2.4,3.05,3.38a3.51,3.51,0,0,0,1.58-3C1029.49,428.36,1028.31,427.52,1027.07,427.52Z" transform="translate(-879.63 -418.19)"/><path d="M1028,654a3.67,3.67,0,0,1-3.92-3.56,2.93,2.93,0,0,1,.68-1.94,19.06,19.06,0,0,1,2-1.54c-1.66-.91-3.29-2.06-3.29-4.15,0-2.81,2.54-4.34,4.82-4.34,2.67,0,4.64,1.53,4.64,4a2.84,2.84,0,0,1-1.11,2.37,21.5,21.5,0,0,1-2.16,1.49c1.56.91,2.67,2.06,2.67,3.77A4.06,4.06,0,0,1,1028,654Zm0-14.74a2.52,2.52,0,0,0-2.6,2.83c0,1.92,1.61,2.86,3.56,3.79a3.68,3.68,0,0,0,2-3.29C1031,640.38,1029.56,639.25,1028,639.25Zm.28,13.92a2.21,2.21,0,0,0,2.21-2.45c0-1.75-1.18-2.4-3-3.38a3.5,3.5,0,0,0-1.58,3C1025.84,652.33,1027,653.17,1028.26,653.17Z" transform="translate(-879.63 -418.19)"/><path d="M891,654a3.67,3.67,0,0,1-3.92-3.56,2.93,2.93,0,0,1,.68-1.94,19.06,19.06,0,0,1,2-1.54c-1.66-.91-3.29-2.06-3.29-4.15,0-2.81,2.54-4.34,4.82-4.34,2.67,0,4.64,1.53,4.64,4a2.84,2.84,0,0,1-1.11,2.37,21.5,21.5,0,0,1-2.16,1.49c1.56.91,2.67,2.06,2.67,3.77A4.06,4.06,0,0,1,891,654Zm0-14.74a2.52,2.52,0,0,0-2.6,2.83c0,1.92,1.61,2.86,3.56,3.79a3.68,3.68,0,0,0,2-3.29C894,640.38,892.56,639.25,891,639.25Zm.28,13.92a2.21,2.21,0,0,0,2.21-2.45c0-1.75-1.17-2.4-3.05-3.38a3.5,3.5,0,0,0-1.58,3C888.84,652.33,890,653.17,891.26,653.17Z" transform="translate(-879.63 -418.19)"/><path class="cls-1" d="M961,550" transform="translate(-879.63 -418.19)"/><ellipse class="cls-2" cx="78.37" cy="113.17" rx="2" ry="1.25"/><path class="cls-1" d="M957.5,557.64h1l2.5,72.6-.78-.64a3.17,3.17,0,0,0-4.44,0l-.78.64Z" transform="translate(-879.63 -418.19)"/><polygon points="77.87 126.2 78.87 126.2 80.37 182.01 76.37 182.01 77.87 126.2"/><path d="M957.75,605.46l.25,2.25.25-2.25h0a14.73,14.73,0,0,1,.89-3.89,3.91,3.91,0,0,1,.86-1.37h-4a3.91,3.91,0,0,1,.86,1.37,14.73,14.73,0,0,1,.89,3.89Z" transform="translate(-879.63 -418.19)"/><ellipse class="cls-2" cx="78.37" cy="212.05" rx="3" ry="3.76"/><path class="cls-1" d="M957.5,531.36h1l2.5-72.6-.78.64a3.17,3.17,0,0,1-4.44,0l-.78-.64Z" transform="translate(-879.63 -418.19)"/><polygon points="77.87 126.81 78.87 126.81 80.37 70.61 76.37 70.61 77.87 126.81"/><path d="M957.75,484.42l.25-1.88.25,1.88h0a10.66,10.66,0,0,0,.89,3.24,3.21,3.21,0,0,0,.86,1.14h-4a3.21,3.21,0,0,0,.86-1.14,10.66,10.66,0,0,0,.89-3.24Z" transform="translate(-879.63 -418.19)"/><ellipse class="cls-2" cx="78.37" cy="40.57" rx="3" ry="3.76"/><path class="cls-3" d="M967,563" transform="translate(-879.63 -418.19)"/><path class="cls-3" d="M959,563" transform="translate(-879.63 -418.19)"/><path class="cls-3" d="M957,547" transform="translate(-879.63 -418.19)"/><path class="cls-3" d="M959,548l2,53s0,4,7,4" transform="translate(-879.63 -418.19)"/><path class="cls-3" d="M959,548l2-24s0-4,7-4" transform="translate(-879.63 -418.19)"/><path class="cls-3" d="M957,547l-2,54s0,4-7,4" transform="translate(-879.63 -418.19)"/><path class="cls-3" d="M957,545l-2-54s0-13-7-13" transform="translate(-879.63 -418.19)"/><path class="cls-3" d="M959,547l2-54s0-15,9-15" transform="translate(-879.63 -418.19)"/><path class="cls-3" d="M957,548l-2-24s0-4-7-4" transform="translate(-879.63 -418.19)"/><path class="cls-3" d="M957.92,627.63" transform="translate(-879.63 -418.19)"/><path class="cls-3" d="M957.92,627.63" transform="translate(-879.63 -418.19)"/><path class="cls-4" d="M957.92,657.93l.2.07" transform="translate(-879.63 -418.19)"/><path class="cls-4" d="M957.92,657.93l-.2.07" transform="translate(-879.63 -418.19)"/><path class="cls-3" d="M958.42,627.63" transform="translate(-879.63 -418.19)"/><path class="cls-3" d="M958.42,627.63" transform="translate(-879.63 -418.19)"/><path class="cls-3" d="M958,629" transform="translate(-879.63 -418.19)"/><path class="cls-3" d="M958,658" transform="translate(-879.63 -418.19)"/><path class="cls-3" d="M958,496" transform="translate(-879.63 -418.19)"/><path class="cls-3" d="M990.87,646.73" transform="translate(-879.63 -418.19)"/><path class="cls-4" d="M1000.29,649.33c-.26.22-1.83-.64-2.67-1.49-.61-.62-1.8-.56-2.62-1.22s-1.62-2.12-2.58-2.83c-1.2-.88-1.42-.42-2.57-.95-2-.91-2.47-1-2.72-1.76.09-.57,1.27-.41,2.52-.26a11.27,11.27,0,0,1,3.26.64c1.12.46,1.79,1.42,2.73,2.11s2,.85,2.58,1.49a10.53,10.53,0,0,1,1.52,2.23C1000.37,648.34,1000.72,649.11,1000.29,649.33Z" transform="translate(-879.63 -418.19)"/><path class="cls-3" d="M1000.28,649.13a23.36,23.36,0,0,0-5.1-5c-2.56-2-8-3.34-8-3.34l-9.48-2.22a6.42,6.42,0,0,0,3.65,5.56" transform="translate(-879.63 -418.19)"/><path class="cls-4" d="M990,651.11c-.27.12-1.33-.65-1.81-1.32-.35-.49-1.32-.59-1.83-1.13s-.82-1.61-1.43-2.2c-.77-.73-1-.45-1.85-.94-1.39-.84-1.77-.95-1.79-1.5.21-.38,1.12-.13,2.09.12a9.66,9.66,0,0,1,2.47.82c.8.44,1.12,1.16,1.72,1.74s1.39.8,1.74,1.31a5.7,5.7,0,0,1,.71,1.66C990.26,650.45,990.37,651,990,651.11Z" transform="translate(-879.63 -418.19)"/><path class="cls-5" d="M981.26,644A24.15,24.15,0,0,1,986,646.3a11.09,11.09,0,0,1,3.93,4.81" transform="translate(-879.63 -418.19)"/><path class="cls-4" d="M982.05,638.56c-.12-.22,1.17-1,2.09-1.29.67-.22.9-.94,1.66-1.28s2.18-.45,3-.86c1-.51.69-.75,1.41-1.31,1.24-1,1.42-1.25,2.14-1.21.46.2,0,.86-.37,1.57a5.88,5.88,0,0,1-1.32,1.8,10.61,10.61,0,0,1-2.43,1.13c-.69.34-1.19,1-1.88,1.19a12.29,12.29,0,0,1-2.25.38C983.07,638.8,982.14,638.87,982.05,638.56Z" transform="translate(-879.63 -418.19)"/><path class="cls-5" d="M992.36,632.61a18.42,18.42,0,0,1-3.46,3.4,17.94,17.94,0,0,1-6.85,2.55" transform="translate(-879.63 -418.19)"/><path class="cls-3" d="M958,638v-9.46s2.92,8.35,16,9.46l3.64.56a10.09,10.09,0,0,0,4.37,0" transform="translate(-879.63 -418.19)"/><path class="cls-3" d="M924.62,646.73" transform="translate(-879.63 -418.19)"/><path class="cls-4" d="M915.19,649.33c.27.22,1.86-.64,2.71-1.49.62-.62,1.81-.56,2.65-1.22s1.64-2.12,2.61-2.83c1.22-.88,1.44-.42,2.6-.95,2-.91,2.51-1,2.76-1.76-.1-.57-1.29-.41-2.55-.26a11.45,11.45,0,0,0-3.3.64c-1.14.46-1.82,1.42-2.76,2.11s-2,.85-2.62,1.49a10.69,10.69,0,0,0-1.54,2.23C915.11,648.34,914.76,649.11,915.19,649.33Z" transform="translate(-879.63 -418.19)"/><path class="cls-3" d="M915.21,649.13a23.27,23.27,0,0,1,5.16-5c2.59-2,8.12-3.34,8.12-3.34l9.59-2.22a6.41,6.41,0,0,1-3.69,5.56" transform="translate(-879.63 -418.19)"/><path class="cls-4" d="M925.64,651.11c.27.12,1.35-.65,1.84-1.32.35-.49,1.33-.59,1.85-1.13s.82-1.61,1.44-2.2c.78-.73,1.06-.45,1.88-.94,1.4-.84,1.78-.95,1.81-1.5-.21-.38-1.14-.13-2.12.12a9.84,9.84,0,0,0-2.5.82c-.81.44-1.13,1.16-1.74,1.74s-1.4.8-1.76,1.31a6,6,0,0,0-.72,1.66C925.35,650.45,925.24,651,925.64,651.11Z" transform="translate(-879.63 -418.19)"/><path class="cls-5" d="M934.46,644a24.7,24.7,0,0,0-4.84,2.28,11.16,11.16,0,0,0-4,4.81" transform="translate(-879.63 -418.19)"/><path class="cls-4" d="M933.65,638.56c.13-.22-1.18-1-2.11-1.29-.68-.22-.91-.94-1.67-1.28s-2.21-.45-3-.86c-1.05-.51-.7-.75-1.43-1.31-1.26-1-1.44-1.25-2.17-1.21-.47.2-.05.86.38,1.57a5.93,5.93,0,0,0,1.33,1.8,10.84,10.84,0,0,0,2.46,1.13c.7.34,1.21,1,1.91,1.19a12.48,12.48,0,0,0,2.27.38C932.63,638.8,933.56,638.87,933.65,638.56Z" transform="translate(-879.63 -418.19)"/><path class="cls-5" d="M923.22,632.61a18.5,18.5,0,0,0,3.51,3.4,18.21,18.21,0,0,0,6.92,2.55" transform="translate(-879.63 -418.19)"/><path class="cls-3" d="M958,638v-9.46s-3,8.35-16.23,9.46l-3.69.56a10.35,10.35,0,0,1-4.43,0" transform="translate(-879.63 -418.19)"/><path class="cls-3" d="M958,496" transform="translate(-879.63 -418.19)"/><line class="cls-3" x1="78.37" y1="234.81" x2="78.37" y2="191.81"/><path class="cls-4" d="M958.14,635.84l-.14.1v22.58l.14.11c1.29-.94,4-4.1,1.79-5.79-1.64-1.26,2.21-3.28,2.21-5.61,0-.74-2.63-4.89-1.93-5.26C963,640.53,960.14,637.29,958.14,635.84Z" transform="translate(-879.63 -418.19)"/><path class="cls-4" d="M958,635.84l.14.1v22.58l-.14.11c-1.3-.94-4-4.1-1.79-5.79,1.64-1.26-2.21-3.28-2.21-5.61,0-.74,2.63-4.89,1.93-5.26C953.17,640.53,956,637.29,958,635.84Z" transform="translate(-879.63 -418.19)"/><line class="cls-3" x1="78.37" y1="210.81" x2="78.37" y2="240.44"/><path class="cls-4" d="M1000.29,440.84c-.26-.22-1.83.64-2.67,1.49-.61.62-1.8.56-2.62,1.22s-1.62,2.12-2.58,2.83c-1.2.88-1.42.42-2.57.95-2,.91-2.47,1-2.72,1.76.09.57,1.27.41,2.52.26a11,11,0,0,0,3.26-.65c1.12-.45,1.79-1.41,2.73-2.1s2-.85,2.58-1.5a10.24,10.24,0,0,0,1.52-2.22C1000.37,441.83,1000.72,441.06,1000.29,440.84Z" transform="translate(-879.63 -418.19)"/><path class="cls-3" d="M1000.28,441a23.36,23.36,0,0,1-5.1,5c-2.56,1.95-8,3.34-8,3.34l-9.48,2.22a6.42,6.42,0,0,1,3.65-5.56" transform="translate(-879.63 -418.19)"/><path class="cls-4" d="M990,439.06c-.27-.12-1.33.65-1.81,1.32-.35.49-1.32.59-1.83,1.13s-.82,1.61-1.43,2.2c-.77.73-1,.45-1.85.94-1.39.84-1.77,1-1.79,1.5.21.38,1.12.13,2.09-.12a9.66,9.66,0,0,0,2.47-.82c.8-.44,1.12-1.17,1.72-1.74s1.39-.8,1.74-1.31a5.7,5.7,0,0,0,.71-1.66C990.26,439.72,990.37,439.16,990,439.06Z" transform="translate(-879.63 -418.19)"/><path class="cls-5" d="M981.26,446.15a24.15,24.15,0,0,0,4.78-2.28,11.09,11.09,0,0,0,3.93-4.81" transform="translate(-879.63 -418.19)"/><path class="cls-4" d="M982.05,451.61c-.12.22,1.17,1,2.09,1.29.67.22.9.94,1.66,1.28s2.18.45,3,.86c1,.51.69.75,1.41,1.31,1.24,1,1.42,1.25,2.14,1.21.46-.2,0-.86-.37-1.57a5.88,5.88,0,0,0-1.32-1.8,10.61,10.61,0,0,0-2.43-1.13c-.69-.34-1.19-1-1.88-1.19a12.29,12.29,0,0,0-2.25-.38C983.07,451.37,982.14,451.3,982.05,451.61Z" transform="translate(-879.63 -418.19)"/><path class="cls-5" d="M992.36,457.56a18.42,18.42,0,0,0-3.46-3.4,17.94,17.94,0,0,0-6.85-2.55" transform="translate(-879.63 -418.19)"/><path class="cls-3" d="M958,452.17v9.46s2.92-8.35,16-9.46l3.64-.56a10.09,10.09,0,0,1,4.37,0" transform="translate(-879.63 -418.19)"/><path class="cls-4" d="M915.19,440.84c.27-.22,1.86.64,2.71,1.49.62.62,1.81.56,2.65,1.22s1.64,2.12,2.61,2.83c1.22.88,1.44.42,2.6.95,2,.91,2.51,1,2.76,1.76-.1.57-1.29.41-2.55.26a11.16,11.16,0,0,1-3.3-.65c-1.14-.45-1.82-1.41-2.76-2.1s-2-.85-2.62-1.5a10.4,10.4,0,0,1-1.54-2.22C915.11,441.83,914.76,441.06,915.19,440.84Z" transform="translate(-879.63 -418.19)"/><path class="cls-3" d="M915.21,441a23.27,23.27,0,0,0,5.16,5c2.59,1.95,8.12,3.34,8.12,3.34l9.59,2.22a6.41,6.41,0,0,0-3.69-5.56" transform="translate(-879.63 -418.19)"/><path class="cls-4" d="M925.64,439.06c.27-.12,1.35.65,1.84,1.32.35.49,1.33.59,1.85,1.13s.82,1.61,1.44,2.2c.78.73,1.06.45,1.88.94,1.4.84,1.78,1,1.81,1.5-.21.38-1.14.13-2.12-.12a9.84,9.84,0,0,1-2.5-.82c-.81-.44-1.13-1.17-1.74-1.74s-1.4-.8-1.76-1.31a6,6,0,0,1-.72-1.66C925.35,439.72,925.24,439.16,925.64,439.06Z" transform="translate(-879.63 -418.19)"/><path class="cls-5" d="M934.46,446.15a24.7,24.7,0,0,1-4.84-2.28,11.16,11.16,0,0,1-4-4.81" transform="translate(-879.63 -418.19)"/><path class="cls-4" d="M933.65,451.61c.13.22-1.18,1-2.11,1.29-.68.22-.91.94-1.67,1.28s-2.21.45-3,.86c-1.05.51-.7.75-1.43,1.31-1.26,1-1.44,1.25-2.17,1.21-.47-.2-.05-.86.38-1.57a5.93,5.93,0,0,1,1.33-1.8,10.84,10.84,0,0,1,2.46-1.13c.7-.34,1.21-1,1.91-1.19a12.48,12.48,0,0,1,2.27-.38C932.63,451.37,933.56,451.3,933.65,451.61Z" transform="translate(-879.63 -418.19)"/><path class="cls-5" d="M923.22,457.56a18.5,18.5,0,0,1,3.51-3.4,18.21,18.21,0,0,1,6.92-2.55" transform="translate(-879.63 -418.19)"/><path class="cls-3" d="M958,452.17v9.46s-3-8.35-16.23-9.46l-3.69-.56a10.35,10.35,0,0,0-4.43,0" transform="translate(-879.63 -418.19)"/><path class="cls-4" d="M958.14,454.33l-.14-.1V431.65l.14-.11c1.29.94,4,4.1,1.79,5.79-1.64,1.26,2.21,3.28,2.21,5.61,0,.74-2.63,4.89-1.93,5.26C963,449.64,960.14,452.88,958.14,454.33Z" transform="translate(-879.63 -418.19)"/><path class="cls-4" d="M958,454.33l.14-.1V431.65l-.14-.11c-1.3.94-4,4.1-1.79,5.79,1.64,1.26-2.21,3.28-2.21,5.61,0,.74,2.63,4.89,1.93,5.26C953.17,449.64,956,452.88,958,454.33Z" transform="translate(-879.63 -418.19)"/><line class="cls-3" x1="78.37" y1="42.98" x2="78.37" y2="13.35"/><ellipse cx="78.37" cy="129.81" rx="8" ry="3"/><path class="cls-3" d="M957,547s-1,.37-1,1c-.15,3.64-.18,16-7,16" transform="translate(-879.63 -418.19)"/><path class="cls-3" d="M959,547s1,.37,1,1c.15,3.64.18,16,7,16" transform="translate(-879.63 -418.19)"/><ellipse class="cls-2" cx="78.37" cy="129.81" rx="6" ry="2"/><ellipse cx="78.37" cy="129.81" rx="3" ry="1"/><path class="cls-5" d="M1024.78,469.14" transform="translate(-879.63 -418.19)"/><path class="cls-5" d="M1029.48,473.51" transform="translate(-879.63 -418.19)"/><path class="cls-6" d="M1029,563.66H985.51V552.53h30.2s4.83.32,6,4.38a9.91,9.91,0,0,0,6.16,6.59l.35.08A3.28,3.28,0,0,0,1029,563.66Z" transform="translate(-879.63 -418.19)"/><path class="cls-6" d="M1029,563.5a3.28,3.28,0,0,0-.74.08,2.49,2.49,0,0,0-.35.08,9.84,9.84,0,0,0-6.21,6.49c-1.2,4-6,4.32-6,4.32H985.51v-11Z" transform="translate(-879.63 -418.19)"/><path class="cls-7" d="M986.18,563.5a30.47,30.47,0,0,0,2.47,12.29,14.5,14.5,0,1,1,0-24.58A30.47,30.47,0,0,0,986.18,563.5Z" transform="translate(-879.63 -418.19)"/><path class="cls-6" d="M887,563.66h43.49V552.53h-30.2s-4.83.32-6,4.38a9.91,9.91,0,0,1-6.16,6.59l-.35.08A3.28,3.28,0,0,1,887,563.66Z" transform="translate(-879.63 -418.19)"/><path class="cls-6" d="M887,563.5a3.28,3.28,0,0,1,.74.08,2.49,2.49,0,0,1,.35.08,9.84,9.84,0,0,1,6.21,6.49c1.2,4,6,4.32,6,4.32h30.15v-11Z" transform="translate(-879.63 -418.19)"/><path class="cls-7" d="M929.82,563.5a30.47,30.47,0,0,1-2.47,12.29,14.5,14.5,0,1,0,0-24.58A30.47,30.47,0,0,1,929.82,563.5Z" transform="translate(-879.63 -418.19)"/><path class="cls-6" d="M1029,605.66H985.51V594.53h30.2s4.83.32,6,4.38a9.91,9.91,0,0,0,6.16,6.59l.35.08A3.28,3.28,0,0,0,1029,605.66Z" transform="translate(-879.63 -418.19)"/><path class="cls-6" d="M1029,605.5a3.28,3.28,0,0,0-.74.08,2.49,2.49,0,0,0-.35.08,9.84,9.84,0,0,0-6.21,6.49c-1.2,4-6,4.32-6,4.32H985.51v-11Z" transform="translate(-879.63 -418.19)"/><path class="cls-7" d="M986.18,605.5a30.47,30.47,0,0,0,2.47,12.29,14.5,14.5,0,1,1,0-24.58A30.47,30.47,0,0,0,986.18,605.5Z" transform="translate(-879.63 -418.19)"/><path class="cls-6" d="M887,605.66h43.49V594.53h-30.2s-4.83.32-6,4.38a9.91,9.91,0,0,1-6.16,6.59l-.35.08A3.28,3.28,0,0,1,887,605.66Z" transform="translate(-879.63 -418.19)"/><path class="cls-6" d="M887,605.5a3.28,3.28,0,0,1,.74.08,2.49,2.49,0,0,1,.35.08,9.84,9.84,0,0,1,6.21,6.49c1.2,4,6,4.32,6,4.32h30.15v-11Z" transform="translate(-879.63 -418.19)"/><path class="cls-7" d="M929.82,605.5a30.47,30.47,0,0,1-2.47,12.29,14.5,14.5,0,1,0,0-24.58A30.47,30.47,0,0,1,929.82,605.5Z" transform="translate(-879.63 -418.19)"/><path class="cls-6" d="M1029,478.66H985.51V467.53h30.2s4.83.32,6,4.38a9.91,9.91,0,0,0,6.16,6.59l.35.08A3.28,3.28,0,0,0,1029,478.66Z" transform="translate(-879.63 -418.19)"/><path class="cls-6" d="M1029,478.5a3.28,3.28,0,0,0-.74.08,2.49,2.49,0,0,0-.35.08,9.84,9.84,0,0,0-6.21,6.49c-1.2,4-6,4.32-6,4.32H985.51v-11Z" transform="translate(-879.63 -418.19)"/><path class="cls-7" d="M986.18,478.5a30.47,30.47,0,0,0,2.47,12.29,14.5,14.5,0,1,1,0-24.58A30.47,30.47,0,0,0,986.18,478.5Z" transform="translate(-879.63 -418.19)"/><path class="cls-6" d="M887,478.66h43.49V467.53h-30.2s-4.83.32-6,4.38a9.91,9.91,0,0,1-6.16,6.59l-.35.08A3.28,3.28,0,0,1,887,478.66Z" transform="translate(-879.63 -418.19)"/><path class="cls-6" d="M887,478.5a3.28,3.28,0,0,1,.74.08,2.49,2.49,0,0,1,.35.08,9.84,9.84,0,0,1,6.21,6.49c1.2,4,6,4.32,6,4.32h30.15v-11Z" transform="translate(-879.63 -418.19)"/><path class="cls-7" d="M929.82,478.5a30.47,30.47,0,0,1-2.47,12.29,14.5,14.5,0,1,0,0-24.58A30.47,30.47,0,0,1,929.82,478.5Z" transform="translate(-879.63 -418.19)"/><path class="cls-6" d="M1029,521.66H985.51V510.53h30.2s4.83.32,6,4.38a9.91,9.91,0,0,0,6.16,6.59l.35.08A3.28,3.28,0,0,0,1029,521.66Z" transform="translate(-879.63 -418.19)"/><path class="cls-6" d="M1029,521.5a3.28,3.28,0,0,0-.74.08,2.49,2.49,0,0,0-.35.08,9.84,9.84,0,0,0-6.21,6.49c-1.2,4-6,4.32-6,4.32H985.51v-11Z" transform="translate(-879.63 -418.19)"/><path class="cls-7" d="M986.18,521.5a30.47,30.47,0,0,0,2.47,12.29,14.5,14.5,0,1,1,0-24.58A30.47,30.47,0,0,0,986.18,521.5Z" transform="translate(-879.63 -418.19)"/><path class="cls-6" d="M887,521.66h43.49V510.53h-30.2s-4.83.32-6,4.38a9.91,9.91,0,0,1-6.16,6.59l-.35.08A3.28,3.28,0,0,1,887,521.66Z" transform="translate(-879.63 -418.19)"/><path class="cls-6" d="M887,521.5a3.28,3.28,0,0,1,.74.08,2.49,2.49,0,0,1,.35.08,9.84,9.84,0,0,1,6.21,6.49c1.2,4,6,4.32,6,4.32h30.15v-11Z" transform="translate(-879.63 -418.19)"/><path class="cls-7" d="M929.82,521.5a30.47,30.47,0,0,1-2.47,12.29,14.5,14.5,0,1,0,0-24.58A30.47,30.47,0,0,1,929.82,521.5Z" transform="translate(-879.63 -418.19)"/></svg>