<svg id="Ebene_1" data-name="Ebene 1" xmlns="http://www.w3.org/2000/svg" viewBox="0 0 158.74 246.62"><defs><style>.cls-1{fill:red;}.cls-2{fill:#ff0;}.cls-3,.cls-5{fill:none;stroke:#000;stroke-miterlimit:10;}.cls-3{stroke-width:0.3px;}.cls-4{fill:#009245;}.cls-5{stroke-width:0.2px;}.cls-6{fill:#ddd82c;}.cls-7{fill:#006837;}</style></defs><title>9</title><path d="M1024,419.19a13.35,13.35,0,0,1,13.34,13.34V650.47A13.35,13.35,0,0,1,1024,663.81H894a13.35,13.35,0,0,1-13.34-13.34V432.53A13.35,13.35,0,0,1,894,419.19H1024m0-1H894a14.34,14.34,0,0,0-14.34,14.34V650.47A14.34,14.34,0,0,0,894,664.81H1024a14.34,14.34,0,0,0,14.34-14.34V432.53A14.34,14.34,0,0,0,1024,418.19Z" transform="translate(-879.63 -418.19)"/><path d="M892.8,435l-1.6.82a3.18,3.18,0,0,1-1.44.36,4.27,4.27,0,0,1-4.32-4.49,4.94,4.94,0,0,1,4.92-5c3.09,0,4.82,2.74,4.82,6a9.54,9.54,0,0,1-6.07,9,10.13,10.13,0,0,1-2.86.62l-.12-.74A8,8,0,0,0,892.8,435Zm-2.73-7.44c-1.87,0-2.52,1.78-2.52,3.46,0,2.11,1.17,3.86,3.19,3.86a3.7,3.7,0,0,0,2.16-.69,12.57,12.57,0,0,0,.1-1.56C893,430.47,892.4,427.54,890.07,427.54Z" transform="translate(-879.63 -418.19)"/><path d="M1029.63,435l-1.6.82a3.18,3.18,0,0,1-1.44.36,4.27,4.27,0,0,1-4.32-4.49,4.94,4.94,0,0,1,4.92-5c3.09,0,4.82,2.74,4.82,6a9.54,9.54,0,0,1-6.07,9,10.06,10.06,0,0,1-2.86.62l-.12-.74A8,8,0,0,0,1029.63,435Zm-2.73-7.44c-1.87,0-2.52,1.78-2.52,3.46,0,2.11,1.17,3.86,3.19,3.86a3.68,3.68,0,0,0,2.16-.69,12.57,12.57,0,0,0,.1-1.56C1029.83,430.47,1029.23,427.54,1026.9,427.54Z" transform="translate(-879.63 -418.19)"/><path d="M1025.7,645.71l1.6-.82a3.18,3.18,0,0,1,1.44-.36,4.27,4.27,0,0,1,4.32,4.49,4.94,4.94,0,0,1-4.92,5c-3.09,0-4.82-2.74-4.82-6a9.54,9.54,0,0,1,6.07-9,10.19,10.19,0,0,1,2.86-.63l.12.75A8,8,0,0,0,1025.7,645.71Zm2.73,7.44c1.87,0,2.52-1.78,2.52-3.46,0-2.11-1.17-3.87-3.19-3.87a3.71,3.71,0,0,0-2.16.7,12.57,12.57,0,0,0-.1,1.56C1025.5,650.22,1026.1,653.15,1028.43,653.15Z" transform="translate(-879.63 -418.19)"/><path d="M888.7,645.71l1.6-.82a3.18,3.18,0,0,1,1.44-.36,4.27,4.27,0,0,1,4.32,4.49,4.94,4.94,0,0,1-4.92,5c-3.09,0-4.82-2.74-4.82-6a9.54,9.54,0,0,1,6.07-9,10.19,10.19,0,0,1,2.86-.63l.12.75A8,8,0,0,0,888.7,645.71Zm2.73,7.44c1.87,0,2.52-1.78,2.52-3.46,0-2.11-1.17-3.87-3.19-3.87a3.71,3.71,0,0,0-2.16.7,12.57,12.57,0,0,0-.1,1.56C888.5,650.22,889.1,653.15,891.43,653.15Z" transform="translate(-879.63 -418.19)"/><path class="cls-1" d="M961,563.14" transform="translate(-879.63 -418.19)"/><ellipse class="cls-2" cx="78.37" cy="123.61" rx="2" ry="1.16"/><path class="cls-1" d="M957.5,566.18h1L961,633.5l-.78-.61a3.38,3.38,0,0,0-4.44,0l-.78.61Z" transform="translate(-879.63 -418.19)"/><polygon points="77.87 135.7 78.87 135.7 80.37 187.45 76.37 187.45 77.87 135.7"/><path d="M957.75,610.51l.25,2.09.25-2.09h0a12.91,12.91,0,0,1,.89-3.61,3.61,3.61,0,0,1,.86-1.26h-4a3.61,3.61,0,0,1,.86,1.26,12.91,12.91,0,0,1,.89,3.61Z" transform="translate(-879.63 -418.19)"/><ellipse class="cls-2" cx="78.37" cy="215.31" rx="3" ry="3.48"/><path class="cls-1" d="M957.5,541.8h1l2.5-67.32-.78.6a3.35,3.35,0,0,1-4.44,0l-.78-.6Z" transform="translate(-879.63 -418.19)"/><polygon points="77.87 136.26 78.87 136.26 80.37 84.15 76.37 84.15 77.87 136.26"/><path d="M957.75,498.28l.25-1.74.25,1.74h0a9.23,9.23,0,0,0,.89,3,3,3,0,0,0,.86,1.06h-4a3,3,0,0,0,.86-1.06,9.23,9.23,0,0,0,.89-3Z" transform="translate(-879.63 -418.19)"/><ellipse class="cls-2" cx="78.37" cy="56.29" rx="3" ry="3.48"/><path class="cls-3" d="M967,574.56" transform="translate(-879.63 -418.19)"/><path class="cls-3" d="M959,574.56" transform="translate(-879.63 -418.19)"/><path class="cls-3" d="M957,560.5" transform="translate(-879.63 -418.19)"/><path class="cls-3" d="M959,561.38,961,608s0,3.51,7,3.51" transform="translate(-879.63 -418.19)"/><path class="cls-3" d="M959,561.38l2-21.1s0-3.52,7-3.52" transform="translate(-879.63 -418.19)"/><path class="cls-3" d="M957,560.5,955,608s0,3.51-7,3.51" transform="translate(-879.63 -418.19)"/><path class="cls-3" d="M957,558.74l-2-47.47s0-11.43-7-11.43" transform="translate(-879.63 -418.19)"/><path class="cls-3" d="M959,560.5,961,513s0-13.19,9-13.19" transform="translate(-879.63 -418.19)"/><path class="cls-3" d="M957,561.38l-2-21.1s0-3.53-7-3.52" transform="translate(-879.63 -418.19)"/><path class="cls-3" d="M957.92,631.38" transform="translate(-879.63 -418.19)"/><path class="cls-3" d="M957.92,631.38" transform="translate(-879.63 -418.19)"/><path class="cls-4" d="M957.92,658l.2.07" transform="translate(-879.63 -418.19)"/><path class="cls-4" d="M957.92,658l-.2.07" transform="translate(-879.63 -418.19)"/><path class="cls-3" d="M958.42,631.38" transform="translate(-879.63 -418.19)"/><path class="cls-3" d="M958.42,631.38" transform="translate(-879.63 -418.19)"/><path class="cls-3" d="M958,632.58" transform="translate(-879.63 -418.19)"/><path class="cls-3" d="M958,658.08" transform="translate(-879.63 -418.19)"/><path class="cls-3" d="M958,515.66" transform="translate(-879.63 -418.19)"/><path class="cls-3" d="M990.87,648.17" transform="translate(-879.63 -418.19)"/><path class="cls-4" d="M1000.29,650.45c-.26.2-1.83-.56-2.67-1.31-.61-.54-1.8-.49-2.62-1.07s-1.62-1.86-2.58-2.48c-1.2-.78-1.42-.37-2.57-.84-2-.8-2.47-.86-2.72-1.55.09-.5,1.27-.36,2.52-.23a12.44,12.44,0,0,1,3.26.57,13.65,13.65,0,0,1,2.73,1.85,21.36,21.36,0,0,1,2.58,1.32,9.28,9.28,0,0,1,1.52,1.95C1000.37,649.58,1000.72,650.26,1000.29,650.45Z" transform="translate(-879.63 -418.19)"/><path class="cls-3" d="M1000.28,650.28a22.14,22.14,0,0,0-5.1-4.41c-2.56-1.71-8-2.93-8-2.93l-9.48-2a5.55,5.55,0,0,0,3.65,4.89" transform="translate(-879.63 -418.19)"/><path class="cls-4" d="M990,652c-.27.1-1.33-.57-1.81-1.16-.35-.43-1.32-.52-1.83-1s-.82-1.42-1.43-1.94c-.77-.64-1-.39-1.85-.82-1.39-.75-1.77-.84-1.79-1.33.21-.32,1.12-.11,2.09.11a10,10,0,0,1,2.47.73c.8.38,1.12,1,1.72,1.52s1.39.71,1.74,1.15a4.78,4.78,0,0,1,.71,1.47C990.26,651.44,990.37,651.93,990,652Z" transform="translate(-879.63 -418.19)"/><path class="cls-5" d="M981.26,645.78a26.41,26.41,0,0,1,4.78,2A10,10,0,0,1,990,652" transform="translate(-879.63 -418.19)"/><path class="cls-4" d="M982.05,641c-.12-.18,1.17-.86,2.09-1.13.67-.19.9-.82,1.66-1.12s2.18-.4,3-.76c1-.44.69-.66,1.41-1.15,1.24-.85,1.42-1.1,2.14-1.06.46.17,0,.76-.37,1.38a5.31,5.31,0,0,1-1.32,1.58,11.24,11.24,0,0,1-2.43,1,16.11,16.11,0,0,1-1.88,1,13.74,13.74,0,0,1-2.25.33C983.07,641.2,982.14,641.26,982.05,641Z" transform="translate(-879.63 -418.19)"/><path class="cls-5" d="M992.36,635.76a17.57,17.57,0,0,1-3.46,3,19.56,19.56,0,0,1-6.85,2.23" transform="translate(-879.63 -418.19)"/><path class="cls-3" d="M958,640.49v-8.31s2.92,7.34,16,8.31l3.64.49a11.29,11.29,0,0,0,4.37,0" transform="translate(-879.63 -418.19)"/><path class="cls-3" d="M924.62,648.17" transform="translate(-879.63 -418.19)"/><path class="cls-4" d="M915.19,650.45c.27.2,1.86-.56,2.71-1.31.62-.54,1.81-.49,2.65-1.07s1.64-1.86,2.61-2.48c1.22-.78,1.44-.37,2.6-.84,2-.8,2.51-.86,2.76-1.55-.1-.5-1.29-.36-2.55-.23a12.64,12.64,0,0,0-3.3.57,13.31,13.31,0,0,0-2.76,1.85,21.3,21.3,0,0,0-2.62,1.32,9.45,9.45,0,0,0-1.54,1.95C915.11,649.58,914.76,650.26,915.19,650.45Z" transform="translate(-879.63 -418.19)"/><path class="cls-3" d="M915.21,650.28a22.1,22.1,0,0,1,5.16-4.41c2.59-1.71,8.12-2.93,8.12-2.93l9.59-2a5.55,5.55,0,0,1-3.69,4.89" transform="translate(-879.63 -418.19)"/><path class="cls-4" d="M925.64,652c.27.1,1.35-.57,1.84-1.16.35-.43,1.33-.52,1.85-1s.82-1.42,1.44-1.94c.78-.64,1.06-.39,1.88-.82,1.4-.75,1.78-.84,1.81-1.33-.21-.32-1.14-.11-2.12.11a10.22,10.22,0,0,0-2.5.73c-.81.38-1.13,1-1.74,1.52s-1.4.71-1.76,1.15a5.07,5.07,0,0,0-.72,1.47C925.35,651.44,925.24,651.93,925.64,652Z" transform="translate(-879.63 -418.19)"/><path class="cls-5" d="M934.46,645.78a27.05,27.05,0,0,0-4.84,2,10,10,0,0,0-4,4.23" transform="translate(-879.63 -418.19)"/><path class="cls-4" d="M933.65,641c.13-.18-1.18-.86-2.11-1.13-.68-.19-.91-.82-1.67-1.12s-2.21-.4-3-.76c-1.05-.44-.7-.66-1.43-1.15-1.26-.85-1.44-1.1-2.17-1.06-.47.17-.05.76.38,1.38a5.36,5.36,0,0,0,1.33,1.58,11.5,11.5,0,0,0,2.46,1,16.44,16.44,0,0,0,1.91,1,14,14,0,0,0,2.27.33C932.63,641.2,933.56,641.26,933.65,641Z" transform="translate(-879.63 -418.19)"/><path class="cls-5" d="M923.22,635.76a17.69,17.69,0,0,0,3.51,3,19.86,19.86,0,0,0,6.92,2.23" transform="translate(-879.63 -418.19)"/><path class="cls-3" d="M958,640.49v-8.31s-3,7.34-16.23,8.31l-3.69.49a11.59,11.59,0,0,1-4.43,0" transform="translate(-879.63 -418.19)"/><path class="cls-3" d="M958,515.66" transform="translate(-879.63 -418.19)"/><line class="cls-3" x1="78.37" y1="235.49" x2="78.37" y2="197.69"/><path class="cls-4" d="M958.14,638.59l-.14.1v19.85l.14.09c1.29-.83,4-3.61,1.79-5.09-1.64-1.11,2.21-2.88,2.21-4.93,0-.65-2.63-4.3-1.93-4.62C963,642.71,960.14,639.87,958.14,638.59Z" transform="translate(-879.63 -418.19)"/><path class="cls-4" d="M958,638.59l.14.1v19.85l-.14.09c-1.3-.83-4-3.61-1.79-5.09,1.64-1.11-2.21-2.88-2.21-4.93,0-.65,2.63-4.3,1.93-4.62C953.17,642.71,956,639.87,958,638.59Z" transform="translate(-879.63 -418.19)"/><line class="cls-3" x1="78.37" y1="214.39" x2="78.37" y2="240.44"/><ellipse cx="78.37" cy="143.19" rx="8" ry="2.64"/><path class="cls-3" d="M957,560.5s-1,.32-1,.88c-.15,3.2-.18,14.06-7,14.06" transform="translate(-879.63 -418.19)"/><path class="cls-3" d="M959,560.5s1,.32,1,.88c.15,3.2.18,14.06,7,14.06" transform="translate(-879.63 -418.19)"/><ellipse class="cls-2" cx="78.37" cy="143.19" rx="6" ry="1.76"/><ellipse cx="78.37" cy="143.19" rx="3" ry="0.88"/><path class="cls-5" d="M1024.78,492.05" transform="translate(-879.63 -418.19)"/><path class="cls-5" d="M1029.48,495.9" transform="translate(-879.63 -418.19)"/><path class="cls-6" d="M1029,575.14H985.51v-9.78h30.2s4.83.28,6,3.85a9.31,9.31,0,0,0,6.16,5.79,2.41,2.41,0,0,0,.35.07A3.93,3.93,0,0,0,1029,575.14Z" transform="translate(-879.63 -418.19)"/><path class="cls-6" d="M1029,575a3.93,3.93,0,0,0-.74.07l-.35.07a9.31,9.31,0,0,0-6.21,5.71c-1.2,3.51-6,3.8-6,3.8H985.51V575Z" transform="translate(-879.63 -418.19)"/><path class="cls-7" d="M986.18,575a24,24,0,0,0,2.47,10.81,15.92,15.92,0,0,1-7.69,1.94c-8,0-14.49-5.71-14.49-12.75S973,562.26,981,562.26a15.92,15.92,0,0,1,7.69,1.94A24,24,0,0,0,986.18,575Z" transform="translate(-879.63 -418.19)"/><path class="cls-6" d="M887,575.14h43.49v-9.78h-30.2s-4.83.28-6,3.85a9.31,9.31,0,0,1-6.16,5.79,2.41,2.41,0,0,1-.35.07A3.93,3.93,0,0,1,887,575.14Z" transform="translate(-879.63 -418.19)"/><path class="cls-6" d="M887,575a3.93,3.93,0,0,1,.74.07l.35.07a9.31,9.31,0,0,1,6.21,5.71c1.2,3.51,6,3.8,6,3.8h30.15V575Z" transform="translate(-879.63 -418.19)"/><path class="cls-7" d="M929.82,575a24,24,0,0,1-2.47,10.81,15.92,15.92,0,0,0,7.69,1.94c8,0,14.49-5.71,14.49-12.75S943,562.26,935,562.26a15.92,15.92,0,0,0-7.69,1.94A24,24,0,0,1,929.82,575Z" transform="translate(-879.63 -418.19)"/><path class="cls-6" d="M1029,612.07H985.51v-9.79h30.2s4.83.28,6,3.85a9.31,9.31,0,0,0,6.16,5.79l.35.08A5,5,0,0,0,1029,612.07Z" transform="translate(-879.63 -418.19)"/><path class="cls-6" d="M1029,611.92a4,4,0,0,0-.74.08,1.55,1.55,0,0,0-.35.07,9.27,9.27,0,0,0-6.21,5.7c-1.2,3.51-6,3.8-6,3.8H985.51v-9.65Z" transform="translate(-879.63 -418.19)"/><path class="cls-7" d="M986.18,611.92a24,24,0,0,0,2.47,10.81,15.92,15.92,0,0,1-7.69,1.94c-8,0-14.49-5.71-14.49-12.75S973,599.18,981,599.18a15.92,15.92,0,0,1,7.69,1.94A24,24,0,0,0,986.18,611.92Z" transform="translate(-879.63 -418.19)"/><path class="cls-6" d="M887,612.07h43.49v-9.79h-30.2s-4.83.28-6,3.85a9.31,9.31,0,0,1-6.16,5.79l-.35.08A5,5,0,0,1,887,612.07Z" transform="translate(-879.63 -418.19)"/><path class="cls-6" d="M887,611.92a4,4,0,0,1,.74.08,1.55,1.55,0,0,1,.35.07,9.27,9.27,0,0,1,6.21,5.7c1.2,3.51,6,3.8,6,3.8h30.15v-9.65Z" transform="translate(-879.63 -418.19)"/><path class="cls-7" d="M929.82,611.92a24,24,0,0,1-2.47,10.81,15.92,15.92,0,0,0,7.69,1.94c8,0,14.49-5.71,14.49-12.75S943,599.18,935,599.18a15.92,15.92,0,0,0-7.69,1.94A24,24,0,0,1,929.82,611.92Z" transform="translate(-879.63 -418.19)"/><path class="cls-6" d="M1029,500.42H985.51v-9.78h30.2s4.83.28,6,3.85a9.31,9.31,0,0,0,6.16,5.79,2.41,2.41,0,0,0,.35.07A3.93,3.93,0,0,0,1029,500.42Z" transform="translate(-879.63 -418.19)"/><path class="cls-6" d="M1029,500.28a3.93,3.93,0,0,0-.74.07l-.35.07a9.31,9.31,0,0,0-6.21,5.71c-1.2,3.51-6,3.79-6,3.79H985.51v-9.64Z" transform="translate(-879.63 -418.19)"/><path class="cls-7" d="M986.18,500.28a24.07,24.07,0,0,0,2.47,10.81A15.92,15.92,0,0,1,981,513c-8,0-14.49-5.7-14.49-12.74S973,487.54,981,487.54a16,16,0,0,1,7.69,1.93A24.07,24.07,0,0,0,986.18,500.28Z" transform="translate(-879.63 -418.19)"/><path class="cls-6" d="M887,500.42h43.49v-9.78h-30.2s-4.83.28-6,3.85a9.31,9.31,0,0,1-6.16,5.79,2.41,2.41,0,0,1-.35.07A3.93,3.93,0,0,1,887,500.42Z" transform="translate(-879.63 -418.19)"/><path class="cls-6" d="M887,500.28a3.93,3.93,0,0,1,.74.07l.35.07a9.31,9.31,0,0,1,6.21,5.71c1.2,3.51,6,3.79,6,3.79h30.15v-9.64Z" transform="translate(-879.63 -418.19)"/><path class="cls-7" d="M929.82,500.28a24.07,24.07,0,0,1-2.47,10.81A15.92,15.92,0,0,0,935,513c8,0,14.49-5.7,14.49-12.74S943,487.54,935,487.54a16,16,0,0,0-7.69,1.93A24.07,24.07,0,0,1,929.82,500.28Z" transform="translate(-879.63 -418.19)"/><path class="cls-6" d="M1029,538.22H985.51v-9.78h30.2s4.83.28,6,3.85a9.31,9.31,0,0,0,6.16,5.79,2.41,2.41,0,0,0,.35.07A3.93,3.93,0,0,0,1029,538.22Z" transform="translate(-879.63 -418.19)"/><path class="cls-6" d="M1029,538.08a3.93,3.93,0,0,0-.74.07l-.35.07a9.31,9.31,0,0,0-6.21,5.71c-1.2,3.51-6,3.79-6,3.79H985.51v-9.64Z" transform="translate(-879.63 -418.19)"/><path class="cls-7" d="M986.18,538.08a24.07,24.07,0,0,0,2.47,10.81,15.92,15.92,0,0,1-7.69,1.93c-8,0-14.49-5.7-14.49-12.74S973,525.34,981,525.34a16,16,0,0,1,7.69,1.93A24.07,24.07,0,0,0,986.18,538.08Z" transform="translate(-879.63 -418.19)"/><path class="cls-6" d="M887,538.22h43.49v-9.78h-30.2s-4.83.28-6,3.85a9.31,9.31,0,0,1-6.16,5.79,2.41,2.41,0,0,1-.35.07A3.93,3.93,0,0,1,887,538.22Z" transform="translate(-879.63 -418.19)"/><path class="cls-6" d="M887,538.08a3.93,3.93,0,0,1,.74.07l.35.07a9.31,9.31,0,0,1,6.21,5.71c1.2,3.51,6,3.79,6,3.79h30.15v-9.64Z" transform="translate(-879.63 -418.19)"/><path class="cls-7" d="M929.82,538.08a24.07,24.07,0,0,1-2.47,10.81,15.92,15.92,0,0,0,7.69,1.93c8,0,14.49-5.7,14.49-12.74S943,525.34,935,525.34a16,16,0,0,0-7.69,1.93A24.07,24.07,0,0,1,929.82,538.08Z" transform="translate(-879.63 -418.19)"/><path class="cls-6" d="M958,423l-.1,27-9.4,0,.07-18.73a4.48,4.48,0,0,1,3.71-3.73c2.94-.63,5-2.37,5.58-3.8,0-.08,0-.15.07-.22A1.9,1.9,0,0,0,958,423Z" transform="translate(-879.63 -418.19)"/><path class="cls-6" d="M957.83,423a1.51,1.51,0,0,0,.07.46,1,1,0,0,0,.06.22c.52,1.44,2.58,3.22,5.47,3.87a4.47,4.47,0,0,1,3.63,3.76L967,450l-9.27,0Z" transform="translate(-879.63 -418.19)"/><path class="cls-7" d="M957.74,449.55a34.2,34.2,0,0,0,10.38-1.49,7.3,7.3,0,0,1,1.85,4.77c0,5-5.11,9.12-11.87,9.1s-12.63-4.22-12.62-9.19a7.36,7.36,0,0,1,1.88-4.76A33.75,33.75,0,0,0,957.74,449.55Z" transform="translate(-879.63 -418.19)"/><path class="cls-3" d="M1016,450.78" transform="translate(-879.63 -418.19)"/><path class="cls-3" d="M1003.09,447.31" transform="translate(-879.63 -418.19)"/><path class="cls-5" d="M1015.53,450.76" transform="translate(-879.63 -418.19)"/><path class="cls-4" d="M1011.76,443c-.34-.37-2.33,1.06-3.4,2.48-.78,1-2.28.93-3.33,2s-2,3.53-3.28,4.71c-1.52,1.47-1.8.7-3.27,1.58-2.51,1.51-3.14,1.64-3.45,2.93.12,1,1.62.69,3.2.44a11.21,11.21,0,0,0,4.14-1.08c1.43-.75,2.28-2.36,3.47-3.5,1-1,2.5-1.42,3.29-2.49a19.44,19.44,0,0,0,1.93-3.7C1011.86,444.61,1012.31,443.33,1011.76,443Z" transform="translate(-879.63 -418.19)"/><path class="cls-3" d="M1011.74,443.29a36,36,0,0,1-6.49,8.34c-3.24,3.25-10.19,5.56-10.19,5.56l-12,3.71s0-6.49,4.63-9.27" transform="translate(-879.63 -418.19)"/><path class="cls-4" d="M998.64,440c-.34-.2-1.69,1.08-2.3,2.19-.45.81-1.68,1-2.33,1.88s-1,2.69-1.81,3.66c-1,1.23-1.33.75-2.36,1.57-1.76,1.41-2.24,1.59-2.27,2.51.26.61,1.42.2,2.65-.21a10.29,10.29,0,0,0,3.15-1.37c1-.73,1.42-1.94,2.18-2.89s1.76-1.34,2.21-2.18a11.79,11.79,0,0,0,.91-2.78C999,441.09,999.14,440.16,998.64,440Z" transform="translate(-879.63 -418.19)"/><path class="cls-5" d="M987.57,451.81a28.56,28.56,0,0,0,6.08-3.81,18.86,18.86,0,0,0,5-8" transform="translate(-879.63 -418.19)"/><path class="cls-4" d="M988.58,460.9c-.16.35,1.48,1.63,2.65,2.13.85.37,1.14,1.57,2.11,2.13s2.77.76,3.82,1.44c1.31.84.88,1.25,1.8,2.19,1.57,1.6,1.8,2.07,2.71,2,.59-.33.07-1.44-.47-2.63a10.31,10.31,0,0,0-1.67-3c-.83-.94-2.07-1.22-3.09-1.88s-1.52-1.62-2.39-2a11.9,11.9,0,0,0-2.86-.63C989.87,460.48,988.69,460.37,988.58,460.9Z" transform="translate(-879.63 -418.19)"/><path class="cls-5" d="M1001.67,470.8a28.51,28.51,0,0,0-4.39-5.67c-3.43-3.25-8.7-4.23-8.7-4.23" transform="translate(-879.63 -418.19)"/><path class="cls-3" d="M975,463" transform="translate(-879.63 -418.19)"/><path class="cls-3" d="M958,477.57s3.71-13.9,20.38-15.75l4.63-.92a9.75,9.75,0,0,1,5.56,0" transform="translate(-879.63 -418.19)"/><path class="cls-3" d="M913.19,447.31" transform="translate(-879.63 -418.19)"/><path class="cls-4" d="M904.53,443c.33-.37,2.32,1.06,3.39,2.48.78,1,2.28.93,3.33,2,1.2,1.25,2,3.53,3.28,4.71,1.52,1.47,1.8.7,3.27,1.58,2.51,1.51,3.14,1.64,3.46,2.93-.13,1-1.62.69-3.21.44a11.21,11.21,0,0,1-4.14-1.08c-1.43-.75-2.28-2.36-3.47-3.5-1-1-2.5-1.42-3.28-2.49a19,19,0,0,1-1.94-3.7C904.42,444.61,904,443.33,904.53,443Z" transform="translate(-879.63 -418.19)"/><path class="cls-3" d="M904.54,443.29a36,36,0,0,0,6.49,8.34c3.24,3.25,10.19,5.56,10.19,5.56l12,3.71s0-6.49-4.63-9.27" transform="translate(-879.63 -418.19)"/><path class="cls-4" d="M917.65,440c.33-.2,1.68,1.08,2.3,2.19.44.81,1.67,1,2.32,1.88s1,2.69,1.82,3.66c1,1.23,1.33.75,2.35,1.57,1.76,1.41,2.24,1.59,2.27,2.51-.26.61-1.42.2-2.65-.21a10.4,10.4,0,0,1-3.15-1.37c-1-.73-1.42-1.94-2.18-2.89s-1.76-1.34-2.21-2.18a11.79,11.79,0,0,1-.91-2.78C917.27,441.09,917.14,440.16,917.65,440Z" transform="translate(-879.63 -418.19)"/><path class="cls-5" d="M928.71,451.81a28.35,28.35,0,0,1-6.07-3.81,18.75,18.75,0,0,1-5-8" transform="translate(-879.63 -418.19)"/><path class="cls-4" d="M927.7,460.9c.16.35-1.48,1.63-2.65,2.13-.85.37-1.14,1.57-2.1,2.13s-2.78.76-3.83,1.44c-1.31.84-.88,1.25-1.79,2.19-1.58,1.6-1.81,2.07-2.72,2-.59-.33-.07-1.44.47-2.63a10.31,10.31,0,0,1,1.67-3c.83-.94,2.07-1.22,3.09-1.88s1.52-1.62,2.39-2a12,12,0,0,1,2.86-.63C926.41,460.48,927.59,460.37,927.7,460.9Z" transform="translate(-879.63 -418.19)"/><path class="cls-5" d="M914.61,470.8a28.51,28.51,0,0,1,4.39-5.67c3.43-3.25,8.7-4.23,8.7-4.23" transform="translate(-879.63 -418.19)"/><path class="cls-3" d="M941.28,463" transform="translate(-879.63 -418.19)"/><path class="cls-3" d="M958,477.57s-3.44-13.9-20.12-15.75l-4.63-.92a9.75,9.75,0,0,0-5.56,0" transform="translate(-879.63 -418.19)"/><line class="cls-3" x1="78.65" y1="43.81" x2="78.37" y2="59.81"/></svg>