<svg id="Ebene_1" data-name="Ebene 1" xmlns="http://www.w3.org/2000/svg" viewBox="0 0 158.74 246.62"><defs><style>.cls-1{fill:#cc051d;}.cls-2{fill:#efe63c;}.cls-3{fill:#006837;}.cls-4{fill:#d9e021;}.cls-5{fill:#0071bc;}.cls-6{fill:none;stroke:#000;stroke-miterlimit:10;}.cls-7{fill:red;}.cls-8{fill:#39b54a;}</style></defs><title>ass</title><path d="M1178,293.19a13.35,13.35,0,0,1,13.34,13.34V524.47A13.35,13.35,0,0,1,1178,537.81H1048a13.35,13.35,0,0,1-13.34-13.34V306.53A13.35,13.35,0,0,1,1048,293.19H1178m0-1H1048a14.34,14.34,0,0,0-14.34,14.34V524.47A14.34,14.34,0,0,0,1048,538.81H1178a14.34,14.34,0,0,0,14.34-14.34V306.53A14.34,14.34,0,0,0,1178,292.19Z" transform="translate(-1033.63 -292.19)"/><ellipse class="cls-1" cx="78.37" cy="122.81" rx="14" ry="6"/><path class="cls-2" d="M1073.46,445.91l-.62-42.18,11.37-.17.43,29.3s-.26,4.69-4.39,5.92c-3.54,1.06-6,3.83-6.64,6.08a1.4,1.4,0,0,0-.08.34A2.52,2.52,0,0,0,1073.46,445.91Z" transform="translate(-1033.63 -292.19)"/><path class="cls-2" d="M1073.62,445.91a3,3,0,0,0-.09-.71,2.46,2.46,0,0,0-.09-.34,9.84,9.84,0,0,0-6.72-5.93c-4.1-1.11-4.49-5.79-4.49-5.79l-.43-29.25,11.21-.16Z" transform="translate(-1033.63 -292.19)"/><path class="cls-3" d="M1073,404.38a32.78,32.78,0,0,0-12.53,2.57,13.48,13.48,0,0,1-2.36-7.42,14.21,14.21,0,0,1,14.11-14.5c8.18-.12,15.4,6.3,15.51,14.07a13.43,13.43,0,0,1-2.14,7.49A32.51,32.51,0,0,0,1073,404.38Z" transform="translate(-1033.63 -292.19)"/><polygon class="cls-1" points="79.67 37.05 79.37 37.06 79.37 37.03 79.67 37.05"/><polygon class="cls-1" points="79.97 37.03 79.97 37.06 79.67 37.05 79.97 37.03"/><path class="cls-1" d="M1157,358c0,9-8,15-16,15a40.74,40.74,0,0,1-12.09-1.69c-.6-.19-.91-.31-.91-.31h-15V350.4a2,2,0,0,0,.19-.29l.09,0h0l.1,0a2.49,2.49,0,0,0,.18.27,2.54,2.54,0,0,0,2.19,1.05,3,3,0,0,0,.79-.15c1.08-.35,2.46-1.35,4.16-3.53.4-.51.82-1.1,1.26-1.75,5.89-8.83,2.14-22.49-8.4-23h-.6v-7h.6c9.68.31,16.4,8.21,16.4,19h12v7C1148,342,1157,349,1157,358Z" transform="translate(-1033.63 -292.19)"/><path d="M1138.38,347H1144s8,3,8,11-6,8-6,8l-6-3s-3-2-3-3a43.31,43.31,0,0,1,1-5Z" transform="translate(-1033.63 -292.19)"/><path class="cls-4" d="M1148,363a5.93,5.93,0,0,1-.69,2.78c-1.74,3.31-6.52,5.22-11.31,5.22a52,52,0,0,1-7.31-.51c-1.71-.25-2.69-.49-2.69-.49l-5-5-1.43-3.72-1.54-4h0l-2.23-5.83a3,3,0,0,0,.79-.15c1.08-.35,2.46-1.35,4.16-3.53L1126,347h12.38c1.45.09,6.62.69,6.62,5,0,5-4,5-4,5S1148,358,1148,363Z" transform="translate(-1033.63 -292.19)"/><path class="cls-1" d="M1128,379c-3,9-5.5,15-5.25,22,.11,3.18-1.89,3.47-4.11,2.84a20.73,20.73,0,0,1-5.06-2.46h0l-.27-.18-.3-.2V350.4a2,2,0,0,0,.19-.29l.09,0h0l.1,0a2.49,2.49,0,0,0,.18.27,2.54,2.54,0,0,0,2.19,1.05,3,3,0,0,0,.79-.15c2.51,1.19,5.42,3.31,5.42,6.72,0,6,3,8,4,9a7.67,7.67,0,0,1,2.69,3.49,6.11,6.11,0,0,1,.22.82C1129.28,373.05,1129.17,375.49,1128,379Z" transform="translate(-1033.63 -292.19)"/><path d="M1113,353.58c-.3.18-.65.4-1,.66V353S1112.4,353.21,1113,353.58Z" transform="translate(-1033.63 -292.19)"/><rect class="cls-4" x="79.37" y="69.81" width="3" height="5"/><rect class="cls-4" x="79.37" y="79.81" width="3" height="5"/><rect class="cls-4" x="79.37" y="74.81" width="6" height="5"/><rect class="cls-1" x="79.37" y="75.81" width="2" height="3"/><path d="M1113.6,323h-.6c-10.54.49-14.29,14.15-8.4,23,.44.65.86,1.24,1.26,1.75,1.7,2.18,3.08,3.18,4.16,3.53a3,3,0,0,0,.79.15,2.55,2.55,0,0,0,2.19-1,2,2,0,0,0,.19-.29l.09,0h0l.1,0a2.49,2.49,0,0,0,.18.27,2.54,2.54,0,0,0,2.19,1.05,3,3,0,0,0,.79-.15c1.08-.35,2.46-1.35,4.16-3.53.4-.51.82-1.1,1.26-1.75C1127.89,337.17,1124.14,323.51,1113.6,323Zm0,26.53-.3.35-.3-.35a79.69,79.69,0,0,1-4.92-6.55h10.44A79.69,79.69,0,0,1,1113.6,349.55Zm6.16-8.55h-12.92c-1.29-2.2-2.24-4.38-2.24-6,0-5,4-6,4-6l4.4.22.3,0,.3,0,4.4-.22s4,1,4,6C1122,336.62,1121.05,338.8,1119.76,341Z" transform="translate(-1033.63 -292.19)"/><polygon points="79.67 37.05 79.37 37.06 79.37 37.03 79.67 37.05"/><path d="M1113.3,323h-.3v0Z" transform="translate(-1033.63 -292.19)"/><polygon points="79.97 37.03 79.97 37.06 79.67 37.05 79.97 37.03"/><path d="M1113.32,350.08h0Z" transform="translate(-1033.63 -292.19)"/><polygon class="cls-5" points="79.97 37.03 79.97 37.06 79.67 37.05 79.97 37.03"/><polygon class="cls-1" points="79.67 37.05 79.37 37.06 79.37 37.03 79.67 37.05"/><path class="cls-1" d="M1113.6,316v7h-.6c-10.54.49-14.29,14.15-8.4,23,.44.65.86,1.24,1.26,1.75,1.7,2.18,3.08,3.18,4.16,3.53a3,3,0,0,0,.79.15,2.55,2.55,0,0,0,2.19-1,2,2,0,0,0,.19-.29l.09,0h0l.1,0a2.49,2.49,0,0,0,.18.27V371h-15s-.31.12-.91.31A40.74,40.74,0,0,1,1085.6,373c-8,0-16-6-16-15s9-16,15-16v-7h12c0-10.78,6.72-18.68,16.4-19h.6Z" transform="translate(-1033.63 -292.19)"/><polygon class="cls-1" points="79.97 37.03 79.97 37.06 79.67 37.05 79.97 37.03"/><path d="M1088.22,347h-5.62s-8,3-8,11,6,8,6,8l6-3s3-2,3-3a43.31,43.31,0,0,0-1-5Z" transform="translate(-1033.63 -292.19)"/><path class="cls-4" d="M1110.81,351.43l-2,5.31-2,5.27-1.15,3-5,5s-1,.24-2.69.49a52,52,0,0,1-7.31.51c-4.79,0-9.57-1.91-11.31-5.22a5.93,5.93,0,0,1-.69-2.78c0-5,7-6,7-6s-4,0-4-5c0-4.3,5.17-4.9,6.62-5h12.38l5.26.75c1.7,2.18,3.08,3.18,4.16,3.53A3,3,0,0,0,1110.81,351.43Z" transform="translate(-1033.63 -292.19)"/><path class="cls-1" d="M1113.6,350.38V401l-.3.2-.61.39a19.61,19.61,0,0,1-4.94,2.31c-2.14.55-4,.18-3.9-2.9.22-6.29-1.77-11.78-4.36-19.36h0c-.29-.85-.59-1.72-.89-2.63-1.17-3.51-1.28-5.95-.91-7.69a6.11,6.11,0,0,1,.22-.82,7.67,7.67,0,0,1,2.69-3.49c1-1,4-3,4-9,0-3.41,2.91-5.53,5.42-6.72a3,3,0,0,0,.79.15,2.55,2.55,0,0,0,2.19-1,2,2,0,0,0,.19-.29l.09,0h0l.1,0A2.49,2.49,0,0,0,1113.6,350.38Z" transform="translate(-1033.63 -292.19)"/><path d="M1123.89,378c-2.16,4-4.06,16-4.19,23-.11,5.39-4.62,2.48-6.68.86-2,1.62-6.27,4.53-6.37-.86-.13-7-1.94-19-4-23s-2.06-7,1-9,3.1-6,3.1-9c0-2,3.08-4.35,5.22-5.76.38-.26.73-.48,1-.66l1,.6c2.24,1.4,5.56,3.83,5.56,5.82,0,3,0,7,3.25,9S1126.05,374,1123.89,378Z" transform="translate(-1033.63 -292.19)"/><polygon class="cls-4" points="85.37 74.81 85.37 79.81 82.37 79.81 82.37 84.81 76.97 84.81 76.97 79.81 73.97 79.81 73.97 74.81 76.97 74.81 76.97 69.81 82.37 69.81 82.37 74.81 85.37 74.81"/><rect class="cls-1" x="1111.6" y="368" width="3.4" height="3" transform="translate(1192.97 446.81) rotate(-180)"/><path d="M1113.32,350.08h0Z" transform="translate(-1033.63 -292.19)"/><polygon points="79.67 37.05 79.37 37.06 79.37 37.03 79.67 37.05"/><path d="M1113.6,323v0h0Z" transform="translate(-1033.63 -292.19)"/><polygon points="79.97 37.03 79.97 37.06 79.67 37.05 79.97 37.03"/><path class="cls-5" d="M1118,329l-4.4.22v0h-.6v0l-4.4-.22s-4,1-4,6c0,1.62,1,3.8,2.24,6h12.92c1.29-2.2,2.24-4.38,2.24-6C1122,330,1118,329,1118,329Zm-2,9h-5.4c-5,0-1-6,0-6s2,3,2,3h1.4s1-3,2-3S1121,338,1116,338Z" transform="translate(-1033.63 -292.19)"/><path class="cls-5" d="M1118.52,343a79.69,79.69,0,0,1-4.92,6.55l-.3.35-.3-.35a79.69,79.69,0,0,1-4.92-6.55Z" transform="translate(-1033.63 -292.19)"/><polygon class="cls-5" points="79.67 37.05 79.37 37.06 79.37 37.03 79.67 37.05"/><path d="M1116,338h-5.4c-5,0-1-6,0-6s2,3,2,3h1.4s1-3,2-3S1121,338,1116,338Z" transform="translate(-1033.63 -292.19)"/><line class="cls-6" x1="108.37" y1="42.81" x2="138.37" y2="20.81"/><circle class="cls-7" cx="127.37" cy="17.81" r="3"/><circle class="cls-7" cx="138.37" cy="31.81" r="3"/><circle class="cls-5" cx="131.37" cy="36.81" r="3"/><circle class="cls-4" cx="120.37" cy="22.81" r="3"/><path class="cls-4" d="M1185.73,304.52c-.09.18-.21.4-.35.65L1172.29,313l-.29,0,13.17-8.47Z" transform="translate(-1033.63 -292.19)"/><path class="cls-4" d="M1172,313l.29,0h-.63q.06-.21.18-.51a26.31,26.31,0,0,1,2.66-5c1.55-2.32,7.89-2.85,10.67-3Z" transform="translate(-1033.63 -292.19)"/><path class="cls-4" d="M1185.73,304.52c-.09.18-.21.4-.35.65-1.27,2.29-4.27,7.16-7,7.53a29.87,29.87,0,0,1-6.09.32h-.63q.06-.21.18-.51l13.33-8Z" transform="translate(-1033.63 -292.19)"/><line class="cls-6" x1="136.54" y1="29.44" x2="129.13" y2="20.24"/><line class="cls-6" x1="129.54" y1="34.44" x2="122.13" y2="25.24"/><line class="cls-6" x1="51.37" y1="42.81" x2="21.37" y2="20.81"/><circle class="cls-7" cx="32.37" cy="17.81" r="3"/><circle class="cls-7" cx="21.37" cy="31.81" r="3"/><circle class="cls-5" cx="28.37" cy="36.81" r="3"/><circle class="cls-4" cx="39.37" cy="22.81" r="3"/><path class="cls-4" d="M1041.27,304.52c.09.18.21.4.35.65l13.09,7.85.29,0-13.17-8.47Z" transform="translate(-1033.63 -292.19)"/><path class="cls-4" d="M1055,313l-.29,0h.63q-.06-.21-.18-.51a26.31,26.31,0,0,0-2.66-5c-1.55-2.32-7.89-2.85-10.67-3Z" transform="translate(-1033.63 -292.19)"/><path class="cls-4" d="M1041.27,304.52c.09.18.21.4.35.65,1.27,2.29,4.27,7.16,7,7.53a29.87,29.87,0,0,0,6.09.32h.63q-.06-.21-.18-.51l-13.33-8Z" transform="translate(-1033.63 -292.19)"/><line class="cls-6" x1="23.2" y1="29.44" x2="30.61" y2="20.24"/><line class="cls-6" x1="30.2" y1="34.44" x2="37.61" y2="25.24"/><path class="cls-6" d="M1099.51,381.66c-7-9.16-25.77-7-25.89,3.41" transform="translate(-1033.63 -292.19)"/><path class="cls-8" d="M1068.18,374c3.58,2.31,6.27,5,7.37,7.25-2.47.12-6.35-1.24-10.23-3.75-3.58-2.31-6.27-5-7.37-7.25C1060.42,370.13,1064.3,371.49,1068.18,374Z" transform="translate(-1033.63 -292.19)"/><path class="cls-8" d="M1068.18,374c3.58,2.31,6.27,5,7.37,7.25-2.47.12-6.35-1.24-10.23-3.75-3.58-2.31-6.27-5-7.37-7.25C1060.42,370.13,1064.3,371.49,1068.18,374Z" transform="translate(-1033.63 -292.19)"/><path class="cls-2" d="M1153.54,379.52l.62,42.18-11.37.17-.43-29.3s.26-4.69,4.39-5.92c3.54-1.06,6-3.83,6.64-6.07a1.65,1.65,0,0,0,.08-.34A2.62,2.62,0,0,0,1153.54,379.52Z" transform="translate(-1033.63 -292.19)"/><path class="cls-2" d="M1153.38,379.52a3.15,3.15,0,0,0,.09.72,2.34,2.34,0,0,0,.09.33,9.8,9.8,0,0,0,6.72,5.93c4.1,1.11,4.49,5.8,4.49,5.8l.43,29.24-11.21.17Z" transform="translate(-1033.63 -292.19)"/><path class="cls-3" d="M1154,421.05a32.59,32.59,0,0,0,12.53-2.57,13.48,13.48,0,0,1,2.36,7.42,14.22,14.22,0,0,1-14.11,14.51c-8.18.12-15.4-6.31-15.51-14.08a13.42,13.42,0,0,1,2.14-7.48A32.7,32.7,0,0,0,1154,421.05Z" transform="translate(-1033.63 -292.19)"/><polygon class="cls-1" points="80.07 204 80.37 203.99 80.37 204.02 80.07 204"/><polygon class="cls-1" points="79.77 204.02 79.77 203.99 80.07 204 79.77 204.02"/><path class="cls-1" d="M1070,467.43c0-9,8-15,16-15a40.74,40.74,0,0,1,12.09,1.69c.6.19.91.31.91.31h15V475a2,2,0,0,0-.19.29l-.09,0h0l-.1,0a2.49,2.49,0,0,0-.18-.27,2.54,2.54,0,0,0-2.19-1.05,3,3,0,0,0-.79.15c-1.08.35-2.46,1.35-4.16,3.53-.4.51-.82,1.1-1.26,1.75-5.89,8.83-2.14,22.49,8.4,23h.6v7h-.6c-9.68-.31-16.4-8.21-16.4-19h-12v-7C1079,483.43,1070,476.43,1070,467.43Z" transform="translate(-1033.63 -292.19)"/><path d="M1088.62,478.42H1083s-8-3-8-11,6-8,6-8l6,3s3,2,3,3a43.31,43.31,0,0,1-1,5Z" transform="translate(-1033.63 -292.19)"/><path class="cls-4" d="M1079,462.43a5.93,5.93,0,0,1,.69-2.78c1.74-3.31,6.52-5.22,11.31-5.22a52,52,0,0,1,7.31.51c1.71.25,2.69.49,2.69.49l5,5,1.43,3.72,1.54,4h0l2.23,5.83a3,3,0,0,0-.79.15c-1.08.35-2.46,1.35-4.16,3.53l-5.26.75h-12.38c-1.45-.09-6.62-.69-6.62-5,0-5,4-5,4-5S1079,467.43,1079,462.43Z" transform="translate(-1033.63 -292.19)"/><path class="cls-1" d="M1099,446.43c3-9,5.5-15,5.25-22-.11-3.18,1.89-3.47,4.11-2.84a20.73,20.73,0,0,1,5.06,2.46h0l.27.18.3.2V475a2,2,0,0,0-.19.29l-.09,0h0l-.1,0a2.49,2.49,0,0,0-.18-.27,2.54,2.54,0,0,0-2.19-1.05,3,3,0,0,0-.79.15c-2.51-1.19-5.42-3.31-5.42-6.72,0-6-3-8-4-9a7.67,7.67,0,0,1-2.69-3.49,6.11,6.11,0,0,1-.22-.82C1097.72,452.38,1097.83,449.94,1099,446.43Z" transform="translate(-1033.63 -292.19)"/><path d="M1114,471.85c.3-.18.65-.4,1-.66v1.24S1114.6,472.22,1114,471.85Z" transform="translate(-1033.63 -292.19)"/><rect class="cls-4" x="1111" y="458.43" width="3" height="5" transform="translate(1191.37 629.68) rotate(-180)"/><rect class="cls-4" x="1111" y="448.43" width="3" height="5" transform="translate(1191.37 609.68) rotate(-180)"/><rect class="cls-4" x="1108" y="453.43" width="6" height="5" transform="translate(1188.37 619.68) rotate(-180)"/><rect class="cls-1" x="1112" y="454.43" width="2" height="3" transform="translate(1192.37 619.68) rotate(-180)"/><path d="M1113.4,502.41h.6c10.54-.49,14.29-14.15,8.4-23-.44-.65-.86-1.24-1.26-1.75-1.7-2.18-3.08-3.18-4.16-3.53a3,3,0,0,0-.79-.15,2.55,2.55,0,0,0-2.19,1,2,2,0,0,0-.19.29l-.09,0h0l-.1,0a2.49,2.49,0,0,0-.18-.27,2.54,2.54,0,0,0-2.19-1.05,3,3,0,0,0-.79.15c-1.08.35-2.46,1.35-4.16,3.53-.4.51-.82,1.1-1.26,1.75C1099.11,488.26,1102.86,501.92,1113.4,502.41Zm0-26.53.3-.35.3.35a79.69,79.69,0,0,1,4.92,6.55h-10.44A79.69,79.69,0,0,1,1113.4,475.88Zm-6.16,8.55h12.92c1.29,2.2,2.24,4.38,2.24,6,0,5-4,6-4,6l-4.4-.22-.3,0-.3,0-4.4.22s-4-1-4-6C1105,488.81,1106,486.63,1107.24,484.43Z" transform="translate(-1033.63 -292.19)"/><polygon points="80.07 204 80.37 203.99 80.37 204.02 80.07 204"/><path d="M1113.7,502.42h.3v0Z" transform="translate(-1033.63 -292.19)"/><polygon points="79.77 204.02 79.77 203.99 80.07 204 79.77 204.02"/><path d="M1113.68,475.35h0Z" transform="translate(-1033.63 -292.19)"/><polygon class="cls-5" points="79.77 204.02 79.77 203.99 80.07 204 79.77 204.02"/><polygon class="cls-1" points="80.07 204 80.37 203.99 80.37 204.02 80.07 204"/><path class="cls-1" d="M1113.4,509.43v-7h.6c10.54-.49,14.29-14.15,8.4-23-.44-.65-.86-1.24-1.26-1.75-1.7-2.18-3.08-3.18-4.16-3.53a3,3,0,0,0-.79-.15,2.55,2.55,0,0,0-2.19,1,2,2,0,0,0-.19.29l-.09,0h0l-.1,0a2.49,2.49,0,0,0-.18-.27V454.43h15s.31-.12.91-.31a40.74,40.74,0,0,1,12.09-1.69c8,0,16,6,16,15s-9,16-15,16v7h-12c0,10.78-6.72,18.68-16.4,19h-.6Z" transform="translate(-1033.63 -292.19)"/><polygon class="cls-1" points="79.77 204.02 79.77 203.99 80.07 204 79.77 204.02"/><path d="M1138.78,478.42h5.62s8-3,8-11-6-8-6-8l-6,3s-3,2-3,3a43.31,43.31,0,0,0,1,5Z" transform="translate(-1033.63 -292.19)"/><path class="cls-4" d="M1116.19,474l2-5.31,2-5.27,1.15-3,5-5s1-.24,2.69-.49a52,52,0,0,1,7.31-.51c4.79,0,9.57,1.91,11.31,5.22a5.93,5.93,0,0,1,.69,2.78c0,5-7,6-7,6s4,0,4,5c0,4.3-5.17,4.9-6.62,5H1126.4l-5.26-.75c-1.7-2.18-3.08-3.18-4.16-3.53A3,3,0,0,0,1116.19,474Z" transform="translate(-1033.63 -292.19)"/><path class="cls-1" d="M1113.4,475.05V424.43l.3-.2.61-.39a19.61,19.61,0,0,1,4.94-2.31c2.14-.55,4-.18,3.9,2.9-.22,6.29,1.77,11.78,4.36,19.36h0c.29.85.59,1.72.89,2.63,1.17,3.51,1.28,5.95.91,7.69a6.11,6.11,0,0,1-.22.82,7.67,7.67,0,0,1-2.69,3.49c-1,1-4,3-4,9,0,3.41-2.91,5.53-5.42,6.72a3,3,0,0,0-.79-.15,2.55,2.55,0,0,0-2.19,1,2,2,0,0,0-.19.29l-.09,0h0l-.1,0A2.49,2.49,0,0,0,1113.4,475.05Z" transform="translate(-1033.63 -292.19)"/><path d="M1103.11,447.43c2.16-4,4.06-16,4.19-23,.11-5.39,4.62-2.48,6.68-.86,2-1.62,6.27-4.53,6.37.86.13,7,1.94,19,4,23s2.06,7-1,9-3.1,6-3.1,9c0,2-3.08,4.35-5.22,5.76-.38.26-.73.48-1,.66l-1-.6c-2.24-1.4-5.56-3.83-5.56-5.82,0-3,0-7-3.25-9S1101,451.43,1103.11,447.43Z" transform="translate(-1033.63 -292.19)"/><polygon class="cls-4" points="85.77 161.24 85.77 166.24 82.77 166.24 82.77 171.24 77.37 171.24 77.37 166.24 74.37 166.24 74.37 161.24 77.37 161.24 77.37 156.24 82.77 156.24 82.77 161.24 85.77 161.24"/><rect class="cls-1" x="78.37" y="162.24" width="3.4" height="3"/><path d="M1113.68,475.35h0Z" transform="translate(-1033.63 -292.19)"/><polygon points="80.07 204 80.37 203.99 80.37 204.02 80.07 204"/><path d="M1113.4,502.43v0h0Z" transform="translate(-1033.63 -292.19)"/><polygon points="79.77 204.02 79.77 203.99 80.07 204 79.77 204.02"/><path class="cls-5" d="M1109,496.43l4.4-.22v0h.6v0l4.4.22s4-1,4-6c0-1.62-1-3.8-2.24-6h-12.92c-1.29,2.2-2.24,4.38-2.24,6C1105,495.43,1109,496.43,1109,496.43Zm2-9h5.4c5,0,1,6,0,6s-2-3-2-3H1113s-1,3-2,3S1106,487.43,1111,487.43Z" transform="translate(-1033.63 -292.19)"/><path class="cls-5" d="M1108.48,482.43a79.69,79.69,0,0,1,4.92-6.55l.3-.35.3.35a79.69,79.69,0,0,1,4.92,6.55Z" transform="translate(-1033.63 -292.19)"/><polygon class="cls-5" points="80.07 204 80.37 203.99 80.37 204.02 80.07 204"/><path d="M1111,487.43h5.4c5,0,1,6,0,6s-2-3-2-3H1113s-1,3-2,3S1106,487.43,1111,487.43Z" transform="translate(-1033.63 -292.19)"/><line class="cls-6" x1="51.37" y1="198.24" x2="21.37" y2="220.24"/><circle class="cls-7" cx="32.37" cy="223.24" r="3"/><circle class="cls-7" cx="21.37" cy="209.24" r="3"/><circle class="cls-5" cx="28.37" cy="204.24" r="3"/><circle class="cls-4" cx="39.37" cy="218.24" r="3"/><path class="cls-4" d="M1041.27,520.91c.09-.18.21-.4.35-.65l13.09-7.85.29,0-13.17,8.47Z" transform="translate(-1033.63 -292.19)"/><path class="cls-4" d="M1055,512.43l-.29,0h.63q-.06.21-.18.51a26.31,26.31,0,0,1-2.66,5c-1.55,2.32-7.89,2.85-10.67,3Z" transform="translate(-1033.63 -292.19)"/><path class="cls-4" d="M1041.27,520.91c.09-.18.21-.4.35-.65,1.27-2.29,4.27-7.16,7-7.53a29.87,29.87,0,0,1,6.09-.32h.63q-.06.21-.18.51l-13.33,8Z" transform="translate(-1033.63 -292.19)"/><line class="cls-6" x1="23.2" y1="211.61" x2="30.61" y2="220.81"/><line class="cls-6" x1="30.2" y1="206.61" x2="37.61" y2="215.81"/><line class="cls-6" x1="108.37" y1="198.24" x2="138.37" y2="220.24"/><circle class="cls-7" cx="127.37" cy="223.24" r="3"/><circle class="cls-7" cx="138.37" cy="209.24" r="3"/><circle class="cls-5" cx="131.37" cy="204.24" r="3"/><circle class="cls-4" cx="120.37" cy="218.24" r="3"/><path class="cls-4" d="M1185.73,520.91c-.09-.18-.21-.4-.35-.65l-13.09-7.85-.29,0,13.17,8.47Z" transform="translate(-1033.63 -292.19)"/><path class="cls-4" d="M1172,512.43l.29,0h-.63q.06.21.18.51a26.31,26.31,0,0,0,2.66,5c1.55,2.32,7.89,2.85,10.67,3Z" transform="translate(-1033.63 -292.19)"/><path class="cls-4" d="M1185.73,520.91c-.09-.18-.21-.4-.35-.65-1.27-2.29-4.27-7.16-7-7.53a29.87,29.87,0,0,0-6.09-.32h-.63q.06.21.18.51l13.33,8Z" transform="translate(-1033.63 -292.19)"/><line class="cls-6" x1="136.54" y1="211.61" x2="129.13" y2="220.81"/><line class="cls-6" x1="129.54" y1="206.61" x2="122.13" y2="215.81"/><path class="cls-6" d="M1127.49,443.77c7,9.16,25.77,7,25.89-3.41" transform="translate(-1033.63 -292.19)"/><path class="cls-8" d="M1158.82,451.44c-3.58-2.32-6.27-5.05-7.37-7.26,2.47-.12,6.35,1.24,10.23,3.75,3.58,2.31,6.27,5,7.37,7.26C1166.58,455.3,1162.7,454,1158.82,451.44Z" transform="translate(-1033.63 -292.19)"/><path class="cls-8" d="M1158.82,451.44c-3.58-2.32-6.27-5.05-7.37-7.26,2.47-.12,6.35,1.24,10.23,3.75,3.58,2.31,6.27,5,7.37,7.26C1166.58,455.3,1162.7,454,1158.82,451.44Z" transform="translate(-1033.63 -292.19)"/><path class="cls-1" d="M1100,401h26s-3,8-3,14,3,13,3,13h-27s5-7,5-13S1100,401,1100,401Z" transform="translate(-1033.63 -292.19)"/></svg>