<svg xmlns="http://www.w3.org/2000/svg" viewBox="0 0 159.02 246.62"><defs><style>.cls-1,.cls-12,.cls-15,.cls-16{fill:#fff;}.cls-1,.cls-15,.cls-16{stroke:#000;stroke-miterlimit:10;}.cls-1{stroke-linecap:round;}.cls-1,.cls-15{stroke-width:0.3px;}.cls-2{fill:#cc051d;}.cls-3{fill:#29abe2;}.cls-4{fill:#d9e021;}.cls-5{fill:#006837;}.cls-6{font-size:16px;font-family:MyriadPro-Regular, Myriad Pro;}.cls-7{letter-spacing:-0.02em;}.cls-8{fill:#0071bc;}.cls-9{fill:#efe63c;}.cls-10{fill:#333;}.cls-11{fill:#666;}.cls-13{fill:#d1d700;}.cls-14{fill:#e6e6e6;}</style></defs><title>könig</title><g id="Ebene_1" data-name="Ebene 1"><path d="M706.56,398.19a15.17,15.17,0,0,1,15.16,15.15V627.66a15.17,15.17,0,0,1-15.16,15.15H580.13A15.17,15.17,0,0,1,565,627.66V413.34a15.17,15.17,0,0,1,15.15-15.15H706.56m0-1H580.13A16.15,16.15,0,0,0,564,413.34V627.66a16.15,16.15,0,0,0,16.15,16.15H706.56a16.16,16.16,0,0,0,16.16-16.15V413.34a16.16,16.16,0,0,0-16.16-16.15Z" transform="translate(-563.98 -397.19)"/><path class="cls-1" d="M626.64,495.5l-1,2a22.69,22.69,0,0,1-4,1c-1,0-1-2-2-2s-4.78-5-5.08-5.37h0v0c-.12-.6-.24-1.22-.33-1.84a13.73,13.73,0,0,1,1.93-4.9l.07-.09a1.84,1.84,0,0,1,.23-.25l.17-.14a1.43,1.43,0,0,1,.3-.2l-.26.13-.15.08-.15.07-.09.05-2.4,1.2a12.94,12.94,0,0,0-1-2.53l.09-1.86v0l.22-4.46c.64.83,1.24,1.67,1.74,2.41-.32-.51-1.06-1.68-1.72-2.92-.87-1.61-1.59-3.33-1.1-3.82a1.11,1.11,0,0,1,1.29-.13,12.78,12.78,0,0,1,3.21,2.63c2.55,2.55,9.42,11.73,9.42,11.73L627,489l1,3Z" transform="translate(-563.98 -397.19)"/><path class="cls-1" d="M616.51,483.81l-.15.08-.15.07-.09.05-2.4,1.2a12.94,12.94,0,0,0-1-2.53l.09-1.86v0l.22-4.46a35.64,35.64,0,0,0-2.35-2.75c-1.21-1.26-2.27-2-2.73-1.58s.93,3.07,2.41,5.32c-1.77-2.36-3.85-4.88-4.41-4.32s2.27,4.35,4.27,6.79A21.3,21.3,0,0,1,612,482c-.12.12-.81-.82-1.74-2.08-1.89-2.55-4.75-6.43-5.76-5.42-.34.34,3.55,6.13,4.5,7.5-1-2-5.18-6.14-5.5-5.5-1,2,6,9,6,9l1,1.15h0l3.18,3.63.13.15.58.66c-.12-.6-.24-1.22-.33-1.84a13.73,13.73,0,0,1,1.93-4.9l.07-.09a1.84,1.84,0,0,1,.23-.25l.17-.14a1.43,1.43,0,0,1,.3-.2Zm-6.1-6.47h0a2.43,2.43,0,0,1,.14.2Z" transform="translate(-563.98 -397.19)"/><polygon class="cls-2" points="65.03 106.81 69.03 100.81 73.03 97.81 77.03 103.81 80.03 107.81 78.03 111.81 73.03 111.81 67.03 109.81 65.03 106.81"/><path class="cls-3" d="M623.5,497.5s4-7,2-13l11,8s0,6-2,8-3,4-5,5-6-8-6-8" transform="translate(-563.98 -397.19)"/><path class="cls-4" d="M637.33,454.42,613.2,467.79l-.13.07a1.36,1.36,0,0,0-.33.06l-.34.18.23-.15.31-.21,1.15-.8s7.54-12.52,8.22-7.57c.39,2.8,1.14-6.66,5.21-3.58,2.4,1.8,2.3-5.44,5,0C633.52,457.8,633.34,451.4,637.33,454.42Z" transform="translate(-563.98 -397.19)"/><path class="cls-5" d="M631,462.05c.41,5.09-8,.64-5.81,2.48,3.8,3.24-10.81,2.87-10.81,2.87l-1,.42-.08,0a.81.81,0,0,0-.22,0,1.36,1.36,0,0,0-.33.06l.3-.17,24.29-13.33c.39,5-4.86,1.49-3.7,3.41C636.78,463,630.72,459.07,631,462.05Z" transform="translate(-563.98 -397.19)"/><text class="cls-6" transform="translate(12.43 16.54)"><tspan class="cls-7">K</tspan><tspan x="8.4" y="0">ÖNIG</tspan></text><polygon class="cls-8" points="69.03 108.81 82.03 108.81 86.03 113.81 88.03 116.81 87.03 120.81 81.03 120.81 76.03 116.81 69.03 108.81"/><path class="cls-4" d="M614.72,467.93l-2.93-1.19s-10.06-10.61-9.67-5.62c.22,2.82-2.55-6.25-5.86-2.38-2,2.29-3.42-4.81-4.88,1.1-.54,2.17-1.74-4.12-5-.32Z" transform="translate(-563.98 -397.19)"/><path class="cls-5" d="M614.75,467.82l-3.11-.58s-14.19,3.51-11.17-.47c1.71-2.26-5.52,3.89-6.22-1.16-.41-3-5.47,2.21-3.52-3.56.72-2.11-3.65,2.42-4.34-2.53Z" transform="translate(-563.98 -397.19)"/><path class="cls-9" d="M612.72,418l-.13,28.14-10.88-.05.08-19.54s.33-3.13,4.3-3.89c3.41-.66,5.84-2.47,6.47-4,0-.08.06-.16.08-.23A1.65,1.65,0,0,0,612.72,418Z" transform="translate(-563.98 -397.19)"/><path class="cls-9" d="M612.56,418a1.37,1.37,0,0,0,.08.47.75.75,0,0,0,.07.23c.6,1.5,3,3.37,6.34,4,3.9.79,4.2,3.92,4.2,3.92l-.08,19.51-10.73,0Z" transform="translate(-563.98 -397.19)"/><path class="cls-5" d="M612.44,445.72a43.47,43.47,0,0,0,12-1.54,7.22,7.22,0,0,1,2.13,5c0,5.18-5.91,9.51-13.74,9.48s-14.64-4.42-14.62-9.6a7.22,7.22,0,0,1,2.18-5A43.55,43.55,0,0,0,612.44,445.72Z" transform="translate(-563.98 -397.19)"/><path d="M612.77,507.68l1-2.2A6.23,6.23,0,0,1,612.77,507.68Z" transform="translate(-563.98 -397.19)"/><path d="M613.75,505.47c1.13-4.75-1.29-12.71-3-17.79a7.55,7.55,0,0,1-.26-1h0a17,17,0,0,1-.22-1.83c0-.55-.06-1.14-.07-1.77a.48.48,0,0,1,0-.17c0-.55,0-1.13,0-1.73,0-.4,0-.81,0-1.23a.57.57,0,0,0,0-.13c0-.79.08-1.61.14-2.45h0c.09-1.22.2-2.48.32-3.74.22-2.17.48-4.33.74-6.3,0-.1,0-.2,0-.3s0-.07,0-.1,0-.24.05-.36c.61-4.48,1.19-7.84,1.19-7.84l1.16,0-.42,8.7v.1h0v.32l-.2,4.1A1.11,1.11,0,0,0,612,472c-.49.49.23,2.21,1.1,3.82l0,.51-.22,4.46v0l-.09,1.86a12.94,12.94,0,0,1,1,2.53,2.79,2.79,0,0,1,0,.47,22.86,22.86,0,0,0,.3,3.58c.09.62.21,1.24.33,1.84v0h0a43.93,43.93,0,0,0,2.35,7.55Z" transform="translate(-563.98 -397.19)"/><polygon points="43.99 83.49 44.1 83.52 46.79 84.07 46.79 88.49 43.99 83.49"/><path d="M616.77,483.68a1.43,1.43,0,0,0-.3.2l-.17.14a1.84,1.84,0,0,0-.23.25l-.07.09a13.73,13.73,0,0,0-1.93,4.9c-.13.52-.21.94-.25,1.18a1.82,1.82,0,0,0-.05.24l-.08-.39-.92-4.61,1-.47,2.4-1.2.09-.05.15-.07.15-.08Z" transform="translate(-563.98 -397.19)"/><rect class="cls-10" x="89.02" y="106.81" width="55" height="23"/><path class="cls-5" d="M695,462l2,6-5,5-9,6-5,1-2-7s-1-4,0-5,9-5,9-5Z" transform="translate(-563.98 -397.19)"/><path class="cls-4" d="M655,500s11-13,17-17,16-12,16-12l3,7,4,29-2,11-12,2-10-1-12-7-2-6,1-3Z" transform="translate(-563.98 -397.19)"/><polygon class="cls-8" points="121.05 152.8 136.03 135.81 150.03 123.81 158.03 119.81 159.03 185.81 153.01 179.67 121.03 152.81 121.05 152.8"/><polygon class="cls-11" points="99.03 134.81 109.03 133.81 130.03 135.81 136.03 136.81 119.03 155.81 99.03 134.81 99.03 134.81"/><path class="cls-4" d="M664.43,532.67s17.07,2.83,30.07,2.83,24-12,24-21S713,497,706,498v5s2,3,2,10-2,14-14,14-38-3-38-3h-5Z" transform="translate(-563.98 -397.19)"/><path class="cls-12" d="M672,539s-.52-2.5,2.48-3.5,6,2,6,2,2-3,5-1,3,4,1,7l-6,4L672,539Z" transform="translate(-563.98 -397.19)"/><circle class="cls-3" cx="120.02" cy="142.81" r="2"/><circle class="cls-3" cx="112.02" cy="141.81" r="2"/><circle class="cls-3" cx="116.02" cy="146.81" r="2"/><polygon class="cls-2" points="123.03 153.81 138.03 135.81 142.03 135.81 142.03 172.81 138.03 171.81 139.03 139.81 124.03 158.81 123.03 153.81"/><polygon class="cls-12" points="125.03 156.81 138.86 140.02 138.06 170.08 125.03 156.81"/><path class="cls-2" d="M688,471l8-5a38.59,38.59,0,0,1,11,27v21c0,11-6.45,13-14.73,13S658,524.24,658,522c0-1,9-10,9-10s7,2,11,3,8-1,8-5a269.46,269.46,0,0,1,3-27C690,478,688,471,688,471Z" transform="translate(-563.98 -397.19)"/><path class="cls-2" d="M654,524s3-2-2-6-7.43-2-7.43-2l9.43,8Z" transform="translate(-563.98 -397.19)"/><polygon class="cls-2" points="109.03 95.81 106.03 95.81 106.03 91.81 109.03 91.81 109.03 88.81 113.03 88.81 113.03 91.81 116.03 91.81 116.03 95.81 113.03 95.81 113.03 98.81 109.03 98.81 109.03 95.81 109.03 95.81"/><path class="cls-13" d="M687,437l6,4,2,3,2,4-1,10s3,6-5,7-8.5,1.5-8.5,1.5-4,1-3,4a19.08,19.08,0,0,1,.62,5.53,6.29,6.29,0,0,1-2.2,4.76L673,485l-17,19-4.5-7.5-2-6s-1-7,1-10,5-11,5-11l5-11,3-8L667,447l8,1h4c1,0,2-3,2-3l6-8Z" transform="translate(-563.98 -397.19)"/><path class="cls-14" d="M665,449a81.66,81.66,0,0,1,4-11c3-7,5-7,10-4s7,4,7,4,2,4-1,9l-3,5s-1,7-6,1S665,449,665,449Z" transform="translate(-563.98 -397.19)"/><path class="cls-2" d="M673,432s7,2,11,5,11,9,11,9l7-7s-7-5-12-9-15-6-15-6l-2,8Z" transform="translate(-563.98 -397.19)"/><path class="cls-4" d="M675,424l-1-9s11,2,20,8,15,11,15,11l-7,5Z" transform="translate(-563.98 -397.19)"/><circle class="cls-2" cx="111.02" cy="14.81" r="3"/><circle class="cls-2" cx="119.02" cy="17.81" r="3"/><circle class="cls-2" cx="127.02" cy="20.81" r="3"/><circle class="cls-2" cx="134.02" cy="24.81" r="3"/><circle class="cls-2" cx="141.02" cy="29.81" r="3"/><circle class="cls-2" cx="147.02" cy="34.81" r="3"/><path class="cls-15" d="M648,511l-8-7s-7.24-12.53-5-17c1-2,4.66,11,4,9-1-3-4.58-10.42-3-12,1-1,5,11,5,11s-5-10-4-13,6,12,6,12-5-13-4-14,10,13,10,13l-6-9s3-1,6,5a78.6,78.6,0,0,1,4,9l3,6" transform="translate(-563.98 -397.19)"/><rect class="cls-3" x="648.75" y="504.6" width="16.5" height="15.27" rx="2.48" transform="translate(-729.21 249.11) rotate(-47.2)"/><path class="cls-1" d="M661.36,542.87l1-2a22.69,22.69,0,0,1,4-1c1,0,1,2,2,2s4.78,5,5.08,5.37h0v0c.12.6.24,1.22.33,1.84a13.73,13.73,0,0,1-1.93,4.9l-.07.09a1.84,1.84,0,0,1-.23.25l-.17.14a1.43,1.43,0,0,1-.3.2l.26-.13.15-.08.15-.07.09,0,2.4-1.2a12.94,12.94,0,0,0,1,2.53l-.09,1.86v0l-.22,4.46c-.64-.83-1.24-1.67-1.74-2.41.32.51,1.06,1.68,1.72,2.92.87,1.61,1.59,3.33,1.1,3.82a1.11,1.11,0,0,1-1.29.13,12.78,12.78,0,0,1-3.21-2.63c-2.55-2.55-9.42-11.73-9.42-11.73l-.94-2.77-1-3Z" transform="translate(-563.98 -397.19)"/><path class="cls-1" d="M671.12,554.56l.15-.08.15-.07.09,0,2.4-1.2a12.94,12.94,0,0,0,1,2.53l-.09,1.86v0l-.22,4.46a35.64,35.64,0,0,0,2.35,2.75c1.21,1.26,2.27,2,2.73,1.58s-.93-3.07-2.41-5.32c1.77,2.36,3.85,4.88,4.41,4.32s-2.27-4.35-4.27-6.79a21.3,21.3,0,0,1-1.73-2.21c.12-.12.81.82,1.74,2.08,1.89,2.55,4.75,6.43,5.76,5.42.34-.34-3.55-6.13-4.5-7.5,1,2,5.18,6.14,5.5,5.5,1-2-6-9-6-9l-1-1.15h0l-3.18-3.63-.13-.15-.58-.66c.12.6.24,1.22.33,1.84a13.73,13.73,0,0,1-1.93,4.9l-.07.09a1.84,1.84,0,0,1-.23.25l-.17.14a1.43,1.43,0,0,1-.3.2Zm6.1,6.47h0a2.43,2.43,0,0,1-.14-.2Z" transform="translate(-563.98 -397.19)"/><polygon class="cls-2" points="93.66 137.18 89.66 143.18 85.66 146.18 81.66 140.18 78.66 136.18 80.66 132.18 85.66 132.18 91.66 134.18 93.66 137.18"/><path class="cls-3" d="M663.13,540.87s-4,7-2,13l-11-8s0-6,2-8,3-4,5-5,6,8,6,8" transform="translate(-563.98 -397.19)"/><path class="cls-4" d="M650.3,584l24.13-13.38.13-.07a1.36,1.36,0,0,0,.33-.06l.34-.18-.23.15-.31.21-1.15.8S666,584,665.32,579c-.39-2.8-1.14,6.66-5.21,3.59-2.4-1.81-2.3,5.43-5,0C654.11,580.57,654.29,587,650.3,584Z" transform="translate(-563.98 -397.19)"/><path class="cls-5" d="M656.67,576.32c-.41-5.08,8-.64,5.81-2.48-3.8-3.23,10.81-2.87,10.81-2.87l1-.41.08,0a.81.81,0,0,0,.22,0,1.36,1.36,0,0,0,.33-.06l-.3.17L650.3,584c-.39-5,4.86-1.5,3.7-3.42C650.85,575.33,656.91,579.31,656.67,576.32Z" transform="translate(-563.98 -397.19)"/><text class="cls-6" transform="translate(147.25 227.45) rotate(180)"><tspan class="cls-7">K</tspan><tspan x="8.4" y="0">ÖNIG</tspan></text><polygon class="cls-8" points="90.66 135.18 77.66 135.18 73.66 130.18 71.66 127.18 72.66 123.18 78.66 123.18 83.66 127.18 90.66 135.18"/><path class="cls-4" d="M672.91,570.44l2.93,1.19s10.06,10.61,9.67,5.62c-.22-2.82,2.55,6.26,5.86,2.38,2-2.28,3.41,4.81,4.88-1.1.54-2.17,1.74,4.12,5,.32Z" transform="translate(-563.98 -397.19)"/><path class="cls-5" d="M672.88,570.55l3.11.58s14.19-3.51,11.17.48c-1.71,2.25,5.52-3.9,6.22,1.16.41,3,5.47-2.22,3.52,3.55-.72,2.12,3.65-2.42,4.34,2.53Z" transform="translate(-563.98 -397.19)"/><path class="cls-9" d="M674.91,620.36l.13-28.15,10.88,0-.08,19.54s-.33,3.13-4.3,3.89c-3.41.66-5.84,2.47-6.47,4,0,.08-.06.16-.08.23A1.66,1.66,0,0,0,674.91,620.36Z" transform="translate(-563.98 -397.19)"/><path class="cls-9" d="M675.07,620.36a1.38,1.38,0,0,0-.08-.48.75.75,0,0,0-.07-.23c-.6-1.5-3-3.36-6.34-4-3.9-.8-4.2-3.93-4.2-3.93l.08-19.51,10.73,0Z" transform="translate(-563.98 -397.19)"/><path class="cls-5" d="M675.19,592.65a43.47,43.47,0,0,0-12,1.54,7.22,7.22,0,0,1-2.13-5c0-5.18,5.91-9.51,13.74-9.48s14.64,4.42,14.62,9.6a7.26,7.26,0,0,1-2.18,5A43.53,43.53,0,0,0,675.19,592.65Z" transform="translate(-563.98 -397.19)"/><path d="M677.41,555.32a.48.48,0,0,1,0,.17c0,.55,0,1.13,0,1.73,0,.4,0,.81,0,1.23a.57.57,0,0,0,0,.13c0,.79-.08,1.61-.14,2.45h0c-.09,1.22-.2,2.48-.32,3.74-.22,2.17-.48,4.33-.74,6.3,0,.1,0,.2,0,.3s0,.07,0,.1,0,.24-.05.36c-.61,4.48-1.19,7.84-1.19,7.84l-1.16,0,.42-8.7v-.1h0v-.31h0l.2-4.1a1.11,1.11,0,0,0,1.29-.13c.49-.49-.23-2.21-1.1-3.82l0-.51.22-4.46v0l.09-1.86a12.94,12.94,0,0,1-1-2.53,2.79,2.79,0,0,1,0-.47,22.86,22.86,0,0,0-.3-3.58c0-.09,0-.18,0-.27-.08-.53-.19-1.06-.29-1.57v0h0a43.93,43.93,0,0,0-2.35-7.55l.3-.67,3.16,2.65a81.73,81.73,0,0,0,2.54,9,7.55,7.55,0,0,1,.26,1h0l0,.17c.08.49.15,1.05.19,1.66S677.4,554.69,677.41,555.32Z" transform="translate(-563.98 -397.19)"/><polygon points="115.69 160.5 115.58 160.47 112.89 159.92 112.89 155.5 115.69 160.5"/><path d="M670.86,554.69a1.43,1.43,0,0,0,.3-.2l.17-.14a1.84,1.84,0,0,0,.23-.25l.07-.09a13.73,13.73,0,0,0,1.93-4.9c.13-.52.21-.94.25-1.18a1.82,1.82,0,0,0,.05-.24l.08.39.92,4.61-1,.47-2.4,1.2-.09,0-.15.07-.15.08Z" transform="translate(-563.98 -397.19)"/><rect class="cls-10" x="579.63" y="511.37" width="55" height="23" transform="translate(650.28 648.55) rotate(-180)"/><path class="cls-5" d="M592.63,576.37l-2-6,5-5,9-6,5-1,2,7s1,4,0,5-9,5-9,5Z" transform="translate(-563.98 -397.19)"/><path class="cls-4" d="M632.63,538.37s-11,13-17,17-16,12-16,12l-3-7-4-29,2-11,12-2,10,1,12,7,2,6-1,3Z" transform="translate(-563.98 -397.19)"/><polygon class="cls-8" points="38.63 91.19 23.66 108.18 9.65 120.18 1.02 123.81 0.66 58.18 6.67 64.32 38.66 91.18 38.63 91.19"/><polygon class="cls-11" points="60.66 109.18 50.66 110.18 29.66 108.18 23.66 107.18 40.66 88.18 60.66 109.18 60.66 109.18"/><path class="cls-4" d="M623.2,505.7s-17.07-2.83-30.07-2.83-24,12-24,21,5.5,17.5,12.5,16.5v-5s-2-3-2-10,2-14,14-14,38,3,38,3h5Z" transform="translate(-563.98 -397.19)"/><path class="cls-12" d="M615.61,499.37s.52,2.5-2.48,3.5-6-2-6-2-2,3-5,1-3-4-1-7l6-4,8.48,8.5Z" transform="translate(-563.98 -397.19)"/><circle class="cls-3" cx="39.65" cy="101.18" r="2"/><circle class="cls-3" cx="47.65" cy="102.18" r="2"/><circle class="cls-3" cx="43.65" cy="97.18" r="2"/><polygon class="cls-2" points="36.66 90.18 21.66 108.18 17.66 108.18 17.66 71.18 21.66 72.18 20.66 104.18 35.66 85.18 36.66 90.18"/><polygon class="cls-12" points="34.66 87.18 20.82 103.97 21.62 73.92 34.66 87.18"/><path class="cls-2" d="M599.63,567.37l-8,5a38.59,38.59,0,0,1-11-27v-21c0-11,6.45-13,14.73-13s34.27,2.75,34.27,5c0,1-9,10-9,10s-7-2-11-3-8,1-8,5a269.46,269.46,0,0,1-3,27C597.63,560.37,599.63,567.37,599.63,567.37Z" transform="translate(-563.98 -397.19)"/><path class="cls-2" d="M633.63,514.37s-3,2,2,6,7.43,2,7.43,2l-9.43-8Z" transform="translate(-563.98 -397.19)"/><polygon class="cls-2" points="50.66 148.18 53.66 148.18 53.66 152.18 50.66 152.18 50.66 155.18 46.66 155.18 46.66 152.18 43.66 152.18 43.66 148.18 46.66 148.18 46.66 145.18 50.66 145.18 50.66 148.18 50.66 148.18"/><path class="cls-13" d="M600.63,601.37l-6-4-2-3-2-4,1-10s-3-6,5-7,8.5-1.5,8.5-1.5,4-1,3-4a13.28,13.28,0,0,1-.4-4.78,8,8,0,0,1,2.33-5.15l3.65-3.65.57-.6,17.35-19.32,4.5,7.5,2,6s1,7-1,10-5,11-5,11l-5,11-3,8-3.5,3.5-8-1h-4c-1,0-2,3-2,3l-6,8Z" transform="translate(-563.98 -397.19)"/><path class="cls-14" d="M622.63,589.37a81.66,81.66,0,0,1-4,11c-3,7-5,7-10,4s-7-4-7-4-2-4,1-9l3-5s1-7,6-1S622.63,589.37,622.63,589.37Z" transform="translate(-563.98 -397.19)"/><path class="cls-2" d="M614.63,606.37s-7-2-11-5-11-9-11-9l-7,7s7,5,12,9,15,6,15,6l2-8Z" transform="translate(-563.98 -397.19)"/><path class="cls-4" d="M612.63,614.37l1,9s-11-2-20-8-15-11-15-11l7-5Z" transform="translate(-563.98 -397.19)"/><circle class="cls-2" cx="48.65" cy="229.18" r="3"/><circle class="cls-2" cx="40.65" cy="226.18" r="3"/><circle class="cls-2" cx="32.65" cy="223.18" r="3"/><circle class="cls-2" cx="25.65" cy="219.18" r="3"/><circle class="cls-2" cx="18.65" cy="214.18" r="3"/><circle class="cls-2" cx="12.65" cy="209.18" r="3"/><path class="cls-15" d="M639.63,527.37l8,7s7.24,12.53,5,17c-1,2-4.66-11-4-9,1,3,4.58,10.42,3,12-1,1-5-11-5-11s5,10,4,13-6-12-6-12,5,13,4,14-10-13-10-13l6,9s-3,1-6-5a78.6,78.6,0,0,1-4-9l-3-6" transform="translate(-563.98 -397.19)"/><rect class="cls-3" x="622.38" y="518.49" width="16.5" height="15.27" rx="2.48" transform="translate(881.17 23.67) rotate(132.8)"/></g><g id="Ebene_2" data-name="Ebene 2"><polygon class="cls-16" points="9.51 59.03 153.4 180 149.54 184.59 5.66 63.62 9.51 59.03"/><polygon class="cls-16" points="153.03 180.37 149.16 184.96 113.17 154.7 110.23 152.23 109.64 151.72 109.55 151.65 89.95 135.18 78.44 125.51 75.67 123.18 70.66 118.96 69.16 117.7 68.55 117.18 64.97 114.18 59.2 109.33 57.99 108.31 51.65 102.97 49.2 100.92 49.2 100.91 48.65 100.46 45.53 97.84 42.69 95.44 41.73 94.63 38.2 91.68 37.81 91.35 36.56 90.29 33.91 88.07 33.59 87.8 21.52 77.65 21.48 77.62 17.66 74.4 5.29 64 5.79 63.41 9.14 59.4 107.19 141.83 110.34 144.48 153.03 180.37"/></g></svg>