<svg xmlns="http://www.w3.org/2000/svg" viewBox="0 0 158.74 246.62"><defs><style>.cls-1{font-size:16px;font-family:MyriadPro-Regular, Myriad Pro;}.cls-2{fill:#0071bc;}.cls-10,.cls-3{fill:#d9e021;}.cls-4{fill:#cc051d;}.cls-5{fill:#e6e6e6;}.cls-6{fill:#603813;}.cls-7{fill:#efe63c;}.cls-8{fill:#006837;}.cls-12,.cls-13,.cls-14,.cls-9{fill:#fff;}.cls-10,.cls-11,.cls-13,.cls-14,.cls-9{stroke:#000;stroke-miterlimit:10;}.cls-11,.cls-13,.cls-9{stroke-linecap:round;}.cls-11{fill:none;}.cls-13{stroke-width:0.8px;}</style></defs><title>ober</title><g id="Ebene_1" data-name="Ebene 1"><path d="M1042.56,354.19a15.17,15.17,0,0,1,15.16,15.15V583.66a15.17,15.17,0,0,1-15.16,15.15H916.13A15.17,15.17,0,0,1,901,583.66V369.34a15.17,15.17,0,0,1,15.15-15.15h126.43m0-1H916.13A16.15,16.15,0,0,0,900,369.34V583.66a16.15,16.15,0,0,0,16.15,16.15h126.43a16.16,16.16,0,0,0,16.16-16.15V369.34a16.16,16.16,0,0,0-16.16-16.15Z" transform="translate(-899.98 -353.19)"/></g><g id="Ebene_3" data-name="Ebene 3"><text class="cls-1" transform="translate(5.43 17.54)">OBER</text><path class="cls-2" d="M976.77,368.68a119.2,119.2,0,0,1-13,5s-10.18,4.63-14.52,13h-1.48s-5-17,8-20S976.77,368.68,976.77,368.68Z" transform="translate(-899.98 -353.19)"/><path class="cls-3" d="M956.77,390.68s-1-2-1-7,4-16,18-16,18,7,17,9S956.77,390.68,956.77,390.68Z" transform="translate(-899.98 -353.19)"/><path class="cls-4" d="M963.77,398.68a77.62,77.62,0,0,1-7-4c-3-2,1-7,4-10s8-10,22-10h6s5-1,5,3-1,4-1,4l-2,1Z" transform="translate(-899.98 -353.19)"/><path class="cls-5" d="M967.87,405.43l-.06-.27a10.62,10.62,0,0,1,1.5-8.3l9.46-14.18h13s1.09,4.06,0,15c-1,10-2.8,19.49-23.9,7.75" transform="translate(-899.98 -353.19)"/><path class="cls-3" d="M992.25,388.87s2.52.81,2.52-2.19-3-4-3-4v6Z" transform="translate(-899.98 -353.19)"/><path class="cls-3" d="M978.77,382.68s-5,3-7,4-6,7-8,9-4,4-2,6,4,3,7,0,7-13,7-13" transform="translate(-899.98 -353.19)"/><circle class="cls-6" cx="47.79" cy="38.49" r="5"/><path class="cls-7" d="M928.74,371.62l-.14,32.57-10.89,0,.1-22.62a5.36,5.36,0,0,1,4.31-4.51c3.4-.76,5.84-2.86,6.46-4.58a1.53,1.53,0,0,0,.08-.26A1.85,1.85,0,0,0,928.74,371.62Z" transform="translate(-899.98 -353.19)"/><path class="cls-7" d="M928.58,371.62a2.36,2.36,0,0,0,.08.56,1.53,1.53,0,0,0,.08.26c.6,1.74,3,3.89,6.33,4.68a5.34,5.34,0,0,1,4.2,4.54l-.1,22.58-10.73-.05Z" transform="translate(-899.98 -353.19)"/><path class="cls-8" d="M928.45,403.69a37.91,37.91,0,0,0,12-1.79,9,9,0,0,1,2.13,5.76c0,6-5.92,11-13.76,11s-14.63-5.1-14.6-11.1a9,9,0,0,1,2.18-5.75A37.93,37.93,0,0,0,928.45,403.69Z" transform="translate(-899.98 -353.19)"/><path d="M928.77,467.68l4-9s-3-6.91-3-13a10.07,10.07,0,0,0-1-3l1.16-24-1.16,0s-4,23-2,29S931.77,463.68,928.77,467.68Z" transform="translate(-899.98 -353.19)"/><path class="cls-3" d="M925.77,443.68l-1-3s1.53-14.53-2-11c-2,2,3.09-6-2-6-3,0,1.44-5.72-4-3-2,1,2-4-3-4" transform="translate(-899.98 -353.19)"/><path class="cls-8" d="M925.87,443.64l-1.58-2.74s-11.88-8.51-6.89-8.81c2.82-.16-6.54-1.67-3.16-5.48,2-2.24-5.23-2.72.42-5,2.07-.83-4.22-1.21-.89-4.95" transform="translate(-899.98 -353.19)"/><path class="cls-3" d="M943.56,418.68l-11.2,25.21-.06.13a1.84,1.84,0,0,0-.23.25l-.16.35.09-.26.12-.35.44-1.33s-1.53-14.54,2-11c2,2-3.1-6,2-6,3,0-1.44-5.72,4-3C942.56,423.68,938.56,418.68,943.56,418.68Z" transform="translate(-899.98 -353.19)"/><path class="cls-8" d="M943.08,428.61c3.39,3.81-6,5.31-3.15,5.48,5,.29-6.89,8.8-6.89,8.8l-.53.92,0,.07-.17.14a1.84,1.84,0,0,0-.23.25l.14-.31,11.35-25.28c3.32,3.74-3,4.12-.89,4.95C948.32,425.89,941.09,426.37,943.08,428.61Z" transform="translate(-899.98 -353.19)"/><polyline points="23.99 87.49 24.1 87.52 26.79 88.07 26.79 92.49"/><path d="M932.77,443.68a1.43,1.43,0,0,0-.3.2l-.17.14a1.84,1.84,0,0,0-.23.25l-.07.09c-1.49,1.87-2.23,6.32-2.23,6.32l-1-5,3.35-1.67.09-.05.15-.07.15-.08Z" transform="translate(-899.98 -353.19)"/><text class="cls-1" transform="translate(153.31 229.08) rotate(180)">OBER</text><path class="cls-2" d="M977.92,576.32a119.2,119.2,0,0,1,13-5s10.18-4.63,14.52-13h1.48s5,17-8,20S977.92,576.32,977.92,576.32Z" transform="translate(-899.98 -353.19)"/><path class="cls-3" d="M997.92,554.32s1,2,1,7-4,16-18,16-18-7-17-9S997.92,554.32,997.92,554.32Z" transform="translate(-899.98 -353.19)"/><path class="cls-4" d="M990.92,546.32a77.62,77.62,0,0,1,7,4c3,2-1,7-4,10s-8,10-22,10h-6s-5,1-5-3,1-4,1-4l2-1Z" transform="translate(-899.98 -353.19)"/><path class="cls-5" d="M986.82,539.57l.06.27a10.62,10.62,0,0,1-1.5,8.3l-9.46,14.18h-13s-1.09-4.06,0-15c1-10,2.8-19.49,23.9-7.75" transform="translate(-899.98 -353.19)"/><path class="cls-3" d="M962.44,556.13s-2.52-.81-2.52,2.19,3,4,3,4v-6Z" transform="translate(-899.98 -353.19)"/><path class="cls-3" d="M975.92,562.32s5-3,7-4,6-7,8-9,4-4,2-6-4-3-7,0-7,13-7,13" transform="translate(-899.98 -353.19)"/><circle class="cls-6" cx="106.95" cy="200.13" r="5"/><path class="cls-7" d="M1026,573.38l.14-32.57,10.89,0-.1,22.62a5.36,5.36,0,0,1-4.31,4.51c-3.4.76-5.84,2.86-6.46,4.58,0,.09-.06.18-.08.26A1.85,1.85,0,0,0,1026,573.38Z" transform="translate(-899.98 -353.19)"/><path class="cls-7" d="M1026.11,573.38a2.36,2.36,0,0,0-.08-.56,1.53,1.53,0,0,0-.08-.26c-.6-1.74-3-3.89-6.33-4.68a5.34,5.34,0,0,1-4.2-4.54l.1-22.58,10.73,0Z" transform="translate(-899.98 -353.19)"/><path class="cls-8" d="M1026.24,541.31a37.91,37.91,0,0,0-12,1.79,9,9,0,0,1-2.13-5.76c0-6,5.92-11,13.76-11s14.63,5.1,14.6,11.1a9,9,0,0,1-2.18,5.75A37.88,37.88,0,0,0,1026.24,541.31Z" transform="translate(-899.98 -353.19)"/><path d="M1025.92,477.32l-4,9s3,6.91,3,13a10.07,10.07,0,0,0,1,3l-1.16,24,1.16,0s4-23,2-29S1022.92,481.32,1025.92,477.32Z" transform="translate(-899.98 -353.19)"/><path class="cls-3" d="M1028.92,501.32l1,3s-1.53,14.53,2,11c2-2-3.09,6,2,6,3,0-1.44,5.72,4,3,2-1-2,4,3,4" transform="translate(-899.98 -353.19)"/><path class="cls-8" d="M1028.82,501.36l1.58,2.74s11.88,8.51,6.89,8.81c-2.82.16,6.54,1.67,3.16,5.48-2,2.24,5.23,2.72-.42,5-2.07.83,4.22,1.21.89,5" transform="translate(-899.98 -353.19)"/><path class="cls-3" d="M1011.13,526.32l11.2-25.21.06-.13a1.84,1.84,0,0,0,.23-.25l.16-.35-.09.26-.12.35-.44,1.33s1.53,14.54-2,11c-2-2,3.1,6-2,6-3,0,1.44,5.72-4,3C1012.13,521.32,1016.13,526.32,1011.13,526.32Z" transform="translate(-899.98 -353.19)"/><path class="cls-8" d="M1011.61,516.39c-3.39-3.81,6-5.31,3.15-5.48-5-.29,6.89-8.8,6.89-8.8l.53-.92,0-.07.17-.14a1.84,1.84,0,0,0,.23-.25l-.14.31-11.35,25.28c-3.32-3.74,3-4.12.89-5C1006.37,519.11,1013.6,518.63,1011.61,516.39Z" transform="translate(-899.98 -353.19)"/><polyline points="130.75 151.13 130.64 151.1 127.95 150.55 127.95 146.13"/><path d="M1021.92,501.32a1.43,1.43,0,0,0,.3-.2l.17-.14a1.84,1.84,0,0,0,.23-.25l.07-.09c1.49-1.87,2.23-6.32,2.23-6.32l1,5-3.35,1.67-.09.05-.15.07-.15.08Z" transform="translate(-899.98 -353.19)"/><path class="cls-4" d="M950.87,482.89a18.16,18.16,0,0,1,.4-10.71c2-6,2-13,1-23s-2-27,1-30l14-14,15,6,5,1v1s3-1,5,0a3.55,3.55,0,0,1,2,3h4s2-1,3,2a29.54,29.54,0,0,0,3,6l-9-2s10,16,11,22,2,13,2,13Z" transform="translate(-899.98 -353.19)"/><path class="cls-3" d="M970.77,442.68s0,4,20,4c16,0,15.81-.58,15.81-.58l1.12,7.26.26,1.75-8.19,4.57s-21,0-25-4S970.77,442.68,970.77,442.68Z" transform="translate(-899.98 -353.19)"/><path class="cls-2" d="M952.77,418.68c6.51-3.25,10,1,13,8a107.09,107.09,0,0,1,5,16s3,10,5,14a104,104,0,0,1,4.37,11.52l-15.12,8s-12.25-24.5-15.25-33.5S950.77,419.68,952.77,418.68Z" transform="translate(-899.98 -353.19)"/><path class="cls-3" d="M964.64,407.81s8.13,5.87,11.13,5.87,8,1,8-1c0,0,0-1-3-2a33.66,33.66,0,0,1-12-3,18.51,18.51,0,0,1-2.69-1.31Z" transform="translate(-899.98 -353.19)"/><path class="cls-4" d="M1003.82,462.11a18.16,18.16,0,0,1-.4,10.71c-2,6-2,13-1,23s2,27-1,30l-14,14-15-6-5-1v-1s-3,1-5,0a3.55,3.55,0,0,1-2-3h-4s-2,1-3-2a29.54,29.54,0,0,0-3-6l9,2s-10-16-11-22-2-13-2-13Z" transform="translate(-899.98 -353.19)"/><path class="cls-3" d="M983.92,502.32s0-4-20-4c-16,0-15.81.58-15.81.58L947,491.64l-.26-1.75,8.19-4.57s21,0,25,4S983.92,502.32,983.92,502.32Z" transform="translate(-899.98 -353.19)"/><path class="cls-2" d="M1001.92,526.32c-6.51,3.25-10-1-13-8a107.09,107.09,0,0,1-5-16s-3-10-5-14a104,104,0,0,1-4.37-11.52l15.12-8s12.25,24.5,15.25,33.5S1003.92,525.32,1001.92,526.32Z" transform="translate(-899.98 -353.19)"/><path class="cls-3" d="M990.05,537.19s-8.13-5.87-11.13-5.87-8-1-8,1c0,0,0,1,3,2a33.66,33.66,0,0,1,12,3,18.51,18.51,0,0,1,2.69,1.31Z" transform="translate(-899.98 -353.19)"/><path class="cls-9" d="M1016.24,416.27c-.07.2-.28.85-1,2.91-.13.39-.26.73-.39,1A29.83,29.83,0,0,1,1016.24,416.27Z" transform="translate(-899.98 -353.19)"/><path class="cls-9" d="M1019.27,418.18a5.69,5.69,0,0,1-.79,2.11C1018.85,419.16,1019.27,418.18,1019.27,418.18Z" transform="translate(-899.98 -353.19)"/><path class="cls-10" d="M1031.58,424.57l1.69-5.39s1-3,2-2,5,3,4,4-7,5-7,5-1,3,2,2h0S1029.9,431,1031.58,424.57Z" transform="translate(-899.98 -353.19)"/><line class="cls-11" x1="101.79" y1="53.49" x2="131.79" y2="71.49"/><path class="cls-12" d="M1023.77,415.68c-2.13-4.24-2-5-6.5-6.5-4.2-1.39-8,4-8,9s3.58,9,8,9S1024.77,417.68,1023.77,415.68Z" transform="translate(-899.98 -353.19)"/><path class="cls-13" d="M1013.7,409.29c.12,0,.16.08.1.23l-.32-.21A.6.6,0,0,1,1013.7,409.29Z" transform="translate(-899.98 -353.19)"/><path class="cls-13" d="M1024.27,416.18,1024,416a.21.21,0,0,1,.11,0C1024.22,416.1,1024.27,416.18,1024.27,416.18Z" transform="translate(-899.98 -353.19)"/><path class="cls-9" d="M1015.27,411.18c-2.54,1.69-3,8-4.19,7.67a1.37,1.37,0,0,1-.81-.67c-1.78-2.65,2.73-7.66,3.78-8.77l.22-.23-3,3v-2c0-4-3-2-3-2v2c0,2-1,2-1,9s1,9,3.15,10h7.9s5.95-5,5.95-10v-2c-4,0-3.45,8.55-6,6h0" transform="translate(-899.98 -353.19)"/><path class="cls-11" d="M1011.27,418.8s1.75,3.85,2.8,2.69a1.67,1.67,0,0,0,.2-.31c1-2,2-8,5-9" transform="translate(-899.98 -353.19)"/><path class="cls-9" d="M1022.27,414.18c-4,1-3.47,11.54-7,8h0" transform="translate(-899.98 -353.19)"/><path class="cls-11" d="M1024.27,416.18c-1-2-4-8-10-7" transform="translate(-899.98 -353.19)"/><path class="cls-2" d="M1006,454l.42-8.82v-.05l-.19-8.3h-1v-7.42a.73.73,0,0,1,.71-.74h15.57a.73.73,0,0,1,.72.74v1.3h1v5.63a1,1,0,0,1-1,1h0a1,1,0,0,0-1,1l.26,8.47a.75.75,0,0,1-.4.68l-5.64,2.87-8.44,4.29A.72.72,0,0,1,1006,454Z" transform="translate(-899.98 -353.19)"/><path class="cls-9" d="M938.45,528.73l1-2.91c.13-.39.26-.73.39-1A29.83,29.83,0,0,1,938.45,528.73Z" transform="translate(-899.98 -353.19)"/><path class="cls-9" d="M935.42,526.82a5.69,5.69,0,0,1,.79-2.11C935.84,525.84,935.42,526.82,935.42,526.82Z" transform="translate(-899.98 -353.19)"/><path class="cls-10" d="M923.11,520.43l-1.69,5.39s-1,3-2,2-5-3-4-4,7-5,7-5,1-3-2-2h0S924.79,514,923.11,520.43Z" transform="translate(-899.98 -353.19)"/><line class="cls-11" x1="52.95" y1="185.13" x2="22.95" y2="167.13"/><path class="cls-12" d="M930.92,529.32c2.13,4.24,2,5,6.5,6.5,4.2,1.39,8-4,8-9s-3.58-9-8-9S929.92,527.32,930.92,529.32Z" transform="translate(-899.98 -353.19)"/><path class="cls-13" d="M941,535.71c-.12,0-.16-.08-.1-.23l.32.21A.6.6,0,0,1,941,535.71Z" transform="translate(-899.98 -353.19)"/><path class="cls-13" d="M930.42,528.82l.26.16a.21.21,0,0,1-.11,0Z" transform="translate(-899.98 -353.19)"/><path class="cls-9" d="M939.42,533.82c2.54-1.69,3-8,4.19-7.67a1.37,1.37,0,0,1,.81.67c1.78,2.65-2.72,7.66-3.78,8.77l-.22.23,3-3v2c0,4,3,2,3,2v-2c0-2,1-2,1-9s-1-9-3.15-10h-7.9s-6,5-6,10v2c4,0,3.46-8.55,6-6h0" transform="translate(-899.98 -353.19)"/><path class="cls-11" d="M943.42,526.2s-1.75-3.85-2.8-2.69a1.67,1.67,0,0,0-.2.31c-1,2-2,8-5,9" transform="translate(-899.98 -353.19)"/><path class="cls-9" d="M932.42,530.82c4-1,3.47-11.54,7-8h0" transform="translate(-899.98 -353.19)"/><path class="cls-11" d="M930.42,528.82c1,2,4,8,10,7" transform="translate(-899.98 -353.19)"/><path class="cls-2" d="M948.65,491l-.42,8.82v.05l.19,8.3h1v7.42a.73.73,0,0,1-.71.74H933.14a.73.73,0,0,1-.72-.74v-1.3h-1v-5.63a1,1,0,0,1,1-1h0a1,1,0,0,0,1-1l-.26-8.47a.75.75,0,0,1,.4-.68l5.64-2.87,8.44-4.29A.72.72,0,0,1,948.65,491Z" transform="translate(-899.98 -353.19)"/><rect class="cls-14" x="924.17" y="469.99" width="105.99" height="5" rx="2.5" transform="translate(-1008.1 134.99) rotate(-26.63)"/><rect class="cls-14" x="924.53" y="470.01" width="105.99" height="5" rx="2.5" transform="translate(1163.16 103.49) rotate(153.37)"/></g></svg>