<svg xmlns="http://www.w3.org/2000/svg" viewBox="0 0 158.74 246.62"><defs><style>.cls-1{font-size:18px;font-family:MyriadPro-Regular, Myriad Pro;}.cls-2{fill:#0071bc;}.cls-3{fill:#cc051d;}.cls-4{fill:#d9e021;}.cls-5{fill:#1a1a1a;}.cls-6{fill:#bfbf0c;}.cls-7{fill:#333;}.cls-8{fill:#fcee21;}.cls-9{fill:#e6e6e6;}.cls-10{fill:#f2f2f2;}.cls-11,.cls-14{fill:#fff;stroke:#000;stroke-miterlimit:10;}.cls-11{stroke-width:0.3px;}.cls-12{fill:#006837;}.cls-13{fill:#efe63c;}</style></defs><title>under</title><g id="Ebene_3" data-name="Ebene 3"><path d="M1021.22,419.19a15.17,15.17,0,0,1,15.15,15.15V648.66a15.17,15.17,0,0,1-15.15,15.15H894.78a15.17,15.17,0,0,1-15.15-15.15V434.34a15.17,15.17,0,0,1,15.15-15.15h126.44m0-1H894.78a16.15,16.15,0,0,0-16.15,16.15V648.66a16.15,16.15,0,0,0,16.15,16.15h126.44a16.15,16.15,0,0,0,16.15-16.15V434.34a16.15,16.15,0,0,0-16.15-16.15Z" transform="translate(-878.63 -418.19)"/><text class="cls-1" transform="translate(4.96 19.28)">UNDER</text><text class="cls-1" transform="translate(154.28 225.03) rotate(180)">UNDER</text><path class="cls-2" d="M930.32,593.32c.93,6,7.61,8,10.57,8.54a1.8,1.8,0,0,0,2-1c2.88-6.19,5.9-16.36-1.58-24.79s-10.64,14.15-11,16.76A2,2,0,0,0,930.32,593.32Z" transform="translate(-878.63 -418.19)"/><path class="cls-2" d="M987,489.75c-.93-6-7.61-8-10.57-8.54a1.81,1.81,0,0,0-2,1c-2.87,6.19-5.9,16.36,1.59,24.78s10.64-14.15,11-16.76A2,2,0,0,0,987,489.75Z" transform="translate(-878.63 -418.19)"/><polygon class="cls-3" points="49.52 155.5 49.52 165.16 54.36 157.68 49.71 155.65 49.52 155.5"/><path class="cls-3" d="M942.14,533.1c-6.39,4.9-9.86,16.5-11.75,27.67-.11.65,1.59,2,1.49,2.65-1.94,12.56-3.73,23.33-3.73,23.33L948.67,555l.64-19.6-6.24-.93Z" transform="translate(-878.63 -418.19)"/><path class="cls-3" d="M956.13,459.86c10.27,0,13.07-.93,13.07-.93v-2.8a86.53,86.53,0,0,1-13.07.94H944v1.6a1.19,1.19,0,0,0,1.19,1.19Z" transform="translate(-878.63 -418.19)"/><path class="cls-4" d="M949.31,535.43a143.28,143.28,0,0,0-1.57,16.8c0,6.53,12.13-14.93,12.13-14.93l-.94-1.87Z" transform="translate(-878.63 -418.19)"/><path class="cls-2" d="M943.07,451.47s.94-5.6,13.06-5.6c8.09,0,12,2.49,13.76,4.15a2.92,2.92,0,0,1,.73,3,9.58,9.58,0,0,1-1.42,3.12c-.94.94-25.19.94-25.19.94Z" transform="translate(-878.63 -418.19)"/><path class="cls-5" d="M942.77,560.75s-5.3.81-9-1.06c-.85-.42-2.58-3.24-2.8-2.8-.93,1.87-.93,8.4-.93,8.4l9.33,2.8,3.43-7.34" transform="translate(-878.63 -418.19)"/><polygon class="cls-2" points="51.38 147.1 49.52 155.5 53.76 158.6 59.46 149.52 51.38 147.1"/><path class="cls-2" d="M945.87,488.79l-1.55-4.67s-6.85,1.87-15.24,13.06c-1.58,2.11-4.67,6.53-8.4,12.13s-7.46,22.39-7.46,22.39,3.53.94,12.13.94c.81,0,5.59-15.87,14-22.4" transform="translate(-878.63 -418.19)"/><path class="cls-6" d="M944,458.93s-3.74,3.73-2.8,6.53,4.66,2.8,4.66,2.8l1.87-2.8-.94-4.66v-.94l-.29-.93Z" transform="translate(-878.63 -418.19)"/><path class="cls-6" d="M958,458.93l.93,5.6.94,2.8,2.79.93.94,2.8,1.46.63,4.14-.63s4.66-3.73,3.73-7.46-2.8-5.6-7.47-4.67A22.15,22.15,0,0,1,958,458.93Z" transform="translate(-878.63 -418.19)"/><path class="cls-7" d="M968.29,482.08l-11.22-2.62,4.51-3a4.87,4.87,0,0,0,1.67-1.9l1.24-2.48a1.24,1.24,0,0,1,1.85.09l1.37,1.71c1,1.23,1.07,2,2.42,2.79" transform="translate(-878.63 -418.19)"/><path class="cls-3" d="M973.86,480.39c0,.06-.92.9-.93.93l-14.86,46.42a.32.32,0,0,1-.31.23H943.32a.33.33,0,0,1-.32-.22l-.86-2.57v0a34.63,34.63,0,0,1-2.79-13.61v-1.88c0-.86,0-1.72.13-2.58l.8-8,1.09-8.14a13.37,13.37,0,0,1,5.35-9l.27-.2,1.13-1,2.43-2.15c1-.71,7.13.1,8.39,0,3.61-.26,7.78.62,10.27-1.86,1.86-1.87,1.57,1.29,1.86,1.86C972,480.39,973.84,480.1,973.86,480.39Z" transform="translate(-878.63 -418.19)"/><path class="cls-8" d="M960,485l11-4.59a.34.34,0,0,1,.45.4l-12.81,45a.34.34,0,0,1-.66-.09c-.14-8.15-.47-36.26,1.86-40.6A.39.39,0,0,1,960,485Z" transform="translate(-878.63 -418.19)"/><path class="cls-2" d="M953.52,527.89,951,528s-7-31.68-4.78-46a1.71,1.71,0,0,1,.26-.21l1.11-1,.55-.3,1,3.72Z" transform="translate(-878.63 -418.19)"/><path class="cls-2" d="M967.84,530.58l-2.64,4.08a1.7,1.7,0,0,1-1.42.77H943.83a1.69,1.69,0,0,1-1.69-1.69v-4.08a1.69,1.69,0,0,1,1.69-1.69h22.59A1.69,1.69,0,0,1,967.84,530.58Z" transform="translate(-878.63 -418.19)"/><path class="cls-9" d="M953.34,478.52a2,2,0,0,1-1.56-.73c-1.63-2-5.91-7.26-5.91-9.53v-9.33h13.06s.94.93.94,3.73.93,2.8,1.86,3.74,2.8,0,2.8,1.86V472l-1.85,3.71a4.59,4.59,0,0,1-3,2.4l-1.53.39-.3,0Z" transform="translate(-878.63 -418.19)"/><path class="cls-2" d="M973.86,480.39l-.52-.26a1.69,1.69,0,0,0-2.19.61A70.12,70.12,0,0,0,962.66,500,228.64,228.64,0,0,0,958,527h0a1.69,1.69,0,0,0,1.86,1.68l1.91-.18a1.69,1.69,0,0,0,1.49-1.32l10.6-46.83" transform="translate(-878.63 -418.19)"/><path class="cls-10" d="M950.54,530v3.46a1.69,1.69,0,0,0,1.69,1.7h6.88a1.7,1.7,0,0,0,1.69-1.7V530a1.69,1.69,0,0,0-1.69-1.69h-6.88A1.69,1.69,0,0,0,950.54,530Zm6.7,3.91H954.1a1.7,1.7,0,0,1-1.7-1.7v-1a1.7,1.7,0,0,1,1.7-1.69h3.14a1.69,1.69,0,0,1,1.69,1.69v1A1.7,1.7,0,0,1,957.24,533.88Z" transform="translate(-878.63 -418.19)"/><path class="cls-3" d="M976.66,481.32l-2.8-.93s-6.53,13.06-8.4,22.39-4.66,20.53-2.8,25.19,14.93-22.39,14.93-22.39Z" transform="translate(-878.63 -418.19)"/><polygon class="cls-8" points="70.97 65.93 75.64 68.73 74.7 108.85 72.84 108.85 70.97 65.93"/><path class="cls-11" d="M917.88,547.56v5.6a.91.91,0,0,1-.93.93c-.93,0-.93-7.46-.93-7.46v5.6l-.94.93h-.93l-.93-.93v-1.87l-.93.93-.94-.93-.93-1.86v-5.6l2.8-6.53,9.33,2.8.93,9.33" transform="translate(-878.63 -418.19)"/><path class="cls-11" d="M923.48,548.5v.93a9.46,9.46,0,0,1-.93,2.8l-.46-.92-.48-.95-.22-.68-.71-2.12-.93.94v4.66s0,1.87-.93,1.87c-.26,0-.43-.47-.57-1.16a37.49,37.49,0,0,1-.37-5.37v-.94" transform="translate(-878.63 -418.19)"/><path d="M932,541.88a.67.67,0,0,1-.19.14l-1.65.82a.94.94,0,0,0-.19.14c-.37.36-2.14,1.21-2.72,1.78-.93.94-1.87,1.89-1.88,1.93l-1.85,1.81-.06.14-1.33,2.67-.43.87-.08.1-4.36,6.1a.75.75,0,0,0-.06.79l.48,1a.77.77,0,0,1-1.23.89l-.39-.4-3.53,7.94a.77.77,0,0,1-.7.46h-.31a.76.76,0,0,1-.72-1l2.46-7.39-1.87.94.8-1.59a.76.76,0,0,1,.43-.38l2.21-.73a.76.76,0,0,0,.43-.38l1.65-3.29a.75.75,0,0,1,.21-.26,9.39,9.39,0,0,0,1.17-1.06c.14.69.31,1.16.57,1.16.93,0,.93-1.87.93-1.87v-1a27,27,0,0,0,1.64-2.44c.38-.63.77-1.34,1.16-2.12.14-.28.28-.54.43-.79a12.47,12.47,0,0,1,7.9-5.73H931Z" transform="translate(-878.63 -418.19)"/><ellipse class="cls-12" cx="906.09" cy="562.35" rx="7.46" ry="3.8" transform="translate(-1020.63 -52.64) rotate(-21.19)"/><ellipse class="cls-12" cx="922.21" cy="565.77" rx="3.89" ry="7.46" transform="translate(-1008.58 399.62) rotate(-45)"/><path class="cls-13" d="M911.24,604.42l-.06-25.69,8.92,0,0,17.84a4.28,4.28,0,0,1-3.51,3.58c-2.78.62-4.77,2.29-5.27,3.65a1.66,1.66,0,0,0-.06.21A1.38,1.38,0,0,0,911.24,604.42Z" transform="translate(-878.63 -418.19)"/><path class="cls-13" d="M911.37,604.42a1.79,1.79,0,0,0-.13-.64c-.5-1.37-2.46-3-5.21-3.66a4.25,4.25,0,0,1-3.47-3.56l0-17.81,8.79,0Z" transform="translate(-878.63 -418.19)"/><path class="cls-12" d="M911.31,579.12a32.38,32.38,0,0,0-9.85,1.48,7,7,0,0,1-1.77-4.53c0-4.73,4.79-8.72,11.21-8.74s12,3.95,12,8.68a7,7,0,0,1-1.75,4.55A32.54,32.54,0,0,0,911.31,579.12Z" transform="translate(-878.63 -418.19)"/><path class="cls-11" d="M922.55,546.63" transform="translate(-878.63 -418.19)"/><rect class="cls-4" x="909.49" y="530.77" width="17.73" height="9.33" rx="1.52" transform="translate(-765.2 -577.13) rotate(10.54)"/><polygon class="cls-14" points="119.71 65.25 90.9 109.78 86.07 117.24 42.95 183.89 39.03 181.37 80.52 117.24 85.34 109.78 115.79 62.72 119.71 65.25"/><polygon class="cls-3" points="109.22 91.07 109.22 81.41 104.38 88.89 109.03 90.92 109.22 91.07"/><path class="cls-3" d="M973.86,549.85c6.39-4.9,9.86-16.5,11.75-27.67.11-.65-1.59-2-1.49-2.66,1.93-12.56,3.73-23.32,3.73-23.32l-20.52,31.72-.64,19.59,6.24.94Z" transform="translate(-878.63 -418.19)"/><path class="cls-3" d="M959.86,623.08c-10.26,0-13.06.94-13.06.94v2.79a87.37,87.37,0,0,1,13.06-.93H972v-1.6a1.19,1.19,0,0,0-1.19-1.2Z" transform="translate(-878.63 -418.19)"/><path class="cls-4" d="M966.69,547.51a143,143,0,0,0,1.57-16.79c0-6.53-12.13,14.93-12.13,14.93l.94,1.86Z" transform="translate(-878.63 -418.19)"/><path class="cls-2" d="M972.93,631.48s-.94,5.6-13.07,5.6c-8.08,0-12-2.49-13.75-4.15a2.93,2.93,0,0,1-.73-3,9.65,9.65,0,0,1,1.42-3.13c.94-.93,25.19-.93,25.19-.93Z" transform="translate(-878.63 -418.19)"/><path class="cls-5" d="M973.23,522.2s5.29-.81,9,1.06c.85.42,2.58,3.24,2.8,2.8.94-1.87.94-8.4.94-8.4l-9.33-2.8-3.43,7.34" transform="translate(-878.63 -418.19)"/><polygon class="cls-2" points="107.36 99.47 109.22 91.07 104.98 87.97 99.28 97.05 107.36 99.47"/><path class="cls-2" d="M970.13,594.16l1.55,4.67s6.84-1.87,15.24-13.07c1.58-2.11,4.66-6.53,8.4-12.12s7.46-22.39,7.46-22.39-3.53-.94-12.13-.94c-.81,0-5.6,15.86-14,22.39" transform="translate(-878.63 -418.19)"/><path class="cls-6" d="M972,624s3.73-3.74,2.8-6.54-4.66-2.79-4.66-2.79l-1.87,2.79.93,4.67v.93l.3.94Z" transform="translate(-878.63 -418.19)"/><path class="cls-6" d="M958,624l-.93-5.6-.94-2.8-2.8-.93-.93-2.8-1.46-.64-4.14.64s-4.66,3.73-3.73,7.46,2.8,5.6,7.46,4.67A21.92,21.92,0,0,1,958,624Z" transform="translate(-878.63 -418.19)"/><path class="cls-7" d="M947.7,600.87l11.23,2.62-4.51,3a4.91,4.91,0,0,0-1.67,1.89l-1.24,2.48a1.23,1.23,0,0,1-1.85-.08l-1.37-1.71c-1-1.23-1.07-2-2.42-2.79" transform="translate(-878.63 -418.19)"/><path class="cls-3" d="M942.14,602.56c0-.07.92-.9.93-.94l14.85-46.41a.34.34,0,0,1,.32-.23h14.44a.34.34,0,0,1,.32.22l.86,2.57v0a34.6,34.6,0,0,1,2.79,13.61v1.88c0,.86,0,1.72-.13,2.58l-.81,8L974.64,592a13.35,13.35,0,0,1-5.35,9l-.27.21-1.13,1-2.43,2.14c-1,.72-7.14-.09-8.39,0-3.62.26-7.79-.61-10.27,1.87-1.86,1.87-1.57-1.29-1.86-1.87C944,602.56,942.16,602.85,942.14,602.56Z" transform="translate(-878.63 -418.19)"/><path class="cls-8" d="M956,597.94l-11,4.58a.33.33,0,0,1-.45-.4l12.81-45a.33.33,0,0,1,.65.08c.15,8.16.48,36.27-1.85,40.6A.35.35,0,0,1,956,597.94Z" transform="translate(-878.63 -418.19)"/><path class="cls-2" d="M962.48,555.05l2.49,0s7,31.68,4.78,46a2.65,2.65,0,0,1-.26.21l-1.11,1-.56.29-1-3.71Z" transform="translate(-878.63 -418.19)"/><path class="cls-2" d="M948.16,552.36l2.64-4.07a1.68,1.68,0,0,1,1.42-.78h19.95a1.7,1.7,0,0,1,1.69,1.7v4.07a1.7,1.7,0,0,1-1.69,1.7H949.58A1.7,1.7,0,0,1,948.16,552.36Z" transform="translate(-878.63 -418.19)"/><path class="cls-9" d="M962.65,604.42a2.06,2.06,0,0,1,1.57.73c1.63,2,5.91,7.27,5.91,9.54V624H957.07s-.94-.94-.94-3.74-.93-2.8-1.86-3.73-2.8,0-2.8-1.86V611l1.85-3.7a4.63,4.63,0,0,1,3-2.41l1.53-.38a1.54,1.54,0,0,1,.3,0Z" transform="translate(-878.63 -418.19)"/><path class="cls-2" d="M942.14,602.56l.52.26a1.7,1.7,0,0,0,2.19-.61A70.17,70.17,0,0,0,953.33,583,227.65,227.65,0,0,0,958,555.91h0a1.7,1.7,0,0,0-1.86-1.69l-1.92.19a1.69,1.69,0,0,0-1.48,1.31l-10.6,46.84" transform="translate(-878.63 -418.19)"/><path class="cls-10" d="M965.46,553v-3.47a1.69,1.69,0,0,0-1.69-1.69h-6.88a1.69,1.69,0,0,0-1.69,1.69V553a1.69,1.69,0,0,0,1.69,1.69h6.88A1.69,1.69,0,0,0,965.46,553Zm-6.7-3.91h3.14a1.7,1.7,0,0,1,1.7,1.69v1a1.7,1.7,0,0,1-1.7,1.69h-3.14a1.69,1.69,0,0,1-1.69-1.69v-1A1.69,1.69,0,0,1,958.76,549.07Z" transform="translate(-878.63 -418.19)"/><path class="cls-3" d="M939.34,601.62l2.8.94s6.53-13.06,8.39-22.39,4.67-20.53,2.8-25.19-14.92,22.39-14.92,22.39Z" transform="translate(-878.63 -418.19)"/><polygon class="cls-8" points="87.77 180.64 83.1 177.84 84.03 137.72 85.9 137.72 87.77 180.64"/><path class="cls-11" d="M998.12,535.38v-5.59a.92.92,0,0,1,.93-.94c.93,0,.93,7.47.93,7.47v-5.6l.93-.93h.94l.93.93v1.87l.93-.94.94.94.93,1.86v5.6l-2.8,6.53-9.33-2.8-.93-9.33" transform="translate(-878.63 -418.19)"/><path class="cls-11" d="M992.52,534.45v-.93a9.46,9.46,0,0,1,.93-2.8l.46.91.47,1,.23.68.71,2.11.93-.93v-4.66s0-1.87.93-1.87c.25,0,.43.47.57,1.16a37.41,37.41,0,0,1,.37,5.37v.93" transform="translate(-878.63 -418.19)"/><path d="M984,541.07a.52.52,0,0,1,.19-.14l1.64-.82a1,1,0,0,0,.2-.14c.36-.36,2.14-1.21,2.72-1.79.93-.93,1.87-1.88,1.88-1.92l1.85-1.81.06-.14,1.33-2.68.43-.86.08-.11,4.36-6.1a.76.76,0,0,0,.06-.78l-.48-1a.78.78,0,0,1,.15-.89.75.75,0,0,1,.54-.22.76.76,0,0,1,.54.22l.39.39,3.53-7.94a.76.76,0,0,1,.7-.45h.31a.76.76,0,0,1,.72,1l-2.46,7.39,1.87-.93-.8,1.59a.83.83,0,0,1-.44.38l-2.2.73a.81.81,0,0,0-.44.38l-1.64,3.28a.61.61,0,0,1-.21.26,9.76,9.76,0,0,0-1.17,1.07c-.14-.69-.32-1.16-.57-1.16-.93,0-.93,1.87-.93,1.87v1a25.62,25.62,0,0,0-1.64,2.44c-.39.63-.77,1.34-1.16,2.11-.14.28-.28.55-.43.8a12.54,12.54,0,0,1-7.9,5.73H985Z" transform="translate(-878.63 -418.19)"/><ellipse class="cls-12" cx="1009.91" cy="520.6" rx="7.46" ry="3.8" transform="translate(-998.53 -17.94) rotate(-21.19)"/><ellipse class="cls-12" cx="993.79" cy="517.18" rx="3.89" ry="7.46" transform="translate(-953.26 436) rotate(-45)"/><path class="cls-13" d="M1004.75,478.52l.07,25.7-8.92,0,0-17.84a4.26,4.26,0,0,1,3.51-3.58c2.78-.62,4.77-2.29,5.27-3.65,0-.07,0-.15.06-.21A1.14,1.14,0,0,0,1004.75,478.52Z" transform="translate(-878.63 -418.19)"/><path class="cls-13" d="M1004.63,478.52a1.72,1.72,0,0,0,.06.44.74.74,0,0,0,.07.21c.5,1.37,2.46,3.05,5.21,3.65a4.26,4.26,0,0,1,3.47,3.56l0,17.82-8.79,0Z" transform="translate(-878.63 -418.19)"/><path class="cls-12" d="M1004.69,503.82a32.12,32.12,0,0,0,9.85-1.48,7,7,0,0,1,1.77,4.54c0,4.73-4.79,8.72-11.21,8.73s-12-3.94-12-8.68a7,7,0,0,1,1.76-4.54A32.2,32.2,0,0,0,1004.69,503.82Z" transform="translate(-878.63 -418.19)"/><path class="cls-13" d="M1021.79,424.51l0,15.57h-5.4l0-10.81a2.57,2.57,0,0,1,2.12-2.16,4.48,4.48,0,0,0,3.2-2.22.53.53,0,0,0,0-.12A.84.84,0,0,0,1021.79,424.51Z" transform="translate(-878.63 -418.19)"/><path class="cls-13" d="M1021.71,424.51a1.26,1.26,0,0,0,0,.27.56.56,0,0,0,0,.12,4.43,4.43,0,0,0,3.16,2.22,2.56,2.56,0,0,1,2.1,2.15l0,10.79-5.33,0Z" transform="translate(-878.63 -418.19)"/><path class="cls-12" d="M1021.75,439.83a19.42,19.42,0,0,0,6-.89,4.2,4.2,0,0,1,1.07,2.75c0,2.86-2.9,5.28-6.79,5.29s-7.27-2.4-7.28-5.26a4.26,4.26,0,0,1,1.06-2.75A19.45,19.45,0,0,0,1021.75,439.83Z" transform="translate(-878.63 -418.19)"/><path class="cls-13" d="M895.88,658l-.3-15.56,5.4-.11.21,10.81a2.57,2.57,0,0,1-2.08,2.2,4.43,4.43,0,0,0-3.16,2.27l0,.12A.84.84,0,0,0,895.88,658Z" transform="translate(-878.63 -418.19)"/><path class="cls-13" d="M896,658a.82.82,0,0,0,0-.26.56.56,0,0,0,0-.12,4.37,4.37,0,0,0-3.2-2.16,2.58,2.58,0,0,1-2.13-2.12l-.22-10.79,5.33-.1Z" transform="translate(-878.63 -418.19)"/><path class="cls-12" d="M895.66,642.66a19.37,19.37,0,0,0-5.95,1,4.26,4.26,0,0,1-1.12-2.73c-.06-2.87,2.81-5.33,6.7-5.41s7.31,2.27,7.37,5.13a4.19,4.19,0,0,1-1,2.77A19.34,19.34,0,0,0,895.66,642.66Z" transform="translate(-878.63 -418.19)"/><path class="cls-11" d="M993.45,536.32" transform="translate(-878.63 -418.19)"/><rect class="cls-4" x="988.79" y="542.85" width="17.73" height="9.33" rx="1.52" transform="matrix(-0.98, -0.18, 0.18, -0.98, 999.69, 850.08)"/><polygon class="cls-14" points="39.03 181.32 67.84 136.79 72.67 129.32 115.79 62.67 119.71 65.2 78.22 129.32 73.4 136.79 42.95 183.84 39.03 181.32"/></g></svg>